<?xml version="1.0" encoding="utf-8"?>
<!-- Generator: Adobe Illustrator 22.0.1, SVG Export Plug-In . SVG Version: 6.00 Build 0)  -->
<svg version="1.1" id="WatchFace" xmlns="http://www.w3.org/2000/svg" xmlns:xlink="http://www.w3.org/1999/xlink" x="0px" y="0px"
	 viewBox="0 0 212 212" style="enable-background:new 0 0 212 212;" xml:space="preserve">
<style type="text/css">
	.st0{fill:#7D7D7D;}
	.st1{fill:#FFFFFF;}
	.st2{fill:#686868;}
	.st3{fill:#FFF200;}
	.st4{fill:url(#SVGID_1_);}
	.st5{fill:url(#SVGID_2_);}
	.st6{fill:url(#SVGID_3_);}
	.st7{fill:none;stroke:#BEC0C2;stroke-width:0.5;}
	.st8{fill:#A2A09F;}
	.st9{fill:url(#screw_1_);}
	.st10{fill:url(#screw-2_1_);}
	.st11{fill:url(#screw-3_1_);}
	.st12{fill:#591725;}
	.st13{fill:#FDFDFE;}
	.st14{fill:#F9F9FA;}
	.st15{fill:#FFFFFE;}
	.st16{fill:url(#SVGID_4_);}
	.st17{fill:#EC008C;}
	.st18{fill:url(#SVGID_5_);}
	.st19{fill:url(#SVGID_6_);}
	.st20{fill:url(#SVGID_7_);}
	.st21{fill:url(#SVGID_8_);}
	.st22{fill:url(#SVGID_9_);}
	.st23{fill:url(#SVGID_10_);}
	.st24{fill:url(#SVGID_11_);}
	.st25{fill:url(#SVGID_12_);}
	.st26{fill:url(#SVGID_13_);}
	.st27{fill:url(#SVGID_14_);}
	.st28{fill:url(#SVGID_15_);}
	.st29{fill:#D3D3D3;}
	.st30{fill:#898888;}
	.st31{fill:url(#centreScrew_1_);}
</style>
<title>dial</title>
<path id="dial" class="st0" d="M212,106c0,58.5-47.5,106-106,106S0,164.5,0,106S47.5,0,106,0S212,47.5,212,106z"/>
<path id="secondMarkers" class="st1" d="M107.5,9.7h-0.8l0.1-3.3h0.8L107.5,9.7z M109.5,9.7h-0.8l0.1-3.4h0.8L109.5,9.7z M111.5,9.8
	h-0.8l0.2-3.4h0.8L111.5,9.8z M113.6,10l-0.8-0.1l0.2-3.3l0.8,0.1L113.6,10z M115.6,10.1l-0.8-0.1l0.3-3.3l0.8,0.1L115.6,10.1z
	 M117.1,14.6l-0.8-0.1l0.9-7.5l0.8,0.1L117.1,14.6z M119.6,10.6l-0.8-0.1l0.4-3.3l0.8,0.1L119.6,10.6z M121.6,10.9l-0.8-0.1l0.5-3.3
	l0.8,0.1L121.6,10.9z M123.6,11.3l-0.8-0.1l0.6-3.3l0.8,0.1L123.6,11.3z M125.6,11.6l-0.8-0.1l0.7-3.3l0.8,0.2L125.6,11.6z
	 M126.7,16.3l-0.8-0.2l1.7-7.4l0.8,0.2L126.7,16.3z M129.6,12.5l-0.8-0.2l0.8-3.3l0.8,0.2L129.6,12.5z M131.5,13l-0.8-0.2l0.9-3.2
	l0.8,0.2L131.5,13z M133.5,13.6l-0.8-0.2l0.9-3.2l0.8,0.2L133.5,13.6z M135.4,14.2l-0.8-0.2l1-3.2l0.8,0.2L135.4,14.2z M136,18.9
	l-0.8-0.3l2.4-7.2l0.8,0.3L136,18.9z M139.3,15.5l-0.8-0.3l1.1-3.2l0.8,0.3L139.3,15.5z M141.2,16.2l-0.7-0.3l1.2-3.1l0.7,0.3
	L141.2,16.2z M143,17l-0.7-0.3l1.3-3.1l0.7,0.3L143,17z M144.9,17.8l-0.7-0.3l1.4-3.1l0.7,0.3L144.9,17.8z M145,22.5l-0.7-0.3
	l3.2-6.9l0.7,0.3L145,22.5z M148.6,19.5l-0.7-0.3l1.5-3l0.7,0.3L148.6,19.5z M150.4,20.4l-0.7-0.3l1.5-3l0.7,0.3L150.4,20.4z
	 M152.2,21.3l-0.7-0.4l1.6-3l0.7,0.4L152.2,21.3z M154,22.3l-0.7-0.4L155,19l0.7,0.4L154,22.3z M155.7,23.5l-0.7-0.4l1.7-2.9
	l0.7,0.4L155.7,23.5z M157.5,24.4l-0.7-0.4l1.8-2.9l0.7,0.4L157.5,24.4z M159.2,25.5l-0.7-0.4l1.8-2.8l0.7,0.4L159.2,25.5z
	 M160.8,26.7l-0.7-0.4l1.9-2.8l0.7,0.4L160.8,26.7z M162.5,27.8l-0.6-0.5l1.9-2.7l0.6,0.5L162.5,27.8z M161.6,32.5L161,32l4.5-6.1
	l0.6,0.5L161.6,32.5z M165.7,30.3l-0.6-0.5l2.1-2.7l0.6,0.5L165.7,30.3z M167.3,31.5l-0.6-0.5l2.1-2.6l0.6,0.5L167.3,31.5z
	 M168.9,32.8l-0.6-0.5l2.2-2.6l0.6,0.5L168.9,32.8z M170.4,34.2l-0.6-0.5l2.2-2.5l0.6,0.5L170.4,34.2z M169,38.7l-0.6-0.5l5.1-5.6
	l0.6,0.5L169,38.7z M173.4,36.9l-0.6-0.6l2.3-2.4l0.6,0.6L173.4,36.9z M174.9,38.4l-0.6-0.6l2.4-2.4l0.6,0.6L174.9,38.4z
	 M176.2,39.8l-0.6-0.6l2.4-2.3l0.6,0.6L176.2,39.8z M177.6,41.3l-0.5-0.6l2.5-2.3l0.5,0.6L177.6,41.3z M175.8,45.7l-0.5-0.6l5.7-5
	l0.5,0.6L175.8,45.7z M180.3,44.4l-0.5-0.6l2.6-2.2l0.5,0.6L180.3,44.4z M181.6,45.9l-0.5-0.6l2.6-2.1l0.5,0.6L181.6,45.9z
	 M182.9,47.5l-0.5-0.6l2.7-2.1l0.5,0.6L182.9,47.5z M184.1,49.1l-0.5-0.6l2.7-2l0.5,0.6L184.1,49.1z M181.8,53.3l-0.5-0.6l6.2-4.4
	L188,49L181.8,53.3z M186.4,52.5l-0.5-0.7l2.8-1.9l0.4,0.7L186.4,52.5z M187.5,54.1l-0.4-0.7l2.8-1.8l0.4,0.7L187.5,54.1z
	 M188.6,55.9l-0.4-0.7l2.9-1.8l0.4,0.7L188.6,55.9z M189.7,57.6l-0.4-0.7l2.9-1.7l0.4,0.7L189.7,57.6z M190.7,59.3l-0.4-0.7l2.8-1.6
	l0.4,0.7L190.7,59.3z M191.6,61.1l-0.4-0.7l3-1.6l0.4,0.7L191.6,61.1z M192.6,62.9l-0.3-0.7l3-1.5l0.3,0.7L192.6,62.9z M193.5,64.8
	l-0.3-0.7l3-1.5l0.3,0.7L193.5,64.8z M194.3,66.6l-0.3-0.7l3.1-1.4l0.3,0.7L194.3,66.6z M191.2,70.2l-0.3-0.7l6.9-3l0.3,0.7
	L191.2,70.2z M195.9,70.3l-0.3-0.7l3.1-1.3L199,69L195.9,70.3z M196.7,72.2l-0.3-0.7l3.1-1.2l0.3,0.7L196.7,72.2z M197.4,74.1
	l-0.3-0.7l3.2-1.1l0.3,0.8L197.4,74.1z M198,76l-0.3-0.8l3.2-1.1l0.3,0.8L198,76z M194.6,79.3l-0.2-0.8l7.2-2.3l0.2,0.8L194.6,79.3z
	 M199.2,79.9l-0.2-0.8l3.2-0.9l0.2,0.8L199.2,79.9z M199.8,81.9l-0.2-0.8l3.2-0.9L203,81L199.8,81.9z M200.3,83.8l-0.2-0.8l3.3-0.8
	l0.2,0.8L200.3,83.8z M200.7,85.8l-0.2-0.8l3.3-0.7l0.2,0.8L200.7,85.8z M196.9,88.7l-0.2-0.8l7.4-1.5l0.2,0.8L196.9,88.7z
	 M201.5,89.8l-0.1-0.8l3.3-0.6l0.1,0.8L201.5,89.8z M201.8,91.8l-0.1-0.8l3.3-0.5l0.1,0.8L201.8,91.8z M202.1,93.8L202,93l3.3-0.4
	l0.1,0.8L202.1,93.8z M202.4,95.8l-0.1-0.8l3.3-0.4l0.1,0.8L202.4,95.8z M198.3,98.3l-0.1-0.8l7.5-0.7l0.1,0.8L198.3,98.3z
	 M202.7,99.9l-0.1-0.8l3.3-0.2l0.1,0.8L202.7,99.9z M202.8,101.9v-0.8l3.4-0.2v0.8L202.8,101.9z M202.9,103.9v-0.8l3.4-0.1v0.8
	L202.9,103.9z M202.9,106v-0.8l3.4-0.1v0.8L202.9,106z M202.9,108v-0.8l3.3,0.1v0.8L202.9,108z M202.9,110v-0.8l3.4,0.1v0.8
	L202.9,110z M202.8,112v-0.8l3.4,0.2v0.8L202.8,112z M202.7,114.1l0.1-0.8l3.3,0.2l-0.1,0.8L202.7,114.1z M202.5,116.1l0.1-0.8
	l3.3,0.3l-0.1,0.8L202.5,116.1z M198,117.6l0.1-0.8l7.5,0.9l-0.1,0.8L198,117.6z M202,120.1l0.1-0.8l3.3,0.4l-0.1,0.8L202,120.1z
	 M201.7,122.1l0.1-0.8l3.3,0.5l-0.1,0.8L201.7,122.1z M201.4,124.1l0.1-0.8l3.3,0.6l-0.1,0.8L201.4,124.1z M201,126.1l0.2-0.8
	l3.3,0.7l-0.2,0.8L201,126.1z M196.4,127.2l0.2-0.8l7.4,1.6l-0.2,0.8L196.4,127.2z M200.1,130.1l0.2-0.8l3.3,0.8l-0.2,0.8
	L200.1,130.1z M199.6,132l0.2-0.8l3.2,0.9l-0.2,0.8L199.6,132z M199,134l0.2-0.8l3.2,0.9l-0.2,0.8L199,134z M198.4,135.9l0.2-0.8
	l3.2,1l-0.2,0.8L198.4,135.9z M193.7,136.5l0.3-0.8l7.2,2.4l-0.3,0.8L193.7,136.5z M197.1,139.8l0.3-0.8l3.2,1.1l-0.3,0.8
	L197.1,139.8z M196.4,141.7l0.3-0.7l3.1,1.2l-0.3,0.7L196.4,141.7z M195.6,143.6l0.3-0.7l3.1,1.3l-0.3,0.7L195.6,143.6z
	 M194.8,145.4l0.3-0.7l3.1,1.3l-0.3,0.7L194.8,145.4z M190.1,145.5l0.3-0.7l6.9,3.1l-0.3,0.7L190.1,145.5z M193.2,149.1l0.3-0.7
	l3,1.5l-0.3,0.7L193.2,149.1z M192.2,150.9l0.3-0.7l3,1.5l-0.3,0.7L192.2,150.9z M191.3,152.7l0.4-0.7l3,1.6l-0.4,0.7L191.3,152.7z
	 M190.3,154.5l0.4-0.7l2.9,1.7l-0.4,0.7L190.3,154.5z M189.2,156.2l0.4-0.7l2.9,1.7l-0.4,0.7L189.2,156.2z M188.2,158l0.4-0.7
	l2.9,1.8l-0.4,0.7L188.2,158z M187.1,159.7l0.4-0.7l2.8,1.8l-0.4,0.7L187.1,159.7z M186,161.4l0.4-0.7l2.8,1.9l-0.4,0.7L186,161.4z
	 M184.9,163l0.5-0.7l2.7,1.9l-0.5,0.6L184.9,163z M180.2,162.1l0.5-0.6l6.1,4.5l-0.5,0.6L180.2,162.1z M182.4,166.3l0.5-0.6l2.7,2.1
	l-0.5,0.6L182.4,166.3z M181.2,167.8l0.5-0.6l2.6,2.1l-0.5,0.6L181.2,167.8z M179.9,169.4l0.5-0.6l2.6,2.2l-0.5,0.6L179.9,169.4z
	 M178.5,171l0.5-0.6l2.5,2.2l-0.5,0.6L178.5,171z M174,169.5l0.5-0.6l5.6,5.1l-0.5,0.6L174,169.5z M175.8,173.9l0.6-0.6l2.4,2.3
	l-0.5,0.6L175.8,173.9z M174.4,175.4l0.6-0.6l2.4,2.4l-0.6,0.6L174.4,175.4z M172.9,176.8l0.6-0.6l2.3,2.4l-0.6,0.6L172.9,176.8z
	 M171.4,178.2l0.6-0.5l2.3,2.5l-0.6,0.5L171.4,178.2z M167,176.3l0.6-0.5l5,5.7L172,182L167,176.3z M168.3,180.9l0.6-0.5l2.2,2.6
	l-0.6,0.5L168.3,180.9z M166.8,182.1l0.6-0.5l2.1,2.6l-0.6,0.5L166.8,182.1z M165.2,183.4l0.6-0.5l2.1,2.7l-0.6,0.5L165.2,183.4z
	 M163.6,184.6l0.6-0.5l2,2.7l-0.6,0.5L163.6,184.6z M159.5,182.3l0.6-0.5l4.4,6.2l-0.7,0.5L159.5,182.3z M160.3,187l0.7-0.4l1.9,2.8
	l-0.7,0.5L160.3,187z M158.6,188.1l0.7-0.4l1.8,2.8l-0.7,0.4L158.6,188.1z M156.9,189.2l0.7-0.4l1.8,2.8l-0.7,0.4L156.9,189.2z
	 M155.1,190.2l0.7-0.4l1.7,2.9l-0.7,0.4L155.1,190.2z M153.3,191.2l0.7-0.4l1.7,2.9L155,194L153.3,191.2z M151.6,192.2l0.7-0.4
	l1.6,3l-0.7,0.4L151.6,192.2z M149.8,193.1l0.7-0.3l1.5,3l-0.7,0.3L149.8,193.1z M148,194l0.7-0.3l1.5,3l-0.7,0.3L148,194z
	 M146.1,194.9l0.7-0.3l1.4,3.1l-0.7,0.3L146.1,194.9z M142.5,191.8l0.7-0.3l3,6.9l-0.7,0.3L142.5,191.8z M142.4,196.5l0.7-0.3
	l1.3,3.1l-0.7,0.3L142.4,196.5z M140.5,197.2l0.7-0.3l1.2,3.1l-0.7,0.3L140.5,197.2z M138.6,197.9l0.8-0.3l1.1,3.2l-0.8,0.3
	L138.6,197.9z M136.7,198.6l0.8-0.3l1.1,3.2l-0.8,0.3L136.7,198.6z M133.5,195.1l0.8-0.2l2.3,7.2l-0.8,0.2L133.5,195.1z
	 M132.8,199.8l0.8-0.2l0.9,3.2l-0.8,0.2L132.8,199.8z M130.9,200.3l0.8-0.2l0.9,3.2l-0.8,0.2L130.9,200.3z M128.9,200.8l0.8-0.2
	l0.8,3.3l-0.8,0.2L128.9,200.8z M126.9,201.3l0.8-0.2l0.7,3.3l-0.8,0.2L126.9,201.3z M124.7,200.6l0.8-0.2l0.9,4.4l-0.8,0.2
	L124.7,200.6z M122.9,202.1l0.8-0.1l0.6,3.3l-0.8,0.1L122.9,202.1z M120.9,202.4l0.8-0.1l0.5,3.3l-0.8,0.1L120.9,202.4z
	 M118.9,202.7l0.8-0.1l0.5,3.3l-0.8,0.1L118.9,202.7z M116.9,203l0.8-0.1l0.4,3.3l-0.8,0.1L116.9,203z M114.8,201.9l0.8-0.1l0.4,4.5
	l-0.8,0.1L114.8,201.9z M112.9,203.3l0.8-0.1l0.2,3.3l-0.8,0.1L112.9,203.3z M110.9,203.5h0.8l0.2,3.4h-0.8L110.9,203.5z
	 M108.8,203.5h0.8l0.1,3.4h-0.8L108.8,203.5z M106.8,203.6h0.8l0.1,3.4h-0.8L106.8,203.6z M104.8,203.6h0.8l-0.1,3.2h-0.8
	L104.8,203.6z M102.7,203.5h0.8l-0.1,3.4h-0.8L102.7,203.5z M100.7,203.4h0.8l-0.2,3.4h-0.8L100.7,203.4z M98.7,203.3l0.8,0.1
	l-0.2,3.3l-0.8-0.1L98.7,203.3z M96.7,203.1l0.8,0.1l-0.3,3.3l-0.8-0.1L96.7,203.1z M94.8,201.7l0.8,0.1l-0.5,4.5l-0.8-0.1
	L94.8,201.7z M92.6,202.7l0.8,0.1l-0.5,3.3l-0.8-0.1L92.6,202.7z M90.6,202.4l0.8,0.1l-0.5,3.3l-0.8-0.1L90.6,202.4z M88.6,202
	l0.8,0.1l-0.6,3.3l-0.8-0.1L88.6,202z M86.6,201.6l0.8,0.2l-0.7,3.3l-0.8-0.2L86.6,201.6z M84.9,200l0.8,0.2l-1,4.3l-0.8-0.2
	L84.9,200z M82.7,200.7l0.8,0.2l-0.8,3.3l-0.8-0.2L82.7,200.7z M80.7,200.2l0.8,0.2l-0.9,3.2l-0.8-0.2L80.7,200.2z M78.8,199.7
	l0.8,0.2l-0.9,3.2l-0.8-0.2L78.8,199.7z M76.8,199.1l0.8,0.2l-1,3.2l-0.8-0.2L76.8,199.1z M76.2,194.4l0.8,0.3l-2.4,7.2l-0.8-0.3
	L76.2,194.4z M73,197.8l0.8,0.3l-1.1,3.2l-0.8-0.3L73,197.8z M71.1,197.1l0.7,0.3l-1.2,3.1l-0.7-0.3L71.1,197.1z M69.2,196.3
	l0.7,0.3l-1.3,3.1l-0.7-0.3L69.2,196.3z M67.3,195.5l0.7,0.3l-1.3,3.1l-0.7-0.3L67.3,195.5z M67.3,190.8l0.7,0.3l-3.1,6.9l-0.7-0.3
	L67.3,190.8z M63.6,193.8l0.7,0.3l-1.5,3l-0.7-0.3L63.6,193.8z M61.8,192.9l0.7,0.3l-1.5,3l-0.7-0.3L61.8,192.9z M60,192l0.7,0.4
	l-1.6,3l-0.7-0.4L60,192z M58.2,191l0.7,0.4l-1.6,2.9l-0.7-0.4L58.2,191z M56.4,190l0.7,0.4l-1.6,2.7l-0.7-0.4L56.4,190z
	 M54.8,188.9l0.7,0.4l-1.8,2.9l-0.7-0.4L54.8,188.9z M53,187.8l0.7,0.4l-1.8,2.8l-0.7-0.4L53,187.8z M51.4,186.7l0.7,0.4l-1.9,2.8
	l-0.7-0.4L51.4,186.7z M49.7,185.5l0.7,0.5l-1.9,2.7l-0.6-0.5L49.7,185.5z M50.6,180.9l0.6,0.5l-4.5,6.1l-0.6-0.5L50.6,180.9z
	 M46.4,183.1l0.6,0.5l-2,2.7l-0.6-0.5L46.4,183.1z M44.9,181.9l0.6,0.5l-2.1,2.6l-0.6-0.5L44.9,181.9z M43.3,180.6l0.6,0.5l-2.2,2.6
	l-0.6-0.5L43.3,180.6z M41.8,179.2l0.6,0.5l-2.2,2.5l-0.6-0.5L41.8,179.2z M43.2,174.7l0.6,0.5l-5.1,5.6l-0.6-0.5L43.2,174.7z
	 M38.8,176.5l0.6,0.5l-2.3,2.4l-0.6-0.5L38.8,176.5z M37.3,175l0.6,0.6l-2.4,2.4l-0.6-0.6L37.3,175z M35.9,173.6l0.6,0.6l-2.4,2.3
	l-0.6-0.6L35.9,173.6z M34.6,172.1l0.5,0.6l-2.5,2.3l-0.5-0.6L34.6,172.1z M36.4,167.7l0.5,0.6l-5.7,5l-0.5-0.6L36.4,167.7z
	 M31.9,169.1l0.5,0.6l-2.6,2.2l-0.5-0.6L31.9,169.1z M30.6,167.5l0.5,0.6l-2.6,2.1l-0.5-0.6L30.6,167.5z M29.3,165.9l0.5,0.6
	l-2.7,2.1l-0.5-0.6L29.3,165.9z M28.1,164.3l0.5,0.6l-2.7,2l-0.5-0.6L28.1,164.3z M30.4,160.1l0.5,0.6l-6.2,4.4l-0.5-0.7L30.4,160.1
	z M25.7,161l0.5,0.7l-2.8,1.9l-0.5-0.7L25.7,161z M24.6,159.3L25,160l-2.8,1.8l-0.4-0.7L24.6,159.3z M23.5,157.6l0.4,0.7l-2.8,1.8
	l-0.4-0.7L23.5,157.6z M22.5,155.8l0.4,0.7l-2.9,1.7l-0.4-0.7L22.5,155.8z M21.5,154.1l0.4,0.7l-2.9,1.6l-0.4-0.7L21.5,154.1z
	 M20.5,152.3l0.4,0.7l-3,1.6l-0.4-0.7L20.5,152.3z M19.6,150.5l0.4,0.7l-3,1.6l-0.3-0.7L19.6,150.5z M18.7,148.7l0.3,0.7l-3,1.5
	l-0.3-0.7L18.7,148.7z M17.8,146.9l0.3,0.7L15,149l-0.3-0.7L17.8,146.9z M20.9,143.3l0.3,0.7l-6.9,3l-0.3-0.7L20.9,143.3z
	 M16.2,143.1l0.3,0.7l-3.1,1.3l-0.3-0.7L16.2,143.1z M15.4,141.2l0.3,0.7l-3.1,1.2l-0.3-0.7L15.4,141.2z M14.7,139.4l0.3,0.8
	l-3.2,1.2l-0.3-0.8L14.7,139.4z M14.1,137.4l0.3,0.8l-3.2,1.1l-0.3-0.8L14.1,137.4z M17.6,134.2l0.2,0.8l-7.2,2.3l-0.2-0.8
	L17.6,134.2z M12.9,133.6l0.2,0.8l-3.2,0.9l-0.2-0.8L12.9,133.6z M12.3,131.6l0.2,0.8l-3.2,0.9l-0.2-0.8L12.3,131.6z M11.8,129.6
	l0.2,0.8l-3.3,0.8l-0.2-0.8L11.8,129.6z M11.4,127.7l0.2,0.8l-3.3,0.7l-0.2-0.8L11.4,127.7z M15.2,124.8l0.2,0.8L8,127.1l-0.2-0.8
	L15.2,124.8z M10.6,123.7l0.1,0.8l-3.3,0.6l-0.1-0.8L10.6,123.7z M10.2,121.7l0.1,0.8L7,123l-0.1-0.8L10.2,121.7z M9.9,119.7
	l0.1,0.8L6.7,121l-0.1-0.8L9.9,119.7z M9.7,117.7l0.1,0.8l-3.3,0.4l-0.1-0.8L9.7,117.7z M13.8,115.2l0.1,0.8l-7.5,0.7l-0.1-0.8
	L13.8,115.2z M9.3,113.6l0.1,0.8L6,114.7v-0.8L9.3,113.6z M9.2,111.6v0.8l-3.4,0.2v-0.8L9.2,111.6z M9.1,109.6v0.8l-3.4,0.1v-0.8
	L9.1,109.6z M9.1,107.5v0.8l-3.4,0.1v-0.8L9.1,107.5z M9,105.5v0.8H5.8v-0.8H9z M9.1,103.5v0.8l-3.4-0.1v-0.8L9.1,103.5z M9.2,101.5
	v0.8l-3.4-0.2v-0.8L9.2,101.5z M9.3,99.5l-0.1,0.8L5.9,100L6,99.2L9.3,99.5z M9.5,97.4l-0.1,0.8l-3.3-0.3l0.1-0.8L9.5,97.4z
	 M14,95.9l-0.1,0.8l-7.5-0.8l0.1-0.8L14,95.9z M10,93.4l-0.1,0.8l-3.3-0.4V93L10,93.4z M10.3,91.4l-0.1,0.8l-3.3-0.5L7,90.9
	L10.3,91.4z M10.6,89.4l-0.1,0.8l-3.3-0.6l0.1-0.8L10.6,89.4z M11,87.4l-0.2,0.8l-3.3-0.7l0.2-0.8L11,87.4z M15.6,86.3l-0.2,0.8
	L8,85.5l0.2-0.8L15.6,86.3z M11.9,83.4l-0.2,0.8l-3.3-0.8l0.2-0.8L11.9,83.4z M12.4,81.5l-0.2,0.8l-3.3-0.9l0.2-0.8L12.4,81.5z
	 M12.9,79.5l-0.2,0.8l-3.2-0.9l0.2-0.8L12.9,79.5z M13.5,77.6l-0.2,0.8l-3.2-1l0.2-0.8L13.5,77.6z M18.2,77l-0.3,0.8l-7.2-2.4
	l0.3-0.8L18.2,77z M14.8,73.8l-0.3,0.7l-3.2-1.1l0.3-0.8L14.8,73.8z M15.5,71.9l-0.3,0.7l-3.1-1.2l0.3-0.7L15.5,71.9z M16.2,70
	l-0.3,0.7l-3.1-1.3l0.3-0.7L16.2,70z M17,68.1l-0.3,0.7l-3.1-1.3l0.3-0.7L17,68.1z M21.8,68l-0.3,0.7l-6.9-3.1l0.3-0.7L21.8,68z
	 M18.7,64.4l-0.3,0.7l-3-1.5l0.3-0.7L18.7,64.4z M19.6,62.6l-0.3,0.7l-3-1.5l0.3-0.7L19.6,62.6z M20.5,60.8l-0.4,0.7l-3-1.6l0.4-0.7
	L20.5,60.8z M21.5,59l-0.4,0.7l-2.9-1.6l0.4-0.7L21.5,59z M22.6,57.3L22.2,58l-2.9-1.7l0.4-0.7L22.6,57.3z M23.6,55.5l-0.4,0.7
	l-2.9-1.8l0.4-0.7L23.6,55.5z M24.7,53.8l-0.4,0.7l-2.8-1.8l0.4-0.7L24.7,53.8z M25.8,52.1l-0.4,0.7l-2.8-1.9l0.4-0.7L25.8,52.1z
	 M27,50.5l-0.4,0.7l-2.7-1.9l0.5-0.7L27,50.5z M31.6,51.4L31.2,52l-6.1-4.5l0.5-0.6L31.6,51.4z M29.4,47.2l-0.5,0.6l-2.7-2.1
	l0.5-0.6L29.4,47.2z M30.6,45.6l-0.5,0.6l-2.6-2.1l0.5-0.6L30.6,45.6z M31.9,44.1l-0.5,0.6l-2.6-2.2l0.5-0.6L31.9,44.1z M33.3,42.5
	l-0.5,0.6l-2.5-2.2l0.5-0.6L33.3,42.5z M37.8,43.9l-0.5,0.6l-5.6-5.1l0.5-0.6L37.8,43.9z M36,39.5l-0.5,0.6L33,37.8l0.5-0.6L36,39.5
	z M37.4,38.1l-0.6,0.6l-2.4-2.4l0.6-0.6L37.4,38.1z M38.9,36.7l-0.6,0.6L36,34.8l0.6-0.6L38.9,36.7z M40.4,35.3l-0.6,0.5l-2.3-2.5
	l0.6-0.5L40.4,35.3z M44.7,37.1l-0.6,0.5l-5-5.7l0.6-0.5L44.7,37.1z M43.4,32.6l-0.6,0.5l-2.2-2.6l0.6-0.5L43.4,32.6z M45,31.3
	l-0.6,0.5l-2.1-2.6l0.6-0.5L45,31.3z M46.5,30l-0.6,0.5l-2.1-2.6l0.6-0.5L46.5,30z M48.2,28.8l-0.6,0.5l-2-2.7l0.7-0.5L48.2,28.8z
	 M52.3,31.1l-0.6,0.5l-4.4-6.1L48,25L52.3,31.1z M51.5,26.4l-0.7,0.5l-1.9-2.8l0.7-0.5L51.5,26.4z M53.2,25.3l-0.7,0.4l-1.8-2.8
	l0.7-0.4L53.2,25.3z M54.9,24.2l-0.7,0.4l-1.8-2.8l0.7-0.4L54.9,24.2z M56.6,23.2l-0.7,0.4l-1.7-2.9l0.7-0.4L56.6,23.2z M58.4,22.2
	l-0.7,0.4l-1.6-2.8l0.7-0.4L58.4,22.2z M60.2,21.2l-0.7,0.4l-1.6-3l0.7-0.4L60.2,21.2z M61.9,20.2l-0.7,0.4l-1.5-3l0.7-0.3
	L61.9,20.2z M63.7,19.3L63,19.7l-1.5-3l0.7-0.3L63.7,19.3z M65.6,18.5l-0.7,0.3l-1.4-3.1l0.7-0.3L65.6,18.5z M69.2,21.6l-0.7,0.3
	l-3-6.9l0.7-0.3L69.2,21.6z M69.3,16.8l-0.7,0.3L67.3,14l0.7-0.3L69.3,16.8z M71.2,16.1l-0.7,0.3l-1.2-3.1L70,13L71.2,16.1z
	 M73.1,15.4l-0.7,0.3l-1.2-3.2l0.7-0.3L73.1,15.4z M75,14.7L74.2,15l-1.1-3.2l0.8-0.3L75,14.7z M78.3,18.2l-0.8,0.2l-2.3-7.2L76,11
	L78.3,18.2z M78.9,13.5l-0.8,0.2l-1-3.2l0.8-0.2L78.9,13.5z M80.8,13L80,13.2L79.1,10l0.8-0.2L80.8,13z M82.8,12.5L82,12.7l-0.8-3.3
	L82,9.2L82.8,12.5z M84.8,12L84,12.2l-0.7-3.3L84,8.7L84.8,12z M87.6,15.8L86.9,16l-1.5-7.4l0.8-0.2L87.6,15.8z M88.8,11.2L88,11.4
	L87.4,8l0.8-0.1L88.8,11.2z M90.8,10.9L90,11l-0.5-3.3l0.8-0.1L90.8,10.9z M92.8,10.6L92,10.7l-0.5-3.3l0.8-0.1L92.8,10.6z
	 M94.8,10.3L94,10.4l-0.4-3.3L94.4,7L94.8,10.3z M97.2,14.4l-0.8,0.1L95.7,7l0.8-0.1L97.2,14.4z M98.8,9.9L98,10l-0.3-3.3l0.8-0.1
	L98.8,9.9z M100.8,9.8H100l-0.2-3.4l0.8-0.1L100.8,9.8z M102.9,9.7h-0.8L102,6.4h0.8L102.9,9.7z M105.3,6.3h-0.8v3.4h0.8V6.3z
	 M85.2,196.4l-1.1-0.3c-0.1,0-0.2,0-0.3,0c-0.1,0-0.1,0.1-0.1,0.2c0,0.1,0,0.1,0,0.2c0.1,0.1,0.1,0.1,0.2,0.1l0.6,0.2
	c0.2,0,0.4,0.1,0.5,0.3s0.1,0.4,0,0.5c0,0.2-0.1,0.4-0.3,0.5c-0.2,0.1-0.4,0.1-0.6,0l-1.2-0.3l0.1-0.4l1.2,0.3c0.1,0,0.2,0,0.3,0
	c0.1,0,0.1-0.1,0.1-0.2c0-0.1,0-0.2,0-0.2c-0.1-0.1-0.1-0.1-0.2-0.1l-0.5-0.1c-0.2,0-0.4-0.1-0.5-0.3s-0.1-0.4-0.1-0.5
	c0-0.2,0.2-0.4,0.3-0.5c0.2-0.1,0.4-0.1,0.6,0l1.2,0.3L85.2,196.4z M86,196.2l0.5,0.1l0.2,1.8l0.8-1.6l0.6,0.1l0.1,1.8l0.8-1.6
	l0.5,0.1l-1.2,2.1l-0.6-0.1l-0.1-1.8l-0.8,1.6l-0.6-0.1L86,196.2z M90.4,199.4l-0.5-0.1l0.4-2.2l0.5,0.1L90.4,199.4z M93.6,198
	l-1.2-0.2c-0.1,0-0.2,0-0.3,0c-0.1,0-0.1,0.1-0.1,0.2c0,0.1,0,0.1,0,0.2c0.1,0.1,0.1,0.1,0.2,0.1l0.6,0.1c0.2,0,0.4,0.1,0.5,0.2
	c0.1,0.2,0.1,0.3,0.1,0.5s-0.1,0.4-0.3,0.5c-0.2,0.1-0.4,0.1-0.6,0.1l-1.3-0.2l0.1-0.4l1.2,0.2c0.1,0,0.2,0,0.3,0
	c0.1,0,0.1-0.1,0.1-0.2c0-0.1,0-0.2,0-0.2c-0.1-0.1-0.2-0.1-0.3-0.1l-0.6-0.1c-0.2,0-0.4-0.1-0.5-0.2c-0.1-0.1-0.2-0.3-0.1-0.5
	c0-0.2,0.1-0.4,0.3-0.5c0.2-0.1,0.4-0.1,0.6-0.1l1.2,0.2L93.6,198z M96.6,198.3l-1.2-0.1c-0.1,0-0.2,0-0.3,0
	c-0.1,0.1-0.1,0.1-0.1,0.2c0,0.1,0,0.1,0.1,0.2c0.1,0.1,0.1,0.1,0.2,0.1l0.6,0.1c0.2,0,0.4,0.1,0.5,0.2c0.1,0.1,0.1,0.3,0.1,0.5
	s-0.1,0.4-0.2,0.5c-0.2,0.1-0.4,0.1-0.6,0.1l-1.3-0.1v-0.4l1.2,0.1c0.1,0,0.2,0,0.3,0c0.1-0.1,0.1-0.3,0.1-0.4
	c-0.1-0.1-0.2-0.1-0.3-0.1l-0.6-0.1c-0.2,0-0.4-0.1-0.6-0.2c-0.1-0.1-0.2-0.3-0.1-0.5c0-0.2,0.1-0.4,0.3-0.5
	c0.2-0.1,0.4-0.1,0.6-0.1l1.2,0.1L96.6,198.3z M114.8,197.8l0.7-0.1l0.7,1.7l0.5-1.8l0.7-0.1l0.2,2.3h-0.5L117,198l-0.4,1.8h-0.5
	l-0.7-1.7l0.2,1.8h-0.5L114.8,197.8z M118.9,197.5l0.5-0.1l1.2,2.1l-0.5,0.1l-0.3-0.5l-1,0.1l-0.1,0.6l-0.5,0.1L118.9,197.5z
	 M119.2,197.9l-0.2,0.9l0.7-0.1L119.2,197.9z M121.1,197.2l1-0.2c0.3-0.1,0.6,0,0.8,0.2c0.2,0.2,0.4,0.5,0.4,0.8c0,0.2,0,0.4,0,0.5
	c-0.1,0.3-0.2,0.5-0.5,0.6c-0.1,0.1-0.3,0.1-0.4,0.1l-1,0.2L121.1,197.2z M122.2,197.4l-0.5,0.1l0.2,1.5l0.5-0.1
	c0.2,0,0.3-0.1,0.4-0.2c0.1-0.4,0-0.8-0.2-1.2C122.5,197.4,122.3,197.4,122.2,197.4L122.2,197.4z M125,196.9c-0.1,0-0.3,0.1-0.3,0.2
	c-0.1,0.1-0.1,0.3-0.1,0.4l1.3-0.3l0.1,0.4l-1.3,0.3c0,0.2,0.1,0.3,0.2,0.4c0.1,0.1,0.3,0.1,0.4,0l0.8-0.2l0.1,0.4l-0.8,0.2
	c-0.1,0-0.3,0-0.4,0s-0.2,0-0.3-0.1c-0.1-0.1-0.2-0.2-0.3-0.3c-0.1-0.2-0.2-0.3-0.2-0.5c-0.1-0.3-0.1-0.6,0.1-0.9
	c0.2-0.2,0.4-0.4,0.7-0.4l0.8-0.2l0.1,0.4L125,196.9z"/>
<g id="chronoDials">
	<circle id="chronoDial" class="st2" cx="155.6" cy="101.1" r="23.6"/>
	<circle id="chronoDial-2" class="st2" cx="57.3" cy="101.1" r="23.6"/>
	<circle id="chronoDial-3" class="st2" cx="106.4" cy="156.3" r="23.6"/>
</g>
<g id="chronoRings">
	<path id="chronoRing" class="st3" d="M90,101.1c0,18.1-14.7,32.8-32.8,32.8s-32.8-14.7-32.8-32.8s14.7-32.8,32.8-32.8l0,0
		C75.4,68.3,90,83,90,101.1z M57.3,77.4C44.2,77.4,33.7,88,33.7,101c0,13.1,10.6,23.6,23.6,23.6S80.9,114,80.9,101l0,0
		C80.9,88,70.3,77.4,57.3,77.4L57.3,77.4z"/>
	<path id="chronoRing-2" class="st3" d="M188.4,101.1c0,18.1-14.7,32.8-32.8,32.8s-32.8-14.7-32.8-32.8s14.7-32.8,32.8-32.8l0,0
		C173.7,68.3,188.4,83,188.4,101.1L188.4,101.1z M155.6,77.4C142.5,77.4,132,88,132,101c0,13.1,10.6,23.6,23.6,23.6
		c13.1,0,23.6-10.6,23.6-23.6l0,0C179.3,88,168.7,77.4,155.6,77.4L155.6,77.4z"/>
	<path id="chronoRing-3" class="st3" d="M139.2,156.3c0,18.1-14.7,32.8-32.8,32.8s-32.8-14.7-32.8-32.8s14.7-32.8,32.8-32.8l0,0
		C124.5,123.5,139.2,138.2,139.2,156.3L139.2,156.3z M106.4,132.7c-13,0-23.6,10.6-23.6,23.6s10.6,23.6,23.6,23.6
		s23.6-10.6,23.6-23.6l0,0C130,143.2,119.4,132.7,106.4,132.7z"/>
</g>
<g id="chronoRingsMetallic">
	
		<linearGradient id="SVGID_1_" gradientUnits="userSpaceOnUse" x1="15586.1445" y1="14370.1494" x2="15051.7744" y2="14904.5205" gradientTransform="matrix(8.700220e-02 0 0 8.700220e-02 -1226.4414 -1117.1222)">
		<stop  offset="0" style="stop-color:#CCD2D6"/>
		<stop  offset="8.000000e-02" style="stop-color:#C9CFD3"/>
		<stop  offset="0.16" style="stop-color:#BFC5CA"/>
		<stop  offset="0.23" style="stop-color:#AFB6BA"/>
		<stop  offset="0.25" style="stop-color:#AAB2B6"/>
		<stop  offset="0.25" style="stop-color:#B0B7BA"/>
		<stop  offset="0.3" style="stop-color:#CBD1D4"/>
		<stop  offset="0.33" style="stop-color:#E1E5E8"/>
		<stop  offset="0.37" style="stop-color:#EFF4F6"/>
		<stop  offset="0.4" style="stop-color:#F4FBFE"/>
		<stop  offset="0.63" style="stop-color:#F4FBFE"/>
		<stop  offset="0.75" style="stop-color:#979DA1"/>
		<stop  offset="0.83" style="stop-color:#B0B7BC"/>
		<stop  offset="0.85" style="stop-color:#92979C"/>
		<stop  offset="0.87" style="stop-color:#7C8085"/>
		<stop  offset="0.89" style="stop-color:#6F7478"/>
		<stop  offset="0.91" style="stop-color:#6B7074"/>
		<stop  offset="0.92" style="stop-color:#717579"/>
		<stop  offset="0.95" style="stop-color:#808488"/>
		<stop  offset="0.97" style="stop-color:#9CA0A5"/>
		<stop  offset="1" style="stop-color:#CBD1D5"/>
		<stop  offset="1" style="stop-color:#CCD2D6"/>
	</linearGradient>
	<path class="st4" d="M139.2,156.3c0,18.1-14.7,32.8-32.8,32.8s-32.8-14.7-32.8-32.8s14.7-32.8,32.8-32.8l0,0
		C124.5,123.5,139.2,138.2,139.2,156.3L139.2,156.3z M106.4,132.7c-13,0-23.6,10.6-23.6,23.6s10.6,23.6,23.6,23.6
		s23.6-10.6,23.6-23.6l0,0C130,143.2,119.4,132.7,106.4,132.7z"/>
	
		<linearGradient id="SVGID_2_" gradientUnits="userSpaceOnUse" x1="16154.3877" y1="13732.9473" x2="15620.0186" y2="14267.3076" gradientTransform="matrix(8.700220e-02 0 0 8.700220e-02 -1226.4414 -1117.1222)">
		<stop  offset="0" style="stop-color:#CCD2D6"/>
		<stop  offset="8.000000e-02" style="stop-color:#C9CFD3"/>
		<stop  offset="0.16" style="stop-color:#BFC5CA"/>
		<stop  offset="0.23" style="stop-color:#AFB6BA"/>
		<stop  offset="0.25" style="stop-color:#AAB2B6"/>
		<stop  offset="0.25" style="stop-color:#B0B7BA"/>
		<stop  offset="0.3" style="stop-color:#CBD1D4"/>
		<stop  offset="0.33" style="stop-color:#E1E5E8"/>
		<stop  offset="0.37" style="stop-color:#EFF4F6"/>
		<stop  offset="0.4" style="stop-color:#F4FBFE"/>
		<stop  offset="0.63" style="stop-color:#F4FBFE"/>
		<stop  offset="0.75" style="stop-color:#979DA1"/>
		<stop  offset="0.83" style="stop-color:#B0B7BC"/>
		<stop  offset="0.85" style="stop-color:#92979C"/>
		<stop  offset="0.87" style="stop-color:#7C8085"/>
		<stop  offset="0.89" style="stop-color:#6F7478"/>
		<stop  offset="0.91" style="stop-color:#6B7074"/>
		<stop  offset="0.92" style="stop-color:#717579"/>
		<stop  offset="0.95" style="stop-color:#808488"/>
		<stop  offset="0.97" style="stop-color:#9CA0A5"/>
		<stop  offset="1" style="stop-color:#CBD1D5"/>
		<stop  offset="1" style="stop-color:#CCD2D6"/>
	</linearGradient>
	<path class="st5" d="M188.4,101.1c0,18.1-14.7,32.8-32.8,32.8s-32.8-14.7-32.8-32.8s14.7-32.8,32.8-32.8l0,0
		C173.7,68.3,188.4,83,188.4,101.1L188.4,101.1z M155.6,77.4C142.5,77.4,132,88,132,101c0,13.1,10.6,23.6,23.6,23.6
		c13.1,0,23.6-10.6,23.6-23.6l0,0C179.3,88,168.7,77.4,155.6,77.4L155.6,77.4z"/>
	
		<linearGradient id="SVGID_3_" gradientUnits="userSpaceOnUse" x1="15021.7607" y1="13734.5693" x2="14487.3906" y2="14268.9297" gradientTransform="matrix(8.700220e-02 0 0 8.700220e-02 -1226.4414 -1117.1222)">
		<stop  offset="0" style="stop-color:#CCD2D6"/>
		<stop  offset="8.000000e-02" style="stop-color:#C9CFD3"/>
		<stop  offset="0.16" style="stop-color:#BFC5CA"/>
		<stop  offset="0.23" style="stop-color:#AFB6BA"/>
		<stop  offset="0.25" style="stop-color:#AAB2B6"/>
		<stop  offset="0.25" style="stop-color:#B0B7BA"/>
		<stop  offset="0.3" style="stop-color:#CBD1D4"/>
		<stop  offset="0.33" style="stop-color:#E1E5E8"/>
		<stop  offset="0.37" style="stop-color:#EFF4F6"/>
		<stop  offset="0.4" style="stop-color:#F4FBFE"/>
		<stop  offset="0.63" style="stop-color:#F4FBFE"/>
		<stop  offset="0.75" style="stop-color:#979DA1"/>
		<stop  offset="0.83" style="stop-color:#B0B7BC"/>
		<stop  offset="0.85" style="stop-color:#92979C"/>
		<stop  offset="0.87" style="stop-color:#7C8085"/>
		<stop  offset="0.89" style="stop-color:#6F7478"/>
		<stop  offset="0.91" style="stop-color:#6B7074"/>
		<stop  offset="0.92" style="stop-color:#717579"/>
		<stop  offset="0.95" style="stop-color:#808488"/>
		<stop  offset="0.97" style="stop-color:#9CA0A5"/>
		<stop  offset="1" style="stop-color:#CBD1D5"/>
		<stop  offset="1" style="stop-color:#CCD2D6"/>
	</linearGradient>
	<path class="st6" d="M90,101.1c0,18.1-14.7,32.8-32.8,32.8s-32.8-14.7-32.8-32.8s14.7-32.8,32.8-32.8l0,0C75.4,68.3,90,83,90,101.1
		z M57.3,77.4C44.2,77.4,33.7,88,33.7,101c0,13.1,10.6,23.6,23.6,23.6S80.9,114,80.9,101l0,0C80.9,88,70.3,77.4,57.3,77.4L57.3,77.4
		z"/>
	<circle class="st7" cx="155.6" cy="101.1" r="30.4"/>
	<ellipse class="st7" cx="155.6" cy="101.1" rx="29.6" ry="29.6"/>
	<circle class="st7" cx="155.6" cy="101.1" r="28.9"/>
	<circle class="st7" cx="155.6" cy="101.1" r="28.2"/>
	<circle class="st7" cx="155.6" cy="101.1" r="27.5"/>
	<circle class="st7" cx="155.6" cy="101.1" r="26.8"/>
	<circle class="st7" cx="155.6" cy="101.1" r="25.9"/>
	<circle class="st7" cx="155.9" cy="100.6" r="25.3"/>
	<ellipse class="st7" cx="155.7" cy="101.1" rx="24.5" ry="24.5"/>
	<circle class="st7" cx="57.3" cy="101.1" r="31.7"/>
	<circle class="st7" cx="57.3" cy="101.1" r="30.4"/>
	<circle class="st7" cx="57.3" cy="101.1" r="29.6"/>
	<circle class="st7" cx="57.3" cy="101.1" r="28.9"/>
	<circle class="st7" cx="57.3" cy="101.1" r="28.2"/>
	<circle class="st7" cx="57.3" cy="101.1" r="27.5"/>
	<circle class="st7" cx="57.3" cy="101.1" r="26.8"/>
	<circle class="st7" cx="57.3" cy="101.1" r="25.9"/>
	<circle class="st7" cx="57.3" cy="101.1" r="25.2"/>
	<circle class="st7" cx="57.3" cy="101.1" r="24.5"/>
	<circle class="st7" cx="106.4" cy="156.3" r="31.7"/>
	<circle class="st7" cx="106.4" cy="156.3" r="30.4"/>
	<circle class="st7" cx="106.4" cy="156.3" r="29.6"/>
	<circle class="st7" cx="106.4" cy="156.3" r="28.9"/>
	<circle class="st7" cx="106.4" cy="156.3" r="28.2"/>
	<circle class="st7" cx="106.4" cy="156.3" r="27.5"/>
	<circle class="st7" cx="106.4" cy="156.3" r="26.8"/>
	<circle class="st7" cx="106.4" cy="156.3" r="25.9"/>
	<circle class="st7" cx="106.4" cy="156.3" r="25.2"/>
	<circle class="st7" cx="106.4" cy="156.3" r="24.5"/>
	<ellipse class="st7" cx="155.6" cy="101.1" rx="31.7" ry="31.7"/>
</g>
<path id="chronoMarkers" d="M98.3,128.5c-0.2-1.4,0.8-1.8,3.1-2.2c2-0.3,3.4-0.5,3.5,0.9l-1.6,0.3c-0.1-0.6-0.6-0.6-1.8-0.4
	c-1.5,0.2-1.8,0.3-1.6,1.2l0.1,0.8l0,0c0.2-0.5,1-0.7,1.9-0.8c2.4-0.4,3.2-0.3,3.4,0.9c0.2,1.3-0.6,1.7-3.1,2.2
	c-2.6,0.4-3.4,0.3-3.7-1.4L98.3,128.5z M100.2,129.9c0.1,0.8,0.3,0.9,1.9,0.6c1.5-0.2,1.8-0.3,1.7-1.1c-0.1-0.7-0.5-0.7-1.9-0.4
	C100.6,129.2,100.1,129.3,100.2,129.9L100.2,129.9z M113.6,128.7l-0.1,0.9c-0.2,1.8-1.3,1.9-4,1.6s-3.7-0.8-3.4-2.6l0.1-0.9
	c0.2-1.7,0.9-2,4-1.6C112.9,126.5,113.9,127,113.6,128.7L113.6,128.7z M111.9,129.7l0.2-1.4c0.1-1-0.3-1.1-1.9-1.3
	c-1.7-0.2-2.1-0.2-2.2,0.8l-0.2,1.4c-0.1,1,0.3,1.1,1.9,1.3S111.7,130.7,111.9,129.7L111.9,129.7z M129,167.6l2.2-6.4l0.9,0.3
	c1.2,0.4,1,1.3,0.5,3.3c-0.4,1.7-0.6,2.1,0.2,2.4c0.6,0.2,0.8-0.1,1.3-1.3c0.5-1.5,0.6-1.7-0.4-2.1l0.5-1.5c1.2,0.4,1.7,0.8,0.6,3.9
	c-0.7,2-1.3,3.1-2.5,2.6c-1.2-0.4-1.1-1.2-0.6-3.4c0.4-1.6,0.6-2.1-0.1-2.3l-0.2-0.1l-1.7,4.9L129,167.6z M127,175.6l-0.7-0.5
	c-1.5-1-1.1-2,0.5-4.2c1.6-2.2,2.4-2.9,3.9-1.8l0.8,0.5c1.4,1,1.3,1.7-0.5,4.2C129.3,176,128.5,176.7,127,175.6L127,175.6z
	 M127,173.6l1.1,0.8c0.8,0.6,1.1,0.3,2.1-1.1c1-1.4,1.2-1.7,0.3-2.3l-1.1-0.8c-0.8-0.6-1.1-0.3-2.1,1.1
	C126.4,172.7,126.2,173,127,173.6L127,173.6z M83.6,171.3l-0.7-0.8l0.6-0.5l0.7,0.8l0.8-0.7l1,1.3l-0.8,0.7l3.1,3.8l-0.8,0.7
	l-4.8-1.3l-1.6-2L83.6,171.3z M82.7,174.2L82.7,174.2l4.2,1.1l-2.2-2.7L82.7,174.2z M78.8,163.7l0.8-0.3c1.7-0.7,2.3,0.1,3.4,2.6
	s1.2,3.5-0.5,4.2l-0.9,0.3c-1.5,0.7-2.2,0.2-3.4-2.6C77.2,165.5,77.1,164.4,78.8,163.7L78.8,163.7z M80.4,164.8l-1.3,0.5
	c-0.9,0.4-0.8,0.8-0.2,2.3c0.7,1.6,0.9,1.9,1.8,1.5l1.3-0.5c1-0.4,0.8-0.8,0.2-2.3C81.6,164.7,81.4,164.4,80.4,164.8L80.4,164.8z
	 M29.4,97.7c-0.7,0-0.7,0.4-0.8,1.8c-0.1,1.4-0.1,1.9,0.8,1.9h0.8l0,0c-0.4-0.4-0.4-1.1-0.4-2.3c0.1-1.9,0.3-3,1.7-2.9
	c1.2,0.1,1.5,0.8,1.4,3.5c-0.2,3-0.6,3.5-2.3,3.4l-1.4-0.1c-1.3-0.1-1.4-1.4-1.3-3.6c0.1-2,0.2-3.5,1.6-3.4L29.4,97.7z M31.5,97.9
	c-0.7,0-0.7,0.2-0.8,1.7c-0.1,1.6,0,1.9,0.6,1.9c0.7,0,0.8-0.5,0.9-1.8C32.2,98.1,32.2,97.9,31.5,97.9z M54.1,127.1
	c0-1.4,1-1.7,3.4-1.7c2.1,0,3.4,0,3.4,1.4h-1.6c0-0.6-0.5-0.6-1.7-0.6c-1.5,0-1.8,0.1-1.8,0.9v0.8l0,0c0.3-0.4,1.1-0.5,2-0.5
	c2.4,0,3.2,0.1,3.2,1.4c0,1.4-0.8,1.7-3.4,1.7c-2.7,0-3.4-0.2-3.5-1.9L54.1,127.1z M55.7,128.9c0,0.8,0.2,0.9,1.8,0.9
	c1.5,0,1.8,0,1.8-0.8c0-0.7-0.3-0.7-1.8-0.7C56.2,128.2,55.7,128.2,55.7,128.9L55.7,128.9z M54.7,75.9l-1.6,0.3L52.4,72l-2.1,1.7
	l-1.1-0.4l2.6-2l2-0.3L54.7,75.9z M63.6,76.4l-6.8-0.8l0.1-1c0.1-1.3,1.1-1.3,3.1-1.2c1.8,0,2.2,0.2,2.3-0.7
	c0.1-0.7-0.3-0.8-1.6-0.9c-1.6-0.2-1.8-0.2-2,0.8l-1.6-0.2c0.1-1.2,0.4-1.8,3.7-1.4c2.1,0.2,3.3,0.6,3.1,1.9s-0.9,1.4-3.2,1.3
	c-1.6-0.1-2.1-0.1-2.2,0.6V75l5.1,0.6L63.6,76.4z M84.2,99.1c-0.9,0-0.9,0.3-0.9,1.8s0,1.9,0.7,1.9c0.5,0,0.7-0.2,0.7-1.2v-1.3h0.7
	v1.3c0,0.9,0.2,1,0.8,1c0.5,0,0.5-0.4,0.5-1.8c0-1.5-0.1-1.7-0.9-1.7v-1.6c1.4,0,1.6,0.9,1.7,3.3c0,1.7,0,3.4-1.3,3.4
	c-0.6,0-1.1-0.2-1.2-1.4l0,0c0,1.2-0.4,1.6-1.1,1.6c-1.4,0-1.5-1.3-1.5-3.6c0-2.3,0.1-3.4,1.7-3.4L84.2,99.1z M149.6,74.7
	c0.1,0.9,0.4,0.9,1.9,0.7c1.5-0.2,1.9-0.3,1.8-1c-0.1-0.5-0.3-0.7-1.3-0.5l-1.3,0.2l-0.1-0.7l1.3-0.2c0.9-0.1,1-0.4,0.9-1
	c-0.1-0.5-0.5-0.5-1.9-0.2c-1.5,0.2-1.6,0.3-1.5,1.1l-1.6,0.3c-0.2-1.4,0.7-1.8,3-2.2c1.7-0.3,3.4-0.5,3.6,0.8
	c0.1,0.6,0,1.1-1.2,1.4l0,0c1.2-0.1,1.6,0.2,1.7,0.8c0.2,1.4-1,1.7-3.3,2s-3.4,0.5-3.6-1.2L149.6,74.7z M163.1,73.6l-0.1,0.9
	c-0.2,1.8-1.3,1.9-4,1.6c-2.7-0.4-3.7-0.8-3.4-2.6l0.1-0.9c0.2-1.7,0.9-2,4-1.6C162.3,71.4,163.3,71.8,163.1,73.6L163.1,73.6z
	 M161.3,74.5l0.2-1.4c0.1-1-0.3-1.1-1.9-1.3c-1.7-0.2-2.1-0.2-2.2,0.8l-0.2,1.4c-0.1,1,0.3,1.1,1.9,1.3
	C160.8,75.5,161.1,75.5,161.3,74.5L161.3,74.5z M178.9,110.9l0.5-1.5l4,1.4l-0.5-2.6l0.9-0.7l0.5,3.2l-0.7,2L178.9,110.9z
	 M176.4,120.5l-0.7-0.5c-1.5-1-1.1-2,0.5-4.2s2.4-2.9,3.9-1.8l0.8,0.5c1.4,1,1.3,1.7-0.5,4.2C178.7,120.9,177.9,121.5,176.4,120.5
	L176.4,120.5z M176.5,118.5l1.1,0.8c0.8,0.6,1.1,0.3,2.1-1.1s1.2-1.7,0.3-2.3l-1.1-0.8c-0.8-0.6-1.1-0.3-2.1,1.1
	C175.8,117.5,175.6,117.9,176.5,118.5L176.5,118.5z M134,114.5l4.3,5.3l-0.7,0.6c-1,0.8-1.7,0.2-3.1-1.3c-1.3-1.3-1.5-1.7-2.2-1.1
	c-0.5,0.4-0.3,0.8,0.5,1.8c1,1.2,1.2,1.4,2,0.8l1,1.3c-0.9,0.8-1.5,1-3.6-1.5c-1.3-1.6-1.9-2.7-0.9-3.5s1.6-0.3,3.2,1.3
	c1.1,1.2,1.4,1.6,2,1.1l0.1-0.1l-3.3-4L134,114.5z M128.2,108.6l0.8-0.3c1.7-0.7,2.3,0.1,3.4,2.6s1.2,3.5-0.5,4.2l-0.9,0.3
	c-1.5,0.6-2.2,0.2-3.4-2.6C126.7,110.3,126.5,109.3,128.2,108.6z M129.9,109.6l-1.3,0.5c-0.9,0.4-0.8,0.8-0.2,2.3s0.9,1.9,1.8,1.5
	l1.3-0.5c1-0.4,0.8-0.8,0.2-2.3C131,109.6,130.8,109.2,129.9,109.6L129.9,109.6z M94.1,136.1l0.6-0.3l-3.3-5.6
	c-0.2,0.1-0.4,0.2-0.6,0.3L94.1,136.1z M132.4,141l-5.6,3.3c0.1,0.2,0.2,0.4,0.3,0.6l5.6-3.3C132.6,141.4,132.5,141.2,132.4,141
	L132.4,141z M118,135.7c0.2,0.1,0.4,0.2,0.6,0.3l3.3-5.6c-0.2-0.1-0.4-0.2-0.6-0.3L118,135.7z M82.8,156.3c0-0.2,0-0.3,0-0.5h-6.5
	c0,0.2,0,0.3,0,0.5v0.1h6.5C82.8,156.4,82.8,156.3,82.8,156.3L82.8,156.3z M130,156.3c0,0.1,0,0.2,0,0.3h6.5c0-0.1,0-0.3,0-0.4
	s0-0.2,0-0.3H130C130,156.1,130,156.2,130,156.3L130,156.3z M106.6,186.4v-6.5h-0.2c-0.1,0-0.3,0-0.4,0v6.5c0.1,0,0.3,0,0.4,0H106.6
	z M118.7,176.5c-0.2,0.1-0.4,0.2-0.6,0.3l3.3,5.6c0.2-0.1,0.4-0.2,0.6-0.3L118.7,176.5z M94.6,176.7c-0.2-0.1-0.4-0.2-0.6-0.3
	l-3.3,5.6c0.2,0.1,0.4,0.2,0.6,0.3L94.6,176.7z M80.2,141.3l5.6,3.3c0.1-0.2,0.2-0.4,0.3-0.6l-5.6-3.3
	C80.5,140.9,80.4,141.1,80.2,141.3z M45.2,80.8l0.6-0.3l-3.3-5.8L41.9,75L45.2,80.8z M68.6,80.3c0.2,0.1,0.4,0.2,0.6,0.3l3.3-5.8
	c-0.2-0.1-0.4-0.2-0.6-0.3L68.6,80.3z M30.7,86.5l5.8,3.3c0.1-0.2,0.2-0.4,0.3-0.6L31,85.9C30.9,86.1,30.8,86.3,30.7,86.5z
	 M83.5,85.8l-5.8,3.3c0.1,0.2,0.2,0.4,0.3,0.6l5.8-3.3C83.7,86.1,83.6,86,83.5,85.8L83.5,85.8z M31.1,116.3l5.8-3.3
	c-0.1-0.2-0.2-0.4-0.3-0.6l-5.8,3.3C30.9,116,31,116.2,31.1,116.3z M83.7,115.9l-5.8-3.3c-0.1,0.2-0.2,0.4-0.3,0.6l5.8,3.3
	C83.5,116.3,83.6,116.1,83.7,115.9z M45.8,121.7l-0.6-0.3l-3.3,5.8l0.6,0.3L45.8,121.7z M69.1,121.5c-0.2,0.1-0.4,0.2-0.6,0.3
	l3.3,5.8c0.2-0.1,0.4-0.2,0.6-0.3L69.1,121.5z M129.1,86.4l5.8,3.3c0.1-0.2,0.2-0.4,0.3-0.6l-5.8-3.3
	C129.3,86,129.2,86.2,129.1,86.4z M181.8,85.7L176,89c0.1,0.2,0.2,0.4,0.3,0.6l5.8-3.3C182,86.1,181.9,85.9,181.8,85.7L181.8,85.7z
	 M155.9,131.4v-6.7h-0.2c-0.1,0-0.3,0-0.4,0v6.7c0.1,0,0.3,0,0.4,0H155.9z M180.7,98.4c0,0.2,0,0.4,0.1,0.7l3.7-0.3
	c0-0.2,0-0.4-0.1-0.7L180.7,98.4z M145.1,78.2l0.6-0.3l-1.5-3.4c-0.2,0.1-0.4,0.2-0.6,0.3L145.1,78.2z M140.6,80.9
	c0.2-0.1,0.3-0.3,0.5-0.4l-2.2-3c-0.2,0.1-0.3,0.2-0.5,0.4L140.6,80.9z M131.6,93.5c0.1-0.2,0.1-0.4,0.2-0.6l-3.5-1.2
	c-0.1,0.2-0.1,0.4-0.2,0.6L131.6,93.5z M170.3,80.6l0.5,0.4l2.2-3l-0.5-0.4L170.3,80.6z M183.1,92.2l-3.6,1.1
	c0.1,0.2,0.1,0.4,0.2,0.6l3.6-1.1C183.3,92.6,183.2,92.4,183.1,92.2z M174.3,84.2c0.1,0.2,0.3,0.3,0.4,0.5l2.8-2.4
	c-0.1-0.2-0.3-0.3-0.4-0.5L174.3,84.2z M165.6,78l0.6,0.3l1.5-3.4l-0.6-0.3L165.6,78z M130.6,98.6c0-0.2,0-0.4,0.1-0.7l-3.7-0.4
	c0,0.2-0.1,0.4-0.1,0.6L130.6,98.6z M134.1,81.8l2.7,2.5c0.1-0.2,0.3-0.3,0.4-0.5l-2.7-2.5C134.4,81.5,134.2,81.7,134.1,81.8
	L134.1,81.8z M161,125.6c-0.2,0-0.4,0.1-0.6,0.1l0.8,3.6l0.6-0.1L161,125.6z M170.5,121.4c-0.2,0.1-0.3,0.3-0.5,0.4l2.2,3l0.5-0.4
	L170.5,121.4z M130.6,103.8c0-0.2,0-0.4-0.1-0.7l-3.7,0.3c0,0.2,0,0.4,0.1,0.7L130.6,103.8z M184.4,104l-3.7-0.4
	c0,0.2-0.1,0.4-0.1,0.7l3.7,0.4C184.3,104.4,184.3,104.2,184.4,104z M166,124c-0.2,0.1-0.4,0.2-0.6,0.3l1.5,3.4
	c0.2-0.1,0.4-0.2,0.6-0.3L166,124z M150.6,125.7c-0.2,0-0.4-0.1-0.6-0.1l-0.8,3.6c0.2,0,0.4,0.1,0.6,0.1L150.6,125.7z M140.8,121.4
	c-0.2-0.1-0.3-0.3-0.5-0.4l-2.2,3c0.2,0.1,0.3,0.3,0.5,0.4L140.8,121.4z M145.4,124c-0.2-0.1-0.4-0.2-0.6-0.3l-1.5,3.4l0.6,0.3
	L145.4,124z"/>
<g id="chronoHands">
	<path id="chronoHand" class="st8" d="M156.8,96.5V75.8l-1.1-3.8l-1.1,3.8v20.7c-2.6,0.6-4.1,3.2-3.5,5.8c0.6,2.6,3.2,4.1,5.8,3.5
		s4.1-3.2,3.5-5.8C159.8,98.2,158.5,96.9,156.8,96.5L156.8,96.5z"/>
	<path id="chronoHand-2" class="st8" d="M58.4,96.5V75.8L57.3,72l-1.1,3.8v20.7c-2.6,0.6-4.1,3.2-3.5,5.8c0.6,2.6,3.2,4.1,5.8,3.5
		s4.1-3.2,3.5-5.8C61.5,98.2,60.2,96.9,58.4,96.5L58.4,96.5z"/>
	<path id="chronoHand-3" class="st8" d="M107.5,151.6v-20.7l-1.1-3.8l-1.1,3.8v20.7c-2.6,0.6-4.1,3.2-3.5,5.8s3.2,4.1,5.8,3.5
		s4.1-3.2,3.5-5.8C110.5,153.3,109.2,152,107.5,151.6L107.5,151.6z"/>
</g>
<g id="screws">
	
		<radialGradient id="screw_1_" cx="15890.2705" cy="14004.5098" r="21.67" gradientTransform="matrix(8.700220e-02 0 0 8.700220e-02 -1226.4414 -1117.1222)" gradientUnits="userSpaceOnUse">
		<stop  offset="0" style="stop-color:#FFFFFF"/>
		<stop  offset="0.14" style="stop-color:#C9C9C9"/>
		<stop  offset="0.31" style="stop-color:#8D8D8D"/>
		<stop  offset="0.48" style="stop-color:#5B5B5B"/>
		<stop  offset="0.64" style="stop-color:#333333"/>
		<stop  offset="0.78" style="stop-color:#171717"/>
		<stop  offset="0.91" style="stop-color:#060606"/>
		<stop  offset="1" style="stop-color:#000000"/>
	</radialGradient>
	<circle id="screw" class="st9" cx="155.5" cy="101.1" r="1.9"/>
	
		<radialGradient id="screw-2_1_" cx="3178.7559" cy="-1841.3909" r="21.67" gradientTransform="matrix(0.348 0 0 -0.348 -875.6324 -926.5587)" gradientUnits="userSpaceOnUse">
		<stop  offset="0" style="stop-color:#FFFFFF"/>
		<stop  offset="0.14" style="stop-color:#C9C9C9"/>
		<stop  offset="0.31" style="stop-color:#8D8D8D"/>
		<stop  offset="0.48" style="stop-color:#5B5B5B"/>
		<stop  offset="0.64" style="stop-color:#333333"/>
		<stop  offset="0.78" style="stop-color:#171717"/>
		<stop  offset="0.91" style="stop-color:#060606"/>
		<stop  offset="1" style="stop-color:#000000"/>
	</radialGradient>
	<circle id="screw-2" class="st10" cx="57.2" cy="101.2" r="1.9"/>
	
		<radialGradient id="screw-3_1_" cx="3745.446" cy="-1207.9608" r="21.68" gradientTransform="matrix(0.348 0 0 -0.348 -875.6324 -926.5587)" gradientUnits="userSpaceOnUse">
		<stop  offset="0" style="stop-color:#FFFFFF"/>
		<stop  offset="0.14" style="stop-color:#C9C9C9"/>
		<stop  offset="0.31" style="stop-color:#8D8D8D"/>
		<stop  offset="0.48" style="stop-color:#5B5B5B"/>
		<stop  offset="0.64" style="stop-color:#333333"/>
		<stop  offset="0.78" style="stop-color:#171717"/>
		<stop  offset="0.91" style="stop-color:#060606"/>
		<stop  offset="1" style="stop-color:#000000"/>
	</radialGradient>
	<circle id="screw-3" class="st11" cx="106.3" cy="156.1" r="1.9"/>
</g>
<g id="daytonaText">
	<path class="st12" d="M87.1,124.2l2.5-1.3c1.4-0.7,2.2-0.8,2.6,0.1l0.4,0.7c0.3,0.6,0.3,1.4-1.3,2.2l-2.7,1.4L87.1,124.2z
		 M91.1,125.4c0.7-0.3,0.7-0.8,0.5-1.2l-0.4-0.7c-0.3-0.5-0.6-0.5-1.4-0.1l-1.5,0.8l1.1,2.1L91.1,125.4z"/>
	<path class="st12" d="M94.5,123.8l-0.1,0.7l-1.1,0.3l0.8-3.9l1.6-0.5l3,2.7l-1.1,0.3l-0.6-0.5L94.5,123.8z M95,121.2L95,121.2
		l-0.4,2l1.9-0.6L95,121.2z"/>
	<path class="st12" d="M101.3,121.4l0.2,1.3l-1.1,0.2l-0.2-1.3l-2.4-1.8l1.3-0.2l1.6,1.2l0,0l1.2-1.7l1.3-0.2L101.3,121.4z"/>
	<path class="st12" d="M106.2,122.4h-1.1l-0.1-2.9h-1.7V119l4.6-0.1v0.6h-1.7L106.2,122.4z"/>
	<path class="st12" d="M113.3,120.7l-0.1,0.9c-0.1,1.1-0.9,1.2-2.7,1c-1.8-0.2-2.4-0.5-2.3-1.6l0.1-0.9c0.1-1,0.8-1.2,2.6-1
		C112.6,119.4,113.4,119.6,113.3,120.7z M109.4,120.3l-0.1,0.9c-0.1,0.7,0.1,0.8,1.3,0.9c1,0.1,1.4,0.1,1.5-0.6l0.1-0.9
		c0.1-0.6-0.3-0.7-1.3-0.9C109.7,119.6,109.5,119.7,109.4,120.3z"/>
	<path class="st12" d="M118.7,121l1.1,0.3l-1,3.3L117,124l-1.6-3.5l0,0l-0.7,2.8l-1.1-0.3l1-3.3l1.8,0.5l1.6,3.5l0,0L118.7,121z"/>
	<path class="st12" d="M120.8,124.8l-0.6,0.4l-1-0.5l3.3-2.2l1.5,0.7l0.2,4l-1-0.5v-0.8L120.8,124.8z M122.9,123.3L122.9,123.3
		l-1.7,1.1l1.8,0.9L122.9,123.3z"/>
</g>
<g id="logo">
	<g id="logo-2">
		<path class="st13" d="M111.2,41h0.9v5.1h-0.9v0.5h6.4v-2.2h-0.5V45c0,0.1,0,0.3,0,0.4c0,0.2-0.1,0.3-0.3,0.5
			c-0.2,0.2-0.4,0.3-0.6,0.3c-0.1,0-0.2,0-0.3,0h-2.3v-2.5h0.4c0.2,0,0.3,0,0.5,0c0.3,0,0.6,0.3,0.6,0.6c0,0.2,0,0.3,0,0.5h0.4v-2.5
			h-0.4c0,0.2,0,0.3,0,0.5c-0.1,0.3-0.3,0.5-0.6,0.5c-0.2,0-0.3,0-0.5,0h-0.4V41h2.3c0.1,0,0.2,0,0.4,0c0.2,0,0.3,0.1,0.5,0.2
			c0.2,0.2,0.3,0.4,0.3,0.7c0,0.2,0,0.5,0,0.7h0.5v-2.1h-6.4V41L111.2,41z M94.9,45.3c0-0.1-0.1-0.3-0.1-0.4
			c-0.1-0.5-0.5-0.9-0.9-1.1c-0.1-0.1-0.2-0.1-0.4-0.1l0,0h0.1l0.3-0.1c0.3-0.1,0.6-0.4,0.8-0.7c0.1-0.1,0.1-0.3,0.2-0.4
			c0.1-0.3,0.1-0.5,0-0.8c-0.1-0.5-0.5-0.8-1-1c-0.3-0.1-0.7-0.1-1-0.1h-4.5V41h0.9v5.1h-0.9v0.5h3.4v-0.5h-0.9v-2.4
			c0.7,0,1.5,0,2,0.2c0.6,0.3,0.8,1.1,1,1.9c0,0.2,0.1,0.3,0.1,0.5c0,0.1,0,0.2,0.1,0.3h2.1c0-0.2,0-0.3,0-0.5h-0.7
			C95.1,45.9,95,45.6,94.9,45.3L94.9,45.3z M93.2,42.7c-0.2,0.2-0.5,0.4-0.7,0.5c-0.2,0-0.5,0-0.7,0h-1.2V41h1.2
			c0.3,0,0.5,0,0.8,0.1c0.4,0.1,0.7,0.4,0.8,0.7c0,0.1,0,0.2,0,0.3C93.4,42.3,93.3,42.5,93.2,42.7L93.2,42.7z M125.5,46.1
			c-0.3-0.2-0.5-0.4-0.7-0.7l-1.2-1.3c-0.2-0.3-0.5-0.6-0.7-0.9c0,0,0.1-0.1,0.1-0.2l0.5-0.5c0.3-0.3,0.6-0.6,0.9-1
			c0.1-0.2,0.3-0.3,0.5-0.4c0.2-0.1,0.5-0.1,0.7-0.1v-0.4H123V41c0.2,0,0.7,0,0.8,0.1s-0.1,0.4-0.2,0.5l-1,1.1l-0.1-0.1
			c-0.1-0.1-0.2-0.2-0.3-0.3l-0.7-0.8c-0.1-0.1-0.2-0.2-0.1-0.3l0.1-0.1h0.6v-0.4h-3.3V41c0.2,0,0.3,0,0.5,0
			c0.3,0.2,0.5,0.4,0.7,0.7l1.7,2l-1.5,1.7c-0.1,0.1-0.2,0.2-0.3,0.3c-0.1,0.2-0.3,0.3-0.5,0.4c-0.3,0.1-0.5,0.1-0.8,0.1v0.4h2.8
			v-0.4h-0.5c-0.1,0-0.2,0-0.2,0s-0.1,0-0.1-0.1c-0.1-0.2,0.2-0.4,0.3-0.5c0.4-0.5,0.8-0.9,1.2-1.4l0,0l1.2,1.4
			c0.1,0.1,0.4,0.4,0.3,0.5l-0.1,0.1c-0.1,0-0.1,0-0.2,0h-0.4v0.4h3.5v-0.4C126,46.2,125.7,46.2,125.5,46.1L125.5,46.1z M103,42.4
			c-0.5-1-1.4-1.7-2.4-1.9c-0.3-0.1-0.6-0.1-0.9-0.1h-0.4c-0.2,0-0.5,0.1-0.7,0.2c-1,0.3-1.7,1-2.1,2c-0.1,0.2-0.1,0.4-0.2,0.6
			c-0.1,0.5,0,1,0.2,1.5c0,0.1,0.1,0.2,0.1,0.3c0.3,0.6,0.9,1.2,1.5,1.5c0.2,0.1,0.3,0.1,0.5,0.2c0.4,0.1,0.7,0.2,1.1,0.2h0.4
			c0.2,0,0.5-0.1,0.7-0.1c1-0.3,1.8-1,2.2-1.9c0.2-0.4,0.2-0.8,0.2-1.2c0-0.1,0-0.2,0-0.3C103.2,42.9,103.1,42.7,103,42.4L103,42.4z
			 M101.8,43.7v0.2c0,0.2-0.1,0.3-0.1,0.5c-0.2,0.8-0.6,1.4-1.3,1.7c-0.2,0-0.3,0.1-0.5,0.1c-0.1,0-0.2,0-0.3,0h-0.2
			c-0.2,0-0.4-0.1-0.6-0.3c-0.4-0.3-0.8-0.8-0.9-1.3c0-0.1-0.1-0.3-0.1-0.4c-0.1-0.4-0.1-0.8,0-1.2c0.2-0.8,0.5-1.4,1.2-1.7
			c0.1-0.1,0.3-0.1,0.5-0.1c0.1,0,0.2,0,0.2,0c0.2,0,0.5,0,0.7,0.1c0.8,0.3,1.2,0.9,1.4,1.7c0,0.1,0,0.3,0.1,0.4L101.8,43.7
			L101.8,43.7L101.8,43.7z M109.7,44.6c0,0.3,0,0.6-0.1,0.9c-0.1,0.3-0.4,0.5-0.7,0.6c-0.3,0-0.5,0-0.8,0h-1.5V41h0.9v-0.5h-3.4V41
			h0.9v5.1h-0.9v0.5h6.1v-2.3h-0.5C109.7,44.4,109.7,44.5,109.7,44.6L109.7,44.6z"/>
	</g>
	<g id="logo-3">
		<path class="st14" d="M72.1,58.3L72.1,58.3c0,0.2,0,0.2,0.1,0.3s0.2,0.1,0.2,0.2c0.1,0.1,0.2,0.1,0.3,0.1c0.1,0,0.3,0.1,0.4,0.1
			c0.3,0,0.5,0,0.7-0.2c0.1-0.1,0.2-0.3,0.2-0.5c0-0.1,0-0.2-0.1-0.2c0-0.1-0.1-0.1-0.2-0.1s-0.1-0.1-0.2-0.1s-0.2,0-0.3,0h-0.5
			c-0.2,0-0.3,0-0.5-0.1s-0.3-0.2-0.4-0.3c-0.1-0.2-0.2-0.4-0.1-0.6c0-0.2,0-0.3,0.1-0.5c0.1-0.1,0.2-0.3,0.3-0.3
			c0.1-0.1,0.3-0.2,0.4-0.2c0.2-0.1,0.4-0.1,0.5-0.1s0.3,0,0.4,0s0.2,0.1,0.3,0.1c0.1,0,0.1,0.1,0.2,0.1H74h0.1c0,0,0,0,0.1-0.1h0.1
			L74,56.7h-0.1v-0.1c0,0,0-0.1-0.1-0.1c-0.1-0.1-0.1-0.1-0.2-0.1s-0.2-0.1-0.3-0.1c-0.1,0-0.2,0-0.3,0c-0.2,0-0.5,0.1-0.7,0.2
			c-0.2,0.1-0.3,0.3-0.2,0.5c0,0.1,0,0.2,0.1,0.2c0,0.1,0.1,0.1,0.2,0.1s0.1,0.1,0.2,0.1s0.2,0,0.3,0h0.5c0.2,0,0.3,0,0.5,0.1
			s0.3,0.2,0.4,0.3c0.1,0.2,0.2,0.4,0.1,0.6c0,0.1,0,0.3-0.1,0.4c-0.1,0.1-0.1,0.3-0.3,0.4c-0.1,0.1-0.3,0.2-0.4,0.3
			c-0.4,0.1-0.7,0.1-1.1,0c-0.1,0-0.2-0.1-0.3-0.1c-0.1,0-0.2-0.1-0.2-0.1s-0.1-0.1-0.2-0.1c0,0-0.1,0-0.1,0.1h-0.1L72.1,58.3
			L72.1,58.3z"/>
		<path class="st14" d="M74.9,55.8L74.9,55.8L74.9,55.8l0.6-0.1v0.1h-0.1v0.1v2.2c0,0.2,0.1,0.4,0.2,0.6c0.4,0.2,0.9,0.2,1.3,0
			c0.2-0.1,0.2-0.4,0.2-0.6v-2.2v-0.1c0,0-0.1-0.1-0.1,0v-0.1h0.7v0.1h-0.1v0.1V58c0,0.2,0,0.5-0.1,0.7c0,0.2-0.1,0.3-0.3,0.4
			c-0.1,0.1-0.3,0.2-0.4,0.2c-0.2,0-0.4,0.1-0.6,0.1s-0.4,0-0.6-0.1c-0.2,0-0.3-0.1-0.4-0.2c-0.1-0.1-0.2-0.3-0.3-0.4
			C75,58.5,75,58.3,75,58v-2.1C75,55.9,75,55.9,74.9,55.8z"/>
		<path class="st14" d="M78.4,55.8C78.4,55.8,78.3,55.7,78.4,55.8L78.4,55.8l1.6-0.1c0.3,0,0.5,0.1,0.7,0.3s0.2,0.5,0.2,0.7
			c0,0.3-0.1,0.6-0.2,0.8c-0.2,0.2-0.5,0.3-0.7,0.3h-1.2v1.3v0.1c0,0,0.1,0.1,0.1,0v0.1h-0.7v-0.1h0.1v-0.1L78.4,55.8
			C78.4,55.9,78.4,55.9,78.4,55.8z M80,57.3c0.2,0,0.3,0,0.5-0.2c0.1-0.1,0.1-0.3,0.1-0.4c0-0.1,0-0.3-0.1-0.4
			c-0.1-0.1-0.3-0.2-0.5-0.1h-1.2v1.1L80,57.3z"/>
		<path class="st14" d="M81.4,55.8L81.4,55.8L81.4,55.8l2.1-0.1c0.1,0,0.1,0,0.2,0v-0.1h0.1v0.8h-0.1c0-0.1,0-0.1,0-0.1
			s-0.1-0.1-0.2-0.1h-1.6v1.1H83c0.1,0,0.1,0,0.2,0c0,0,0.1-0.1,0.1-0.2h0.1v0.8h-0.1c0-0.1,0-0.1,0-0.1s-0.1,0-0.2,0H82V59h1.8
			c0.1,0,0.1,0,0.2-0.1c0-0.1,0.1-0.1,0.1-0.2H84v0.8h-0.1c0-0.1-0.1-0.1-0.2-0.1h-2.4v-0.1h0.1v-0.1V56
			C81.5,55.9,81.5,55.9,81.4,55.8z"/>
		<path class="st14" d="M85,59.3C85,59.3,85.1,59.4,85,59.3L85,59.3l-0.6,0.1v-0.1h0.1v-0.1V56v-0.1c0,0-0.1-0.1-0.1,0v-0.1h1.8
			c0.3,0,0.5,0.1,0.7,0.3s0.2,0.5,0.2,0.8c0,0.2,0,0.5-0.2,0.7c-0.1,0.2-0.3,0.3-0.6,0.3l0.7,1.4c0,0.1,0.1,0.1,0.1,0.1h0.1v0.1
			h-0.8v-0.1h0.1l0,0v-0.1L86,57.8h-1v1.3C85,59.2,85,59.2,85,59.3z M86.2,57.3c0.2,0,0.3,0,0.5-0.2c0.1-0.1,0.1-0.3,0.1-0.4
			c0-0.1,0-0.2,0-0.2c0-0.1,0-0.1-0.1-0.2c-0.1,0-0.1-0.1-0.2-0.1s-0.2,0-0.3,0H85v1.1C85,57.3,86.2,57.3,86.2,57.3z"/>
		<path class="st14" d="M88.5,55.8L88.5,55.8L88.5,55.8l-0.1,3h1.8c0.1,0,0.2-0.1,0.2-0.2h0.1v0.8h-0.1c0-0.1-0.1-0.1-0.2-0.1h-2.3
			v-0.1H88v-0.1v-3.2v-0.1h-0.1v-0.1L88.5,55.8L88.5,55.8z"/>
		<path class="st14" d="M90.8,59L90.8,59v0.2c0,0.1,0,0.1,0.1,0.1v0.1h-0.6v-0.1h0.1l0,0v-0.1c0,0,0-0.1,0.1-0.2l1-2.8l0.1-0.2v-0.1
			c0-0.1,0-0.1-0.1-0.1v-0.1h0.8v0.1c0,0-0.1,0-0.1,0.1l0,0V56c0,0,0,0.1,0.1,0.2l1,2.8l0.1,0.2c0,0,0,0.1,0.1,0.1l0,0h0.1v0.1h-0.8
			v-0.1h0.1c0,0,0,0,0-0.1c0,0,0,0,0-0.1c0,0,0-0.1-0.1-0.2l-0.2-0.6H91L90.8,59z M92.3,57.9l-0.6-1.7l-0.5,1.7H92.3z"/>
		<path class="st14" d="M94,59.3L94,59.3L94,59.3l0.1-3.1h-0.9c-0.1,0-0.1,0-0.1,0v0.1H93v-0.8l0,0c0,0.1,0,0.2,0.1,0.2l0,0h2.2
			c0.1,0,0.2,0,0.2-0.1l0,0h0.1v0.8h-0.1c0-0.1,0-0.1,0-0.1h-0.1h-0.9v3v0.1c0,0,0.1,0.1,0.1,0v0.1L94,59.3L94,59.3L94,59.3z"/>
		<path class="st14" d="M96,59.3C96,59.3,96.1,59.3,96,59.3c0.1-0.1,0.1-0.1,0.1-0.2v-3.2v-0.1c0,0,0,0-0.1,0v-0.1h0.7v0.1h-0.1v0.1
			v3.2v0.1c0,0,0.1,0.1,0.1,0v0.1L96,59.3L96,59.3z"/>
		<path class="st14" d="M98,59.3L98,59.3C98.1,59.3,98.1,59.3,98,59.3c0.1-0.1,0.1-0.1,0.1-0.2V59l-1-3c0-0.1-0.1-0.1-0.1-0.2h-0.1
			v-0.1h0.8v0.1c-0.1,0-0.1,0-0.1,0.1c0,0,0,0,0,0.1c0,0,0,0,0,0.1l0.9,2.7l0.9-2.7c0,0,0,0,0-0.1c0,0,0,0,0-0.1v-0.1h-0.1v-0.1h0.8
			v0.1c0,0-0.1,0-0.1,0.1s-0.1,0.1-0.1,0.2l-1,3c0,0,0,0,0,0.1v0.1c0,0,0,0,0,0.1c0,0,0,0,0.1,0v0.1L98,59.3L98,59.3L98,59.3z"/>
		<path class="st14" d="M100.2,55.8C100.2,55.8,100.1,55.8,100.2,55.8L100.2,55.8l2.1-0.1c0.1,0,0.1,0,0.2,0v-0.1h0.1v0.8h-0.1
			c0-0.1,0-0.1,0-0.1s-0.1-0.1-0.2-0.1h-1.6v1.1h1.1c0.1,0,0.1,0,0.2,0c0,0,0.1-0.1,0.1-0.2h0.1v0.8h-0.1c0-0.1,0-0.1,0-0.1
			s-0.1,0-0.2,0h-1.1V59h1.8c0.1,0,0.1,0,0.2-0.1c0-0.1,0.1-0.1,0.1-0.2h0.1v0.8h-0.1c0-0.1-0.1-0.1-0.2-0.1h-2.4v-0.1h0.1v-0.1V56
			C100.2,55.9,100.2,55.9,100.2,55.8z"/>
		<path class="st14" d="M108.3,58.9C108.3,58.9,108.2,58.8,108.3,58.9c-0.1,0-0.1,0-0.2,0c-0.1,0.1-0.1,0.1-0.2,0.2
			c-0.1,0.1-0.2,0.1-0.4,0.2c-0.2,0.1-0.4,0.1-0.6,0.1s-0.5,0-0.7-0.1s-0.4-0.2-0.5-0.4c-0.2-0.2-0.3-0.4-0.3-0.6
			c-0.1-0.3-0.1-0.5-0.1-0.8c0-0.2,0-0.5,0.1-0.7s0.2-0.4,0.3-0.6c0.3-0.4,0.7-0.5,1.2-0.5c0.2,0,0.3,0,0.5,0.1
			c0.1,0,0.2,0.1,0.3,0.1c0.1,0,0.2,0.1,0.3,0.1c0,0,0.1,0,0.1,0.1c0,0,0,0,0.1,0l0,0l0.1,0.1l-0.3,0.7h-0.1v-0.1
			c0-0.1,0-0.1-0.1-0.1c-0.1-0.1-0.1-0.1-0.2-0.2c-0.1-0.1-0.2-0.1-0.3-0.1c-0.1,0-0.3-0.1-0.4-0.1s-0.3,0-0.4,0.1s-0.3,0.1-0.4,0.2
			c-0.1,0.1-0.2,0.3-0.3,0.4c-0.1,0.2-0.1,0.4-0.1,0.6c0,0.2,0,0.4,0.1,0.6c0.1,0.2,0.2,0.3,0.3,0.5c0.1,0.1,0.3,0.2,0.4,0.3
			s0.3,0.1,0.5,0.1c0.1,0,0.2,0,0.3-0.1c0.1,0,0.2-0.1,0.3-0.2c0.1-0.1,0.2-0.1,0.2-0.2c0-0.1,0.1-0.1,0.1-0.2v-0.1l0.1-0.1
			L108.3,58.9L108.3,58.9z"/>
		<path class="st14" d="M111.8,59.3C111.8,59.3,111.9,59.4,111.8,59.3L111.8,59.3l-0.6,0.1v-0.1h0.1v-0.1v-1.4h-1.9v1.4v0.1
			c0,0,0.1,0.1,0.1,0v0.1h-0.7v-0.1h0.1v-0.1V56v-0.1c0,0-0.1-0.1-0.1,0v-0.1h0.7v0.1h-0.1V56v1.3h1.9V56v-0.1c0,0-0.1-0.1-0.1,0
			v-0.1h0.7v0.1h-0.1V56V59.3C111.7,59.2,111.8,59.2,111.8,59.3z"/>
		<path class="st14" d="M113.1,59.3C113.1,59.3,113.2,59.4,113.1,59.3L113.1,59.3l-0.6,0.1v-0.1h0.1v-0.1V56v-0.1c0,0-0.1-0.1-0.1,0
			v-0.1h1.8c0.3,0,0.6,0.1,0.7,0.3c0.2,0.2,0.2,0.5,0.2,0.8c0,0.2,0,0.5-0.2,0.7c-0.1,0.2-0.3,0.3-0.6,0.3l0.7,1.4
			c0,0.1,0.1,0.1,0.1,0.1h0.1v0.1h-0.8v-0.1h0.1l0,0v-0.1l-0.6-1.4h-1v1.3C113.1,59.2,113.1,59.2,113.1,59.3z M114.2,57.3
			c0.2,0,0.3,0,0.5-0.2c0.1-0.1,0.1-0.3,0.1-0.4c0-0.1,0-0.2,0-0.2c0-0.1,0-0.1-0.1-0.2c-0.1,0-0.1-0.1-0.2-0.1s-0.2,0-0.3,0h-1.1
			v1.1C113.1,57.3,114.2,57.3,114.2,57.3z"/>
		<path class="st14" d="M117.9,55.8c0.2,0.1,0.4,0.2,0.5,0.3c0.1,0.2,0.3,0.4,0.3,0.6c0.2,0.5,0.2,1.1,0,1.6
			c-0.1,0.2-0.2,0.4-0.3,0.6c-0.1,0.2-0.3,0.3-0.5,0.3c-0.4,0.2-0.9,0.2-1.3,0c-0.2-0.1-0.4-0.2-0.5-0.3c-0.1-0.2-0.3-0.4-0.3-0.6
			c-0.2-0.5-0.2-1.1,0-1.6c0.1-0.2,0.2-0.4,0.3-0.6c0.1-0.2,0.3-0.3,0.5-0.3C117,55.6,117.5,55.6,117.9,55.8z M116.4,56.5
			c-0.2,0.3-0.3,0.7-0.3,1c0,0.4,0.1,0.7,0.3,1c0.4,0.5,1.1,0.5,1.6,0.1l0.1-0.1c0.2-0.3,0.3-0.7,0.3-1c0-0.4-0.1-0.7-0.3-1
			C117.7,56,117,56,116.4,56.5C116.5,56.4,116.4,56.5,116.4,56.5z"/>
		<path class="st14" d="M121.7,58.5V56v-0.1c0,0-0.1-0.1-0.1,0v-0.1h0.6v0.1h-0.1V56v3.2v0.1c0,0,0.1,0.1,0.1,0v0.1h-0.7v-0.1
			c0.1,0,0.1,0,0.1-0.1v-0.1l0,0l-1.9-2.8v2.9v0.1c0,0,0.1,0.1,0.1,0v0.1h-0.6v-0.1h0.1v-0.1V56v-0.1c0,0,0,0-0.1,0v-0.1h0.9v0.1
			H120c0,0,0,0,0,0.1l0,0l0,0L121.7,58.5L121.7,58.5z"/>
		<path class="st14" d="M124.9,55.8c0.2,0.1,0.4,0.2,0.5,0.3c0.2,0.2,0.3,0.4,0.3,0.6c0.2,0.5,0.2,1.1,0,1.6
			c-0.1,0.2-0.2,0.4-0.3,0.6c-0.1,0.2-0.3,0.3-0.5,0.3c-0.4,0.2-0.9,0.2-1.3,0c-0.2-0.1-0.4-0.2-0.5-0.3c-0.2-0.2-0.3-0.4-0.3-0.6
			c-0.2-0.5-0.2-1.1,0-1.6c0.1-0.2,0.2-0.4,0.3-0.6c0.1-0.2,0.3-0.3,0.5-0.3C124,55.6,124.5,55.6,124.9,55.8z M123.4,56.5
			c-0.2,0.3-0.3,0.7-0.3,1c0,0.4,0.1,0.7,0.3,1c0.2,0.3,0.5,0.4,0.8,0.4s0.6-0.1,0.8-0.4c0.2-0.3,0.3-0.7,0.3-1c0-0.4-0.1-0.7-0.3-1
			C124.7,56,124,56,123.4,56.5C123.5,56.4,123.4,56.5,123.4,56.5L123.4,56.5z"/>
		<path class="st14" d="M126.2,59.3C126.3,59.3,126.3,59.3,126.2,59.3L126.2,59.3l0.1-3.3v-0.1h-0.1v-0.1h0.9v0.1
			c-0.1,0-0.1,0-0.1,0.1v0.1l0.9,2.2l0.9-2.2l0,0l0,0c0,0,0,0,0-0.1h-0.1v-0.1h0.9V56c-0.1,0-0.1,0-0.1,0v0.1v3.2v0.1h0.1v0.1h-0.7
			v-0.1c0.1,0,0.1,0,0.1,0v-0.1v-2.8l0,0l-1.1,3l-1.1-3v2.8v0.1h0.1v0.1L126.2,59.3L126.2,59.3L126.2,59.3z"/>
		<path class="st14" d="M130.3,55.8c0,0-0.1-0.1-0.1,0v-0.1h2.2c0.1,0,0.1,0,0.2,0v-0.1h0.1v0.8h-0.1c0-0.1,0-0.1,0-0.1
			s-0.1-0.1-0.2-0.1h-1.6v1.1h1.1c0.1,0,0.1,0,0.2,0c0,0,0.1-0.1,0.1-0.2h0.1v0.8H132v-0.1c0,0-0.1,0-0.2,0h-1.1V59h1.8
			c0.1,0,0.1,0,0.2-0.1c0-0.1,0.1-0.1,0.1-0.2h0.1v0.8h-0.1c0-0.1-0.1-0.1-0.2-0.1h-2.4v-0.1h0.1v-0.1V56
			C130.3,55.9,130.3,55.9,130.3,55.8z"/>
		<path class="st14" d="M134,59.3L134,59.3c0.1-0.1,0.1-0.1,0.1-0.2v-3h-0.9c-0.1,0-0.1,0-0.1,0v0.1H133v-0.8h0.1
			c0,0.1,0.1,0.2,0.1,0.2l0,0h2.2c0.1,0,0.2-0.1,0.2-0.1l0,0h0.1v0.8h-0.1c0-0.1,0-0.1,0-0.1h-0.1h-0.9v3v0.1c0,0,0.1,0.1,0.1,0v0.1
			L134,59.3L134,59.3L134,59.3z"/>
		<path class="st14" d="M136.1,55.8c0,0-0.1-0.1-0.1,0v-0.1h2.2c0.1,0,0.1,0,0.2,0v-0.1h0.1v0.8h-0.1c0-0.1,0-0.1,0-0.1
			s-0.1-0.1-0.2-0.1h-1.6v1.1h1.1c0.1,0,0.1,0,0.2,0c0,0,0.1-0.1,0.1-0.2h0.1v0.8H138c0-0.1,0-0.1,0-0.1s-0.1,0-0.2,0h-1.1V59h1.7
			c0.1,0,0.1,0,0.2-0.1c0-0.1,0.1-0.1,0.1-0.2h0.1v0.8h-0.1c0-0.1-0.1-0.1-0.2-0.1H136v-0.1h0.1v-0.1V56
			C136.1,55.9,136.1,55.9,136.1,55.8z"/>
		<path class="st14" d="M139.7,59.3c0,0,0.1,0.1,0.1,0v0.1h-0.7v-0.1h0.1v-0.1V56v-0.1c0,0-0.1-0.1-0.1,0v-0.1h1.8
			c0.3,0,0.6,0.1,0.7,0.3c0.2,0.2,0.2,0.5,0.2,0.8c0,0.2,0,0.5-0.2,0.7c-0.1,0.2-0.3,0.3-0.6,0.3l0.7,1.4c0,0.1,0.1,0.1,0.1,0.1h0.1
			v0.1h-0.8v-0.1h0.1l0,0v-0.1l-0.6-1.4h-1L139.7,59.3C139.7,59.2,139.7,59.2,139.7,59.3z M140.8,57.3c0.2,0,0.3,0,0.5-0.2
			c0.1-0.1,0.1-0.3,0.1-0.4c0-0.1,0-0.2,0-0.2c0-0.1,0-0.1-0.1-0.2c-0.1,0-0.1-0.1-0.2-0.1c-0.1,0-0.2,0-0.3,0h-1.1v1.1
			C139.7,57.3,140.8,57.3,140.8,57.3z"/>
		<path class="st14" d="M82.7,61.9c0.2,0.1,0.4,0.2,0.5,0.3c0.2,0.2,0.3,0.4,0.3,0.6c0.2,0.5,0.2,1.1,0,1.6
			c-0.1,0.2-0.2,0.4-0.3,0.6c-0.1,0.2-0.3,0.3-0.5,0.3c-0.4,0.2-0.9,0.2-1.3,0c-0.2-0.1-0.4-0.2-0.5-0.3c-0.2-0.2-0.3-0.4-0.3-0.6
			c-0.2-0.5-0.2-1.1,0-1.6c0.1-0.2,0.2-0.4,0.3-0.6c0.1-0.2,0.3-0.3,0.5-0.3C81.8,61.8,82.3,61.8,82.7,61.9z M81.2,62.7
			c-0.4,0.6-0.4,1.4,0,2.1c0.4,0.5,1.1,0.5,1.6,0.1l0.1-0.1c0.4-0.6,0.4-1.4,0-2.1C82.5,62.2,81.8,62.2,81.2,62.7
			C81.3,62.6,81.3,62.6,81.2,62.7z"/>
		<path class="st14" d="M86,64.1C86,64,86,64,86,64.1c0-0.1-0.1-0.2-0.2-0.2h-1.1v1.4v0.1c0,0,0,0,0.1,0v0.1h-0.7v-0.1h0.1v-0.1
			v-3.2V62c0,0,0,0-0.1,0v-0.1h2.3c0.1,0,0.1,0,0.2,0v-0.1h0.1v0.8h-0.1c0-0.1,0-0.1,0-0.1s-0.1-0.1-0.2-0.1h-1.7v1.1h1.1
			c0.1,0,0.1,0,0.2,0v-0.1h0.1L86,64.1L86,64.1z"/>
		<path class="st14" d="M88.8,64.1C88.8,64,88.8,64,88.8,64.1c0-0.1-0.1-0.2-0.2-0.2h-1.1v1.4v0.1h0.1v0.1H87v-0.1
			c0,0,0.1,0,0.1-0.1v-0.1V62v-0.1H87v-0.1h2.3c0.1,0,0.1,0,0.2,0v-0.1h0.1v0.8h-0.1c0-0.1,0-0.1,0-0.1s-0.1-0.1-0.2-0.1h-1.7v1.1
			h1.1c0.1,0,0.1,0,0.2,0v-0.1H89L88.8,64.1L88.8,64.1z"/>
		<path class="st14" d="M89.8,65.5L89.8,65.5L89.8,65.5l0.1-3.3v-0.1L89.8,62v-0.1h0.7V62h-0.1v0.1v3.2v0.1h0.1v0.1L89.8,65.5
			L89.8,65.5z"/>
		<path class="st14" d="M94,65.1C94,65,94,65,94,65.1c-0.1,0-0.1,0-0.2,0c-0.1,0.1-0.1,0.1-0.2,0.2s-0.2,0.1-0.4,0.2
			c-0.4,0.1-0.8,0.1-1.2-0.1c-0.2-0.1-0.4-0.2-0.5-0.4c-0.2-0.2-0.3-0.4-0.3-0.6c-0.1-0.3-0.1-0.5-0.1-0.8c0-0.2,0-0.5,0.1-0.7
			s0.2-0.4,0.3-0.6c0.1-0.2,0.3-0.3,0.5-0.4c0.2-0.1,0.5-0.2,0.7-0.1c0.2,0,0.3,0,0.5,0.1c0.1,0,0.2,0.1,0.3,0.1
			c0.1,0,0.2,0.1,0.3,0.1c0,0,0.1,0,0.1,0.1c0,0,0,0,0.1,0l0,0l0.1,0.1L93.7,63h-0.1v-0.1c0-0.1,0-0.1-0.1-0.1
			c-0.1-0.1-0.1-0.1-0.2-0.2c-0.1-0.1-0.2-0.1-0.3-0.1c-0.3-0.1-0.6-0.1-0.8,0c-0.1,0.1-0.3,0.1-0.4,0.2c-0.1,0.1-0.2,0.3-0.3,0.4
			c-0.1,0.2-0.1,0.4-0.1,0.6c0,0.2,0,0.4,0.1,0.6s0.2,0.3,0.3,0.4c0.1,0.1,0.3,0.2,0.4,0.3c0.1,0.1,0.3,0.1,0.5,0.1
			c0.1,0,0.2,0,0.3-0.1c0.1,0,0.2-0.1,0.3-0.2c0.1-0.1,0.1-0.1,0.2-0.2c0-0.1,0.1-0.1,0.1-0.2v-0.1l0.1-0.1L94,65.1L94,65.1z"/>
		<path class="st14" d="M94.7,65.5C94.7,65.5,94.8,65.5,94.7,65.5c0.1-0.1,0.1-0.1,0.1-0.2v-3.2V62c0,0,0,0-0.1,0v-0.1h0.7V62h-0.1
			v0.1v3.2v0.1c0,0,0,0,0.1,0v0.1L94.7,65.5L94.7,65.5z"/>
		<path class="st14" d="M96.3,65.1L96.3,65.1v0.2c0,0.1,0,0.1,0.1,0.1v0.1h-0.6v-0.1c0,0,0,0,0.1,0l0,0v-0.1c0,0,0-0.1,0.1-0.2
			l1-2.8l0.1-0.2V62c0-0.1,0-0.1-0.1-0.1v-0.1h0.8v0.1c0,0-0.1,0-0.1,0.1l0,0v0.1c0,0,0,0.1,0.1,0.2l1,2.8l0.1,0.2v0.1
			c0,0,0,0,0.1,0h0.1v0.1h-0.7v-0.1h0.1c0,0,0,0,0-0.1c0,0,0,0,0-0.1c0,0,0-0.1-0.1-0.2L98,64.6h-1.5L96.3,65.1z M97.8,64.1
			l-0.6-1.7l-0.5,1.7H97.8z"/>
		<path class="st14" d="M99.9,61.9L99.9,61.9L99.9,61.9l-0.1,3h1.8c0.1,0,0.2-0.1,0.2-0.2h0.1v0.8h-0.1c0-0.1-0.1-0.1-0.2-0.1h-2.3
			v-0.1h0.1v-0.1V62v-0.1c0,0-0.1-0.1-0.1,0v-0.1L99.9,61.9L99.9,61.9z"/>
		<path class="st14" d="M102.7,61.9C102.7,61.9,102.6,61.9,102.7,61.9c-0.1,0.1-0.1,0.1-0.1,0.2V65h1.8c0.1,0,0.2-0.1,0.2-0.2h0.1
			v0.8h-0.1c0-0.1-0.1-0.1-0.2-0.1H102v-0.1h0.1v-0.1v-3.2V62c0,0,0,0-0.1,0v-0.1H102.7L102.7,61.9z"/>
		<path class="st14" d="M105.2,65.5L105.2,65.5L105.2,65.5l0.1-1.5l-1-1.8c0-0.1-0.1-0.1-0.1-0.2l-0.1-0.1v-0.1h0.8v0.1
			c-0.1,0-0.1,0-0.1,0.1v0.1c0,0,0,0.1,0.1,0.1l0.7,1.3l0.8-1.4V62c0,0,0,0,0-0.1s0-0.1-0.1-0.1v-0.1h0.8v0.1c0,0-0.1,0-0.1,0.1
			s-0.1,0.1-0.1,0.2l-1,1.8v1.3v0.1h0.1v0.1L105.2,65.5L105.2,65.5L105.2,65.5z"/>
		<path class="st14" d="M111.4,65.1C111.4,65,111.3,65,111.4,65.1c-0.1,0-0.1,0-0.2,0c-0.1,0.1-0.1,0.1-0.2,0.2
			c-0.3,0.2-0.6,0.3-0.9,0.3c-0.2,0-0.5,0-0.7-0.1s-0.4-0.2-0.5-0.4c-0.2-0.2-0.3-0.4-0.3-0.6c-0.1-0.3-0.1-0.5-0.1-0.8
			c0-0.2,0-0.5,0.1-0.7s0.2-0.4,0.3-0.6c0.1-0.2,0.3-0.3,0.5-0.4c0.2-0.1,0.5-0.2,0.7-0.1c0.2,0,0.3,0,0.5,0.1
			c0.1,0,0.2,0.1,0.3,0.1c0.1,0,0.2,0.1,0.2,0.1l0.1,0.1c0,0,0,0,0.1,0l0,0l0.1,0.1L111,63h-0.1v-0.1c0-0.1,0-0.1-0.1-0.1
			c-0.1-0.1-0.1-0.1-0.2-0.2c-0.1-0.1-0.2-0.1-0.3-0.1c-0.3-0.1-0.6-0.1-0.8,0c-0.1,0.1-0.3,0.1-0.4,0.2c-0.1,0.1-0.2,0.3-0.3,0.4
			c-0.1,0.2-0.1,0.4-0.1,0.6c0,0.2,0,0.4,0.1,0.6s0.2,0.3,0.3,0.4c0.1,0.1,0.3,0.2,0.4,0.3c0.1,0.1,0.3,0.1,0.5,0.1
			c0.1,0,0.2,0,0.3-0.1c0.1,0,0.2-0.1,0.3-0.2c0.1-0.1,0.2-0.1,0.2-0.2s0.1-0.1,0.1-0.2v-0.1l0.1-0.1L111.4,65.1L111.4,65.1z"/>
		<path class="st14" d="M112.1,62C112.1,62,112,61.9,112.1,62L112.1,62l2.1-0.1c0.1,0,0.1,0,0.2,0v-0.1h0.1v0.8h-0.1
			c0-0.1,0-0.1,0-0.1s-0.1-0.1-0.2-0.1h-1.6v1.1h1.1c0.1,0,0.1,0,0.2,0c0,0,0.1-0.1,0.1-0.2h0.1v0.8H114c0-0.1,0-0.1,0-0.1
			s-0.1,0-0.2,0h-1.1v1.2h1.8c0.1,0,0.1,0,0.2-0.1c0-0.1,0.1-0.1,0.1-0.2h0.1v0.8h-0.1c0-0.1-0.1-0.1-0.2-0.1H112v-0.1h0.1v-0.1
			v-3.2C112.1,62.1,112.1,62,112.1,62z"/>
		<path class="st14" d="M115.8,65.4L115.8,65.4L115.8,65.4l-0.6,0.1v-0.1h0.1v-0.1v-3.2V62c0,0-0.1-0.1-0.1,0v-0.1h1.8
			c0.3,0,0.5,0.1,0.7,0.3s0.2,0.5,0.2,0.8c0,0.2,0,0.5-0.2,0.7c-0.1,0.2-0.3,0.3-0.6,0.3l0.7,1.4c0,0.1,0.1,0.1,0.1,0.1h0.1v0.1
			h-0.8v-0.1h0.1l0,0v-0.1l-0.6-1.4h-1v1.3L115.8,65.4z M116.9,63.5c0.2,0,0.3,0,0.4-0.1s0.1-0.3,0.1-0.4c0-0.1,0-0.2,0-0.2
			c0-0.1,0-0.1-0.1-0.2c-0.1,0-0.1-0.1-0.2-0.1s-0.2,0-0.3,0h-1.1v1.1L116.9,63.5z"/>
		<path class="st14" d="M119.3,65.5C119.3,65.5,119.4,65.5,119.3,65.5l0.1-0.2v-3h-0.9c-0.1,0-0.1,0-0.1,0s-0.1,0.1,0,0.1h-0.1v-0.8
			h0.1c0,0.1,0,0.2,0.1,0.2l0,0h2.2c0.1,0,0.2,0,0.2-0.1l0,0h0.1v0.8l0,0c0-0.1,0-0.1,0-0.1h-0.1H120v3v0.1h0.1v0.1L119.3,65.5
			L119.3,65.5L119.3,65.5z"/>
		<path class="st14" d="M121.5,65.5L121.5,65.5L121.5,65.5l0.1-3.3v-0.1c0,0-0.1-0.1-0.1,0V62h0.7v0.1h-0.1v0.1v3.2v0.1h0.1v0.1
			L121.5,65.5L121.5,65.5z"/>
		<path class="st14" d="M124.7,64.1C124.7,64,124.7,64,124.7,64.1c0-0.1-0.1-0.2-0.2-0.2h-1.1v1.4v0.1h0.1v0.1h-0.7v-0.1
			c0,0,0.1,0,0.1-0.1v-0.1V62v-0.1c0,0-0.1-0.1-0.1,0v-0.1h2.3c0.1,0,0.1,0,0.2,0v-0.1h0.1v0.8h-0.1c0-0.1,0-0.1,0-0.1
			s-0.1-0.1-0.2-0.1h-1.7v1.1h1.1c0.1,0,0.1,0,0.2,0v-0.1h0.1L124.7,64.1L124.7,64.1z"/>
		<path class="st14" d="M125.7,65.5L125.7,65.5L125.7,65.5l0.1-3.3v-0.1l-0.1-0.1v-0.1h0.7V62h-0.1v0.1v3.2v0.1h0.1v0.1L125.7,65.5
			L125.7,65.5z"/>
		<path class="st14" d="M127.2,62L127.2,62l-0.1-0.2h2.2c0.1,0,0.1,0,0.2,0v-0.1h0.1v0.8h-0.1c0-0.1,0-0.1,0-0.1s-0.1-0.1-0.2-0.1
			h-1.6v1.1h1.1c0.1,0,0.1,0,0.2,0c0,0,0.1-0.1,0.1-0.2h0.1V64h-0.1c0-0.1,0-0.1,0-0.1s-0.1,0-0.2,0h-1.1v1.2h1.8
			c0.1,0,0.1,0,0.2-0.1c0-0.1,0.1-0.1,0.1-0.2h0.1v0.8h-0.1c0-0.1-0.1-0.1-0.2-0.1h-2.4v-0.1h0.1v-0.1v-3.2
			C127.2,62.1,127.2,62,127.2,62z"/>
		<path class="st14" d="M130.3,62c0,0-0.1-0.1-0.1,0v-0.1h1.6c0.2,0,0.4,0,0.6,0.1c0.2,0.1,0.3,0.2,0.4,0.4c0.1,0.2,0.2,0.4,0.3,0.6
			c0.1,0.2,0.1,0.5,0.1,0.7s0,0.5-0.1,0.7c0,0.2-0.1,0.4-0.3,0.6c-0.1,0.2-0.2,0.3-0.4,0.4s-0.4,0.1-0.6,0.1h-1.7v-0.1h0.1v-0.1
			v-3.2C130.3,62.1,130.3,62,130.3,62z M131.8,65.1c0.3,0,0.5-0.1,0.7-0.3c0.2-0.3,0.3-0.7,0.2-1c0-0.4-0.1-0.7-0.3-1
			c-0.2-0.2-0.5-0.4-0.8-0.3h-1v2.8L131.8,65.1z"/>
		<path class="st14" d="M90,71.7C90,71.6,90,71.6,90,71.7c-0.1-0.1-0.2,0-0.2,0c-0.1,0.1-0.2,0.2-0.3,0.2c-0.1,0.1-0.3,0.2-0.5,0.2
			c-0.2,0.1-0.4,0.1-0.7,0.1c-0.3,0-0.5-0.1-0.8-0.2c-0.2-0.1-0.5-0.3-0.6-0.5c-0.2-0.2-0.3-0.5-0.4-0.7c-0.1-0.3-0.1-0.6-0.1-0.9
			s0-0.5,0.1-0.8c0.1-0.2,0.2-0.5,0.4-0.7c0.4-0.4,0.9-0.6,1.4-0.6c0.2,0,0.4,0,0.6,0.1c0.1,0,0.3,0.1,0.4,0.2
			c0.1,0,0.2,0.1,0.3,0.1c0,0,0.1,0.1,0.2,0.1c0,0,0,0,0.1,0v-0.1l0.1,0.1l-0.4,0.9h-0.1v-0.1c0-0.1,0-0.1-0.1-0.2s-0.2-0.1-0.3-0.2
			c-0.1-0.1-0.2-0.1-0.4-0.2c-0.2,0-0.3-0.1-0.5-0.1s-0.3,0-0.5,0.1s-0.3,0.2-0.4,0.3c-0.1,0.1-0.2,0.3-0.3,0.5
			c-0.1,0.2-0.1,0.5-0.1,0.7s0,0.5,0.1,0.7s0.2,0.4,0.3,0.5c0.1,0.1,0.3,0.3,0.5,0.3c0.2,0.1,0.4,0.1,0.6,0.1c0.1,0,0.3,0,0.4-0.1
			s0.2-0.1,0.3-0.2c0.1-0.1,0.2-0.2,0.3-0.2c0.1-0.1,0.1-0.1,0.1-0.2v-0.1l0.1-0.1L90,71.7L90,71.7z"/>
		<path class="st14" d="M93.2,68.1c0.2,0.1,0.4,0.2,0.6,0.4c0.2,0.2,0.3,0.4,0.4,0.7c0.1,0.3,0.1,0.6,0.1,0.9s0,0.6-0.1,0.9
			s-0.2,0.5-0.4,0.7c-0.2,0.2-0.4,0.3-0.6,0.4c-0.5,0.2-1,0.2-1.5,0c-0.2-0.1-0.4-0.2-0.6-0.4c-0.2-0.2-0.3-0.4-0.4-0.7
			c-0.1-0.3-0.1-0.6-0.1-0.9s0-0.6,0.1-0.9s0.2-0.5,0.4-0.7c0.2-0.2,0.4-0.3,0.6-0.4C92.2,67.9,92.7,67.9,93.2,68.1z M91.4,68.9
			c-0.5,0.7-0.5,1.7,0,2.4c0.5,0.5,1.3,0.6,1.9,0.1l0.1-0.1c0.5-0.7,0.5-1.7,0-2.4C92.9,68.4,92.1,68.3,91.4,68.9
			C91.5,68.9,91.5,68.9,91.4,68.9z"/>
		<path class="st14" d="M95.1,71L95.1,71c0,0.2,0,0.3,0.1,0.3c0.1,0.1,0.2,0.2,0.3,0.2c0.1,0.1,0.3,0.1,0.4,0.2
			c0.1,0,0.3,0.1,0.5,0.1c0.3,0,0.6-0.1,0.9-0.2c0.2-0.1,0.3-0.4,0.3-0.6c0-0.1,0-0.2-0.1-0.3c0-0.1-0.1-0.1-0.2-0.2
			c-0.1,0-0.2-0.1-0.3-0.1c-0.1,0-0.2,0-0.3,0h-0.6c-0.2,0-0.4,0-0.6-0.1s-0.3-0.2-0.4-0.3c-0.1-0.2-0.2-0.5-0.2-0.7s0-0.4,0.1-0.5
			c0.1-0.2,0.2-0.3,0.3-0.4c0.2-0.1,0.3-0.2,0.5-0.3C96,68,96.2,68,96.4,68s0.3,0,0.5,0c0.1,0,0.2,0.1,0.3,0.1
			c0.1,0,0.2,0.1,0.2,0.1s0.1,0,0.2,0h0.1c0,0,0,0,0.1-0.1h0.1L97.6,69h-0.1v-0.1c0-0.1,0-0.1-0.1-0.1c-0.1-0.1-0.1-0.1-0.2-0.2
			s-0.2-0.1-0.3-0.1c-0.1,0-0.3-0.1-0.4-0.1c-0.3,0-0.6,0.1-0.8,0.2c-0.2,0.1-0.3,0.3-0.3,0.6c0,0.1,0,0.2,0.1,0.2
			c0,0.1,0.1,0.1,0.2,0.1s0.2,0.1,0.3,0.1c0.1,0,0.2,0,0.3,0c0.2,0,0.4,0,0.6,0s0.4,0.1,0.6,0.1c0.2,0.1,0.3,0.2,0.4,0.3
			c0.2,0.4,0.2,0.8,0.1,1.2c-0.1,0.2-0.2,0.3-0.3,0.4c-0.1,0.1-0.3,0.2-0.5,0.3C97,72,96.7,72,96.5,72s-0.4,0-0.6-0.1
			c-0.1,0-0.3-0.1-0.4-0.2s-0.2-0.1-0.3-0.2c-0.1,0-0.1-0.1-0.2-0.1c0,0-0.1,0-0.1,0.1h-0.1l0.3-0.9C95.1,70.6,95.1,71,95.1,71z"/>
		<path class="st14" d="M98.7,72.1C98.8,72.1,98.8,72.1,98.7,72.1l0.1-0.2v-3.7v-0.1L98.7,68l0,0h1v0.1c-0.1,0-0.1,0-0.1,0.1v0.1
			l1,2.6l1-2.6l0,0l0,0v-0.1h-0.1V68h1.1v0.1c-0.1,0-0.1,0-0.1,0.1v0.1V72v0.1l0.1,0.1v0.1h-0.9v-0.1c0.1,0,0.1,0,0.1-0.1V72v-3.2
			l0,0l-1.3,3.4l-1.3-3.4l0,0V72v0.1l0.1,0.1v0.1L98.7,72.1L98.7,72.1L98.7,72.1z"/>
		<path class="st14" d="M105.9,68.1c0.2,0.1,0.4,0.2,0.6,0.4c0.2,0.2,0.3,0.4,0.4,0.7c0.2,0.6,0.2,1.3,0,1.9
			c-0.1,0.3-0.2,0.5-0.4,0.7c-0.2,0.2-0.4,0.3-0.6,0.4c-0.5,0.2-1,0.2-1.5,0c-0.2-0.1-0.4-0.2-0.6-0.4c-0.2-0.2-0.3-0.4-0.4-0.7
			c-0.1-0.3-0.1-0.6-0.1-0.9s0-0.6,0.1-0.9s0.2-0.5,0.4-0.7c0.2-0.2,0.4-0.3,0.6-0.4C104.9,67.9,105.4,67.9,105.9,68.1z M104.1,68.9
			c-0.5,0.7-0.5,1.7,0,2.4c0.5,0.5,1.3,0.6,1.9,0.1l0.1-0.1c0.5-0.7,0.5-1.7,0-2.4C105.6,68.4,104.8,68.3,104.1,68.9
			C104.2,68.9,104.2,68.9,104.1,68.9z"/>
		<path class="st14" d="M109.4,70.8L109.4,70.8l-0.1-1h0.1c0,0.2,0.1,0.2,0.2,0.2h1.3v0.1h-0.1c0,0.1,0,0.1,0,0.2V71
			c0,0.1,0,0.1,0,0.2c0,0,0.1,0,0.1,0.1v0.1c-0.3,0.3-0.6,0.5-0.9,0.6s-0.6,0.2-0.9,0.2s-0.5,0-0.8-0.1c-0.2-0.1-0.4-0.2-0.6-0.4
			c-0.2-0.2-0.3-0.4-0.4-0.7c-0.1-0.3-0.1-0.6-0.1-0.9s0-0.6,0.1-0.9s0.2-0.5,0.4-0.7c0.2-0.2,0.4-0.4,0.6-0.5s0.5-0.2,0.7-0.2
			s0.5,0,0.7,0.1c0.2,0,0.3,0.1,0.4,0.2s0.2,0.1,0.3,0.2c0,0,0.1,0.1,0.2,0.1h0.1c0,0,0,0,0-0.1l0.1,0.1l-0.4,0.8l-0.1-0.1V69
			c0-0.1,0-0.1-0.1-0.2s-0.2-0.2-0.3-0.2c-0.1-0.1-0.3-0.1-0.4-0.2c-0.2,0-0.3-0.1-0.5-0.1s-0.4,0-0.6,0.1s-0.3,0.2-0.4,0.3
			c-0.1,0.2-0.2,0.3-0.2,0.5c-0.1,0.2-0.1,0.4-0.1,0.6s0,0.5,0.1,0.7s0.2,0.4,0.3,0.5c0.1,0.1,0.3,0.2,0.4,0.3
			c0.1,0.1,0.3,0.1,0.5,0.1c0.3,0,0.5,0,0.7-0.1s0.4-0.2,0.5-0.3v-0.6h-0.7C109.5,70.6,109.4,70.7,109.4,70.8z"/>
		<path class="st14" d="M112.5,72.1L112.5,72.1l0.1,0.2h-0.8v-0.1c0,0,0.1,0,0.1-0.1V72v-3.7v-0.1l-0.1-0.1V68h2.1
			c0.3,0,0.6,0.1,0.9,0.3c0.2,0.3,0.3,0.6,0.3,0.9s-0.1,0.6-0.2,0.8c-0.2,0.2-0.4,0.4-0.7,0.4L115,72c0,0.1,0.1,0.1,0.1,0.2h0.1v0.1
			h-0.9v-0.1h0.1c0,0,0,0,0-0.1V72l-0.8-1.6h-1.1L112.5,72.1C112.4,72,112.5,72.1,112.5,72.1z M113.8,69.8c0.2,0,0.4,0,0.5-0.2
			c0.1-0.1,0.2-0.3,0.2-0.5c0-0.1,0-0.2,0-0.3c0-0.1-0.1-0.1-0.1-0.2c-0.1-0.1-0.1-0.1-0.2-0.1s-0.2,0-0.3,0h-1.3v1.3
			C112.6,69.8,113.8,69.8,113.8,69.8z"/>
		<path class="st14" d="M116.2,71.8c0,0,0,0.1-0.1,0.2v0.1c0,0.1,0,0.1,0.1,0.1v0.1h-0.8v-0.1c0,0,0,0,0.1,0c0,0,0,0,0.1,0
			c0,0,0-0.1,0.1-0.1c0,0,0-0.1,0.1-0.2l1.1-3.3l0.1-0.2v-0.1c0-0.1,0-0.1-0.1-0.1V68h0.9v0.1c-0.1,0-0.1,0-0.1,0.1v0.1
			c0,0.1,0,0.1,0.1,0.2l1.2,3.2c0,0.1,0.1,0.2,0.1,0.2s0,0.1,0.1,0.1c0,0,0,0,0.1,0h0.1v0.1h-0.9V72h0.1v-0.1v-0.1l-0.1-0.2
			l-0.2-0.6h-1.8L116.2,71.8z M117.9,70.6l-0.7-1.9l-0.6,1.9H117.9z"/>
		<path class="st14" d="M119.7,68.1L119.7,68.1L119.7,68.1l2-0.1c0.3,0,0.6,0.1,0.9,0.3c0.2,0.2,0.3,0.5,0.3,0.8s-0.1,0.7-0.3,0.9
			c-0.2,0.2-0.5,0.4-0.9,0.3h-1.4V72v0.1l0.1,0.1v0.1h-0.8v-0.1c0,0,0.1,0,0.1-0.1V72v-3.7C119.7,68.2,119.7,68.2,119.7,68.1z
			 M121.7,69.8c0.2,0,0.4,0,0.5-0.2c0.1-0.1,0.2-0.3,0.2-0.5s0-0.3-0.1-0.5c-0.2-0.1-0.4-0.2-0.5-0.1h-1.4v1.3L121.7,69.8z"/>
		<path class="st14" d="M126.9,72.1L126.9,72.1l0.1,0.2h-0.8v-0.1c0,0,0.1,0,0.1-0.1V72v-1.6h-2.2V72v0.1l0.1,0.1v0.1h-0.8v-0.1
			c0,0,0.1,0,0.1-0.1V72v-3.7v-0.1l-0.1-0.1V68h0.8v0.1c0,0-0.1,0-0.1,0.1v0.1v1.5h2.2v-1.5v-0.1l-0.1-0.1V68h0.8v0.1
			c0,0-0.1,0-0.1,0.1v0.1V72.1C126.8,72,126.8,72.1,126.9,72.1z"/>
	</g>
	<g id="logo-4">
		<path class="st15" d="M77.6,49c0.2,0.1,0.4,0.2,0.5,0.4c0.2,0.2,0.3,0.4,0.4,0.6c0.1,0.3,0.1,0.6,0.1,0.9c0,0.3,0,0.6-0.1,0.9
			c-0.1,0.2-0.2,0.5-0.4,0.6c-0.1,0.2-0.3,0.3-0.5,0.4c-0.4,0.2-0.9,0.2-1.4,0c-0.2-0.1-0.4-0.2-0.5-0.4c-0.2-0.2-0.3-0.4-0.4-0.6
			c-0.1-0.3-0.1-0.6-0.1-0.9c0-0.3,0-0.6,0.1-0.9c0.1-0.2,0.2-0.5,0.4-0.6c0.2-0.2,0.4-0.3,0.6-0.4C76.7,48.8,77.2,48.8,77.6,49
			L77.6,49z M76,49.8c-0.4,0.7-0.4,1.6,0,2.3c0.4,0.5,1.2,0.5,1.7,0.1l0.1-0.1c0.4-0.7,0.4-1.6,0-2.3C77.4,49.3,76.6,49.3,76,49.8
			C76.1,49.7,76.1,49.7,76,49.8z"/>
		<path class="st15" d="M80.5,52.8L80.5,52.8L80.5,52.8l0.1-1.5l-1.1-2c0-0.1-0.1-0.1-0.1-0.2L79.3,49v-0.1h0.9V49
			C80,49,80,49,80,49.1v0.1c0,0,0,0.1,0.1,0.1l0.8,1.4l0.8-1.5v-0.1V49c0-0.1,0-0.1-0.1-0.1v-0.1h0.8V49c-0.1,0-0.1,0-0.1,0.1
			c0,0-0.1,0.1-0.1,0.2l-1.1,2v1.4v0.1c0,0,0.1,0.1,0.1,0v0.1L80.5,52.8L80.5,52.8z"/>
		<path class="st15" d="M83.4,51.7C83.4,51.7,83.4,51.8,83.4,51.7c0,0.2,0,0.3,0.1,0.3c0.1,0.1,0.2,0.2,0.3,0.2
			c0.1,0.1,0.2,0.1,0.4,0.2c0.1,0,0.3,0.1,0.4,0.1c0.3,0,0.6-0.1,0.8-0.2c0.2-0.1,0.3-0.3,0.2-0.6c0-0.1,0-0.2-0.1-0.3
			c0-0.1-0.1-0.1-0.2-0.2c-0.1,0-0.2-0.1-0.2-0.1c-0.1,0-0.2,0-0.3,0h-0.6c-0.2,0-0.4,0-0.5-0.1c-0.2-0.1-0.3-0.2-0.4-0.3
			c-0.2-0.4-0.2-0.8,0-1.2c0.1-0.2,0.2-0.3,0.3-0.4c0.1-0.1,0.3-0.2,0.5-0.3s0.4-0.1,0.6-0.1c0.1,0,0.3,0,0.4,0s0.2,0.1,0.3,0.1
			c0.1,0,0.2,0.1,0.2,0.1h0.1h0.1c0,0,0,0,0.1-0.1H86l-0.3,0.9l-0.1-0.1v-0.1c0,0,0-0.1-0.1-0.1c-0.1-0.1-0.1-0.1-0.2-0.2
			c-0.1-0.1-0.2-0.1-0.3-0.1c-0.1,0-0.3-0.1-0.4,0c-0.3,0-0.5,0.1-0.7,0.2c-0.2,0.1-0.3,0.3-0.3,0.5c0,0.1,0,0.2,0.1,0.2
			c0,0.1,0.1,0.1,0.2,0.1s0.2,0.1,0.2,0.1c0.1,0,0.2,0,0.3,0c0.2,0,0.4,0,0.6,0s0.4,0,0.5,0.1c0.2,0.1,0.3,0.2,0.4,0.3
			c0.1,0.2,0.2,0.5,0.2,0.7s0,0.3-0.1,0.5s-0.2,0.3-0.3,0.4c-0.1,0.1-0.3,0.2-0.5,0.3s-0.4,0.1-0.6,0.1c-0.3,0-0.6-0.1-0.9-0.2
			c-0.1,0-0.2-0.1-0.3-0.2c0,0-0.1-0.1-0.2-0.1c0,0-0.1,0-0.1,0.1H83L83.4,51.7L83.4,51.7z"/>
		<path class="st15" d="M87.9,52.8L87.9,52.8L87.9,52.8l0.1-3.4h-1c-0.1,0-0.1,0-0.2,0c0,0-0.1,0.1,0,0.2h-0.1v-0.9h0.1
			c0,0.1,0.1,0.2,0.2,0.2l0,0h2.4c0.1,0,0.2-0.1,0.2-0.1l0,0h0.1v0.9h-0.1c0-0.1,0-0.1,0-0.2c0,0-0.1,0-0.2,0h-1v3.3v0.1
			c0,0,0.1,0.1,0.1,0V53L87.9,52.8C87.9,52.9,87.9,52.8,87.9,52.8z"/>
		<path class="st15" d="M90.8,49C90.8,49,90.7,48.9,90.8,49L90.8,49l2.3-0.1c0.1,0,0.1,0,0.2,0v-0.1h0.1v0.9h-0.1c0-0.1,0-0.1,0-0.2
			c0,0-0.1-0.1-0.2-0.1h-1.8v1.2h1.2c0.1,0,0.1,0,0.2,0c0,0,0.1-0.1,0.1-0.2h0.1v0.9h-0.1c0-0.1,0-0.1-0.1-0.2c-0.1,0-0.1,0-0.2,0
			h-1.2v1.3h1.9c0.1,0,0.1,0,0.2-0.1c0-0.1,0.1-0.1,0.1-0.2h0.1V53h-0.1c0-0.1-0.1-0.1-0.2-0.1h-2.6v-0.1h0.1v-0.1v-3.5
			C90.8,49.1,90.8,49.1,90.8,49z"/>
		<path class="st15" d="M95.2,52.8C95.2,52.8,95.3,52.9,95.2,52.8L95.2,52.8l-0.7,0.1v-0.1h0.1v-0.1v-3.5v-0.1c0,0-0.1-0.1-0.1,0V49
			h1.9c0.3,0,0.6,0.1,0.8,0.3c0.2,0.2,0.3,0.5,0.2,0.8c0,0.3-0.1,0.5-0.2,0.8c-0.1,0.2-0.4,0.3-0.6,0.3l0.7,1.5
			c0,0.1,0.1,0.1,0.1,0.2h0.1V53h-0.8v-0.1h0.1c0,0,0,0,0-0.1v-0.1l-0.7-1.5h-1L95.2,52.8C95.2,52.7,95.2,52.7,95.2,52.8z
			 M96.5,50.6c0.2,0,0.4,0,0.5-0.2c0.1-0.1,0.2-0.3,0.1-0.5c0-0.1,0-0.2,0-0.3S97,49.5,97,49.4c-0.1-0.1-0.1-0.1-0.2-0.1
			s-0.2,0-0.3,0h-1.2v1.2L96.5,50.6L96.5,50.6z"/>
		<path class="st15" d="M104.3,49C104.3,49,104.2,48.9,104.3,49L104.3,49l1.8-0.1c0.3,0,0.6,0.1,0.8,0.3c0.2,0.2,0.3,0.5,0.2,0.8
			c0,0.3-0.1,0.6-0.2,0.9c-0.2,0.2-0.5,0.3-0.8,0.3h-1.3v1.5v0.1c0,0,0.1,0.1,0.1,0v0.1h-0.8v-0.1h0.1v-0.1v-3.5
			C104.3,49.1,104.3,49.1,104.3,49z M106.1,50.6c0.2,0,0.4,0,0.5-0.2c0.1-0.1,0.2-0.3,0.1-0.5c0-0.2,0-0.3-0.1-0.4
			c-0.1-0.1-0.3-0.2-0.5-0.1h-1.3v1.2H106.1z"/>
		<path class="st15" d="M108.2,49L108.2,49L108.2,49l2.3-0.1c0.1,0,0.1,0,0.2,0v-0.1h0.1v0.9h-0.1c0-0.1,0-0.1,0-0.2
			c0,0-0.1-0.1-0.2-0.1h-1.8v1.2h1.2c0.1,0,0.1,0,0.2,0c0,0,0.1-0.1,0.1-0.2h0.1v0.9h-0.1c0-0.1,0-0.1-0.1-0.2c0,0-0.1-0.1-0.2,0
			h-1.2v1.3h1.9c0.1,0,0.1,0,0.2-0.1c0-0.1,0.1-0.1,0.1-0.2h0.1V53h-0.1c0-0.1-0.1-0.1-0.2-0.1h-2.6v-0.1h0.1v-0.1v-3.5
			C108.2,49.1,108.2,49.1,108.2,49z"/>
		<path class="st15" d="M112.7,52.8C112.7,52.8,112.8,52.9,112.7,52.8L112.7,52.8l-0.7,0.1v-0.1h0.1v-0.1v-3.5v-0.1
			c0,0-0.1-0.1-0.1,0V49h1.9c0.3,0,0.6,0.1,0.8,0.3c0.2,0.2,0.3,0.5,0.2,0.8c0,0.3-0.1,0.5-0.2,0.8c-0.1,0.2-0.4,0.3-0.6,0.3
			l0.7,1.5c0,0.1,0.1,0.1,0.1,0.2h0.1V53h-0.8v-0.1h0.1c0,0,0,0,0-0.1v-0.1l-0.7-1.5h-1.1v1.5C112.6,52.7,112.6,52.7,112.7,52.8z
			 M113.9,50.6c0.2,0,0.4,0,0.5-0.2c0.1-0.1,0.2-0.3,0.1-0.5c0-0.1,0-0.2,0-0.3s-0.1-0.1-0.1-0.2c-0.1-0.1-0.1-0.1-0.2-0.1
			s-0.2,0-0.3,0h-1.2v1.2L113.9,50.6L113.9,50.6z"/>
		<path class="st15" d="M116.3,49C116.3,49,116.2,48.9,116.3,49L116.3,49l1.8-0.1c0.3,0,0.6,0.1,0.8,0.3c0.2,0.2,0.3,0.5,0.2,0.8
			c0,0.3-0.1,0.6-0.2,0.9c-0.2,0.2-0.5,0.3-0.8,0.3h-1.3v1.5v0.1c0,0,0.1,0.1,0.1,0v0.1h-0.8v-0.1h0.1v-0.1v-3.5
			C116.3,49.1,116.3,49.1,116.3,49z M118.1,50.6c0.2,0,0.4,0,0.5-0.2c0.1-0.1,0.2-0.3,0.1-0.5c0-0.2,0-0.3-0.1-0.4
			c-0.1-0.1-0.3-0.2-0.5-0.1h-1.3v1.2H118.1z"/>
		<path class="st15" d="M120.2,49C120.2,49,120.1,48.9,120.2,49L120.2,49l2.3-0.1c0.1,0,0.1,0,0.2,0v-0.1h0.1v0.9h-0.1
			c0-0.1,0-0.1,0-0.2c0,0-0.1-0.1-0.2-0.1h-1.8v1.2h1.2c0.1,0,0.1,0,0.2,0c0,0,0.1-0.1,0.1-0.2h0.1v0.9h-0.1c0-0.1,0-0.1-0.1-0.2
			c-0.1,0-0.1-0.1-0.2,0h-1.2v1.3h1.9c0.1,0,0.1,0,0.2-0.1c0-0.1,0.1-0.1,0.1-0.2h0.1V53h-0.1c0-0.1-0.1-0.1-0.2-0.1h-2.6v-0.1h0.1
			v-0.1v-3.5C120.2,49.1,120.2,49.1,120.2,49z"/>
		<path class="st15" d="M124.8,52.8L124.8,52.8L124.8,52.8l0.1-3.4h-1c-0.1,0-0.1,0-0.2,0c0,0-0.1,0.1,0,0.2h-0.1v-0.9h0.1
			c0,0.1,0.1,0.2,0.2,0.2l0,0h2.4c0.1,0,0.2-0.1,0.2-0.1s0,0,0-0.1h0.1v0.9h-0.1c0-0.1,0-0.1,0-0.2c0,0-0.1,0-0.2,0h-1v3.3v0.1
			c0,0,0.1,0.1,0.1,0v0.1L124.8,52.8L124.8,52.8L124.8,52.8z"/>
		<path class="st15" d="M127.5,49C127.5,49,127.4,48.9,127.5,49L127.5,49l0.7-0.1V49h-0.1v0.1v2.5c0,0.2,0.1,0.5,0.2,0.6
			c0.5,0.2,1,0.2,1.5,0c0.2-0.2,0.3-0.4,0.2-0.6v-2.5V49c0,0-0.1-0.1-0.1,0v-0.1h0.8V49h-0.1v0.1v2.3c0,0.3,0,0.5-0.1,0.8
			c-0.1,0.2-0.2,0.3-0.3,0.5c-0.1,0.1-0.3,0.2-0.5,0.2s-0.4,0.1-0.6,0.1c-0.2,0-0.4,0-0.6-0.1c-0.2,0-0.3-0.1-0.5-0.2
			c-0.1-0.1-0.2-0.3-0.3-0.5c-0.1-0.2-0.1-0.5-0.1-0.8L127.5,49C127.6,49.1,127.6,49.1,127.5,49z"/>
		<path class="st15" d="M132,52.5c0,0,0,0.1-0.1,0.2v0.1c0,0.1,0,0.1,0.1,0.1V53h-0.7v-0.1h0.1c0,0,0,0,0.1,0v-0.1
			c0,0,0-0.1,0.1-0.2l1-3.1c0-0.1,0.1-0.2,0.1-0.2v-0.1c0-0.1,0-0.1-0.1-0.1V49h0.8l0,0c0,0-0.1,0-0.1,0.1l0,0v0.1
			c0,0,0,0.1,0.1,0.2l1.1,3.1c0,0.1,0.1,0.2,0.1,0.2s0,0.1,0.1,0.1c0,0,0,0,0.1,0h0.1v0.1H134v-0.1c0,0,0.1,0,0.1-0.1l0,0v-0.1
			c0,0,0-0.1-0.1-0.2l-0.2-0.6h-1.6L132,52.5z M133.7,51.3l-0.7-1.8l-0.6,1.8H133.7z"/>
		<path class="st15" d="M136.4,49c0,0-0.1,0-0.1,0.1s0,0.1,0,0.2v3.2h1.9c0.1,0,0.2-0.1,0.2-0.2h0.1v0.9h-0.1c0-0.1-0.1-0.1-0.2-0.1
			h-2.6V53h0.1v-0.1v-3.5v-0.1c0,0-0.1-0.1-0.1,0v-0.1L136.4,49L136.4,49L136.4,49z"/>
	</g>
	<g id="logo-5">
		<path class="st1" d="M117,17.6c-0.1-0.4-0.4-0.7-0.8-0.9c-0.9-0.4-1.6,0.3-1.8,1c-0.2,0.7,0.3,1.5,0.7,1.7
			c-1.5,3.5-3,6.9-4.5,10.4l0,0l0.7-14c0.8,0,1.4-0.7,1.4-1.5c0-0.2,0-0.3-0.1-0.5c-0.2-0.5-0.6-0.8-1.1-0.9c-1-0.2-1.8,0.9-1.5,1.9
			c0.1,0.5,0.5,0.9,0.9,1c-1,4.5-2,9.1-3,13.7l-1.5-15c0.8-0.2,1.3-1,1.1-1.8c0-0.1,0-0.2-0.1-0.3c-0.2-0.5-0.6-0.8-1.2-0.9
			c-0.2,0-0.4,0-0.6,0.1c-0.7,0.3-1,1.1-0.8,1.8c0.1,0.4,0.4,0.8,0.8,0.9c0.1,0,0.2,0.1,0.3,0.1c0,0,0,0.2,0,0.3
			c0,0.2,0,0.5-0.1,0.7c-0.1,1-0.2,1.9-0.3,2.9c-0.4,3.7-0.7,7.5-1.1,11.2l0,0c-1-4.5-2-9.1-3-13.6c0.2-0.1,0.4-0.2,0.5-0.3
			c0.4-0.4,0.6-1.1,0.4-1.6c-0.1-0.4-0.5-0.7-0.8-0.9c-0.2-0.1-0.5-0.1-0.7-0.1c-0.5,0.1-0.9,0.5-1,0.9c-0.3,0.7,0.1,1.6,0.8,1.9
			c0.2,0.1,0.3,0.1,0.5,0.1c0.2,4.7,0.5,9.3,0.7,14l0,0c-1.5-3.5-3-6.9-4.5-10.4c0.6-0.3,0.9-1.1,0.7-1.7c-0.2-0.7-0.9-1.2-1.6-1
			c-0.1,0-0.1,0-0.2,0c-0.4,0.2-0.7,0.6-0.8,1c-0.2,0.7,0.2,1.4,0.9,1.7c0.3,0.1,0.5,0.1,0.8,0l0,0c1,3.7,2,7.4,3,11.1
			c0.2,0.8,0.5,1.7,0.7,2.5c0.1,0.3,0.1,0.5,0.2,0.8c0.1,0.4,0.4,0.8,0.7,1c0.2,0.2,0.4,0.3,0.6,0.5c0.6,0.4,1.4,0.7,2.1,0.9
			c0.3,0.1,0.6,0.1,0.9,0.2h0.4c0.5,0,1,0,1.4-0.1c0.3-0.1,0.6-0.1,0.8-0.1c0.8-0.2,1.6-0.6,2.3-1.1c0.3-0.3,0.6-0.6,0.8-1
			c0.2-0.4,0.3-0.8,0.4-1.2c0.2-0.8,0.4-1.6,0.7-2.4c1-3.7,2-7.4,3-11.1c0,0,0.3,0,0.4,0c0.2,0,0.4-0.1,0.6-0.2
			C117.1,19,117.3,18.3,117,17.6z M110.6,34.1c-0.2,0.6-1.1,0.9-1.7,1c-1.8,0.4-3.7,0.4-5.5-0.1c-0.5-0.2-1.1-0.3-1.3-0.8
			c-0.3-0.4,0.2-0.8,0.5-1c0.6-0.4,1.4-0.5,2.3-0.6l0.8-0.1h0.4c1.5,0,2.8,0.2,3.8,0.6C110.2,33.3,110.8,33.7,110.6,34.1z"/>
	</g>
</g>
<g id="logoMetallic">
	
		<radialGradient id="SVGID_4_" cx="15013.208" cy="10300.5801" r="134.4014" gradientTransform="matrix(8.700220e-02 0 0 0.1305 -1199.8187 -1320.2257)" gradientUnits="userSpaceOnUse">
		<stop  offset="0" style="stop-color:#FFFFE7"/>
		<stop  offset="0.1657" style="stop-color:#F7F7DE"/>
		<stop  offset="0.4361" style="stop-color:#E1E1C6"/>
		<stop  offset="0.7754" style="stop-color:#BDBD9E"/>
		<stop  offset="0.9951" style="stop-color:#A3A381"/>
	</radialGradient>
	<path class="st16" d="M117,17.6c-0.1-0.4-0.4-0.7-0.8-0.9c-0.9-0.4-1.6,0.3-1.8,1c-0.2,0.7,0.3,1.5,0.7,1.7
		c-1.5,3.5-3,6.9-4.5,10.4l0,0l0.7-14c0.8,0,1.4-0.7,1.4-1.5c0-0.2,0-0.3-0.1-0.5c-0.2-0.5-0.6-0.8-1.1-0.9c-1-0.2-1.8,0.9-1.5,1.9
		c0.1,0.5,0.5,0.9,0.9,1c-1,4.5-2,9.1-3,13.7l-1.5-15c0.8-0.2,1.3-1,1.1-1.8c0-0.1,0-0.2-0.1-0.3c-0.2-0.5-0.6-0.8-1.2-0.9
		c-0.2,0-0.4,0-0.6,0.1c-0.7,0.3-1,1.1-0.8,1.8c0.1,0.4,0.4,0.8,0.8,0.9c0.1,0,0.2,0.1,0.3,0.1c0,0,0,0.2,0,0.3c0,0.2,0,0.5-0.1,0.7
		c-0.1,1-0.2,1.9-0.3,2.9c-0.4,3.7-0.7,7.5-1.1,11.2l0,0c-1-4.5-2-9.1-3-13.6c0.2-0.1,0.4-0.2,0.5-0.3c0.4-0.4,0.6-1.1,0.4-1.6
		c-0.1-0.4-0.5-0.7-0.8-0.9c-0.2-0.1-0.5-0.1-0.7-0.1c-0.5,0.1-0.9,0.5-1,0.9c-0.3,0.7,0.1,1.6,0.8,1.9c0.2,0.1,0.3,0.1,0.5,0.1
		c0.2,4.7,0.5,9.3,0.7,14l0,0c-1.5-3.5-3-6.9-4.5-10.4c0.6-0.3,0.9-1.1,0.7-1.7c-0.2-0.7-0.9-1.2-1.6-1c-0.1,0-0.1,0-0.2,0
		c-0.4,0.2-0.7,0.6-0.8,1c-0.2,0.7,0.2,1.4,0.9,1.7c0.3,0.1,0.5,0.1,0.8,0l0,0c1,3.7,2,7.4,3,11.1c0.2,0.8,0.5,1.7,0.7,2.5
		c0.1,0.3,0.1,0.5,0.2,0.8c0.1,0.4,0.4,0.8,0.7,1c0.2,0.2,0.4,0.3,0.6,0.5c0.6,0.4,1.4,0.7,2.1,0.9c0.3,0.1,0.6,0.1,0.9,0.2h0.4
		c0.5,0,1,0,1.4-0.1c0.3-0.1,0.6-0.1,0.8-0.1c0.8-0.2,1.6-0.6,2.3-1.1c0.3-0.3,0.6-0.6,0.8-1c0.2-0.4,0.3-0.8,0.4-1.2
		c0.2-0.8,0.4-1.6,0.7-2.4c1-3.7,2-7.4,3-11.1c0,0,0.3,0,0.4,0c0.2,0,0.4-0.1,0.6-0.2C117.1,19,117.3,18.3,117,17.6z M110.6,34.1
		c-0.2,0.6-1.1,0.9-1.7,1c-1.8,0.4-3.7,0.4-5.5-0.1c-0.5-0.2-1.1-0.3-1.3-0.8c-0.3-0.4,0.2-0.8,0.5-1c0.6-0.4,1.4-0.5,2.3-0.6
		l0.8-0.1h0.4c1.5,0,2.8,0.2,3.8,0.6C110.2,33.3,110.8,33.7,110.6,34.1z"/>
</g>
<g id="fiveMinuteMarkers">
	<path class="st17" d="M69.3,170.4L69.3,170.4c-0.8-0.7-4.7,1.6-7.2,3.4c-2.6,1.8-6.9,9.7-6.8,11.2c0.1,1,1.7,2.4,3.6,3.5l0,0
		c1.8,1.1,3.9,1.8,4.8,1.4c1.4-0.7,6-8.4,6.3-11.5C70.3,175.3,70.3,170.7,69.3,170.4z M62.5,188.3c-0.9,0.6-5.5-2.2-5.5-3.2
		s5.1-10,6.1-10.4s5.2,2,5.5,3.2C68.9,179,63.4,187.7,62.5,188.3L62.5,188.3z"/>
	<path class="st17" d="M150.1,174.1c-2.5-1.9-6.5-4.2-7.2-3.5l0,0l0,0c-1,0.3-1,4.8-0.7,8c0.3,3.1,4.9,10.9,6.2,11.5
		c0.9,0.5,3-0.3,4.8-1.3l0,0c1.9-1,3.5-2.4,3.6-3.4C156.9,183.9,152.6,176,150.1,174.1z M149.4,188.7c-0.8-0.5-6.1-9.4-6-10.5
		s4.3-3.4,5.5-3.1c1.1,0.3,5.9,9.4,6,10.5C155,186.6,150.2,189.2,149.4,188.7L149.4,188.7z"/>
	<path class="st17" d="M42.2,143.2L42.2,143.2c-0.3-1-4.8-1-8-0.7s-10.9,4.9-11.5,6.3c-0.4,0.9,0.3,3,1.3,4.8l0,0
		c1,1.9,2.4,3.5,3.4,3.6c1.5,0.1,9.4-4.2,11.2-6.7C40.6,147.9,42.9,144,42.2,143.2z M37.9,149.3c-0.3,1.1-9.4,5.9-10.5,6
		s-3.6-4.7-3.1-5.5s9.4-6.1,10.5-6S38.2,148.1,37.9,149.3z"/>
	<path class="st17" d="M189.3,149.9c-0.6-1.4-8.3-6.1-11.4-6.4s-7.7-0.4-8,0.6l0,0c-0.7,0.8,1.5,4.7,3.4,7.3c1.8,2.6,9.6,7,11.1,6.9
		c1-0.1,2.4-1.7,3.5-3.6l0,0C189,152.8,189.7,150.8,189.3,149.9z M184.5,156.4c-1,0-10-5.1-10.4-6.1s2.1-5.1,3.2-5.4
		c1.1-0.3,9.8,5.2,10.4,6.1C188.3,151.9,185.5,156.4,184.5,156.4z"/>
	<path class="st17" d="M188.8,59.9L188.8,59.9c-1-1.9-2.4-3.5-3.4-3.6c-1.5-0.1-9.4,4.2-11.3,6.7c-1.9,2.5-4.2,6.4-3.5,7.2l0,0
		c0.3,1,4.8,1,8,0.7s10.9-4.8,11.5-6.2C190.5,63.8,189.8,61.8,188.8,59.9z M188.6,63.7c-0.5,0.8-9.4,6.1-10.5,5.9
		c-1.1-0.1-3.4-4.4-3.1-5.5c0.3-1.1,9.5-5.9,10.5-5.9C186.6,58.2,189.1,62.9,188.6,63.7L188.6,63.7z"/>
	<path class="st17" d="M155.3,25.5L155.3,25.5c-1.8-1.1-3.8-1.9-4.8-1.5c-1.4,0.6-6.1,8.2-6.5,11.4c-0.4,3.1-0.5,7.7,0.5,8l0,0
		c0.7,0.7,4.7-1.5,7.3-3.3s7.1-9.5,7-11.1C158.7,28,157.1,26.5,155.3,25.5z M150.8,39.2c-1,0.4-5.1-2.1-5.4-3.3
		c-0.3-1.1,5.3-9.8,6.3-10.3c0.9-0.6,5.4,2.3,5.4,3.3C157,29.8,151.7,38.7,150.8,39.2L150.8,39.2z"/>
	<path class="st17" d="M39.5,61.6c-1.8-2.6-9.6-7-11.1-6.9c-1,0.1-2.4,1.7-3.5,3.5l0,0C23.7,60,23,62,23.4,63
		c0.6,1.4,8.3,6.1,11.4,6.5s7.7,0.4,8-0.5l0,0C43.5,68.1,41.3,64.2,39.5,61.6z M35.4,68.1c-1.1,0.3-9.8-5.3-10.4-6.2
		s2.3-5.5,3.2-5.4c1,0,9.9,5.2,10.4,6.2C39.1,63.6,36.5,67.8,35.4,68.1L35.4,68.1z"/>
	<path class="st17" d="M71.2,34c-0.3-3.1-4.8-10.9-6.1-11.6c-0.9-0.5-3,0.2-4.8,1.3l0,0c-1.9,1-3.5,2.4-3.6,3.4
		c-0.1,1.5,4.1,9.4,6.6,11.3c2.5,1.9,6.4,4.2,7.2,3.6l0,0C71.4,41.7,71.5,37.2,71.2,34z M64.4,37.6c-1.1-0.3-5.8-9.5-5.9-10.6
		c0-1.1,4.7-3.6,5.5-3.1c0.8,0.5,6,9.5,5.9,10.6S65.6,37.9,64.4,37.6z"/>
	<path class="st17" d="M19.4,101.6h-5.8c-1.6,0-2.8,1.5-2.8,3.2v3.3c0,1.8,1.3,3.2,2.8,3.2h5.8c1.6,0,2.8-1.5,2.8-3.2v-3.3
		C22.3,103.1,21,101.6,19.4,101.6z M20.4,107.6c0,1.2-0.9,2.2-1.9,2.2h-3.9c-1.1,0-1.9-1-1.9-2.2v-2.2c0-1.2,0.9-2.2,1.9-2.2h3.9
		c1.1,0,1.9,1,1.9,2.2V107.6z"/>
	<path class="st17" d="M199.5,101.6h-5.7c-1.6,0-2.8,1.5-2.8,3.2v3.3c0,1.8,1.3,3.2,2.8,3.2h5.7c1.6,0,2.8-1.5,2.8-3.2v-3.3
		C202.3,103.1,201.1,101.6,199.5,101.6z M200.5,107.6c0,1.2-0.9,2.2-1.9,2.2h-3.9c-1.1,0-1.9-1-1.9-2.2v-2.2c0-1.2,0.9-2.2,1.9-2.2
		h3.9c1,0,1.9,1,1.9,2.2V107.6z"/>
	<path class="st17" d="M107.9,191.4h-3.3c-1.8,0-3.2,1.3-3.2,2.8v5.8c0,1.6,1.5,2.8,3.2,2.8h3.3c1.8,0,3.2-1.3,3.2-2.8v-5.8
		C111.1,192.7,109.6,191.4,107.9,191.4z M109.5,199.1c0,1.1-1,1.9-2.2,1.9h-2.2c-1.2,0-2.2-0.9-2.2-1.9v-3.9c0-1.1,1-1.9,2.2-1.9
		h2.2c1.2,0,2.2,0.9,2.2,1.9V199.1z"/>
</g>
<g id="fiveMinuteMarkersMetallic">
	
		<linearGradient id="SVGID_5_" gradientUnits="userSpaceOnUse" x1="14782.3896" y1="14873.2412" x2="14892.1895" y2="14936.6309" gradientTransform="matrix(8.700220e-02 0 0 8.700220e-02 -1226.4414 -1117.1222)">
		<stop  offset="0" style="stop-color:#FFFFFF"/>
		<stop  offset="0.5" style="stop-color:#333333"/>
		<stop  offset="0.99" style="stop-color:#FFFFFF"/>
	</linearGradient>
	<path class="st18" d="M69.3,170.4L69.3,170.4c-0.8-0.7-4.7,1.6-7.2,3.4c-2.6,1.8-6.9,9.7-6.8,11.2c0.1,1,1.7,2.4,3.6,3.5l0,0
		c1.8,1.1,3.9,1.8,4.8,1.4c1.4-0.7,6-8.4,6.3-11.5C70.3,175.3,70.3,170.7,69.3,170.4z M62.5,188.3c-0.9,0.6-5.5-2.2-5.5-3.2
		s5.1-10,6.1-10.4s5.2,2,5.5,3.2C68.9,179,63.4,187.7,62.5,188.3L62.5,188.3z"/>
	
		<linearGradient id="SVGID_6_" gradientUnits="userSpaceOnUse" x1="15744.6621" y1="14936.6113" x2="15854.4717" y2="14873.2217" gradientTransform="matrix(8.700220e-02 0 0 8.700220e-02 -1226.4414 -1117.1222)">
		<stop  offset="0" style="stop-color:#FFFFFF"/>
		<stop  offset="0.5" style="stop-color:#333333"/>
		<stop  offset="0.99" style="stop-color:#FFFFFF"/>
	</linearGradient>
	<path class="st19" d="M150.1,174.1c-2.5-1.9-6.5-4.2-7.2-3.5l0,0l0,0c-1,0.3-1,4.8-0.7,8c0.3,3.1,4.9,10.9,6.2,11.5
		c0.9,0.5,3-0.3,4.8-1.3l0,0c1.9-1,3.5-2.4,3.6-3.4C156.9,183.9,152.6,176,150.1,174.1z M149.4,188.7c-0.8-0.5-6.1-9.4-6-10.5
		s4.3-3.4,5.5-3.1c1.1,0.3,5.9,9.4,6,10.5C155,186.6,150.2,189.2,149.4,188.7L149.4,188.7z"/>
	
		<linearGradient id="SVGID_7_" gradientUnits="userSpaceOnUse" x1="14447.6221" y1="14494.7666" x2="14511.0215" y2="14604.5859" gradientTransform="matrix(8.700220e-02 0 0 8.700220e-02 -1226.4414 -1117.1222)">
		<stop  offset="0" style="stop-color:#FFFFFF"/>
		<stop  offset="0.5" style="stop-color:#333333"/>
		<stop  offset="0.99" style="stop-color:#FFFFFF"/>
	</linearGradient>
	<path class="st20" d="M42.2,143.2L42.2,143.2c-0.3-1-4.8-1-8-0.7s-10.9,4.9-11.5,6.3c-0.4,0.9,0.3,3,1.3,4.8l0,0
		c1,1.9,2.4,3.5,3.4,3.6c1.5,0.1,9.4-4.2,11.2-6.7C40.6,147.9,42.9,144,42.2,143.2z M37.9,149.3c-0.3,1.1-9.4,5.9-10.5,6
		s-3.6-4.7-3.1-5.5s9.4-6.1,10.5-6S38.2,148.1,37.9,149.3z"/>
	
		<linearGradient id="SVGID_8_" gradientUnits="userSpaceOnUse" x1="16120.9951" y1="14612.5713" x2="16184.4053" y2="14502.7412" gradientTransform="matrix(8.700220e-02 0 0 8.700220e-02 -1226.4414 -1117.1222)">
		<stop  offset="0" style="stop-color:#FFFFFF"/>
		<stop  offset="0.5" style="stop-color:#333333"/>
		<stop  offset="0.99" style="stop-color:#FFFFFF"/>
	</linearGradient>
	<path class="st21" d="M189.3,149.9c-0.6-1.4-8.3-6.1-11.4-6.4s-7.7-0.4-8,0.6l0,0c-0.7,0.8,1.5,4.7,3.4,7.3c1.8,2.6,9.6,7,11.1,6.9
		c1-0.1,2.4-1.7,3.5-3.6l0,0C189,152.8,189.7,150.8,189.3,149.9z M184.5,156.4c-1,0-10-5.1-10.4-6.1s2.1-5.1,3.2-5.4
		c1.1-0.3,9.8,5.2,10.4,6.1C188.3,151.9,185.5,156.4,184.5,156.4z"/>
	
		<linearGradient id="SVGID_9_" gradientUnits="userSpaceOnUse" x1="16132.8105" y1="13537.0469" x2="16196.2207" y2="13646.877" gradientTransform="matrix(8.700220e-02 0 0 8.700220e-02 -1226.4414 -1117.1222)">
		<stop  offset="0" style="stop-color:#FFFFFF"/>
		<stop  offset="0.5" style="stop-color:#333333"/>
		<stop  offset="0.99" style="stop-color:#FFFFFF"/>
	</linearGradient>
	<path class="st22" d="M188.8,59.9L188.8,59.9c-1-1.9-2.4-3.5-3.4-3.6c-1.5-0.1-9.4,4.2-11.3,6.7c-1.9,2.5-4.2,6.4-3.5,7.2l0,0
		c0.3,1,4.8,1,8,0.7s10.9-4.8,11.5-6.2C190.5,63.8,189.8,61.8,188.8,59.9z M188.6,63.7c-0.5,0.8-9.4,6.1-10.5,5.9
		c-1.1-0.1-3.4-4.4-3.1-5.5c0.3-1.1,9.5-5.9,10.5-5.9C186.6,58.2,189.1,62.9,188.6,63.7L188.6,63.7z"/>
	
		<linearGradient id="SVGID_10_" gradientUnits="userSpaceOnUse" x1="15769.0391" y1="13206.9678" x2="15878.9893" y2="13270.4482" gradientTransform="matrix(8.700220e-02 0 0 8.700220e-02 -1226.4414 -1117.1222)">
		<stop  offset="0" style="stop-color:#FFFFFF"/>
		<stop  offset="0.5" style="stop-color:#333333"/>
		<stop  offset="0.99" style="stop-color:#FFFFFF"/>
	</linearGradient>
	<path class="st23" d="M155.3,25.5L155.3,25.5c-1.8-1.1-3.8-1.9-4.8-1.5c-1.4,0.6-6.1,8.2-6.5,11.4c-0.4,3.1-0.5,7.7,0.5,8l0,0
		c0.7,0.7,4.7-1.5,7.3-3.3s7.1-9.5,7-11.1C158.7,28,157.1,26.5,155.3,25.5z M150.8,39.2c-1,0.4-5.1-2.1-5.4-3.3
		c-0.3-1.1,5.3-9.8,6.3-10.3c0.9-0.6,5.4,2.3,5.4,3.3C157,29.8,151.7,38.7,150.8,39.2L150.8,39.2z"/>
	
		<linearGradient id="SVGID_11_" gradientUnits="userSpaceOnUse" x1="14454.2324" y1="13625.5098" x2="14517.6631" y2="13515.6494" gradientTransform="matrix(8.700220e-02 0 0 8.700220e-02 -1226.4414 -1117.1222)">
		<stop  offset="0" style="stop-color:#FFFFFF"/>
		<stop  offset="0.5" style="stop-color:#333333"/>
		<stop  offset="0.99" style="stop-color:#FFFFFF"/>
	</linearGradient>
	<path class="st24" d="M39.5,61.6c-1.8-2.6-9.6-7-11.1-6.9c-1,0.1-2.4,1.7-3.5,3.5l0,0C23.7,60,23,62,23.4,63
		c0.6,1.4,8.3,6.1,11.4,6.5s7.7,0.4,8-0.5l0,0C43.5,68.1,41.3,64.2,39.5,61.6z M35.4,68.1c-1.1,0.3-9.8-5.3-10.4-6.2
		s2.3-5.5,3.2-5.4c1,0,9.9,5.2,10.4,6.2C39.1,63.6,36.5,67.8,35.4,68.1L35.4,68.1z"/>
	
		<linearGradient id="SVGID_12_" gradientUnits="userSpaceOnUse" x1="14795.5176" y1="13248.2305" x2="14905.4277" y2="13184.7695" gradientTransform="matrix(8.700220e-02 0 0 8.700220e-02 -1226.4414 -1117.1222)">
		<stop  offset="0" style="stop-color:#FFFFFF"/>
		<stop  offset="0.5" style="stop-color:#333333"/>
		<stop  offset="0.99" style="stop-color:#FFFFFF"/>
	</linearGradient>
	<path class="st25" d="M71.2,34c-0.3-3.1-4.8-10.9-6.1-11.6c-0.9-0.5-3,0.2-4.8,1.3l0,0c-1.9,1-3.5,2.4-3.6,3.4
		c-0.1,1.5,4.1,9.4,6.6,11.3c2.5,1.9,6.4,4.2,7.2,3.6l0,0C71.4,41.7,71.5,37.2,71.2,34z M64.4,37.6c-1.1-0.3-5.8-9.5-5.9-10.6
		c0-1.1,4.7-3.6,5.5-3.1c0.8,0.5,6,9.5,5.9,10.6S65.6,37.9,64.4,37.6z"/>
	
		<linearGradient id="SVGID_13_" gradientUnits="userSpaceOnUse" x1="14286.3525" y1="14123.4893" x2="14286.3525" y2="14011.1592" gradientTransform="matrix(8.700220e-02 0 0 8.700220e-02 -1226.4414 -1117.1222)">
		<stop  offset="0" style="stop-color:#FFFFFF"/>
		<stop  offset="0.5" style="stop-color:#333333"/>
		<stop  offset="0.99" style="stop-color:#FFFFFF"/>
	</linearGradient>
	<path class="st26" d="M19.4,101.6h-5.8c-1.6,0-2.8,1.5-2.8,3.2v3.3c0,1.8,1.3,3.2,2.8,3.2h5.8c1.6,0,2.8-1.5,2.8-3.2v-3.3
		C22.3,103.1,21,101.6,19.4,101.6z M20.4,107.6c0,1.2-0.9,2.2-1.9,2.2h-3.9c-1.1,0-1.9-1-1.9-2.2v-2.2c0-1.2,0.9-2.2,1.9-2.2h3.9
		c1.1,0,1.9,1,1.9,2.2V107.6z"/>
	
		<linearGradient id="SVGID_14_" gradientUnits="userSpaceOnUse" x1="16356.959" y1="14123.4893" x2="16356.959" y2="14011.1592" gradientTransform="matrix(8.700220e-02 0 0 8.700220e-02 -1226.4414 -1117.1222)">
		<stop  offset="0" style="stop-color:#FFFFFF"/>
		<stop  offset="0.5" style="stop-color:#333333"/>
		<stop  offset="0.99" style="stop-color:#FFFFFF"/>
	</linearGradient>
	<path class="st27" d="M199.5,101.6h-5.7c-1.6,0-2.8,1.5-2.8,3.2v3.3c0,1.8,1.3,3.2,2.8,3.2h5.7c1.6,0,2.8-1.5,2.8-3.2v-3.3
		C202.3,103.1,201.1,101.6,199.5,101.6z M200.5,107.6c0,1.2-0.9,2.2-1.9,2.2h-3.9c-1.1,0-1.9-1-1.9-2.2v-2.2c0-1.2,0.9-2.2,1.9-2.2
		h3.9c1,0,1.9,1,1.9,2.2V107.6z"/>
	
		<linearGradient id="SVGID_15_" gradientUnits="userSpaceOnUse" x1="15265.4307" y1="15105.6201" x2="15377.7598" y2="15105.6201" gradientTransform="matrix(8.700220e-02 0 0 8.700220e-02 -1226.4414 -1117.1222)">
		<stop  offset="0" style="stop-color:#FFFFFF"/>
		<stop  offset="0.5" style="stop-color:#333333"/>
		<stop  offset="0.99" style="stop-color:#FFFFFF"/>
	</linearGradient>
	<path class="st28" d="M107.9,191.4h-3.3c-1.8,0-3.2,1.3-3.2,2.8v5.8c0,1.6,1.5,2.8,3.2,2.8h3.3c1.8,0,3.2-1.3,3.2-2.8v-5.8
		C111.1,192.7,109.6,191.4,107.9,191.4z M109.5,199.1c0,1.1-1,1.9-2.2,1.9h-2.2c-1.2,0-2.2-0.9-2.2-1.9v-3.9c0-1.1,1-1.9,2.2-1.9
		h2.2c1.2,0,2.2,0.9,2.2,1.9V199.1z"/>
</g>
<g id="indices">
	<path class="st1" d="M63.1,174.7c1-0.5,5.2,2,5.5,3.2s-5.2,9.9-6.1,10.4c-0.9,0.6-5.5-2.2-5.5-3.2
		C57.1,184.2,62.1,175.1,63.1,174.7z"/>
	<path class="st1" d="M143.4,178.2c0.1-1.1,4.3-3.4,5.5-3.1c1.1,0.3,5.9,9.4,6,10.5s-4.7,3.6-5.5,3.1
		C148.6,188.2,143.3,179.3,143.4,178.2z"/>
	<path class="st1" d="M34.7,143.8c1.1,0.1,3.4,4.3,3.1,5.5c-0.3,1.1-9.4,5.9-10.5,6c-1.1,0-3.6-4.7-3.1-5.5
		C24.7,149,33.6,143.7,34.7,143.8z"/>
	<path class="st1" d="M174.1,150.3c-0.5-1,2.1-5.1,3.2-5.4s9.8,5.2,10.4,6.1c0.6,0.9-2.3,5.5-3.2,5.4S174.6,151.3,174.1,150.3z"/>
	<path class="st1" d="M178.1,69.7c-1.1-0.1-3.4-4.4-3.1-5.5c0.3-1.1,9.5-5.9,10.5-5.9c1.1,0,3.6,4.7,3.1,5.5
		C188.1,64.6,179.2,69.8,178.1,69.7z"/>
	<path class="st1" d="M150.7,39.2c-1,0.4-5.1-2.1-5.4-3.3c-0.3-1.1,5.3-9.8,6.3-10.3c0.9-0.6,5.4,2.3,5.4,3.3S151.7,38.7,150.7,39.2
		z"/>
	<path class="st1" d="M38.6,62.6c0.4,1-2.1,5.1-3.2,5.4c-1.1,0.3-9.8-5.3-10.4-6.2s2.3-5.5,3.2-5.4C29.2,56.5,38.2,61.6,38.6,62.6z"
		/>
	<path class="st1" d="M70,34.5c-0.1,1.1-4.4,3.4-5.5,3.1c-1.1-0.3-5.8-9.5-5.9-10.6c0-1.1,4.7-3.6,5.5-3.1
		C64.9,24.4,70.1,33.4,70,34.5z"/>
	<path class="st1" d="M20.4,107.6c0,1.2-0.9,2.2-1.9,2.2h-3.9c-1.1,0-1.9-1-1.9-2.2v-2.2c0-1.2,0.9-2.2,1.9-2.2h3.9
		c1.1,0,1.9,1,1.9,2.2V107.6z"/>
	<path class="st1" d="M200.5,107.6c0,1.2-0.9,2.2-1.9,2.2h-3.9c-1.1,0-1.9-1-1.9-2.2v-2.2c0-1.2,0.9-2.2,1.9-2.2h3.9
		c1,0,1.9,1,1.9,2.2V107.6z"/>
	<path class="st1" d="M107.3,193.2c1.2,0,2.2,0.9,2.2,1.9v3.9c0,1.1-1,1.9-2.2,1.9h-2.2c-1.2,0-2.2-0.9-2.2-1.9v-3.9
		c0-1.1,1-1.9,2.2-1.9H107.3z"/>
</g>
<g id="bigMinuteHand">
	<path class="st29" d="M109.7,99.1c1,0.5,2,1.2,2.6,2c2.6,3.3,2,8-1.2,10.6c-0.4,0.3-0.7,0.6-1.2,0.7l-0.8,12.4h-5.3l-0.7-12.5
		c-1-0.5-1.9-1.2-2.5-2c-2.5-3.3-1.9-8,1.4-10.5c0.4-0.3,0.7-0.6,1.2-0.7l1.1-92l2.4-2l2.3,2.1L109.7,99.1z"/>
	<polygon class="st30" points="105.7,5.9 106.7,5.1 107.6,5.9 107.5,124.9 105.4,124.9 	"/>
	<polygon points="105.7,12.5 107.6,12.6 107.5,54.9 105.6,54.9 	"/>
	<polygon points="105.7,12.5 107.6,12.6 107.5,54.9 105.6,54.9 	"/>
</g>
<g id="bigHourHand">
	<g id="Layer_19_1_">
		<g>
			<path class="st29" d="M103.1,128.3l-1.1-13.7c-2.9-1.2-5.2-3.5-6.3-6.4c-2.3-6,0.6-12.6,6.5-14.9l1.3-71l3-2.5l3,2.6l1.1,70.9
				c2.3,0.8,4.1,2.4,5.4,4.3c3.5,5.3,1.9,12.5-3.4,15.9c-0.6,0.4-1.2,0.7-1.8,1l-1.1,13.8H103.1z"/>
			<polygon class="st30" points="105.4,20.8 106.6,19.7 107.8,20.8 107.8,128.3 105.2,128.3 			"/>
			<polygon class="st1" points="105.4,29.3 107.8,29.3 107.8,59.6 105.3,59.6 			"/>
		</g>
		<polygon points="105.4,29.3 107.8,29.3 107.8,59.6 105.3,59.6 		"/>
	</g>
</g>
<g id="bigSecondHand">
	<path class="st13" d="M106,101l0.1-83.3h-2.5l3.3-12l3.3,12h-2.5l-0.1,83.2c2.1,0.4,3.7,2,4.1,4.1c0.5,2.7-1.4,5.2-4.1,5.7v22.8
		c0.8,0.7,1.4,2.6,1.4,4.9c0,2.9-0.9,5.1-2.1,5.1c-1.2,0-2.1-2.3-2.1-5.1c-0.1-1.5,0.3-3.2,1.1-4.5v-23.1c-2.3-0.5-4.1-2.4-4.1-4.9
		C101.9,103.4,103.6,101.5,106,101z"/>
</g>
<radialGradient id="centreScrew_1_" cx="3748.8059" cy="-1784.2408" r="21.68" gradientTransform="matrix(0.348 0 0 -0.348 -875.6324 -926.5587)" gradientUnits="userSpaceOnUse">
	<stop  offset="0" style="stop-color:#FFFFFF"/>
	<stop  offset="0.14" style="stop-color:#C9C9C9"/>
	<stop  offset="0.31" style="stop-color:#8D8D8D"/>
	<stop  offset="0.48" style="stop-color:#5B5B5B"/>
	<stop  offset="0.64" style="stop-color:#333333"/>
	<stop  offset="0.78" style="stop-color:#171717"/>
	<stop  offset="0.91" style="stop-color:#060606"/>
	<stop  offset="1" style="stop-color:#000000"/>
</radialGradient>
<circle id="centreScrew" class="st31" cx="106.6" cy="106.1" r="1.9"/>
</svg>
