<svg id="Camada_1" data-name="Camada 1" xmlns="http://www.w3.org/2000/svg" xmlns:xlink="http://www.w3.org/1999/xlink" width="212" height="212" viewBox="0 0 609.18 609.18">
  <defs>
    <style>
      .cls-1, .cls-10 {
        fill: none;
      }

      .cls-2 {
        fill: #898888;
      }

      .cls-3 {
        fill: #fff;
      }

      .cls-4 {
        fill: #fdfdfe;
      }

      .cls-5 {
        fill: #7d7d7d;
      }

      .cls-6 {
        fill: #fff200;
      }

      .cls-7 {
        fill: url(#Gradiente_sem_nome_3);
      }

      .cls-8 {
        fill: url(#Gradiente_sem_nome_3-2);
      }

      .cls-9 {
        fill: url(#Gradiente_sem_nome_3-3);
      }

      .cls-10 {
        stroke: #bec0c2;
        stroke-width: 0.5px;
      }

      .cls-11 {
        fill: #a2a09f;
      }

      .cls-12 {
        fill: url(#Gradiente_sem_nome_19);
      }

      .cls-13 {
        fill: url(#Gradiente_sem_nome_19-2);
      }

      .cls-14 {
        fill: url(#Gradiente_sem_nome_19-3);
      }

      .cls-15 {
        fill: #591725;
      }

      .cls-16 {
        fill: #f9f9fa;
      }

      .cls-17 {
        fill: #fffffe;
      }

      .cls-18 {
        fill: url(#Gradiente_sem_nome_18);
      }

      .cls-19 {
        fill: #ec008c;
      }

      .cls-20 {
        fill: url(#Gradiente_sem_nome_18-2);
      }

      .cls-21 {
        fill: url(#Gradiente_sem_nome_18-3);
      }

      .cls-22 {
        fill: url(#Gradiente_sem_nome_18-4);
      }

      .cls-23 {
        fill: url(#Gradiente_sem_nome_18-5);
      }

      .cls-24 {
        fill: url(#Gradiente_sem_nome_18-6);
      }

      .cls-25 {
        fill: url(#Gradiente_sem_nome_18-7);
      }

      .cls-26 {
        fill: url(#Gradiente_sem_nome_18-8);
      }

      .cls-27 {
        fill: url(#Gradiente_sem_nome_18-9);
      }

      .cls-28 {
        fill: url(#Gradiente_sem_nome_18-10);
      }

      .cls-29 {
        fill: url(#Gradiente_sem_nome_18-11);
      }

      .cls-30 {
        fill: url(#Gradiente_sem_nome_18-12);
      }

      .cls-31 {
        fill: url(#Gradiente_sem_nome_19-4);
      }
    </style>
    <linearGradient id="Gradiente_sem_nome_3" data-name="Gradiente sem nome 3" x1="1497.37" y1="-1189.22" x2="963" y2="-1723.59" gradientTransform="matrix(0.25, 0, 0, -0.25, 0, 86.17)" gradientUnits="userSpaceOnUse">
      <stop offset="0" stop-color="#ccd2d6"/>
      <stop offset="0.08" stop-color="#c9cfd3"/>
      <stop offset="0.16" stop-color="#bfc5ca"/>
      <stop offset="0.23" stop-color="#afb6ba"/>
      <stop offset="0.25" stop-color="#aab2b6"/>
      <stop offset="0.25" stop-color="#b0b7ba"/>
      <stop offset="0.3" stop-color="#cbd1d4"/>
      <stop offset="0.33" stop-color="#e1e5e8"/>
      <stop offset="0.37" stop-color="#eff4f6"/>
      <stop offset="0.4" stop-color="#f4fbfe"/>
      <stop offset="0.63" stop-color="#f4fbfe"/>
      <stop offset="0.75" stop-color="#979da1"/>
      <stop offset="0.83" stop-color="#b0b7bc"/>
      <stop offset="0.85" stop-color="#92979c"/>
      <stop offset="0.87" stop-color="#7c8085"/>
      <stop offset="0.89" stop-color="#6f7478"/>
      <stop offset="0.91" stop-color="#6b7074"/>
      <stop offset="0.92" stop-color="#717579"/>
      <stop offset="0.95" stop-color="#808488"/>
      <stop offset="0.97" stop-color="#9ca0a5"/>
      <stop offset="1" stop-color="#cbd1d5"/>
      <stop offset="1" stop-color="#ccd2d6"/>
    </linearGradient>
    <linearGradient id="Gradiente_sem_nome_3-2" x1="2065.26" y1="-552.37" x2="1530.89" y2="-1086.73" xlink:href="#Gradiente_sem_nome_3"/>
    <linearGradient id="Gradiente_sem_nome_3-3" x1="931.01" y1="-552.37" x2="396.64" y2="-1086.73" xlink:href="#Gradiente_sem_nome_3"/>
    <radialGradient id="Gradiente_sem_nome_19" data-name="Gradiente sem nome 19" cx="1796.88" cy="-819.67" r="21.67" gradientTransform="matrix(0.25, 0, 0, -0.25, -0.82, 86.17)" gradientUnits="userSpaceOnUse">
      <stop offset="0" stop-color="#fff"/>
      <stop offset="0.14" stop-color="#c9c9c9"/>
      <stop offset="0.31" stop-color="#8d8d8d"/>
      <stop offset="0.48" stop-color="#5b5b5b"/>
      <stop offset="0.64" stop-color="#333"/>
      <stop offset="0.78" stop-color="#171717"/>
      <stop offset="0.91" stop-color="#060606"/>
      <stop offset="1"/>
    </radialGradient>
    <radialGradient id="Gradiente_sem_nome_19-2" cx="662.59" cy="-821.12" r="21.67" xlink:href="#Gradiente_sem_nome_19"/>
    <radialGradient id="Gradiente_sem_nome_19-3" cx="1229.28" cy="-1454.55" r="21.68" xlink:href="#Gradiente_sem_nome_19"/>
    <linearGradient id="Gradiente_sem_nome_18" data-name="Gradiente sem nome 18" x1="798.38" y1="210.83" x2="1047.11" y2="210.83" gradientTransform="matrix(0.25, 0, 0, -0.25, 76.5, 121.55)" gradientUnits="userSpaceOnUse">
      <stop offset="0" stop-color="#fff"/>
      <stop offset="0.5" stop-color="#333"/>
      <stop offset="0.99" stop-color="#fff"/>
    </linearGradient>
    <linearGradient id="Gradiente_sem_nome_18-2" x1="686.99" y1="-1691.88" x2="796.79" y2="-1755.27" gradientTransform="matrix(0.25, 0, 0, -0.25, 0, 86.17)" xlink:href="#Gradiente_sem_nome_18"/>
    <linearGradient id="Gradiente_sem_nome_18-3" x1="1655.34" y1="-1758.82" x2="1765.15" y2="-1695.43" gradientTransform="matrix(0.25, 0, 0, -0.25, 0, 86.17)" xlink:href="#Gradiente_sem_nome_18"/>
    <linearGradient id="Gradiente_sem_nome_18-4" x1="353.81" y1="-1310.17" x2="417.21" y2="-1419.99" gradientTransform="matrix(0.25, 0, 0, -0.25, 0, 86.17)" xlink:href="#Gradiente_sem_nome_18"/>
    <linearGradient id="Gradiente_sem_nome_18-5" x1="2034.34" y1="-1431.62" x2="2097.75" y2="-1321.79" gradientTransform="matrix(0.25, 0, 0, -0.25, 0, 86.17)" xlink:href="#Gradiente_sem_nome_18"/>
    <linearGradient id="Gradiente_sem_nome_18-6" x1="2043.52" y1="-349.84" x2="2106.93" y2="-459.67" gradientTransform="matrix(0.25, 0, 0, -0.25, 0, 86.17)" xlink:href="#Gradiente_sem_nome_18"/>
    <linearGradient id="Gradiente_sem_nome_18-7" x1="1677.16" y1="-19.51" x2="1787.11" y2="-82.99" gradientTransform="matrix(0.25, 0, 0, -0.25, 0, 86.17)" xlink:href="#Gradiente_sem_nome_18"/>
    <linearGradient id="Gradiente_sem_nome_18-8" x1="361.99" y1="-441.31" x2="425.42" y2="-331.45" gradientTransform="matrix(0.25, 0, 0, -0.25, 0, 86.17)" xlink:href="#Gradiente_sem_nome_18"/>
    <linearGradient id="Gradiente_sem_nome_18-9" x1="702.86" y1="-64.66" x2="812.77" y2="-1.2" gradientTransform="matrix(0.25, 0, 0, -0.25, 0, 86.17)" xlink:href="#Gradiente_sem_nome_18"/>
    <linearGradient id="Gradiente_sem_nome_18-10" x1="194.11" y1="-938.65" x2="194.11" y2="-826.32" gradientTransform="matrix(0.25, 0, 0, -0.25, 0, 86.17)" xlink:href="#Gradiente_sem_nome_18"/>
    <linearGradient id="Gradiente_sem_nome_18-11" x1="2270.73" y1="-938.65" x2="2270.73" y2="-826.32" gradientTransform="matrix(0.25, 0, 0, -0.25, 0, 86.17)" xlink:href="#Gradiente_sem_nome_18"/>
    <linearGradient id="Gradiente_sem_nome_18-12" x1="1172.04" y1="-1927.4" x2="1284.37" y2="-1927.4" gradientTransform="matrix(0.25, 0, 0, -0.25, 0, 86.17)" xlink:href="#Gradiente_sem_nome_18"/>
    <radialGradient id="Gradiente_sem_nome_19-4" cx="1232.64" cy="-878.27" r="21.68" xlink:href="#Gradiente_sem_nome_19"/>
    <symbol id="minuteHand" data-name="minuteHand" viewBox="0 0 16.2 128.82">
      <path class="cls-1" d="M10.76,2.27,8.24,0,5.68,2.15,4.47,101a7.89,7.89,0,0,0-1.34.84A8.07,8.07,0,0,0,4.3,115.39l-.16,13.4,7.73,0-.12-13.35a8.33,8.33,0,0,0,1.32-.83A8.09,8.09,0,0,0,11.62,101Z"/>
      <polygon class="cls-2" points="6.88 128.78 9.12 128.81 9.24 0.92 8.24 0 7.15 0.91 6.88 128.78"/>
      <polygon points="7.05 53.57 9.2 53.59 9.24 8.08 7.14 8.05 7.05 53.57"/>
      <polygon points="7.05 53.57 9.2 53.59 9.24 8.08 7.14 8.05 7.05 53.57"/>
    </symbol>
    <symbol id="hourHand" data-name="hourHand" viewBox="0 0 19.08 90.18">
      <g id="Layer_19" data-name="Layer 19">
        <g>
          <path class="cls-1" d="M5.73,0l.11,11.48a10.17,10.17,0,0,0-1.53.8A9.54,9.54,0,0,0,6,29.13L6.93,88l2.48,2.23,2.52-2.11L13,29.15a9.54,9.54,0,0,0,.21-17.69L13.33,0Z"/>
          <polygon class="cls-2" points="10.63 0.04 8.44 0.01 8.43 89.28 9.41 90.18 10.48 89.29 10.63 0.04"/>
          <polygon class="cls-3" points="10.54 57.1 8.43 57.09 8.41 82.23 10.48 82.26 10.54 57.1"/>
        </g>
        <polygon points="10.54 57.1 8.43 57.09 8.41 82.23 10.48 82.26 10.54 57.1"/>
      </g>
    </symbol>
    <symbol id="secondHand" data-name="secondHand" viewBox="0 0 152.75 10.9">
      <path class="cls-4" d="M111.05,10.9a5.46,5.46,0,0,0,5.37-4.54l25.56,0a9.2,9.2,0,0,0,5,1.19c3.17,0,5.73-1,5.74-2.27S150.18,3,147,3c-2.52,0-4.65.64-5.42,1.53l-25.18,0a5.44,5.44,0,0,0-10.73,0L13.33,4.46V1.63L0,5.35,13.33,9.09V6.28l92.35.07A5.46,5.46,0,0,0,111.05,10.9Z"/>
    </symbol>
  </defs>
  <title>dial</title>
  <path id="dial" class="cls-5" d="M610,304.59c0,168.22-136.37,304.59-304.59,304.59S.82,472.81.82,304.59,137.19,0,305.41,0,610,136.37,610,304.59Z" transform="translate(-0.82)"/>
  <path id="dial-2" data-name="dial" d="M599.09,304.59c0,162.2-131.49,293.68-293.68,293.68S11.73,466.79,11.73,304.59,143.22,10.91,305.41,10.91,599.09,142.4,599.09,304.59Z" transform="translate(-0.82)"/>
  <path id="secondMarkers" class="cls-3" d="M309.71,27.83l-2.29,0,.2-9.38,2.29,0Zm5.83.12-2.29-.07.3-9.65,2.29.07Zm5.81.27-2.3-.12.52-9.65,2.29.11Zm5.82.38-2.28-.17.7-9.61,2.28.17Zm5.79.52-2.28-.22.92-9.61,2.28.21ZM337.37,42l-2.29-.27,2.47-21.59,2.28.27Zm7.18-11.54-2.27-.31,1.29-9.58,2.27.31Zm5.79.87L348.07,31l1.51-9.54,2.27.36Zm5.75,1L353.83,32l1.69-9.5,2.26.4Zm5.7,1.1L359.54,33l1.92-9.47,2.25.46Zm3,13.32-2.23-.5,4.75-21.22,2.24.5Zm8.38-10.72L371,35.52l2.28-9.39,2.23.54Zm5.62,1.46-2.21-.59,2.5-9.32,2.22.59Zm5.63,1.6-2.2-.64,2.69-9.28,2.2.64ZM390,40.82l-2.19-.68,2.87-9.21,2.19.69Zm1.63,13.57-2.17-.73,6.92-20.59,2.18.73ZM401,44.61l-2.16-.78,3.28-9.1,2.16.78Zm5.43,2-2.15-.82,3.46-9,2.15.82Zm5.42,2.18L409.74,48l3.65-9,2.12.87Zm5.36,2.28-2.11-.92L419,41.35l2.11.92Zm.19,13.67-2.09-1,9.06-19.75,2.09,1ZM427.82,56l-2.06-1,4.2-8.7,2.06,1Zm5.24,2.63-2.05-1L435.4,49l2,1Zm5.11,2.71-2-1.08,4.57-8.51,2,1.09Zm5.1,2.84-2-1.12,4.75-8.4,2,1.13Zm5,3.25-2-1.17L451.11,58l2,1.17Zm5.06,2.75L451.33,69l5.09-8.22L458.37,62Zm4.89,3.15-1.92-1.26,5.27-8.1,1.92,1.25ZM463,76.63l-1.89-1.29,5.45-8,1.9,1.29ZM467.8,80l-1.86-1.33,5.6-7.85,1.86,1.34Zm-2.7,13.36L463.26,92l13-17.43,1.84,1.37Zm12-6.35-1.81-1.41,5.93-7.63,1.82,1.41Zm4.54,3.63-1.78-1.44L486,81.65l1.79,1.45Zm4.45,3.72-1.75-1.48,6.22-7.37L492.35,87Zm4.41,3.84-1.71-1.51,6.37-7.26,1.72,1.52Zm-4,13-1.69-1.55,14.7-16,1.69,1.55Zm12.63-5.08-1.66-1.59,6.71-7,1.65,1.59Zm4.13,4.08-1.62-1.63,6.81-6.81,1.63,1.62Zm4,4.15-1.6-1.65,7-6.67,1.59,1.66Zm4,4.29L509.71,117l7.11-6.52,1.55,1.69Zm-5.38,12.55-1.52-1.72,16.29-14.37,1.52,1.72ZM519,127.45l-1.48-1.75,7.37-6.22,1.48,1.75Zm3.68,4.49-1.45-1.78,7.51-6.08,1.45,1.78Zm3.59,4.57-1.41-1.82,7.63-5.93,1.41,1.81Zm3.53,4.67-1.37-1.84,7.73-5.75,1.37,1.85Zm-6.66,11.93-1.33-1.86,17.72-12.61,1.33,1.87Zm13.39-2.39-1.3-1.89,8-5.45,1.29,1.89Zm3.2,4.86-1.25-1.92,8.1-5.27,1.25,1.92Zm3.1,4.92-1.21-1.95,8.22-5.08,1.21,1.95Zm3,5-1.18-2,8.33-4.94,1.17,2Zm2.89,5-1.13-2,8.16-4.51,1.13,2Zm2.8,5.21-1.08-2,8.51-4.57,1.09,2Zm2.67,5.14-1-2,8.58-4.39,1,2Zm2.59,5.25-1-2.06,8.69-4.2,1,2.06Zm2.48,5.32-1-2.09,8.77-4,1,2.08Zm-9,10.24-.91-2.1,19.93-8.66.91,2.11Zm13.58.47L563,200l8.95-3.64.87,2.12Zm2.13,5.43-.82-2.14,9-3.46.82,2.14Zm2,5.44-.78-2.15,9.1-3.28.78,2.16Zm1.9,5.5-.73-2.17,9.14-3.1.73,2.18Zm-10,9.29-.69-2.19,20.74-6.49.69,2.19Zm13.45,1.85-.64-2.2,9.28-2.69.65,2.2Zm1.55,5.65-.59-2.22,9.32-2.5.59,2.21Zm1.42,5.63-.55-2.23,9.4-2.28.54,2.23Zm1.3,5.68-.49-2.24,9.43-2.1.5,2.24Zm-10.93,8.16-.46-2.25,21.3-4.27.45,2.25ZM579.8,258l-.4-2.26,9.5-1.7.41,2.26Zm1,5.76-.36-2.27,9.54-1.51.37,2.26Zm.82,5.79-.31-2.28,9.58-1.29.31,2.28Zm.71,5.78-.26-2.28,9.57-1.1.27,2.27Zm-11.74,7-.22-2.29L592,278l.21,2.28ZM583.32,287l-.17-2.29,9.62-.7.17,2.29Zm.33,5.83-.12-2.29,9.66-.52.12,2.29Zm.22,5.8-.07-2.29,9.65-.3.07,2.29Zm.11,5.87,0-2.29,9.65-.15,0,2.29Zm-.16,5.77,0-2.29,9.48.17,0,2.3Zm0,5.9.07-2.3,9.65.3-.07,2.29Zm-.27,5.8.12-2.29,9.65.48-.12,2.29Zm-.38,5.83.17-2.29,9.62.7-.17,2.29Zm-.5,5.79.22-2.28,9.61.88-.21,2.29ZM569.75,338l.26-2.28,21.59,2.47-.26,2.28Zm11.54,7.18.31-2.27,9.58,1.28-.31,2.28Zm-.85,5.73.35-2.27,9.54,1.51-.35,2.27Zm-1,5.75.4-2.25,9.51,1.69-.41,2.26Zm-1.1,5.71.45-2.25,9.47,1.88-.45,2.25Zm-13.31,3,.5-2.23,21.22,4.71-.5,2.24Zm10.73,8.37.54-2.23,9.4,2.28-.55,2.23Zm-1.46,5.63.6-2.22,9.31,2.47-.59,2.22ZM572.72,385l.64-2.2,9.28,2.69-.64,2.2Zm-1.7,5.59.68-2.19,9.22,2.87-.69,2.19Zm-13.55,1.59.73-2.17,20.6,6.92-.73,2.18Zm9.8,9.42.78-2.16,9.1,3.27-.78,2.17Zm-2.06,5.48.82-2.14,9,3.46-.82,2.14ZM563,412.5l.87-2.13,9,3.65-.87,2.12Zm-2.29,5.36.91-2.11,8.88,3.84-.91,2.1Zm-13.63.16,1-2.09,19.74,9-1,2.09Zm8.76,10.4,1-2.07,8.7,4.19-1,2.07Zm-2.63,5.23,1-2,8.62,4.39-1,2Zm-2.73,5.17,1.08-2,8.51,4.57-1.08,2Zm-2.81,5.06,1.13-2,8.4,4.75-1.13,2Zm-3.07,4.95,1.17-2L554,451.7l-1.16,2Zm-2.91,5.06,1.21-1.95,8.22,5.08L550,459Zm-3.16,4.94,1.24-1.92,8.11,5.27-1.25,1.92Zm-3.22,4.81,1.29-1.9,8,5.41-1.29,1.9ZM532,468.43l1.33-1.87,7.89,5.6L539.86,474Zm-13.37-2.69L520,463.9l17.46,13-1.37,1.84Zm6.42,12,1.41-1.81,7.62,5.93-1.4,1.81Zm-3.66,4.57,1.44-1.78,7.51,6.08-1.44,1.78Zm-3.75,4.51,1.48-1.76,7.37,6.23L525,493Zm-3.84,4.42,1.52-1.73,7.25,6.37L521,497.6Zm-13-4.08,1.56-1.69,16,14.7-1.55,1.69Zm5.13,12.58,1.59-1.65,7,6.66-1.58,1.66Zm-4.11,4.17,1.62-1.62,6.85,6.81-1.62,1.62ZM497.6,508l1.65-1.59,6.71,7-1.65,1.6Zm-4.27,4,1.68-1.55,6.56,7.11-1.69,1.55Zm-12.52-5.39,1.71-1.53,14.41,16.29-1.72,1.52Zm3.75,13.08,1.75-1.49,6.27,7.37L490.83,527Zm-4.47,3.69,1.78-1.45,6.08,7.48-1.78,1.44Zm-4.6,3.62,1.81-1.41,5.93,7.63-1.81,1.41Zm-4.68,3.54,1.84-1.37,5.78,7.73-1.84,1.37ZM459,523.81l1.86-1.34,12.64,17.69-1.87,1.33Zm2.36,13.4,1.9-1.29,5.45,8-1.9,1.3Zm-4.84,3.21,1.92-1.25,5.27,8.1-1.92,1.26Zm-4.93,3.12,1.95-1.21,5.12,8.18-1.95,1.21Zm-5,3,2-1.17,4.93,8.29-2,1.17Zm-5.17,2.8,2-1.13,4.78,8.22-2,1.13Zm-5,2.88,2-1.09,4.57,8.52-2,1.09ZM431.19,555l2-1,4.42,8.58-2,1ZM426,557.53l2.07-1,4.24,8.7-2.07,1ZM420.73,560l2.09-1,4.05,8.78-2.09,1Zm-10.3-9,2.1-.92L421.19,570l-2.1.91ZM410,564.61l2.12-.88,3.65,9-2.12.87Zm-5.44,2.13,2.14-.82,3.46,9-2.14.83Zm-5.44,2,2.16-.78,3.28,9.1-2.16.78Zm-5.55,1.92,2.18-.73,3.1,9.13-2.18.74Zm-9.25-10,2.19-.69L393,580.7l-2.19.69Zm-1.87,13.47,2.2-.64,2.69,9.28-2.2.64Zm-5.6,1.55,2.22-.6,2.51,9.32-2.22.59Zm-5.63,1.41,2.23-.55,2.32,9.39-2.23.55Zm-5.68,1.32,2.24-.51,2.1,9.43-2.23.51Zm-6.44-2.13,2.26-.46,2.56,12.5-2.25.46Zm-5.06,4.4,2.26-.41,1.73,9.51-2.26.41Zm-5.69,1,2.26-.36,1.51,9.54-2.26.36Zm-5.8.82,2.28-.31,1.33,9.58-2.28.31Zm-5.77.72,2.28-.27,1.11,9.58-2.28.27Zm-6.15-3.07,2.28-.21,1.23,13-2.28.21Zm-5.45,4.12,2.29-.17.7,9.62-2.29.17Zm-5.83.35,2.29-.12.51,9.65-2.29.13Zm-5.87.23,2.29-.08.34,9.65-2.29.08Zm-5.78.11,2.29,0,.15,9.65-2.3,0ZM302,585l2.29,0-.25,9.27-2.29,0Zm-5.93-.21,2.29.06-.29,9.66-2.3-.07Zm-5.87-.26,2.29.12-.47,9.65-2.29-.12Zm-5.83-.37,2.29.16L286,593.9l-2.29-.16Zm-5.79-.5,2.28.21-.88,9.62-2.29-.21Zm-5.42-4.14,2.28.25L274,592.57l-2.28-.26Zm-6.12,2.8,2.28.3L268,592.16l-2.27-.3Zm-5.8-.86,2.28.35L262,591.32l-2.27-.36Zm-5.74-1,2.26.4-1.7,9.5-2.26-.4Zm-5.77-1.11,2.25.45-1.88,9.46-2.25-.44Zm-4.91-4.54,2.24.49-2.77,12.46-2.25-.49Zm-6.44,2,2.24.54-2.29,9.4-2.23-.54Zm-5.62-1.44,2.21.59-2.46,9.32-2.22-.59Zm-5.65-1.59,2.21.63-2.65,9.29-2.21-.63Zm-5.52-1.67,2.19.67L220.9,582l-2.2-.68Zm-1.67-13.57,2.17.72-6.88,20.6L213,579.1Zm-9.41,9.81,2.16.77-3.24,9.1-2.16-.77Zm-5.43-2,2.14.82-3.43,9-2.14-.81Zm-5.42-2.16,2.12.86-3.64,9-2.13-.86Zm-5.37-2.28,2.11.91-3.83,8.88-2.11-.91Zm-.18-13.64,2.09.95-9,19.79-2.09-1ZM183.66,557l2.07,1-4.2,8.69-2.07-1Zm-5.18-2.6,2,1L176.14,564l-2-1Zm-5.17-2.72,2,1.09-4.57,8.51-2-1.09Zm-5.13-2.83,2,1.13-4.72,8.43-2-1.12ZM163,546.06l2,1.17-4.64,7.88-2-1.17Zm-4.85-3.21,2,1.21L155,552.27l-2-1.2Zm-4.92-3.14,1.93,1.26-5.23,8.1L148,547.82Zm-4.82-3.23,1.89,1.29-5.41,8-1.9-1.28Zm-4.77-3.33,1.87,1.33-5.59,7.89L138.06,541Zm2.63-13.4,1.84,1.37L135.2,538.58l-1.85-1.36Zm-12,6.42,1.82,1.41-5.89,7.63-1.82-1.4Zm-4.53-3.61,1.78,1.44-6.08,7.52-1.78-1.44Zm-4.51-3.75,1.76,1.48-6.23,7.4L119,526.21ZM120.83,515l1.73,1.51-6.37,7.26-1.73-1.51Zm4-13.05,1.69,1.55-14.67,16L110.19,518Zm-12.58,5.15,1.66,1.58-6.67,7-1.66-1.58ZM108.1,503l1.63,1.62-6.81,6.85-1.63-1.62Zm-4-4.15,1.59,1.65-7,6.71-1.59-1.65Zm-4-4.27,1.56,1.69-7.08,6.56L93,501.12ZM105.41,482l1.52,1.72-16.25,14.4-1.52-1.71Zm-13,3.81,1.48,1.75-7.37,6.26L85,492.07Zm-3.74-4.52,1.45,1.78-7.48,6.11-1.45-1.77ZM85,476.75l1.42,1.81-7.63,5.93-1.41-1.81Zm-3.54-4.68,1.38,1.84-7.74,5.79-1.38-1.84Zm6.65-11.9L89.48,462,71.8,474.68l-1.34-1.87ZM74.76,462.6l1.3,1.89-8,5.45-1.3-1.89Zm-3.24-4.9,1.26,1.92-8.07,5.31L63.45,463Zm-3.09-4.87,1.21,1.95-8.17,5.12L60.25,458Zm-3-5,1.17,2-8.29,4.94-1.17-2Zm-2.86-5.06,1.14,2-8.21,4.63-1.13-2Zm-2.87-5.11,1.09,2-8.51,4.6-1.09-2ZM57,432.49l1.05,2L49.44,439l-1-2Zm-2.58-5.24,1,2.06-8.7,4.24-1-2.06ZM51.91,422l1,2.09-8.78,4.05-1-2.08Zm9-10.27.92,2.1-19.93,8.7L41,420.41Zm-13.6-.42.88,2.12-8.92,3.68L38.38,415Zm-2.14-5.43L46,408l-9,3.5-.83-2.14Zm-2-5.44.79,2.16-9.06,3.32-.79-2.16Zm-1.92-5.53.74,2.17-9.14,3.1L32.07,398Zm10-9.28.69,2.19L31.2,394.37l-.69-2.19Zm-13.47-1.85.64,2.2-9.28,2.72-.65-2.2Zm-1.55-5.58.59,2.22-9.31,2.5-.6-2.21Zm-1.46-5.69.56,2.23-9.36,2.32-.55-2.23Zm-1.31-5.68.5,2.24L24.5,371.2,24,369Zm10.93-8.14.45,2.25-21.29,4.35L23.06,363Zm-13.21-3.29.41,2.26-9.51,1.74-.41-2.26Zm-1-5.75.37,2.27L21,353.42l-.37-2.27Zm-.84-5.79.32,2.27-9.58,1.33-.32-2.27Zm-.72-5.77.26,2.27-9.57,1.15-.27-2.28Zm11.72-7,.22,2.29L19,335.46l-.22-2.29Zm-12.8-4.6.18,2.29-9.62.73-.17-2.28Zm-.34-5.82.13,2.29-9.66.52-.12-2.29Zm-.23-5.8.07,2.29-9.65.33-.08-2.29ZM26.85,309l0,2.29-9.65.15,0-2.29Zm-.27-5.87,0,2.29-9.07-.07,0-2.3Zm.41-5.74-.07,2.3-9.65-.26.07-2.29Zm.24-5.8-.11,2.29-9.65-.47.11-2.3Zm.36-5.78-.16,2.29-9.65-.66.16-2.29Zm.48-5.86-.2,2.29-9.62-.85.21-2.28ZM41,275.53l-.25,2.28-21.59-2.39.25-2.28Zm-11.56-7.14-.3,2.27-9.58-1.25.3-2.27Zm.84-5.74-.35,2.27-9.54-1.47.35-2.27Zm1-5.76-.39,2.26-9.51-1.66.4-2.26Zm1.09-5.71-.45,2.25-9.46-1.88.44-2.25Zm13.3-3.09-.49,2.24-21.22-4.64.49-2.24Zm-10.75-8.32L34.31,242l-9.4-2.25.54-2.23Zm1.44-5.63-.58,2.22-9.36-2.47.58-2.22Zm1.55-5.59-.63,2.2-9.28-2.65.63-2.21ZM39.52,223l-.67,2.19-9.21-2.84.67-2.19Zm13.56-1.64-.73,2.18-20.63-6.86.72-2.18Zm-9.82-9.44L42.49,214l-9.1-3.24.77-2.16Zm2-5.44-.81,2.15-9-3.43.81-2.15Zm2.14-5.39-.86,2.13-9-3.61.86-2.12Zm2.26-5.36-.9,2.1L39.9,194l.9-2.11Zm13.66-.26-1,2.09-19.79-9,.95-2.1Zm-8.8-10.37-1,2.07L44.86,183l1-2.07Zm2.63-5.24-1,2.05-8.62-4.35,1-2.05Zm2.68-5.14-1.08,2-8.51-4.53,1.08-2Zm2.82-5.11-1.12,2-8.43-4.71,1.12-2Zm3.06-5-1.17,2-8.2-4.76,1.16-2Zm2.88-5-1.2,2-8.21-5.05,1.2-1.95Zm3.13-4.92-1.24,1.93-8.11-5.23,1.25-1.93ZM75,149.78l-1.28,1.91-8-5.42,1.28-1.9ZM78.28,145,77,146.88l-7.88-5.56,1.32-1.88Zm13.42,2.6-1.36,1.85-17.5-12.9,1.36-1.85Zm-6.41-12-1.4,1.82-7.67-5.9,1.41-1.81Zm3.6-4.55-1.44,1.79-7.51-6,1.43-1.8Zm3.7-4.47-1.47,1.76-7.4-6.19,1.47-1.76Zm3.83-4.42-1.52,1.73-7.25-6.38,1.51-1.72Zm13.06,4-1.55,1.69L91.87,113.18l1.55-1.7Zm-5.18-12.57-1.58,1.67-7-6.67,1.58-1.67Zm4.1-4.18L106.78,111l-6.85-6.82,1.62-1.63Zm4.14-4.06-1.65,1.59-6.7-6.92,1.64-1.6Zm4.26-4-1.68,1.56-6.56-7.07,1.68-1.56Zm12.58,5.33-1.72,1.53L113.22,91.94l1.71-1.52Zm-3.85-13-1.74,1.49-6.26-7.33,1.74-1.49ZM130,89.88l-1.77,1.46-6.12-7.48,1.78-1.45Zm4.55-3.61-1.8,1.42-6-7.59,1.8-1.41Zm4.66-3.54-1.84,1.38-5.79-7.74L133.46,75Zm11.92,6.62-1.86,1.34L136.63,73.05l1.87-1.34ZM148.72,76l-1.89,1.3-5.49-8,1.89-1.3Zm4.88-3.25L151.68,74l-5.3-8.07,1.91-1.26Zm4.92-3.13-2,1.22-5.12-8.18,2-1.22Zm5-3-2,1.18-5-8.29,2-1.18Zm5.08-2.88-2,1.14-4.68-8.17,2-1.14Zm5.07-2.87-2,1.1L167,53.45l2-1.09Zm5.12-2.69-2,1.06-4.43-8.59,2-1ZM184,55.53l-2.06,1-4.24-8.66,2.06-1Zm5.3-2.49-2.08,1-4.05-8.77,2.08-1Zm10.29,9-2.11.92L188.77,43l2.11-.93ZM200,48.4l-2.12.87-3.69-8.91,2.12-.88Zm5.43-2.15-2.14.83-3.5-9,2.14-.83Zm5.42-2L208.7,45l-3.31-9.06,2.15-.79Zm5.49-1.91-2.17.74L211,33.91l2.17-.74Zm9.34,10-2.19.7L216.9,32.27l2.19-.69Zm1.78-13.47-2.2.65-2.73-9.25,2.2-.65Zm5.63-1.57-2.21.61-2.54-9.32,2.21-.61Zm5.69-1.46-2.23.56L234.19,27l2.23-.55Zm5.67-1.32-2.24.51-2.14-9.43,2.24-.51Zm8.21,10.9-2.25.47L246,24.53l2.25-.46Zm3.2-13.2-2.25.41-1.73-9.5,2.25-.42Zm5.76-1-2.27.37L257.81,22l2.26-.37Zm5.73-.84-2.27.32-1.37-9.58,2.28-.32Zm5.77-.73-2.28.27-1.14-9.58L272,20Zm7,11.7-2.28.23-2.14-21.63,2.29-.23Zm4.63-12.8-2.29.17-.73-9.61L284,18.9Zm5.83-.36-2.3.13-.55-9.66L290,18.5Zm5.84-.25-2.29.08-.33-9.65,2.29-.08Zm7-9.81H301v9.83h2.39ZM245.73,564.35l-3.3-.85a1.29,1.29,0,0,0-.83,0,.78.78,0,0,0-.41.57.65.65,0,0,0,.08.57,1,1,0,0,0,.59.33l1.77.46a2.37,2.37,0,0,1,1.45.81,1.8,1.8,0,0,1,.11,1.5,1.87,1.87,0,0,1-.9,1.3,2.58,2.58,0,0,1-1.8,0l-3.56-.9.29-1.14,3.35.86a1.45,1.45,0,0,0,.84,0,.65.65,0,0,0,.37-.49.67.67,0,0,0-.06-.62,1.26,1.26,0,0,0-.69-.36l-1.58-.4a2.5,2.5,0,0,1-1.49-.85,1.76,1.76,0,0,1-.16-1.51,2,2,0,0,1,.91-1.34,2.62,2.62,0,0,1,1.82,0l3.49.89Zm2.33-.61,1.45.3.45,5.24,2.28-4.67,1.59.33.41,5.24,2.42-4.65,1.38.29-3.32,6-1.65-.34-.37-5.08L250.5,571l-1.64-.35Zm12.45,9.11-1.43-.24,1.11-6.46,1.42.24Zm9.37-4-3.37-.48a1.32,1.32,0,0,0-.83.09.8.8,0,0,0-.35.61.69.69,0,0,0,.14.56,1,1,0,0,0,.62.26l1.81.26a2.49,2.49,0,0,1,1.54.65,1.87,1.87,0,0,1,.27,1.48,1.92,1.92,0,0,1-.75,1.4,2.61,2.61,0,0,1-1.79.22l-3.64-.51.17-1.16,3.41.49a1.55,1.55,0,0,0,.85-.06.65.65,0,0,0,.32-.53.7.7,0,0,0-.14-.61,1.19,1.19,0,0,0-.72-.28l-1.61-.23a2.48,2.48,0,0,1-1.58-.68,1.77,1.77,0,0,1-.31-1.49,1.9,1.9,0,0,1,.76-1.43,2.58,2.58,0,0,1,1.79-.23l3.58.51Zm8.62,1-3.39-.39a1.27,1.27,0,0,0-.82.12.79.79,0,0,0-.32.62.66.66,0,0,0,.15.56,1,1,0,0,0,.63.24l1.81.21a2.41,2.41,0,0,1,1.55.61,1.82,1.82,0,0,1,.32,1.47,1.89,1.89,0,0,1-.71,1.41,2.6,2.6,0,0,1-1.78.28l-3.65-.41.13-1.16,3.42.39a1.49,1.49,0,0,0,.85-.08.84.84,0,0,0,.15-1.14,1.11,1.11,0,0,0-.73-.26l-1.62-.19a2.45,2.45,0,0,1-1.59-.63,1.81,1.81,0,0,1-.37-1.48,1.91,1.91,0,0,1,.72-1.45,2.63,2.63,0,0,1,1.8-.28l3.58.4Zm52.1-1.33,2-.16,2.07,4.88L336,568l2-.16.53,6.53-1.35.11-.3-5.1-1.27,5.23-1.45.12-2.15-5,.56,5.14-1.41.11Zm12-1.13,1.45-.17,3.57,6.17-1.52.18-.79-1.48-2.83.35-.39,1.62-1.45.17Zm.83,1.21-.65,2.63,1.94-.24Zm5.32-2,3-.48a3.06,3.06,0,0,1,2.44.45,3.78,3.78,0,0,1,1.15,2.42,4.27,4.27,0,0,1,0,1.56,2.48,2.48,0,0,1-1.33,1.72,4.54,4.54,0,0,1-1.18.32l-3,.48Zm3.11.66-1.57.24.67,4.22,1.57-.24a1.5,1.5,0,0,0,1.18-.66,4.2,4.2,0,0,0-.53-3.31A1.5,1.5,0,0,0,351.91,567.21Zm8.23-1.48a1.53,1.53,0,0,0-1,.59,1.65,1.65,0,0,0-.2,1.21l3.75-.74.22,1.12-3.75.74a1.79,1.79,0,0,0,.59,1.14,1.65,1.65,0,0,0,1.25.13l2.22-.44.22,1.12-2.29.45a4.37,4.37,0,0,1-1.21.11,2.3,2.3,0,0,1-.9-.28,2.4,2.4,0,0,1-.94-.88,4.24,4.24,0,0,1-.55-1.46,3.72,3.72,0,0,1,.25-2.66,3,3,0,0,1,2.13-1.26l2.24-.45.22,1.12Z" transform="translate(-0.82)"/>
  <g id="chronoDials">
    <circle id="chronoDial" cx="447.22" cy="290.39" r="67.89"/>
    <circle id="chronoDial-2" data-name="chronoDial" cx="164.59" cy="290.39" r="67.89"/>
    <circle id="chronoDial-3" data-name="chronoDial" cx="305.71" cy="449.08" r="67.89"/>
  </g>
  <g id="chronoRings">
    <path id="chronoRing" class="cls-6" d="M259.57,290.39a94.16,94.16,0,1,1-94.16-94.16A94.16,94.16,0,0,1,259.57,290.39Zm-94.16-67.9a67.9,67.9,0,1,0,67.9,67.9A67.9,67.9,0,0,0,165.41,222.49Z" transform="translate(-0.82)"/>
    <path id="chronoRing-2" data-name="chronoRing" class="cls-6" d="M542.2,290.39a94.16,94.16,0,1,1-94.15-94.16A94.15,94.15,0,0,1,542.2,290.39Zm-94.15-67.9a67.9,67.9,0,1,0,67.89,67.9A67.9,67.9,0,0,0,448.05,222.49Z" transform="translate(-0.82)"/>
    <path id="chronoRing-3" data-name="chronoRing" class="cls-6" d="M400.69,449.08a94.16,94.16,0,1,1-94.15-94.16A94.15,94.15,0,0,1,400.69,449.08Zm-94.15-67.89a67.89,67.89,0,1,0,67.89,67.89A67.89,67.89,0,0,0,306.54,381.19Z" transform="translate(-0.82)"/>
  </g>
  <g id="chronoRingsMetallic">
    <path class="cls-7" d="M400.69,449.08a94.16,94.16,0,1,1-94.15-94.16A94.15,94.15,0,0,1,400.69,449.08Zm-94.15-67.89a67.89,67.89,0,1,0,67.89,67.89A67.89,67.89,0,0,0,306.54,381.19Z" transform="translate(-0.82)"/>
    <path class="cls-8" d="M542.2,290.39a94.16,94.16,0,1,1-94.15-94.16A94.15,94.15,0,0,1,542.2,290.39Zm-94.15-67.9a67.9,67.9,0,1,0,67.89,67.9A67.9,67.9,0,0,0,448.05,222.49Z" transform="translate(-0.82)"/>
    <path class="cls-9" d="M259.57,290.39a94.16,94.16,0,1,1-94.16-94.16A94.16,94.16,0,0,1,259.57,290.39Zm-94.16-67.9a67.9,67.9,0,1,0,67.9,67.9A67.9,67.9,0,0,0,165.41,222.49Z" transform="translate(-0.82)"/>
    <circle class="cls-10" cx="448.05" cy="290.39" r="87.24" transform="translate(-74.93 401.87) rotate(-45)"/>
    <circle class="cls-10" cx="448.04" cy="290.39" r="85.17" transform="translate(-74.93 401.87) rotate(-45)"/>
    <circle class="cls-10" cx="447.22" cy="290.39" r="83.1"/>
    <circle class="cls-10" cx="447.22" cy="290.39" r="81.02"/>
    <circle class="cls-10" cx="447.22" cy="290.39" r="78.95"/>
    <circle class="cls-10" cx="448.05" cy="290.39" r="76.88" transform="translate(-74.93 401.87) rotate(-45)"/>
    <circle class="cls-10" cx="447.22" cy="290.39" r="74.46"/>
    <circle class="cls-10" cx="448.05" cy="290.39" r="72.39" transform="matrix(0.16, -0.99, 0.99, 0.16, 88.82, 686.13)"/>
    <circle class="cls-10" cx="447.22" cy="290.39" r="70.31"/>
    <circle class="cls-10" cx="164.59" cy="290.39" r="91.04"/>
    <circle class="cls-10" cx="164.59" cy="290.39" r="87.24"/>
    <circle class="cls-10" cx="164.59" cy="290.39" r="85.17"/>
    <circle class="cls-10" cx="164.59" cy="290.39" r="83.1"/>
    <circle class="cls-10" cx="164.59" cy="290.39" r="81.02"/>
    <circle class="cls-10" cx="164.59" cy="290.39" r="78.95"/>
    <circle class="cls-10" cx="164.59" cy="290.39" r="76.88"/>
    <circle class="cls-10" cx="164.59" cy="290.39" r="74.46"/>
    <circle class="cls-10" cx="164.59" cy="290.39" r="72.39"/>
    <circle class="cls-10" cx="164.59" cy="290.39" r="70.31"/>
    <circle class="cls-10" cx="305.72" cy="449.08" r="91.04"/>
    <circle class="cls-10" cx="305.72" cy="449.08" r="87.24"/>
    <circle class="cls-10" cx="305.72" cy="449.08" r="85.17"/>
    <circle class="cls-10" cx="305.72" cy="449.08" r="83.1"/>
    <circle class="cls-10" cx="305.72" cy="449.08" r="81.02"/>
    <circle class="cls-10" cx="305.72" cy="449.08" r="78.95"/>
    <circle class="cls-10" cx="305.71" cy="449.08" r="76.88"/>
    <circle class="cls-10" cx="305.72" cy="449.08" r="74.46"/>
    <circle class="cls-10" cx="305.72" cy="449.08" r="72.39"/>
    <circle class="cls-10" cx="305.72" cy="449.08" r="70.31"/>
    <circle class="cls-10" cx="448.05" cy="290.39" r="91.04" transform="translate(-74.93 401.87) rotate(-45)"/>
  </g>
  <path id="chronoMarkers" d="M283.29,369.17c-.56-4,2.22-5.22,9-6.3,5.83-.93,9.65-1.38,10.2,2.55l-4.64.74c-.29-1.8-1.62-1.63-5.21-1.06-4.36.7-5.09,1-4.71,3.36l.35,2.23h.07c.59-1.34,3-1.89,5.49-2.28,6.82-1.08,9.19-1,9.77,2.69.61,3.87-1.69,5-9,6.22-7.61,1.2-9.88.85-10.65-4Zm5.42,4.17c.36,2.25,1,2.47,5.53,1.74,4.27-.68,5.12-.83,4.76-3.05-.32-2-1.32-1.93-5.45-1.28C289.87,371.34,288.43,371.57,288.71,373.34Zm38.6-3.41-.34,2.6c-.68,5.1-3.7,5.55-11.41,4.51s-10.5-2.26-9.83-7.36l.35-2.63c.64-4.77,2.64-5.69,11.41-4.51C325.19,363.57,328,364.83,327.31,369.93Zm-5.08,2.62.51-3.9c.39-2.92-.75-3.23-5.55-3.87s-6-.64-6.36,2.27l-.52,3.9c-.39,2.93.72,3.2,5.55,3.85S321.83,375.48,322.23,372.55Zm49.21,109.06,6.43-18.43,2.59.9c3.48,1.2,2.86,3.8,1.44,9.46-1.2,5-1.86,6.08.61,6.94,1.8.62,2.43-.37,3.63-3.82,1.48-4.25,1.74-5-1.06-6l1.55-4.44c3.32,1.15,4.77,2.24,1.65,11.18-2,5.78-3.73,8.77-7.32,7.52s-3.3-3.49-1.73-9.78c1.16-4.57,1.71-5.92-.32-6.63l-.45-.15-4.88,14Zm-5.66,23.06-2.13-1.52c-4.19-3-3.18-5.87,1.34-12.2s6.9-8.24,11.1-5.25l2.16,1.53c3.92,2.8,3.79,5-1.34,12.2C372.4,505.77,370,507.65,365.78,504.67Zm.06-5.72,3.21,2.27c2.4,1.71,3.2.84,6-3.1s3.36-5,1-6.69l-3.21-2.29c-2.41-1.7-3.16-.85-6,3.13S363.43,497.23,365.84,499ZM241,492.22l-1.93-2.35,1.62-1.33,1.92,2.35L245,489l3,3.63-2.38,1.94,8.94,10.9-2.33,1.91-13.71-3.6-4.64-5.66Zm-2.63,8.22.09.1,12,3.16L244,495.85Zm-11.22-30,2.41-1c4.75-2,6.66.39,9.68,7.56s3.36,10.2-1.38,12.19l-2.45,1c-4.44,1.87-6.24.6-9.67-7.56C222.75,475.49,222.43,472.45,227.17,470.46Zm4.83,3.07-3.63,1.52c-2.7,1.14-2.39,2.28-.52,6.74s2.47,5.48,5.18,4.34l3.63-1.52c2.73-1.14,2.39-2.24.5-6.73S234.73,472.39,232,473.53ZM85.29,280.69c-1.88-.09-1.94,1.15-2.17,5.26s-.25,5.39,2.21,5.52l2.37.12v-.07c-1.09-1.19-1.23-3.21-1.06-6.53.3-5.52.93-8.67,4.82-8.47,3.56.19,4.42,2.21,4,10.08-.46,8.53-1.73,10-6.69,9.76l-4.16-.22c-3.64-.2-4.09-4.06-3.76-10.31.3-5.66.61-10,4.67-9.83Zm5.93.53c-1.88-.1-2.12.51-2.36,5s-.14,5.4,1.8,5.5c2.14.12,2.34-1.37,2.55-5.27C93.45,282,93.29,281.33,91.22,281.22Zm65,84.13c0-4.06,2.94-4.85,9.82-4.93,5.91-.07,9.74.05,9.72,4l-4.7.05c0-1.82-1.37-1.84-5-1.81-4.42.05-5.18.21-5.15,2.63l0,2.27H161c.78-1.24,3.26-1.42,5.75-1.45,6.9-.07,9.23.4,9.27,4.09,0,3.92-2.4,4.75-9.82,4.84-7.71.08-9.89-.61-9.95-5.52Zm4.75,4.9c0,2.28.58,2.59,5.21,2.54,4.32-.05,5.18-.08,5.16-2.33,0-2-1-2.1-5.21-2C162.36,368.45,160.91,368.47,160.93,370.25Zm-3-152.2-4.64.79-2-11.92-6,4.83-3.08-1.21,7.45-5.67,5.89-1Zm25.48,1.4L164,217.16l.32-2.73c.43-3.65,3.1-3.61,8.93-3.44,5.18.09,6.35.5,6.66-2.09.22-1.89-.88-2.29-4.52-2.72-4.47-.52-5.29-.61-5.64,2.33l-4.67-.55c.41-3.49,1.17-5.14,10.57-4,6.08.71,9.37,1.74,8.92,5.51s-2.69,4-9.18,3.8c-4.72-.15-6.15-.39-6.4,1.74l-.06.48,14.73,1.74Zm59.38,65.31c-2.67,0-2.71.8-2.69,5.12s0,5.6,2,5.6c1.53,0,2.12-.67,2.11-3.47v-3.76h2.1V292c0,2.59.64,3,2.36,3,1.38,0,1.5-1.14,1.49-5.18,0-4.29-.26-4.84-2.49-4.84v-4.69c4.14,0,4.74,2.64,4.76,9.52,0,4.91,0,9.88-3.73,9.9-1.71,0-3.17-.59-3.37-4.08h-.08c-.13,3.55-1.26,4.49-3.13,4.5-4,0-4.29-3.69-4.31-10.29s.18-9.82,4.94-9.83Zm187.85-70c.42,2.63,1.21,2.55,5.48,1.87s5.53-.9,5.21-2.87c-.24-1.52-1-2-3.75-1.56l-3.71.59-.33-2.07,3.72-.59c2.56-.4,2.9-1.1,2.63-2.81-.22-1.36-1.36-1.3-5.35-.66-4.24.67-4.74,1-4.39,3.2l-4.65.74c-.65-4.1,1.89-5.11,8.68-6.18,4.85-.78,9.76-1.54,10.35,2.17.27,1.68-.08,3.22-3.5,3.95v.08c3.54-.43,4.64.54,4.93,2.4.63,3.93-3,4.81-9.49,5.85s-9.73,1.33-10.47-3.37Zm38.69-3.3L469,214c-.68,5.1-3.7,5.55-11.41,4.52s-10.5-2.26-9.83-7.36l.35-2.63c.63-4.77,2.64-5.69,11.41-4.51C467.22,205.09,470,206.35,469.34,211.45Zm-5.09,2.62.52-3.91c.39-2.91-.76-3.22-5.55-3.86s-6-.64-6.37,2.27l-.52,3.9c-.39,2.93.73,3.2,5.56,3.85S463.86,217,464.25,214.07ZM515,318.73l1.54-4.44,11.43,4-1.32-7.6,2.55-2.11,1.36,9.25-2,5.65Zm-7.21,27.45-2.12-1.51c-4.19-3-3.18-5.87,1.33-12.2s6.91-8.24,11.1-5.26l2.16,1.54c3.93,2.79,3.8,5-1.34,12.2C514.42,347.29,512,349.17,507.8,346.18Zm.07-5.72,3.21,2.28c2.39,1.71,3.2.84,6-3.1s3.36-5,1-6.69l-3.21-2.29c-2.41-1.71-3.17-.85-6,3.12S505.46,338.75,507.87,340.46Zm-122-11.41,12.38,15.09-2.13,1.73c-2.85,2.34-4.75.46-8.83-3.7-3.66-3.65-4.22-4.76-6.24-3.1-1.47,1.2-.95,2.25,1.37,5.08,2.84,3.47,3.38,4.1,5.67,2.23l3,3.63c-2.72,2.23-4.41,2.9-10.41-4.42-3.87-4.73-5.53-7.75-2.59-10.16s4.7-1,9.25,3.63c3.3,3.37,4.16,4.54,5.82,3.18l.38-.3-9.4-11.46ZM369.2,312l2.41-1c4.75-2,6.66.39,9.67,7.56s3.37,10.2-1.37,12.19l-2.45,1c-4.44,1.86-6.25.6-9.67-7.56C364.78,317,364.46,314,369.2,312Zm4.83,3.07-3.63,1.52c-2.71,1.13-2.4,2.28-.53,6.74s2.48,5.48,5.19,4.34l3.63-1.52c2.73-1.14,2.39-2.24.5-6.73S376.76,313.91,374,315.05Zm-102.76,76,1.63-.94L263.39,374c-.55.31-1.1.61-1.63.93Zm109.94,14.08L365,414.61c.32.54.63,1.08.94,1.63l16.18-9.48C381.84,406.22,381.53,405.67,381.21,405.13Zm-41.44-15.25c.54.3,1.09.61,1.63.94l9.51-16.17c-.54-.32-1.08-.62-1.63-.93Zm-101.13,59.2c0-.49,0-1,0-1.45l-18.75-.07c0,.5,0,1,0,1.52,0,.12,0,.23,0,.35l18.76.08C238.65,449.37,238.64,449.22,238.64,449.08Zm135.79,0c0,.33,0,.67,0,1l18.76.08c0-.36,0-.72,0-1.08s0-.53,0-.8l-18.76-.08C374.41,448.49,374.43,448.78,374.43,449.08ZM307.2,535.71V517h-.66c-.41,0-.81,0-1.21,0V535.7c.4,0,.8,0,1.21,0Zm34.57-28.59c-.53.33-1.08.63-1.62.95l9.51,16.16c.54-.31,1.09-.61,1.63-.94Zm-69.25.71c-.54-.31-1.08-.63-1.61-1L261.39,523c.53.33,1.08.63,1.62,1ZM231.4,405.94l16.18,9.48c.32-.55.62-1.1.94-1.63l-16.18-9.48C232,404.85,231.71,405.4,231.4,405.94ZM130.62,232.08l1.62-.93-9.5-16.69-1.63.94ZM198,230.82c.55.29,1.09.61,1.62.93l9.51-16.68c-.54-.32-1.08-.64-1.62-.94ZM89.08,248.42l16.69,9.5c.3-.55.62-1.08.94-1.62L90,246.79C89.71,247.33,89.39,247.87,89.08,248.42Zm151.54-2L223.93,256c.32.54.63,1.09.94,1.63l16.68-9.5C241.25,247.54,240.93,247,240.62,246.46ZM90.2,334.3l16.69-9.5c-.32-.54-.64-1.09-.94-1.63l-16.69,9.5C89.57,333.22,89.88,333.76,90.2,334.3ZM241.37,333l-16.69-9.51c-.3.55-.61,1.1-.94,1.63l16.69,9.51C240.76,334.09,241.06,333.55,241.37,333ZM132.43,349.73l-1.63-.94-9.51,16.69,1.63.94Zm67-.6c-.54.31-1.07.63-1.62.93l9.5,16.69c.55-.3,1.09-.62,1.63-.94ZM371.78,248.29l16.69,9.51c.3-.55.62-1.09.94-1.63l-16.69-9.5C372.4,247.21,372.08,247.75,371.78,248.29Zm151.4-2-16.69,9.51c.32.54.63,1.08.94,1.63L524.12,248C523.81,247.42,523.5,246.87,523.18,246.33ZM448.72,377.48l0-19.22-.63,0c-.42,0-.83,0-1.24,0l0,19.21c.4,0,.79,0,1.2,0Zm71.2-94.87c.06.62.11,1.25.16,1.87l10.63-1c-.05-.62-.09-1.26-.16-1.88ZM417.67,224.78l1.71-.77-4.31-9.78c-.58.25-1.14.51-1.71.78Zm-12.76,7.59c.5-.37,1-.73,1.53-1.09l-6.22-8.68c-.51.36-1,.71-1.53,1.08ZM379,268.79c.19-.6.4-1.18.61-1.78l-10.15-3.35c-.2.59-.41,1.18-.6,1.78Zm111.18-37.12,1.51,1.12,6.39-8.57-1.53-1.12ZM527,264.94l-10.21,3.16c.19.59.38,1.19.56,1.79l10.21-3.15C527.41,266.13,527.23,265.53,527,264.94Zm-25.34-23c.42.46.82.94,1.23,1.42l8-7c-.4-.48-.81-1-1.23-1.43Zm-24.9-17.88,1.72.77,4.42-9.72-1.71-.78ZM376.1,283.35c.06-.63.14-1.25.22-1.87l-10.62-1.19c-.08.62-.17,1.24-.22,1.86Zm10-48.18L394,242.4c.42-.46.84-.93,1.27-1.38l-7.87-7.23C387,234.25,386.54,234.7,386.12,235.17ZM463.55,361c-.61.14-1.23.26-1.84.38l2.2,10.46,1.84-.38Zm27.07-12.19c-.51.37-1,.74-1.54,1.09l6.23,8.69,1.53-1.09ZM376.18,298.18c-.07-.62-.12-1.24-.17-1.87l-10.63,1c.05.63.09,1.26.15,1.88Zm154.42.62L520,297.6c-.06.63-.15,1.25-.23,1.87l10.62,1.19C530.45,300,530.54,299.43,530.6,298.8Zm-52.87,57.5c-.57.26-1.13.52-1.71.76l4.32,9.79c.57-.25,1.14-.52,1.71-.78Zm-44.19,4.92c-.62-.12-1.22-.28-1.83-.42l-2.23,10.45c.61.14,1.21.3,1.83.43Zm-28.12-12.46c-.5-.37-1-.74-1.5-1.13l-6.38,8.57c.5.39,1,.77,1.5,1.14Zm13.26,7.68c-.57-.25-1.14-.5-1.71-.77l-4.42,9.73,1.71.77Z" transform="translate(-0.82)"/>
  <g id="chronoHands">
    <path id="chronoHand" class="cls-11" d="M451.29,277.21V217.75l-3.3-11-3.26,11v59.42a13.71,13.71,0,1,0,6.56,0Z" transform="translate(-0.82)"/>
    <path id="chronoHand-2" data-name="chronoHand" class="cls-11" d="M168.75,277.21V217.75l-3.3-11-3.26,11v59.42a13.71,13.71,0,1,0,6.56,0Z" transform="translate(-0.82)"/>
    <path id="chronoHand-3" data-name="chronoHand" class="cls-11" d="M309.66,435.59V376.13l-3.29-11.05-3.27,11.05v59.42a13.72,13.72,0,1,0,6.56,0Z" transform="translate(-0.82)"/>
  </g>
  <g id="screws">
    <circle id="screw" class="cls-12" cx="446.93" cy="290.42" r="5.4"/>
    <circle id="screw-2" data-name="screw" class="cls-13" cx="164.28" cy="290.78" r="5.4"/>
    <circle id="screw-3" data-name="screw" class="cls-14" cx="305.49" cy="448.62" r="5.4"/>
  </g>
  <g id="daytonaText">
    <path class="cls-15" d="M251,356.93l7.17-3.71c4.15-2.14,6.36-2.18,7.6.21l1.08,2.08c.95,1.82.9,3.9-3.64,6.25l-7.65,4Zm11.46,3.39c1.95-1,2-2.34,1.51-3.32l-1.08-2.07c-.76-1.47-1.77-1.41-4-.27l-4.29,2.22,3.07,5.91Z" transform="translate(-0.82)"/>
    <path class="cls-15" d="M272.45,355.68l-.43,2.11-3.2,1,2.29-11.16,4.55-1.47,8.5,7.65-3.13,1-1.63-1.44Zm1.47-7.38h0l-1.17,5.78,5.56-1.8Z" transform="translate(-0.82)"/>
    <path class="cls-15" d="M291.88,348.86l.6,3.75-3.21.52-.6-3.75-7-5.05,3.65-.59,4.63,3.53H290l3.37-4.82,3.69-.6Z" transform="translate(-0.82)"/>
    <path class="cls-15" d="M306.05,351.61l-3.25.07-.18-8.26-5,.1,0-1.62,13.17-.28,0,1.62-5,.11Z" transform="translate(-0.82)"/>
    <path class="cls-15" d="M326.31,346.88l-.32,2.65c-.37,3.14-2.53,3.5-7.62,2.88s-7-1.38-6.65-4.61l.31-2.65c.37-3,2.2-3.37,7.54-2.73C324.41,343,326.69,343.72,326.31,346.88Zm-11.05-1.34-.31,2.65c-.24,1.95.39,2.22,3.62,2.61,2.93.35,4,.24,4.2-1.66l.31-2.65c.29-1.84-.83-2.11-3.7-2.46C315.9,343.61,315.52,344,315.26,345.54Z" transform="translate(-0.82)"/>
    <path class="cls-15" d="M342,347.62l3.11.94L342.24,358l-5.17-1.56-4.5-10-.11,0-2.13,8-3.11-.94,2.86-9.47,5.14,1.55,4.55,10,.08,0Z" transform="translate(-0.82)"/>
    <path class="cls-15" d="M347.83,358.65l-1.78,1.2-3-1.52,9.47-6.31,4.26,2.15.67,11.42-2.94-1.49-.14-2.17Zm6.24-4.22,0,0-4.89,3.28,5.22,2.63Z" transform="translate(-0.82)"/>
  </g>
  <rect class="cls-1" x="246.99" y="217.99" width="116.64" height="26.93"/>
  <g id="logo">
    <g id="logo-2" data-name="logo">
      <path class="cls-4" d="M320.39,117.91H323v14.68h-2.63v1.31h18.38v-6.23h-1.4v1.58a4.56,4.56,0,0,1-.07,1.08,3.27,3.27,0,0,1-.72,1.31,3.2,3.2,0,0,1-1.86.93,5.48,5.48,0,0,1-.82,0h-6.55v-7.28h1.27a8.07,8.07,0,0,1,1.31,0,2.24,2.24,0,0,1,1.85,1.66,6.26,6.26,0,0,1,.05,1.45h1.28V121.2h-1.28a6,6,0,0,1-.05,1.36,2.11,2.11,0,0,1-1.85,1.53,8.18,8.18,0,0,1-1.32,0h-1.26v-6.2h6.52a5.15,5.15,0,0,1,1.07.06,3.53,3.53,0,0,1,1.38.64,2.85,2.85,0,0,1,1,1.87c0,.69,0,1.37,0,2.06h1.4v-6H320.39v1.31Zm-47,12.31c-.14-.39-.28-.77-.42-1.17a5.27,5.27,0,0,0-2.7-3.24,3.74,3.74,0,0,0-1.1-.36h0l.43-.09.72-.24a4.63,4.63,0,0,0,2.21-1.87,4.24,4.24,0,0,0,.49-1.15,4.4,4.4,0,0,0-.06-2.31,4.52,4.52,0,0,0-2.76-2.88,8.6,8.6,0,0,0-3-.33h-13v1.3h2.61v14.69h-2.65v1.31h9.63v-1.32h-2.66v-7c2.15,0,4.28-.08,5.63.66,1.78,1,2.44,3.24,3,5.35.13.49.21,1,.35,1.52.06.28.13.55.19.83h6c0-.44,0-.87,0-1.31h-2.12C274,131.78,273.72,131,273.42,130.22Zm-4.86-7.41a3.71,3.71,0,0,1-2.14,1.3,10.18,10.18,0,0,1-1.95.08h-3.31v-6.32h3.34a9.11,9.11,0,0,1,2.24.16,3.27,3.27,0,0,1,2.27,2.06,5.57,5.57,0,0,1,.14.77A3,3,0,0,1,268.56,122.81Zm92.78,9.55a8.25,8.25,0,0,1-2-2L356,126.49c-.7-.83-1.42-1.65-2.12-2.47-.06,0,.28-.39.35-.48l1.33-1.47c.79-.95,1.69-1.82,2.49-2.76a3.83,3.83,0,0,1,1.53-1.28,6.92,6.92,0,0,1,2.15-.15v-1.27h-7.46v1.27c.7,0,1.89-.13,2.18.26s-.42,1.09-.67,1.39l-2.92,3.26c-.07,0-.2-.19-.26-.26-.28-.33-.56-.66-.85-1l-2-2.37c-.2-.23-.64-.58-.36-1a.7.7,0,0,1,.38-.28h1.77v-1.27h-9.34v1.27a4.28,4.28,0,0,1,1.35.14,6,6,0,0,1,2.07,1.89l4.91,5.7-4.28,4.78c-.27.32-.57.6-.84.91a3.68,3.68,0,0,1-1.47,1.19,7.39,7.39,0,0,1-2.22.15v1.26h8v-1.26h-1.48a2.51,2.51,0,0,1-.68,0,.6.6,0,0,1-.32-.21c-.43-.55.53-1.26.79-1.58,1.18-1.32,2.35-2.64,3.53-3.95,0,0,0,0,0,0l3.38,3.94c.26.32,1.15,1.05.81,1.57a.58.58,0,0,1-.36.26,2.65,2.65,0,0,1-.64,0h-1.28v1.26h10.07v-1.26A5,5,0,0,1,361.34,132.36Zm-64.52-10.6a9.83,9.83,0,0,0-7-5.58,10.66,10.66,0,0,0-2.56-.24l-1.06.08a13.81,13.81,0,0,0-2.1.47,9.85,9.85,0,0,0-6.07,5.69,9.35,9.35,0,0,0-.46,1.77,7.94,7.94,0,0,0,.45,4.21c.13.32.24.63.39.94a9.68,9.68,0,0,0,4.39,4.28,9.43,9.43,0,0,0,1.41.57,9,9,0,0,0,3.16.49h1.1a18.68,18.68,0,0,0,2-.37,9.72,9.72,0,0,0,6.39-5.48,8.16,8.16,0,0,0,.69-3.38,5.89,5.89,0,0,0,0-.95A11.11,11.11,0,0,0,296.82,121.76Zm-3.46,3.83,0,.67a13.69,13.69,0,0,1-.25,1.36c-.59,2.18-1.74,4-3.84,4.77a8.12,8.12,0,0,1-1.5.24,2.15,2.15,0,0,1-.72,0l-.59,0a5,5,0,0,1-1.74-.72,6.88,6.88,0,0,1-2.63-3.75,11.06,11.06,0,0,1-.28-1.2,8.94,8.94,0,0,1,0-3.57c.54-2.27,1.47-4,3.35-5a5,5,0,0,1,1.36-.43c.22,0,.45-.06.67-.09a5.6,5.6,0,0,1,2,.26c2.28.83,3.33,2.66,4,5,.1.37.12.8.2,1.22l0,.57v.72Zm22.69,2.56a7.62,7.62,0,0,1-.21,2.61,3,3,0,0,1-2.09,1.73,10.56,10.56,0,0,1-2.28.08h-4.39V117.91h2.69V116.6h-9.71v1.32h2.69v14.66h-2.69v1.31h17.4v-6.74h-1.4C316.06,127.47,316.06,127.81,316.05,128.15Z" transform="translate(-0.82)"/>
    </g>
    <g id="logo-3" data-name="logo">
      <path class="cls-16" d="M207.88,167.46a.82.82,0,0,0,0,.26.91.91,0,0,0,.26.58,2.69,2.69,0,0,0,.7.56,4.49,4.49,0,0,0,1,.41,3.82,3.82,0,0,0,1.11.16,3.16,3.16,0,0,0,2.08-.56,1.87,1.87,0,0,0,.64-1.45,1.38,1.38,0,0,0-.16-.71,1.07,1.07,0,0,0-.44-.43,2,2,0,0,0-.65-.21,4.88,4.88,0,0,0-.79-.06h-1.47a4.33,4.33,0,0,1-1.43-.26,2.4,2.4,0,0,1-1.08-.84,3,3,0,0,1-.42-1.73,2.92,2.92,0,0,1,.3-1.33,3.1,3.1,0,0,1,.83-1,3.82,3.82,0,0,1,1.23-.67,4.74,4.74,0,0,1,1.54-.24,4.57,4.57,0,0,1,1.12.12,6.89,6.89,0,0,1,.83.26c.23.1.42.18.57.26a.9.9,0,0,0,.38.13.3.3,0,0,0,.24-.09,1.43,1.43,0,0,0,.15-.18l.19.1-.84,2.32-.16-.14a1.5,1.5,0,0,0,0-.26.56.56,0,0,0-.18-.34,2,2,0,0,0-.51-.4,4.3,4.3,0,0,0-.8-.32,3.9,3.9,0,0,0-1-.13,3.24,3.24,0,0,0-1.95.53,1.61,1.61,0,0,0-.71,1.36,1,1,0,0,0,.16.62,1,1,0,0,0,.44.37,2.28,2.28,0,0,0,.65.17,6.52,6.52,0,0,0,.79,0l1.48,0a3.88,3.88,0,0,1,1.42.31,2.41,2.41,0,0,1,1.07.91,3.19,3.19,0,0,1,.43,1.83,3.27,3.27,0,0,1-.25,1.24,3.11,3.11,0,0,1-.75,1.06,3.56,3.56,0,0,1-1.23.73,5.8,5.8,0,0,1-3.11.09,5.26,5.26,0,0,1-1-.41,6.19,6.19,0,0,1-.69-.42.86.86,0,0,0-.44-.19c-.1,0-.21.08-.32.24l-.15-.12.81-2.32Z" transform="translate(-0.82)"/>
      <path class="cls-16" d="M216.18,160.41c0-.09-.14-.13-.28-.13V160h2v.24a.31.31,0,0,0-.29.13.83.83,0,0,0-.07.35v6.45a1.9,1.9,0,0,0,.64,1.63,4.14,4.14,0,0,0,3.83,0,1.92,1.92,0,0,0,.64-1.63v-6.45a.7.7,0,0,0-.08-.35.29.29,0,0,0-.29-.13V160h2v.24a.3.3,0,0,0-.29.13.7.7,0,0,0-.07.35v6a6,6,0,0,1-.27,2,2.76,2.76,0,0,1-.75,1.22,2.61,2.61,0,0,1-1.2.59,7.87,7.87,0,0,1-1.61.15,7.77,7.77,0,0,1-1.6-.15,2.51,2.51,0,0,1-1.2-.59,2.93,2.93,0,0,1-.76-1.22,6,6,0,0,1-.26-2v-6A.7.7,0,0,0,216.18,160.41Z" transform="translate(-0.82)"/>
      <path class="cls-16" d="M226,160.41a.3.3,0,0,0-.29-.13V160h5.09a2.7,2.7,0,0,1,2.14.75,3.08,3.08,0,0,1,.65,2.09,3.72,3.72,0,0,1-.64,2.34,2.51,2.51,0,0,1-2.11.83h-3.49v3.87a.68.68,0,0,0,.07.35.3.3,0,0,0,.29.13v.24h-2v-.24a.3.3,0,0,0,.29-.13.67.67,0,0,0,.08-.35v-9.15A.71.71,0,0,0,226,160.41Zm4.76,4.26a1.58,1.58,0,0,0,1.3-.46,2,2,0,0,0,.38-1.27,1.68,1.68,0,0,0-.34-1.16,1.8,1.8,0,0,0-1.34-.37h-3.42v3.26Z" transform="translate(-0.82)"/>
      <path class="cls-16" d="M234.86,160.41a.31.31,0,0,0-.29-.13V160h6.33a.88.88,0,0,0,.5-.09.4.4,0,0,0,.11-.31h.18v2.29h-.18a.71.71,0,0,0-.12-.41.6.6,0,0,0-.47-.15H236.2v3.18h3.07a.79.79,0,0,0,.45-.12.52.52,0,0,0,.17-.44h.18v2.44h-.18a.53.53,0,0,0-.14-.43.66.66,0,0,0-.45-.12h-3.1v3.43h5.05a.65.65,0,0,0,.47-.15.75.75,0,0,0,.15-.53h.18V171h-.18c0-.25-.18-.38-.53-.38h-6.77v-.24a.29.29,0,0,0,.28-.13.63.63,0,0,0,.08-.35v-9.16A.7.7,0,0,0,234.86,160.41Z" transform="translate(-0.82)"/>
      <path class="cls-16" d="M245.18,170.27a.29.29,0,0,0,.29.13v.24h-2v-.24a.3.3,0,0,0,.29-.13.72.72,0,0,0,.08-.35v-9.16a.7.7,0,0,0-.08-.35.3.3,0,0,0-.29-.13V160h5.07a2.67,2.67,0,0,1,2.14.76,3.21,3.21,0,0,1,.65,2.18,3.62,3.62,0,0,1-.49,2,2.38,2.38,0,0,1-1.63.95l1.9,3.93a2.49,2.49,0,0,0,.26.42.45.45,0,0,0,.33.1v.25h-2.18v-.25a.44.44,0,0,0,.25,0s0-.07,0-.14a.36.36,0,0,0-.07-.22l-1.86-3.95h-2.78v3.87A.73.73,0,0,0,245.18,170.27Zm3.24-5.6a1.61,1.61,0,0,0,1.3-.46,2,2,0,0,0,.37-1.27,2.63,2.63,0,0,0-.07-.68,1,1,0,0,0-.28-.48,1.12,1.12,0,0,0-.53-.28,3.52,3.52,0,0,0-.87-.09H245.1v3.26Z" transform="translate(-0.82)"/>
      <path class="cls-16" d="M255,160.28a.32.32,0,0,0-.29.14,1.1,1.1,0,0,0-.07.42v8.47h5.08c.35,0,.53-.2.53-.6h.18V171h-.18c0-.25-.18-.38-.53-.38H253v-.24a.31.31,0,0,0,.29-.13.8.8,0,0,0,.07-.35v-9.15a.88.88,0,0,0-.07-.36.32.32,0,0,0-.29-.13V160h2Z" transform="translate(-0.82)"/>
      <path class="cls-16" d="M261.78,169.43c0,.12-.09.26-.13.4a1.27,1.27,0,0,0-.08.35c0,.15.08.22.26.22v.24H260v-.24l.16,0s.08,0,.12-.12a2.2,2.2,0,0,0,.14-.3c.05-.12.12-.29.2-.51l2.73-8.14.18-.52a.63.63,0,0,0,.06-.27q0-.24-.27-.24V160h2.21v.24a.21.21,0,0,0-.24.24.84.84,0,0,0,.07.31c.05.13.12.31.2.54l2.9,8,.21.57a1.38,1.38,0,0,0,.15.3.26.26,0,0,0,.14.12l.21,0v.24H267v-.24a.3.3,0,0,0,.24-.07.33.33,0,0,0,.06-.21.52.52,0,0,0,0-.21c0-.08-.08-.23-.16-.48l-.57-1.61h-4.28Zm4.28-2.94-1.71-4.76-1.57,4.76Z" transform="translate(-0.82)"/>
      <path class="cls-16" d="M270.82,170.4a.3.3,0,0,0,.29-.13.73.73,0,0,0,.07-.35v-8.55h-2.53a.6.6,0,0,0-.42.11.59.59,0,0,0-.12.41h-.18v-2.38h.18a.47.47,0,0,0,.54.53H275a.47.47,0,0,0,.54-.53h.18v2.38h-.18a.54.54,0,0,0-.13-.41.55.55,0,0,0-.4-.11h-2.54v8.55a.73.73,0,0,0,.07.35.3.3,0,0,0,.29.13v.24h-2v-.24Z" transform="translate(-0.82)"/>
      <path class="cls-16" d="M276.69,170.4a.29.29,0,0,0,.28-.13.63.63,0,0,0,.08-.35v-9.16a.61.61,0,0,0-.08-.35c0-.09-.14-.13-.28-.13V160h2v.24a.31.31,0,0,0-.29.13.7.7,0,0,0-.07.35v9.16a.73.73,0,0,0,.07.35.3.3,0,0,0,.29.13v.24h-2Z" transform="translate(-0.82)"/>
      <path class="cls-16" d="M282.43,170.4a.42.42,0,0,0,.29-.07.25.25,0,0,0,.08-.17.91.91,0,0,0,0-.21,2.16,2.16,0,0,0-.08-.24l-3-8.74a1.65,1.65,0,0,0-.27-.57.45.45,0,0,0-.33-.12V160h2.18v.24c-.27,0-.4.11-.4.32a.42.42,0,0,0,0,.18,1.07,1.07,0,0,1,.07.19l2.61,7.74,2.48-7.74c0-.07,0-.13.06-.18a.51.51,0,0,0,0-.17.39.39,0,0,0-.08-.25.41.41,0,0,0-.31-.09V160H288v.24a.45.45,0,0,0-.35.15,1.5,1.5,0,0,0-.26.54l-2.84,8.74a1.82,1.82,0,0,0-.07.2.65.65,0,0,0-.05.25.27.27,0,0,0,.06.17s.13.07.29.07v.24h-2.32v-.24Z" transform="translate(-0.82)"/>
      <path class="cls-16" d="M288.67,160.41a.29.29,0,0,0-.28-.13V160h6.33a.88.88,0,0,0,.5-.09.4.4,0,0,0,.11-.31h.18v2.29h-.18a.71.71,0,0,0-.12-.41.6.6,0,0,0-.47-.15H290v3.18h3.07a.74.74,0,0,0,.44-.12.49.49,0,0,0,.18-.44h.18v2.44h-.18a.57.57,0,0,0-.14-.43.67.67,0,0,0-.45-.12H290v3.43h5.05a.65.65,0,0,0,.47-.15.75.75,0,0,0,.15-.53h.18V171h-.18c0-.25-.18-.38-.53-.38h-6.77v-.24a.29.29,0,0,0,.28-.13.72.72,0,0,0,.08-.35v-9.16A.61.61,0,0,0,288.67,160.41Z" transform="translate(-0.82)"/>
      <path class="cls-16" d="M312,169.19a.27.27,0,0,0-.23-.14c-.05,0-.15.09-.31.26a3.66,3.66,0,0,1-.66.59,4.89,4.89,0,0,1-1.1.56,4.77,4.77,0,0,1-1.62.24,4.54,4.54,0,0,1-1.93-.4,4.17,4.17,0,0,1-1.51-1.16,5.6,5.6,0,0,1-1-1.79,7.2,7.2,0,0,1-.35-2.27,5.8,5.8,0,0,1,.33-2,5,5,0,0,1,.93-1.64,4.43,4.43,0,0,1,3.44-1.56,5,5,0,0,1,1.35.17,10,10,0,0,1,1,.37,7.57,7.57,0,0,1,.72.38,1,1,0,0,0,.38.17c.08,0,.13,0,.15,0a.66.66,0,0,1,.08-.13l.18.16-.94,2.15-.2-.11a.46.46,0,0,0,.08-.27.72.72,0,0,0-.23-.41,2.74,2.74,0,0,0-.62-.49,5.29,5.29,0,0,0-.92-.4,3.83,3.83,0,0,0-1.14-.17,3.5,3.5,0,0,0-1.21.23,3,3,0,0,0-1.09.71,3.75,3.75,0,0,0-.78,1.24,4.84,4.84,0,0,0-.3,1.8,4.23,4.23,0,0,0,.31,1.66,4.11,4.11,0,0,0,.82,1.3,3.82,3.82,0,0,0,1.17.84,3.28,3.28,0,0,0,1.36.3,2.6,2.6,0,0,0,1-.21,3.69,3.69,0,0,0,.87-.51,3.54,3.54,0,0,0,.61-.62,1,1,0,0,0,.23-.51.5.5,0,0,0-.08-.29l.2-.16,1.11,1.94Z" transform="translate(-0.82)"/>
      <path class="cls-16" d="M322,170.27a.3.3,0,0,0,.29.13v.24h-2v-.24a.3.3,0,0,0,.29-.13.72.72,0,0,0,.08-.35v-4h-5.36v4a.72.72,0,0,0,.08.35.3.3,0,0,0,.29.13v.24h-2v-.24a.3.3,0,0,0,.29-.13.72.72,0,0,0,.08-.35v-9.16a.7.7,0,0,0-.08-.35.29.29,0,0,0-.29-.13V160h2v.24a.3.3,0,0,0-.29.13.7.7,0,0,0-.08.35v3.79h5.36v-3.79a.7.7,0,0,0-.08-.35.3.3,0,0,0-.29-.13V160h2v.24a.3.3,0,0,0-.29.13.7.7,0,0,0-.07.35v9.16A.73.73,0,0,0,322,170.27Z" transform="translate(-0.82)"/>
      <path class="cls-16" d="M325.85,170.27a.3.3,0,0,0,.29.13v.24h-2v-.24a.29.29,0,0,0,.29-.13.72.72,0,0,0,.08-.35v-9.16a.7.7,0,0,0-.08-.35.29.29,0,0,0-.29-.13V160h5.07a2.68,2.68,0,0,1,2.15.76A3.26,3.26,0,0,1,332,163a3.61,3.61,0,0,1-.5,2,2.36,2.36,0,0,1-1.63.95l1.9,3.93a1.9,1.9,0,0,0,.27.42.41.41,0,0,0,.32.1v.25h-2.18v-.25c.14,0,.22,0,.25,0a.16.16,0,0,0,.06-.14.37.37,0,0,0-.08-.22l-1.86-3.95h-2.78v3.87A.73.73,0,0,0,325.85,170.27Zm3.24-5.6a1.59,1.59,0,0,0,1.3-.46,2,2,0,0,0,.38-1.27,2.59,2.59,0,0,0-.08-.68,1,1,0,0,0-.28-.48,1.07,1.07,0,0,0-.53-.28,3.52,3.52,0,0,0-.87-.09h-3.23v3.26Z" transform="translate(-0.82)"/>
      <path class="cls-16" d="M339.49,160.27a4,4,0,0,1,1.45,1,5.08,5.08,0,0,1,.95,1.7,8.09,8.09,0,0,1,0,4.64,4.93,4.93,0,0,1-.95,1.69,3.76,3.76,0,0,1-1.45,1,5.13,5.13,0,0,1-3.62,0,3.76,3.76,0,0,1-1.45-1,4.78,4.78,0,0,1-.95-1.69,8.09,8.09,0,0,1,0-4.64,4.91,4.91,0,0,1,.95-1.7,4,4,0,0,1,1.45-1,4.86,4.86,0,0,1,3.62,0Zm-4.19,2.09a4.72,4.72,0,0,0-.84,3,4.67,4.67,0,0,0,.84,3,3.16,3.16,0,0,0,4.76,0,4.67,4.67,0,0,0,.84-3,4.72,4.72,0,0,0-.84-3,3.18,3.18,0,0,0-4.76,0Z" transform="translate(-0.82)"/>
      <path class="cls-16" d="M350.6,168v-7.22a.7.7,0,0,0-.07-.35.3.3,0,0,0-.29-.13V160h1.81v.24a.29.29,0,0,0-.28.13.7.7,0,0,0-.08.35v9.15a.74.74,0,0,0,.08.36.29.29,0,0,0,.28.13v.24h-1.93v-.24c.2,0,.3-.06.3-.17a.41.41,0,0,0-.06-.23,1.51,1.51,0,0,1-.09-.14l-5.38-8.17v8.23a.73.73,0,0,0,.07.35.3.3,0,0,0,.29.13v.24h-1.81v-.24a.29.29,0,0,0,.28-.13.72.72,0,0,0,.08-.35v-9.16a.7.7,0,0,0-.08-.35c0-.09-.14-.13-.28-.13V160H346v.24a.41.41,0,0,0-.23.05.22.22,0,0,0-.05.17.31.31,0,0,0,0,.13l.09.13,4.75,7.22Z" transform="translate(-0.82)"/>
      <path class="cls-16" d="M359.63,160.27a3.83,3.83,0,0,1,1.44,1,4.93,4.93,0,0,1,1,1.7,8.09,8.09,0,0,1,0,4.64,4.79,4.79,0,0,1-1,1.69,3.65,3.65,0,0,1-1.44,1,5.16,5.16,0,0,1-3.63,0,3.8,3.8,0,0,1-1.44-1,4.63,4.63,0,0,1-.95-1.69,7.86,7.86,0,0,1,0-4.64,4.76,4.76,0,0,1,.95-1.7,3.83,3.83,0,0,1,1.44-1,4.88,4.88,0,0,1,3.63,0Zm-4.2,2.09a4.79,4.79,0,0,0-.83,3,4.73,4.73,0,0,0,.83,3,2.87,2.87,0,0,0,2.39,1.08,2.84,2.84,0,0,0,2.38-1.08,4.67,4.67,0,0,0,.84-3,4.72,4.72,0,0,0-.84-3,3.19,3.19,0,0,0-4.77,0Z" transform="translate(-0.82)"/>
      <path class="cls-16" d="M363.48,170.4c.17,0,.27,0,.32-.13a.72.72,0,0,0,.08-.35v-9.16a.61.61,0,0,0-.09-.35c-.05-.09-.17-.13-.34-.13V160H366v.24c-.23,0-.35.09-.35.27a.39.39,0,0,0,.06.21l2.47,6.45,2.55-6.45a.56.56,0,0,1,0-.12.5.5,0,0,0,0-.12.23.23,0,0,0-.08-.17.47.47,0,0,0-.3-.07V160h2.71v.24c-.17,0-.29,0-.34.13a.61.61,0,0,0-.08.35v9.15a.64.64,0,0,0,.08.36c0,.09.17.13.34.13v.24H371v-.24c.17,0,.28,0,.33-.13a.64.64,0,0,0,.09-.36v-8l-.05,0-3.22,8.53L365,161.91v8a.65.65,0,0,0,.06.36.3.3,0,0,0,.28.13v.24h-1.79v-.24Z" transform="translate(-0.82)"/>
      <path class="cls-16" d="M375.1,160.41a.3.3,0,0,0-.29-.13V160h6.33a.86.86,0,0,0,.5-.09.4.4,0,0,0,.11-.31h.18v2.29h-.18a.71.71,0,0,0-.12-.41.59.59,0,0,0-.47-.15h-4.72v3.18h3.07a.79.79,0,0,0,.45-.12.52.52,0,0,0,.17-.44h.18v2.44h-.18A.57.57,0,0,0,380,166a.7.7,0,0,0-.46-.12h-3.1v3.43h5.05a.65.65,0,0,0,.47-.15.75.75,0,0,0,.15-.53h.19V171h-.19c0-.25-.17-.38-.53-.38h-6.77v-.24a.3.3,0,0,0,.29-.13.87.87,0,0,0,.07-.35v-9.16A.83.83,0,0,0,375.1,160.41Z" transform="translate(-0.82)"/>
      <path class="cls-16" d="M385.76,170.4a.29.29,0,0,0,.28-.13.72.72,0,0,0,.08-.35v-8.55h-2.54a.58.58,0,0,0-.41.11.54.54,0,0,0-.12.41h-.18v-2.38h.18a.47.47,0,0,0,.53.53h6.35a.47.47,0,0,0,.53-.53h.18v2.38h-.18a.54.54,0,0,0-.12-.41.58.58,0,0,0-.41-.11h-2.54v8.55a.72.72,0,0,0,.08.35.29.29,0,0,0,.28.13v.24h-2v-.24Z" transform="translate(-0.82)"/>
      <path class="cls-16" d="M391.88,160.41a.3.3,0,0,0-.29-.13V160h6.33a.86.86,0,0,0,.5-.09.4.4,0,0,0,.11-.31h.18v2.29h-.18a.65.65,0,0,0-.12-.41.59.59,0,0,0-.47-.15h-4.72v3.18h3.07a.77.77,0,0,0,.45-.12.52.52,0,0,0,.17-.44h.19v2.44h-.19a.57.57,0,0,0-.13-.43.69.69,0,0,0-.46-.12h-3.1v3.43h5a.65.65,0,0,0,.47-.15.75.75,0,0,0,.15-.53h.19V171h-.19c0-.25-.17-.38-.53-.38h-6.77v-.24a.31.31,0,0,0,.29-.13.73.73,0,0,0,.07-.35v-9.16A.7.7,0,0,0,391.88,160.41Z" transform="translate(-0.82)"/>
      <path class="cls-16" d="M402.2,170.27a.3.3,0,0,0,.29.13v.24h-2v-.24a.29.29,0,0,0,.28-.13.63.63,0,0,0,.08-.35v-9.16a.61.61,0,0,0-.08-.35.29.29,0,0,0-.28-.13V160h5.06a2.69,2.69,0,0,1,2.15.76,3.26,3.26,0,0,1,.65,2.18,3.61,3.61,0,0,1-.5,2,2.36,2.36,0,0,1-1.63.95l1.9,3.93a1.9,1.9,0,0,0,.27.42.42.42,0,0,0,.32.1v.25h-2.18v-.25a.44.44,0,0,0,.25,0,.16.16,0,0,0,.06-.14.37.37,0,0,0-.08-.22l-1.86-3.95h-2.78v3.87A.73.73,0,0,0,402.2,170.27Zm3.24-5.6a1.58,1.58,0,0,0,1.3-.46,2,2,0,0,0,.38-1.27,2.59,2.59,0,0,0-.08-.68,1,1,0,0,0-.27-.48,1.16,1.16,0,0,0-.54-.28,3.52,3.52,0,0,0-.87-.09h-3.23v3.26Z" transform="translate(-0.82)"/>
      <path class="cls-16" d="M238.43,178a4.25,4.25,0,0,1,1.45,1,5.23,5.23,0,0,1,1,1.71,8.05,8.05,0,0,1,0,4.63,5,5,0,0,1-1,1.7,4,4,0,0,1-1.45,1,5.16,5.16,0,0,1-3.63,0,3.91,3.91,0,0,1-1.44-1,4.84,4.84,0,0,1-1-1.7,8.05,8.05,0,0,1,0-4.63,5.07,5.07,0,0,1,1-1.71,3.94,3.94,0,0,1,1.44-1,4.88,4.88,0,0,1,3.63,0Zm-4.19,2.1a5.65,5.65,0,0,0,0,5.93,3.16,3.16,0,0,0,4.76,0,5.65,5.65,0,0,0,0-5.93,3.18,3.18,0,0,0-4.76,0Z" transform="translate(-0.82)"/>
      <path class="cls-16" d="M247.91,184.12a.52.52,0,0,0-.12-.4.64.64,0,0,0-.47-.16H244.1v4.11a.64.64,0,0,0,.08.36c0,.08.14.12.28.12v.25h-2v-.25a.3.3,0,0,0,.28-.12.64.64,0,0,0,.08-.36v-9.15a.61.61,0,0,0-.08-.35c0-.09-.14-.13-.28-.13v-.25H249a.93.93,0,0,0,.5-.08.42.42,0,0,0,.1-.32h.19v2.3h-.19a.65.65,0,0,0-.12-.41.59.59,0,0,0-.47-.16H244.1v3.11h3.2a.88.88,0,0,0,.5-.09.4.4,0,0,0,.11-.31h.18v2.29Z" transform="translate(-0.82)"/>
      <path class="cls-16" d="M256.12,184.12a.52.52,0,0,0-.12-.4.65.65,0,0,0-.47-.16h-3.22v4.11a.74.74,0,0,0,.07.36.32.32,0,0,0,.29.12v.25h-2v-.25A.34.34,0,0,0,251,188a.88.88,0,0,0,.07-.36v-9.15a.83.83,0,0,0-.07-.35.31.31,0,0,0-.29-.13v-.25h6.5a.93.93,0,0,0,.5-.08.47.47,0,0,0,.1-.32H258v2.3h-.18a.65.65,0,0,0-.12-.41.59.59,0,0,0-.47-.16h-4.88v3.11h3.2a.88.88,0,0,0,.5-.09.4.4,0,0,0,.11-.31h.18v2.29Z" transform="translate(-0.82)"/>
      <path class="cls-16" d="M259,188.15a.32.32,0,0,0,.29-.12.74.74,0,0,0,.08-.36v-9.15a.7.7,0,0,0-.08-.35A.3.3,0,0,0,259,178v-.25h2V178a.3.3,0,0,0-.29.13.7.7,0,0,0-.07.35v9.15a.74.74,0,0,0,.07.36.32.32,0,0,0,.29.12v.25h-2Z" transform="translate(-0.82)"/>
      <path class="cls-16" d="M271.05,187a.26.26,0,0,0-.22-.14c-.05,0-.15.08-.31.26a4.16,4.16,0,0,1-.67.58,4.26,4.26,0,0,1-1.09.56,5.11,5.11,0,0,1-3.56-.15,4.25,4.25,0,0,1-1.5-1.17,5.51,5.51,0,0,1-1-1.79,7.11,7.11,0,0,1-.34-2.27,5.78,5.78,0,0,1,.32-2,4.85,4.85,0,0,1,.94-1.64,4.49,4.49,0,0,1,1.48-1.14,4.31,4.31,0,0,1,2-.42,4.59,4.59,0,0,1,1.34.17,7.11,7.11,0,0,1,1,.37c.29.14.54.26.72.37a.94.94,0,0,0,.38.17c.09,0,.14,0,.16,0l.07-.14.19.17L270,180.9l-.2-.12a.42.42,0,0,0,.07-.26.71.71,0,0,0-.22-.42,3,3,0,0,0-.62-.48,4.62,4.62,0,0,0-.92-.4,3.6,3.6,0,0,0-2.36.06,2.94,2.94,0,0,0-1.08.71,3.83,3.83,0,0,0-.79,1.24,4.85,4.85,0,0,0-.29,1.8,4.3,4.3,0,0,0,.31,1.66,4.06,4.06,0,0,0,.82,1.29,3.59,3.59,0,0,0,1.17.85,3.24,3.24,0,0,0,1.36.3,2.6,2.6,0,0,0,1-.21,3.4,3.4,0,0,0,.87-.52,3.12,3.12,0,0,0,.6-.61.91.91,0,0,0,.23-.52.55.55,0,0,0-.07-.28l.19-.16,1.12,1.93Z" transform="translate(-0.82)"/>
      <path class="cls-16" d="M272.87,188.15a.3.3,0,0,0,.28-.12.74.74,0,0,0,.08-.36v-9.15a.7.7,0,0,0-.08-.35c0-.09-.14-.13-.28-.13v-.25h2V178c-.14,0-.24,0-.28.13a.61.61,0,0,0-.08.35v9.15a.64.64,0,0,0,.08.36c0,.08.14.12.28.12v.25h-2Z" transform="translate(-0.82)"/>
      <path class="cls-16" d="M277.63,187.19l-.14.4a1.19,1.19,0,0,0-.07.34c0,.15.09.22.26.22v.25h-1.86v-.25a.41.41,0,0,0,.16,0s.08,0,.12-.12a1.58,1.58,0,0,0,.14-.29c.05-.13.12-.3.19-.51l2.74-8.15.18-.51a.89.89,0,0,0,.06-.27q0-.24-.27-.24v-.25h2.21V178a.21.21,0,0,0-.24.24.88.88,0,0,0,.07.31c.05.13.12.3.2.53l2.9,8,.21.56a1.44,1.44,0,0,0,.14.3.35.35,0,0,0,.15.13H285v.25h-2.1v-.25a.35.35,0,0,0,.24-.06.34.34,0,0,0,.06-.22.59.59,0,0,0,0-.21c0-.07-.08-.23-.16-.47l-.57-1.61h-4.28Zm4.28-2.94-1.71-4.76-1.57,4.76Z" transform="translate(-0.82)"/>
      <path class="cls-16" d="M287.83,178a.3.3,0,0,0-.29.14.91.91,0,0,0-.07.42v8.47h5.08c.35,0,.53-.2.53-.61h.18v2.32h-.18c0-.25-.18-.38-.53-.38h-6.71v-.24a.34.34,0,0,0,.29-.13.74.74,0,0,0,.07-.36v-9.15a.7.7,0,0,0-.07-.35.3.3,0,0,0-.29-.13v-.24h2Z" transform="translate(-0.82)"/>
      <path class="cls-16" d="M296,178c-.14,0-.24,0-.28.14a.89.89,0,0,0-.08.42v8.47h5.08c.35,0,.53-.2.53-.61h.18v2.32h-.18c0-.25-.18-.38-.53-.38h-6.71v-.24a.3.3,0,0,0,.28-.13.64.64,0,0,0,.08-.36v-9.15a.61.61,0,0,0-.08-.35c0-.09-.14-.13-.28-.13v-.24h2Z" transform="translate(-0.82)"/>
      <path class="cls-16" d="M303,188.15a.32.32,0,0,0,.29-.12.74.74,0,0,0,.07-.36V184l-2.91-5.28a4.72,4.72,0,0,0-.34-.52.38.38,0,0,0-.31-.16v-.25h2.28V178c-.25,0-.38.1-.38.28a.38.38,0,0,0,.1.23,2.69,2.69,0,0,1,.16.29l2.09,3.79,2.2-3.91.14-.22a.42.42,0,0,0,.08-.22c0-.16-.12-.24-.34-.24v-.25h2.18V178a.4.4,0,0,0-.34.17,4.9,4.9,0,0,0-.34.51l-3,5.28v3.67a.74.74,0,0,0,.07.36.32.32,0,0,0,.29.12v.25h-2v-.25Z" transform="translate(-0.82)"/>
      <path class="cls-16" d="M320.84,187a.29.29,0,0,0-.23-.14c-.05,0-.15.08-.31.26a4,4,0,0,1-.66.58,4.54,4.54,0,0,1-2.72.81,4.61,4.61,0,0,1-1.94-.4,4.25,4.25,0,0,1-1.5-1.17,5.49,5.49,0,0,1-1-1.79,7.11,7.11,0,0,1-.35-2.27,6,6,0,0,1,.32-2,5,5,0,0,1,.94-1.64,4.49,4.49,0,0,1,1.48-1.14,4.31,4.31,0,0,1,2-.42,4.71,4.71,0,0,1,1.35.17,8.09,8.09,0,0,1,1,.37c.29.14.53.26.71.37a.91.91,0,0,0,.39.17c.08,0,.13,0,.15,0l.07-.14.19.17-.94,2.15-.2-.12a.42.42,0,0,0,.08-.26.74.74,0,0,0-.23-.42,3,3,0,0,0-.62-.48,4.62,4.62,0,0,0-.92-.4,3.57,3.57,0,0,0-2.35.06,3,3,0,0,0-1.09.71,3.65,3.65,0,0,0-.78,1.24,4.84,4.84,0,0,0-.3,1.8,4.3,4.3,0,0,0,.31,1.66,4.25,4.25,0,0,0,.82,1.29,3.73,3.73,0,0,0,1.18.85,3.16,3.16,0,0,0,1.35.3,2.6,2.6,0,0,0,1-.21,3.4,3.4,0,0,0,.87-.52,3.19,3.19,0,0,0,.61-.61,1,1,0,0,0,.22-.52.47.47,0,0,0-.07-.28l.2-.16,1.11,1.93Z" transform="translate(-0.82)"/>
      <path class="cls-16" d="M322.91,178.17a.3.3,0,0,0-.29-.13v-.25H329a.89.89,0,0,0,.5-.08.43.43,0,0,0,.11-.32h.18v2.3h-.18a.65.65,0,0,0-.12-.41.59.59,0,0,0-.47-.16h-4.71v3.19h3.07a.76.76,0,0,0,.44-.12.5.5,0,0,0,.18-.45h.18v2.44H328a.54.54,0,0,0-.14-.42.67.67,0,0,0-.45-.12h-3.1v3.42h5.05a.61.61,0,0,0,.47-.15.8.8,0,0,0,.15-.53h.18v2.4h-.18c0-.26-.18-.39-.53-.39h-6.78v-.24a.3.3,0,0,0,.29-.13.67.67,0,0,0,.08-.35v-9.15A.7.7,0,0,0,322.91,178.17Z" transform="translate(-0.82)"/>
      <path class="cls-16" d="M333.48,188c0,.08.14.12.29.12v.25h-2v-.25a.32.32,0,0,0,.29-.12.74.74,0,0,0,.07-.36v-9.15a.7.7,0,0,0-.07-.35.3.3,0,0,0-.29-.13v-.25h5.07a2.7,2.7,0,0,1,2.14.76,3.22,3.22,0,0,1,.65,2.19,3.53,3.53,0,0,1-.5,2,2.35,2.35,0,0,1-1.63.94l1.91,3.93a2.3,2.3,0,0,0,.26.43.42.42,0,0,0,.32.1v.24h-2.17v-.24a.6.6,0,0,0,.25,0,.2.2,0,0,0,.05-.14.37.37,0,0,0-.08-.22l-1.86-3.95h-2.77v3.86A.74.74,0,0,0,333.48,188Zm3.23-5.6A1.58,1.58,0,0,0,338,182a2,2,0,0,0,.38-1.27,2.73,2.73,0,0,0-.08-.69,1,1,0,0,0-.27-.47,1.16,1.16,0,0,0-.54-.28,3.33,3.33,0,0,0-.86-.1H333.4v3.27Z" transform="translate(-0.82)"/>
      <path class="cls-16" d="M343.7,188.15A.32.32,0,0,0,344,188a.74.74,0,0,0,.07-.36v-8.55h-2.54a.55.55,0,0,0-.4.12.5.5,0,0,0-.13.41h-.18v-2.38H341a.46.46,0,0,0,.53.52h6.35a.46.46,0,0,0,.53-.52h.18v2.38h-.18a.54.54,0,0,0-.12-.41.56.56,0,0,0-.41-.12h-2.54v8.55a.74.74,0,0,0,.08.36.31.31,0,0,0,.29.12v.25h-2v-.25Z" transform="translate(-0.82)"/>
      <path class="cls-16" d="M349.81,188.15a.32.32,0,0,0,.29-.12.88.88,0,0,0,.07-.36v-9.15a.83.83,0,0,0-.07-.35.3.3,0,0,0-.29-.13v-.25h2V178a.29.29,0,0,0-.29.13.7.7,0,0,0-.08.35v9.15a.74.74,0,0,0,.08.36.31.31,0,0,0,.29.12v.25h-2Z" transform="translate(-0.82)"/>
      <path class="cls-16" d="M359.17,184.12a.52.52,0,0,0-.12-.4.65.65,0,0,0-.47-.16h-3.22v4.11a.74.74,0,0,0,.07.36.32.32,0,0,0,.29.12v.25h-2v-.25A.31.31,0,0,0,354,188a.74.74,0,0,0,.08-.36v-9.15a.7.7,0,0,0-.08-.35.29.29,0,0,0-.29-.13v-.25h6.5a.91.91,0,0,0,.5-.08.43.43,0,0,0,.11-.32H361v2.3h-.18a.65.65,0,0,0-.12-.41.59.59,0,0,0-.47-.16h-4.88v3.11h3.2a.88.88,0,0,0,.5-.09.4.4,0,0,0,.11-.31h.18v2.29Z" transform="translate(-0.82)"/>
      <path class="cls-16" d="M362,188.15a.32.32,0,0,0,.29-.12.74.74,0,0,0,.08-.36v-9.15a.7.7,0,0,0-.08-.35A.3.3,0,0,0,362,178v-.25h2V178a.3.3,0,0,0-.29.13.7.7,0,0,0-.07.35v9.15a.74.74,0,0,0,.07.36.32.32,0,0,0,.29.12v.25h-2Z" transform="translate(-0.82)"/>
      <path class="cls-16" d="M366.29,178.17A.3.3,0,0,0,366,178v-.25h6.34a.87.87,0,0,0,.49-.08.39.39,0,0,0,.11-.32h.18v2.3h-.18a.65.65,0,0,0-.12-.41.59.59,0,0,0-.47-.16h-4.71v3.19h3.07a.74.74,0,0,0,.44-.12.5.5,0,0,0,.17-.45h.19v2.44h-.19a.54.54,0,0,0-.13-.42.67.67,0,0,0-.45-.12h-3.1v3.42h5.05a.61.61,0,0,0,.47-.15.75.75,0,0,0,.15-.53h.18v2.4h-.18c0-.26-.18-.39-.53-.39H366v-.24a.3.3,0,0,0,.29-.13.68.68,0,0,0,.07-.35v-9.15A.7.7,0,0,0,366.29,178.17Z" transform="translate(-0.82)"/>
      <path class="cls-16" d="M375.13,178.17a.29.29,0,0,0-.29-.13v-.25h4.69a3.63,3.63,0,0,1,1.69.4,3.7,3.7,0,0,1,1.27,1.1,5.24,5.24,0,0,1,.8,1.68,7.22,7.22,0,0,1,.29,2.13,8.88,8.88,0,0,1-.24,2.12,5,5,0,0,1-.72,1.69,3.24,3.24,0,0,1-1.18,1.09,3.17,3.17,0,0,1-1.62.4h-5v-.24a.3.3,0,0,0,.28-.13.74.74,0,0,0,.08-.36v-9.15A.7.7,0,0,0,375.13,178.17Zm4.55,8.9a2.25,2.25,0,0,0,2-1,5.43,5.43,0,0,0,.66-3,4.9,4.9,0,0,0-.76-3,2.57,2.57,0,0,0-2.17-1h-2.93v7.95Z" transform="translate(-0.82)"/>
      <path class="cls-16" d="M259.47,205.92a.31.31,0,0,0-.27-.16c-.06,0-.19.1-.37.3a4.79,4.79,0,0,1-.79.67,5.08,5.08,0,0,1-1.3.65,5.62,5.62,0,0,1-1.92.29,5.39,5.39,0,0,1-2.29-.47,5,5,0,0,1-1.78-1.34,6.32,6.32,0,0,1-1.16-2.07,8.13,8.13,0,0,1-.41-2.62,6.59,6.59,0,0,1,.39-2.26,5.61,5.61,0,0,1,1.11-1.89,5.25,5.25,0,0,1,4.08-1.81,6,6,0,0,1,1.59.2,9.39,9.39,0,0,1,1.22.44,6.64,6.64,0,0,1,.85.43,1.18,1.18,0,0,0,.46.2.22.22,0,0,0,.18-.06l.09-.15.21.18-1.11,2.49-.23-.14a.46.46,0,0,0,.08-.3.75.75,0,0,0-.27-.47,2.79,2.79,0,0,0-.73-.56A5.25,5.25,0,0,0,256,197a4.54,4.54,0,0,0-1.35-.2,4.12,4.12,0,0,0-1.44.27,3.49,3.49,0,0,0-1.29.83,4,4,0,0,0-.92,1.42,5.49,5.49,0,0,0-.36,2.08,4.8,4.8,0,0,0,.37,1.92,4.69,4.69,0,0,0,1,1.49,4.29,4.29,0,0,0,1.39,1,4,4,0,0,0,1.6.35,3.14,3.14,0,0,0,1.23-.24,4.49,4.49,0,0,0,1-.6,3.73,3.73,0,0,0,.72-.71,1.1,1.1,0,0,0,.27-.59.54.54,0,0,0-.09-.33l.23-.18,1.33,2.23Z" transform="translate(-0.82)"/>
      <path class="cls-16" d="M268.56,195.62a4.73,4.73,0,0,1,1.7,1.21,5.4,5.4,0,0,1,1.13,2,8.19,8.19,0,0,1,.4,2.69,8.1,8.1,0,0,1-.4,2.67,5.46,5.46,0,0,1-1.13,2,4.51,4.51,0,0,1-1.7,1.17,6.15,6.15,0,0,1-4.31,0,4.63,4.63,0,0,1-1.71-1.17,5.7,5.7,0,0,1-1.13-2,8.1,8.1,0,0,1-.4-2.67,8.19,8.19,0,0,1,.4-2.69,5.7,5.7,0,0,1,1.13-2,4.86,4.86,0,0,1,1.71-1.21,5.87,5.87,0,0,1,4.31,0Zm-5,2.42a6.42,6.42,0,0,0,0,6.85,3.84,3.84,0,0,0,5.65,0,6.42,6.42,0,0,0,0-6.85,3.84,3.84,0,0,0-5.65,0Z" transform="translate(-0.82)"/>
      <path class="cls-16" d="M274.22,203.92a.89.89,0,0,0-.06.3,1.06,1.06,0,0,0,.32.68,3.49,3.49,0,0,0,.82.64,5.3,5.3,0,0,0,1.16.47,4.47,4.47,0,0,0,1.31.19,3.79,3.79,0,0,0,2.46-.65,2.1,2.1,0,0,0,.76-1.68,1.63,1.63,0,0,0-.19-.82,1.23,1.23,0,0,0-.52-.49,2.4,2.4,0,0,0-.77-.25,6.91,6.91,0,0,0-.94-.07h-1.75a5.08,5.08,0,0,1-1.69-.3,2.85,2.85,0,0,1-1.28-1,3.35,3.35,0,0,1-.5-2,3.19,3.19,0,0,1,.36-1.52,3.58,3.58,0,0,1,1-1.18,4.82,4.82,0,0,1,1.46-.77,5.66,5.66,0,0,1,1.83-.28,5.77,5.77,0,0,1,1.33.14,7.21,7.21,0,0,1,1,.3,6.55,6.55,0,0,1,.68.31,1,1,0,0,0,.45.13.4.4,0,0,0,.29-.09,1.2,1.2,0,0,0,.17-.21l.22.12-1,2.67-.19-.16a2,2,0,0,0,0-.3.63.63,0,0,0-.21-.39,2.42,2.42,0,0,0-.61-.46,4.09,4.09,0,0,0-.94-.37,4.51,4.51,0,0,0-1.19-.15,4,4,0,0,0-2.31.6,1.87,1.87,0,0,0-.85,1.59,1.14,1.14,0,0,0,.19.7,1.16,1.16,0,0,0,.52.42,2.23,2.23,0,0,0,.77.2,9.31,9.31,0,0,0,.94,0c.57,0,1.15,0,1.76,0a4.91,4.91,0,0,1,1.69.37,2.9,2.9,0,0,1,1.27,1,4.27,4.27,0,0,1,.21,3.56,3.58,3.58,0,0,1-.89,1.21,4.09,4.09,0,0,1-1.46.84,6.18,6.18,0,0,1-2,.3,5.93,5.93,0,0,1-1.67-.2,5.57,5.57,0,0,1-1.21-.46,8.74,8.74,0,0,1-.83-.49,1,1,0,0,0-.52-.22c-.12,0-.24.09-.37.28l-.18-.14,1-2.68Z" transform="translate(-0.82)"/>
      <path class="cls-16" d="M284.36,207.32a.41.41,0,0,0,.38-.15.83.83,0,0,0,.09-.41V196.19a.73.73,0,0,0-.1-.41.45.45,0,0,0-.4-.15v-.28h3v.28c-.28,0-.42.11-.42.31a.52.52,0,0,0,.07.25l2.93,7.45,3-7.45a1,1,0,0,1,0-.14.32.32,0,0,0,0-.14.3.3,0,0,0-.1-.2.6.6,0,0,0-.35-.08v-.28h3.2v.28a.45.45,0,0,0-.4.15.83.83,0,0,0-.1.41v10.57a.83.83,0,0,0,.1.41.45.45,0,0,0,.4.15v.28h-2.5v-.28a.45.45,0,0,0,.4-.15.83.83,0,0,0,.1-.41v-9.2l-.06,0-3.81,9.84-3.82-9.84,0,0v9.2a.74.74,0,0,0,.07.41.36.36,0,0,0,.34.15v.28h-2.13v-.28Z" transform="translate(-0.82)"/>
      <path class="cls-16" d="M305.05,195.62a4.86,4.86,0,0,1,1.71,1.21,5.8,5.8,0,0,1,1.13,2,9.18,9.18,0,0,1,0,5.36,5.61,5.61,0,0,1-1.13,2,4.63,4.63,0,0,1-1.71,1.17,6.15,6.15,0,0,1-4.31,0,4.63,4.63,0,0,1-1.71-1.17,5.7,5.7,0,0,1-1.13-2,8.1,8.1,0,0,1-.4-2.67,8.19,8.19,0,0,1,.4-2.69,5.7,5.7,0,0,1,1.13-2,4.73,4.73,0,0,1,1.71-1.21,5.87,5.87,0,0,1,4.31,0Zm-5,2.42a6.42,6.42,0,0,0,0,6.85,3.84,3.84,0,0,0,5.65,0,6.42,6.42,0,0,0,0-6.85,3.84,3.84,0,0,0-5.65,0Z" transform="translate(-0.82)"/>
      <path class="cls-16" d="M315.32,203.5h-.22v-2.74h.22c0,.46.2.7.62.7h3.86v.27a.3.3,0,0,0-.27.11,1.3,1.3,0,0,0,0,.5v2a1.39,1.39,0,0,0,.06.52.45.45,0,0,0,.26.16v.28a7.37,7.37,0,0,1-2.65,1.84,7.09,7.09,0,0,1-2.48.51,5.62,5.62,0,0,1-2.19-.42,4.82,4.82,0,0,1-1.74-1.22,5.66,5.66,0,0,1-1.14-1.92,7,7,0,0,1-.42-2.47,7.63,7.63,0,0,1,.41-2.53,6.67,6.67,0,0,1,1.11-2,5,5,0,0,1,1.68-1.36,4.55,4.55,0,0,1,2.11-.49,6.68,6.68,0,0,1,1.93.24,6.28,6.28,0,0,1,1.28.55,5.36,5.36,0,0,1,.78.55.8.8,0,0,0,.44.24.27.27,0,0,0,.21-.08,1,1,0,0,0,.11-.2l.22.19-1.26,2.4-.21-.19a.52.52,0,0,0,.07-.28.89.89,0,0,0-.27-.52,3.69,3.69,0,0,0-.74-.6,5,5,0,0,0-1.12-.51,4.51,4.51,0,0,0-1.4-.21,3.78,3.78,0,0,0-1.74.38,3.53,3.53,0,0,0-1.21,1,4.31,4.31,0,0,0-.7,1.48,6.74,6.74,0,0,0-.22,1.76,5.89,5.89,0,0,0,.31,2,4.56,4.56,0,0,0,.82,1.46,3.64,3.64,0,0,0,1.18.91,3.16,3.16,0,0,0,1.38.31,5.49,5.49,0,0,0,2.12-.39,4.67,4.67,0,0,0,1.53-1V203h-2.06C315.53,203,315.32,203.16,315.32,203.5Z" transform="translate(-0.82)"/>
      <path class="cls-16" d="M324,207.17a.39.39,0,0,0,.34.15v.28H322v-.28a.38.38,0,0,0,.34-.15.83.83,0,0,0,.09-.41V196.19a.8.8,0,0,0-.09-.41.36.36,0,0,0-.34-.15v-.28h6a3.26,3.26,0,0,1,2.55.87,3.75,3.75,0,0,1,.77,2.53,4,4,0,0,1-.59,2.33,2.78,2.78,0,0,1-1.94,1.09l2.26,4.54a2.65,2.65,0,0,0,.31.49.54.54,0,0,0,.39.12v.28h-2.58v-.28a.57.57,0,0,0,.29,0,.2.2,0,0,0,.06-.16.43.43,0,0,0-.09-.26l-2.2-4.56h-3.3v4.47A.83.83,0,0,0,324,207.17Zm3.84-6.46a1.9,1.9,0,0,0,1.54-.54,2.2,2.2,0,0,0,.45-1.46,3,3,0,0,0-.09-.79,1.22,1.22,0,0,0-.32-.55,1.44,1.44,0,0,0-.64-.33,4.77,4.77,0,0,0-1-.1h-3.84v3.77Z" transform="translate(-0.82)"/>
      <path class="cls-16" d="M334.6,206.2c0,.14-.1.3-.16.46a1.4,1.4,0,0,0-.09.4c0,.17.1.26.31.26v.28h-2.21v-.28a.5.5,0,0,0,.19,0c.06,0,.11-.06.16-.14a2.87,2.87,0,0,0,.16-.34c.05-.14.13-.34.23-.59l3.24-9.4.22-.6a.88.88,0,0,0,.07-.31c0-.19-.11-.28-.32-.28v-.28H339v.28c-.19,0-.29.09-.29.28a1.1,1.1,0,0,0,.1.36c.05.15.13.36.23.62l3.44,9.26c.11.28.19.5.25.66a1.33,1.33,0,0,0,.17.34.28.28,0,0,0,.17.14.81.81,0,0,0,.25,0v.28h-2.49v-.28a.42.42,0,0,0,.29-.08.44.44,0,0,0,.07-.25.74.74,0,0,0-.05-.24l-.18-.55-.68-1.86h-5.08Zm5.08-3.4-2-5.49-1.86,5.49Z" transform="translate(-0.82)"/>
      <path class="cls-16" d="M344.78,195.78a.36.36,0,0,0-.34-.15v-.28h6a3.24,3.24,0,0,1,2.54.87,3.49,3.49,0,0,1,.77,2.41,4.19,4.19,0,0,1-.76,2.7,3,3,0,0,1-2.5,1h-4.14v4.47a.83.83,0,0,0,.09.41.38.38,0,0,0,.34.15v.28h-2.37v-.28a.38.38,0,0,0,.34-.15.83.83,0,0,0,.09-.41V196.19A.8.8,0,0,0,344.78,195.78Zm5.65,4.93a1.92,1.92,0,0,0,1.54-.54,2.2,2.2,0,0,0,.45-1.46,1.9,1.9,0,0,0-.41-1.34,2.13,2.13,0,0,0-1.58-.43h-4.05v3.77Z" transform="translate(-0.82)"/>
      <path class="cls-16" d="M365.34,207.17a.38.38,0,0,0,.34.15v.28h-2.37v-.28a.4.4,0,0,0,.35-.15.83.83,0,0,0,.09-.41V202.1H357.4v4.66a.83.83,0,0,0,.09.41.39.39,0,0,0,.34.15v.28h-2.36v-.28a.38.38,0,0,0,.34-.15.83.83,0,0,0,.09-.41V196.19a.8.8,0,0,0-.09-.41.36.36,0,0,0-.34-.15v-.28h2.36v.28a.36.36,0,0,0-.34.15.8.8,0,0,0-.09.41v4.38h6.35v-4.38a.8.8,0,0,0-.09-.41.38.38,0,0,0-.35-.15v-.28h2.37v.28a.36.36,0,0,0-.34.15.8.8,0,0,0-.09.41v10.57A.83.83,0,0,0,365.34,207.17Z" transform="translate(-0.82)"/>
    </g>
    <g id="logo-4" data-name="logo">
      <path class="cls-17" d="M223.92,140.7a4.27,4.27,0,0,1,1.58,1.15,5.43,5.43,0,0,1,1.05,1.86,8.23,8.23,0,0,1,.37,2.54,7.86,7.86,0,0,1-.37,2.54,5.25,5.25,0,0,1-1.05,1.86,4.06,4.06,0,0,1-1.58,1.11,5.51,5.51,0,0,1-4,0,4.06,4.06,0,0,1-1.58-1.11,5.25,5.25,0,0,1-1.05-1.86,8.14,8.14,0,0,1-.37-2.54,7.94,7.94,0,0,1,.37-2.54,5.43,5.43,0,0,1,1.05-1.86A4.27,4.27,0,0,1,220,140.7a5.37,5.37,0,0,1,4,0Zm-4.59,2.3a6.2,6.2,0,0,0,0,6.5,3.49,3.49,0,0,0,5.21,0,6.2,6.2,0,0,0,0-6.5,3.47,3.47,0,0,0-5.21,0Z" transform="translate(-0.82)"/>
      <path class="cls-17" d="M232,151.8a.35.35,0,0,0,.32-.14.87.87,0,0,0,.08-.39v-4l-3.19-5.78a4.87,4.87,0,0,0-.38-.58.44.44,0,0,0-.34-.17v-.27h2.5v.27c-.27,0-.41.12-.41.31a.45.45,0,0,0,.1.25,1.65,1.65,0,0,1,.18.32l2.28,4.15,2.43-4.28.14-.25a.38.38,0,0,0,.08-.24c0-.18-.12-.26-.36-.26v-.27h2.39v.27a.46.46,0,0,0-.38.18c-.09.13-.22.32-.37.57l-3.28,5.78v4a.87.87,0,0,0,.08.39.35.35,0,0,0,.32.14v.26H232v-.26Z" transform="translate(-0.82)"/>
      <path class="cls-17" d="M240.56,148.58a1,1,0,0,0,0,.28,1,1,0,0,0,.28.64,3,3,0,0,0,.77.61,5.12,5.12,0,0,0,1.06.45,4.22,4.22,0,0,0,1.21.18,3.43,3.43,0,0,0,2.28-.62,2,2,0,0,0,.7-1.59,1.62,1.62,0,0,0-.17-.77,1.3,1.3,0,0,0-.48-.48,2.82,2.82,0,0,0-.71-.23,5.94,5.94,0,0,0-.87-.06H243a4.65,4.65,0,0,1-1.56-.29,2.53,2.53,0,0,1-1.18-.92,3.75,3.75,0,0,1-.13-3.34,3.29,3.29,0,0,1,.91-1.12,4.24,4.24,0,0,1,1.35-.72,5.12,5.12,0,0,1,1.69-.27,5,5,0,0,1,1.23.13,7.38,7.38,0,0,1,.9.29c.25.11.47.2.63.29a.9.9,0,0,0,.41.13.37.37,0,0,0,.27-.09,1.75,1.75,0,0,0,.16-.2l.2.11-.91,2.54-.18-.15a1.57,1.57,0,0,0,0-.29.62.62,0,0,0-.2-.37,2.35,2.35,0,0,0-.57-.44,4.65,4.65,0,0,0-.86-.35,3.9,3.9,0,0,0-1.1-.14,3.54,3.54,0,0,0-2.13.57,1.76,1.76,0,0,0-.79,1.5,1.14,1.14,0,0,0,.18.68,1.09,1.09,0,0,0,.48.39,2.11,2.11,0,0,0,.71.19,8,8,0,0,0,.87,0c.52,0,1.06,0,1.62,0a4.34,4.34,0,0,1,1.55.34,2.75,2.75,0,0,1,1.18,1,3.61,3.61,0,0,1,.47,2,3.47,3.47,0,0,1-.28,1.35,3.2,3.2,0,0,1-.82,1.16,3.75,3.75,0,0,1-1.35.8,5.55,5.55,0,0,1-1.86.28,5.21,5.21,0,0,1-2.67-.63,7.54,7.54,0,0,1-.76-.46.94.94,0,0,0-.48-.21c-.11,0-.22.09-.34.27l-.17-.13.89-2.54Z" transform="translate(-0.82)"/>
      <path class="cls-17" d="M253.43,151.8a.33.33,0,0,0,.31-.14.75.75,0,0,0,.09-.39v-9.36h-2.78a.67.67,0,0,0-.45.12.59.59,0,0,0-.13.45h-.2v-2.6h.2a.51.51,0,0,0,.58.57H258a.51.51,0,0,0,.58-.57h.2v2.6h-.2a.59.59,0,0,0-.13-.45.67.67,0,0,0-.45-.12h-2.78v9.36a.87.87,0,0,0,.08.39.35.35,0,0,0,.32.14v.26h-2.19v-.26Z" transform="translate(-0.82)"/>
      <path class="cls-17" d="M261.66,140.86a.32.32,0,0,0-.31-.14v-.27h6.93a.94.94,0,0,0,.55-.1.46.46,0,0,0,.11-.34h.21v2.51h-.21a.69.69,0,0,0-.13-.45.61.61,0,0,0-.51-.17h-5.17v3.5h3.36a.84.84,0,0,0,.49-.14.54.54,0,0,0,.19-.48h.2v2.67h-.2A.58.58,0,0,0,267,147a.78.78,0,0,0-.49-.13h-3.4v3.76h5.53a.71.71,0,0,0,.52-.17.81.81,0,0,0,.16-.58h.2v2.63h-.2c0-.28-.19-.43-.58-.43h-7.41v-.26a.34.34,0,0,0,.31-.14.87.87,0,0,0,.08-.39v-10A.84.84,0,0,0,261.66,140.86Z" transform="translate(-0.82)"/>
      <path class="cls-17" d="M274.49,151.66a.34.34,0,0,0,.32.14v.26h-2.19v-.26a.33.33,0,0,0,.31-.14.75.75,0,0,0,.08-.39v-10a.73.73,0,0,0-.08-.39.31.31,0,0,0-.31-.14v-.27h5.55a3,3,0,0,1,2.35.83,3.59,3.59,0,0,1,.71,2.39,3.87,3.87,0,0,1-.55,2.21,2.55,2.55,0,0,1-1.78,1l2.08,4.3a2.93,2.93,0,0,0,.29.47.52.52,0,0,0,.36.11v.26h-2.38v-.26a.5.5,0,0,0,.27-.05.16.16,0,0,0,.06-.15.36.36,0,0,0-.09-.24l-2-4.33h-3v4.24A.87.87,0,0,0,274.49,151.66Zm3.55-6.13a1.74,1.74,0,0,0,1.42-.51,2.11,2.11,0,0,0,.41-1.39,3.25,3.25,0,0,0-.08-.75,1.08,1.08,0,0,0-.3-.52,1.32,1.32,0,0,0-.59-.31,3.54,3.54,0,0,0-.95-.1h-3.54v3.58Z" transform="translate(-0.82)"/>
      <path class="cls-17" d="M300.45,140.86a.31.31,0,0,0-.31-.14v-.27h5.56a3,3,0,0,1,2.36.81,3.44,3.44,0,0,1,.71,2.3,4.06,4.06,0,0,1-.71,2.56,2.74,2.74,0,0,1-2.3.91h-3.83v4.24a.8.8,0,0,0,.08.38.33.33,0,0,0,.32.14v.27h-2.19v-.27a.31.31,0,0,0,.31-.14.69.69,0,0,0,.09-.38v-10A.71.71,0,0,0,300.45,140.86Zm5.22,4.67a1.76,1.76,0,0,0,1.43-.51,2.17,2.17,0,0,0,.41-1.39,1.87,1.87,0,0,0-.37-1.27,2,2,0,0,0-1.47-.41h-3.74v3.58Z" transform="translate(-0.82)"/>
      <path class="cls-17" d="M311.69,140.86c-.05-.1-.15-.14-.31-.14v-.27h6.94a.94.94,0,0,0,.55-.1A.46.46,0,0,0,319,140h.19v2.51H319a.69.69,0,0,0-.14-.45.64.64,0,0,0-.51-.17h-5.17v3.5h3.36a.84.84,0,0,0,.49-.14.55.55,0,0,0,.2-.48h.19v2.67h-.19a.62.62,0,0,0-.16-.47.76.76,0,0,0-.49-.13h-3.4v3.76h5.53a.72.72,0,0,0,.52-.17.86.86,0,0,0,.16-.58h.2v2.63h-.2c0-.28-.19-.43-.58-.43h-7.41v-.26a.34.34,0,0,0,.31-.14.87.87,0,0,0,.08-.39v-10A.73.73,0,0,0,311.69,140.86Z" transform="translate(-0.82)"/>
      <path class="cls-17" d="M324.53,151.66a.33.33,0,0,0,.31.14v.26h-2.18v-.26a.34.34,0,0,0,.31-.14.75.75,0,0,0,.08-.39v-10a.73.73,0,0,0-.08-.39.32.32,0,0,0-.31-.14v-.27h5.55a3,3,0,0,1,2.35.83,3.59,3.59,0,0,1,.71,2.39,3.87,3.87,0,0,1-.55,2.21,2.55,2.55,0,0,1-1.79,1l2.09,4.3a2.34,2.34,0,0,0,.29.47.5.5,0,0,0,.36.11v.26h-2.38v-.26a.5.5,0,0,0,.27-.05.16.16,0,0,0,.06-.15.36.36,0,0,0-.09-.24l-2-4.33h-3.05v4.24A.87.87,0,0,0,324.53,151.66Zm3.54-6.13a1.75,1.75,0,0,0,1.43-.51,2.11,2.11,0,0,0,.41-1.39,3.25,3.25,0,0,0-.08-.75,1.08,1.08,0,0,0-.3-.52,1.32,1.32,0,0,0-.59-.31,3.59,3.59,0,0,0-.95-.1h-3.54v3.58Z" transform="translate(-0.82)"/>
      <path class="cls-17" d="M334.89,140.86a.31.31,0,0,0-.31-.14v-.27h5.56a3,3,0,0,1,2.36.81,3.44,3.44,0,0,1,.7,2.3,4.06,4.06,0,0,1-.7,2.56,2.76,2.76,0,0,1-2.31.91h-3.82v4.24a.69.69,0,0,0,.08.38.31.31,0,0,0,.31.14v.27h-2.18v-.27a.31.31,0,0,0,.31-.14.8.8,0,0,0,.08-.38v-10A.72.72,0,0,0,334.89,140.86Zm5.22,4.67a1.73,1.73,0,0,0,1.42-.51,2.12,2.12,0,0,0,.42-1.39,1.82,1.82,0,0,0-.38-1.27,2,2,0,0,0-1.46-.41h-3.74v3.58Z" transform="translate(-0.82)"/>
      <path class="cls-17" d="M346.14,140.86a.33.33,0,0,0-.32-.14v-.27h6.94a.94.94,0,0,0,.55-.1.46.46,0,0,0,.12-.34h.19v2.51h-.19a.69.69,0,0,0-.14-.45.64.64,0,0,0-.51-.17h-5.17v3.5H351a.84.84,0,0,0,.49-.14.54.54,0,0,0,.19-.48h.2v2.67h-.2a.62.62,0,0,0-.15-.47.79.79,0,0,0-.5-.13h-3.39v3.76h5.53a.7.7,0,0,0,.51-.17.8.8,0,0,0,.17-.58h.2v2.63h-.2c0-.28-.19-.43-.58-.43h-7.42v-.26a.35.35,0,0,0,.32-.14.87.87,0,0,0,.08-.39v-10A.84.84,0,0,0,346.14,140.86Z" transform="translate(-0.82)"/>
      <path class="cls-17" d="M359.34,151.8a.34.34,0,0,0,.31-.14.87.87,0,0,0,.08-.39v-9.36H357a.67.67,0,0,0-.45.12.59.59,0,0,0-.13.45h-.2v-2.6h.2a.51.51,0,0,0,.58.57h7a.5.5,0,0,0,.57-.57h.21v2.6h-.21a.59.59,0,0,0-.13-.45.64.64,0,0,0-.44-.12h-2.78v9.36a.75.75,0,0,0,.08.39.33.33,0,0,0,.31.14v.26h-2.18v-.26Z" transform="translate(-0.82)"/>
      <path class="cls-17" d="M367.33,140.86a.31.31,0,0,0-.31-.14v-.27h2.19v.27a.33.33,0,0,0-.32.14.8.8,0,0,0-.08.38v7.07a2.07,2.07,0,0,0,.7,1.78,4.56,4.56,0,0,0,4.19,0,2.09,2.09,0,0,0,.71-1.78v-7.07a.69.69,0,0,0-.09-.38.31.31,0,0,0-.31-.14v-.27h2.18v.27a.31.31,0,0,0-.31.14.69.69,0,0,0-.08.38v6.58a6.79,6.79,0,0,1-.29,2.16,3.16,3.16,0,0,1-.83,1.33,2.74,2.74,0,0,1-1.32.65,8.44,8.44,0,0,1-1.75.17,8.54,8.54,0,0,1-1.76-.17,2.71,2.71,0,0,1-1.31-.65,3,3,0,0,1-.83-1.33,6.52,6.52,0,0,1-.29-2.16v-6.58A.71.71,0,0,0,367.33,140.86Z" transform="translate(-0.82)"/>
      <path class="cls-17" d="M380.2,150.74c-.05.13-.1.28-.15.44a1.19,1.19,0,0,0-.09.37c0,.17.1.25.29.25v.26h-2v-.26l.17,0a.35.35,0,0,0,.15-.13,2.69,2.69,0,0,0,.14-.32c.06-.14.13-.33.22-.57l3-8.92c.08-.25.15-.44.2-.56a1,1,0,0,0,.06-.3c0-.17-.1-.26-.3-.26v-.27h2.42v.27a.23.23,0,0,0-.26.26,1.13,1.13,0,0,0,.08.35c.06.14.12.33.21.58l3.18,8.79c.1.27.18.47.24.62a1.3,1.3,0,0,0,.15.33.26.26,0,0,0,.16.13.72.72,0,0,0,.23,0v.27H386v-.27a.26.26,0,0,0,.33-.31.7.7,0,0,0,0-.23c0-.08-.08-.25-.17-.52l-.63-1.76h-4.69Zm4.68-3.23-1.87-5.2-1.72,5.2Z" transform="translate(-0.82)"/>
      <path class="cls-17" d="M392.64,140.72a.33.33,0,0,0-.32.15,1.08,1.08,0,0,0-.08.46v9.27h5.56c.39,0,.58-.21.58-.66h.2v2.54h-.2c0-.28-.19-.42-.58-.42h-7.35v-.27a.31.31,0,0,0,.31-.14.69.69,0,0,0,.09-.38v-10a.69.69,0,0,0-.09-.38.31.31,0,0,0-.31-.14v-.27h2.19v.27Z" transform="translate(-0.82)"/>
    </g>
    <g id="logo-5" data-name="logo">
      <path class="cls-3" d="M337.16,50.62a4.2,4.2,0,0,0-2.29-2.47c-2.55-1.07-4.68.88-5.24,2.85s.75,4.44,2.09,4.89q-6.45,14.89-12.92,29.77a.08.08,0,0,0,0,0l2.1-40.15a4.18,4.18,0,0,0,3.77-5.74,4.07,4.07,0,0,0-3.11-2.67c-2.76-.57-5.2,2.47-4.38,5.38a4,4,0,0,0,2.7,2.87q-4.3,19.61-8.62,39.23l-4.17-43.23a4.27,4.27,0,0,0,3.05-5.86A4,4,0,0,0,306.8,33a3.3,3.3,0,0,0-1.78.3,4.3,4.3,0,0,0-2.33,5.15,4.2,4.2,0,0,0,2.25,2.68c.31.08.62.19.94.28.09.11,0,.58,0,.76-.06.67-.13,1.33-.19,2q-.41,4.13-.79,8.23-1.54,16.06-3.1,32.16h0q-4.31-19.58-8.6-39.13a3.28,3.28,0,0,0,1.48-.87,4.45,4.45,0,0,0,1.14-4.69,4.09,4.09,0,0,0-2.44-2.49,3.71,3.71,0,0,0-2-.18,4.09,4.09,0,0,0-3,2.71,4.18,4.18,0,0,0,3.77,5.68q1,20.06,2.08,40.11h0q-6.49-14.89-13-29.81a4.3,4.3,0,0,0,2-4.94,3.93,3.93,0,0,0-5.2-2.76,4.21,4.21,0,0,0-2.43,3,4.26,4.26,0,0,0,2.51,4.93,3.74,3.74,0,0,0,2.3.12h0q4.38,15.93,8.75,31.85c.66,2.4,1.32,4.81,2,7.21.2.76.41,1.52.62,2.27a7.39,7.39,0,0,0,1.92,3A18.8,18.8,0,0,0,295.5,102a19.32,19.32,0,0,0,6.06,2.5c.86.24,1.78.27,2.71.44l1.17.06a14.26,14.26,0,0,0,4.15-.19c.84-.15,1.59-.21,2.36-.42a17.66,17.66,0,0,0,6.51-3.11,9.63,9.63,0,0,0,2.41-2.91A17.12,17.12,0,0,0,322,95q.93-3.43,1.88-6.87,4.37-15.91,8.75-31.81c.1-.08.85.12,1.15.07a4.77,4.77,0,0,0,1.83-.65A4.47,4.47,0,0,0,337.16,50.62ZM318.75,98.09c-.44,1.7-3.19,2.5-4.88,3a31.79,31.79,0,0,1-15.69-.22c-1.46-.47-3.13-1-3.86-2.26s.63-2.38,1.41-2.87c1.76-1.11,4.06-1.41,6.47-1.86l2.32-.2,1.11,0c4.3,0,8.06.45,11,1.84C317.43,95.8,319.08,96.74,318.75,98.09Z" transform="translate(-0.82)"/>
    </g>
  </g>
  <g id="logoMetallic">
    <path class="cls-18" d="M337.16,50.62a4.2,4.2,0,0,0-2.29-2.47c-2.55-1.07-4.68.88-5.24,2.85s.75,4.44,2.09,4.89q-6.45,14.89-12.92,29.77a.08.08,0,0,0,0,0l2.1-40.15a4.18,4.18,0,0,0,3.77-5.74,4.07,4.07,0,0,0-3.11-2.67c-2.76-.57-5.2,2.47-4.38,5.38a4,4,0,0,0,2.7,2.87q-4.3,19.61-8.62,39.23l-4.17-43.23a4.27,4.27,0,0,0,3.05-5.86A4,4,0,0,0,306.8,33a3.3,3.3,0,0,0-1.78.3,4.3,4.3,0,0,0-2.33,5.15,4.2,4.2,0,0,0,2.25,2.68c.31.08.62.19.94.28.09.11,0,.58,0,.76-.06.67-.13,1.33-.19,2q-.41,4.13-.79,8.23-1.54,16.06-3.1,32.16h0q-4.31-19.58-8.6-39.13a3.28,3.28,0,0,0,1.48-.87,4.45,4.45,0,0,0,1.14-4.69,4.09,4.09,0,0,0-2.44-2.49,3.71,3.71,0,0,0-2-.18,4.09,4.09,0,0,0-3,2.71,4.18,4.18,0,0,0,3.77,5.68q1,20.06,2.08,40.11h0q-6.49-14.89-13-29.81a4.3,4.3,0,0,0,2-4.94,3.93,3.93,0,0,0-5.2-2.76,4.21,4.21,0,0,0-2.43,3,4.26,4.26,0,0,0,2.51,4.93,3.74,3.74,0,0,0,2.3.12h0q4.38,15.93,8.75,31.85c.66,2.4,1.32,4.81,2,7.21.2.76.41,1.52.62,2.27a7.39,7.39,0,0,0,1.92,3A18.8,18.8,0,0,0,295.5,102a19.32,19.32,0,0,0,6.06,2.5c.86.24,1.78.27,2.71.44l1.17.06a14.26,14.26,0,0,0,4.15-.19c.84-.15,1.59-.21,2.36-.42a17.66,17.66,0,0,0,6.51-3.11,9.63,9.63,0,0,0,2.41-2.91A17.12,17.12,0,0,0,322,95q.93-3.43,1.88-6.87,4.37-15.91,8.75-31.81c.1-.08.85.12,1.15.07a4.77,4.77,0,0,0,1.83-.65A4.47,4.47,0,0,0,337.16,50.62ZM318.75,98.09c-.44,1.7-3.19,2.5-4.88,3a31.79,31.79,0,0,1-15.69-.22c-1.46-.47-3.13-1-3.86-2.26s.63-2.38,1.41-2.87c1.76-1.11,4.06-1.41,6.47-1.86l2.32-.2,1.11,0c4.3,0,8.06.45,11,1.84C317.43,95.8,319.08,96.74,318.75,98.09Z" transform="translate(-0.82)"/>
  </g>
  <g id="fiveMinuteMarkers">
    <path class="cls-19" d="M200,489.71h0c-2.18-2-13.48,4.51-20.81,9.81s-19.91,27.81-19.59,32.15c.22,2.94,5,7,10.28,10h0c5.23,3.12,11.11,5.24,13.76,4,3.93-1.88,17.22-24,18.19-33S202.79,490.6,200,489.71Zm-19.54,51.42c-2.59,1.69-15.77-6.38-15.71-9.11s14.57-28.73,17.43-30,14.81,5.83,15.72,9.12S183,539.45,180.41,541.13Z" transform="translate(-0.82)"/>
    <path class="cls-19" d="M432.11,500.4c-7.29-5.36-18.54-12-20.74-10h0s0,0,0,0c-2.85.86-2.89,13.92-2,22.93s14,31.2,17.92,33.1c2.65,1.3,8.54-.78,13.79-3.86h0c5.33-3,10.12-7,10.36-9.88C451.78,528.37,439.41,505.78,432.11,500.4Zm-1.92,41.78c-2.34-1.42-17.49-27-17.19-30.19s12.49-9.86,15.78-9,17,27.11,17.19,30.19S432.52,543.6,430.19,542.18Z" transform="translate(-0.82)"/>
    <path class="cls-19" d="M122.15,411.49h0c-.87-2.85-13.93-2.87-22.93-2s-31.18,14.05-33.08,18c-1.29,2.65.79,8.54,3.87,13.79h0c2.95,5.32,7,10.11,9.9,10.34,4.34.35,26.91-12.06,32.29-19.36S124.16,413.68,122.15,411.49Zm-12.56,17.42c-.86,3.3-27.08,17.08-30.16,17.23s-10.43-13.44-9-15.77,27-17.53,30.16-17.23S110.46,425.61,109.59,428.91Z" transform="translate(-0.82)"/>
    <path class="cls-19" d="M544.8,430.67C543,426.73,521,413.27,512,412.23s-22.05-1.2-23,1.64h0c-2,2.17,4.41,13.52,9.66,20.89s27.65,20.12,32,19.84c2.94-.2,7-4.93,10-10.21h0C543.89,439.19,546.06,433.34,544.8,430.67Zm-13.73,18.77c-2.73-.08-28.62-14.79-29.91-17.66s5.93-14.76,9.23-15.65,28.25,15.07,29.91,17.67S533.8,449.52,531.07,449.44Z" transform="translate(-0.82)"/>
    <path class="cls-19" d="M543.21,172.18h0c-2.93-5.33-6.91-10.14-9.85-10.39-4.34-.37-27,11.93-32.38,19.21s-12.05,18.5-10.05,20.7h0c.85,2.85,13.91,2.94,22.92,2.08S545.1,189.89,547,186C548.32,183.34,546.26,177.44,543.21,172.18Zm-.47,10.88c-1.43,2.32-27.12,17.4-30.25,17.08s-9.81-12.52-8.93-15.82,27.16-16.94,30.25-17.08S544.17,180.73,542.74,183.06Z" transform="translate(-0.82)"/>
    <path class="cls-19" d="M447,73.14h0c-5.17-3.21-11-5.44-13.69-4.22-4,1.81-17.65,23.64-18.78,32.63s-1.42,22,1.4,23h0c2.15,2.07,13.57-4.27,21-9.44s20.41-27.44,20.17-31.79C456.91,80.36,452.21,76.23,447,73.14Zm-13,39.45c-2.88,1.26-14.69-6.1-15.54-9.4s15.35-28.09,18-29.73,15.65,6.67,15.55,9.39S436.82,111.32,433.93,112.59Z" transform="translate(-0.82)"/>
    <path class="cls-19" d="M114.25,177c-5.24-7.4-27.6-20.2-31.94-19.92-2.94.18-7,4.9-10.08,10.17h0c-3.17,5.2-5.35,11.05-4.11,13.72,1.83,3.95,23.76,17.47,32.77,18.54s22,1.26,23-1.58h0C125.9,195.73,119.48,184.35,114.25,177Zm-11.76,18.6c-3.3.88-28.21-15.14-29.87-17.75s6.55-15.7,9.28-15.61,28.58,14.87,29.87,17.74S105.78,194.7,102.49,195.57Z" transform="translate(-0.82)"/>
    <path class="cls-19" d="M205.5,97.81c-.8-9-13.66-31.36-17.55-33.31-2.63-1.32-8.55.69-13.84,3.71h0c-5.36,2.89-10.2,6.84-10.47,9.77-.4,4.34,11.73,27.06,19,32.52s18.41,12.2,20.63,10.21h0C206.11,119.88,206.3,106.82,205.5,97.81ZM186,107.94c-3.29-.9-16.73-27.29-16.85-30.38S182.68,67.3,185,68.75,202.19,96,201.85,99.13,189.25,108.85,186,107.94Z" transform="translate(-0.82)"/>
    <path class="cls-19" d="M56.63,292.07H40.1c-4.48,0-8.12,4.17-8.12,9.3v9.39c0,5.14,3.64,9.3,8.12,9.3H56.63c4.49,0,8.13-4.17,8.13-9.3v-9.39C64.76,296.24,61.12,292.07,56.63,292.07Zm2.92,17.2c0,3.51-2.48,6.35-5.54,6.35H42.72c-3.06,0-5.54-2.84-5.54-6.35v-6.41c0-3.51,2.48-6.35,5.54-6.35H54c3.06,0,5.54,2.85,5.54,6.35Z" transform="translate(-0.82)"/>
    <path class="cls-19" d="M574.08,292.07H557.56c-4.49,0-8.13,4.17-8.13,9.3v9.39c0,5.14,3.64,9.3,8.13,9.3h16.52c4.49,0,8.13-4.17,8.13-9.3v-9.39C582.21,296.24,578.57,292.07,574.08,292.07Zm2.93,17.2c0,3.51-2.49,6.35-5.54,6.35H560.18c-3.06,0-5.55-2.84-5.55-6.35v-6.41c0-3.51,2.49-6.35,5.55-6.35h11.29c3,0,5.54,2.85,5.54,6.35Z" transform="translate(-0.82)"/>
    <path class="cls-19" d="M310.74,550.05h-9.39c-5.13,0-9.3,3.64-9.3,8.13v16.53c0,4.48,4.17,8.12,9.3,8.12h9.39c5.14,0,9.3-3.64,9.3-8.12V558.18C320,553.69,315.88,550.05,310.74,550.05Zm4.86,22c0,3.06-2.84,5.55-6.35,5.55h-6.41c-3.5,0-6.35-2.49-6.35-5.55V560.8c0-3.06,2.85-5.54,6.35-5.54h6.41c3.51,0,6.35,2.48,6.35,5.54Z" transform="translate(-0.82)"/>
  </g>
  <g id="fiveMinuteMarkersMetallic">
    <path class="cls-20" d="M200,489.71h0c-2.18-2-13.48,4.51-20.81,9.81s-19.91,27.81-19.59,32.15c.22,2.94,5,7,10.28,10h0c5.23,3.12,11.11,5.24,13.76,4,3.93-1.88,17.22-24,18.19-33S202.79,490.6,200,489.71Zm-19.54,51.42c-2.59,1.69-15.77-6.38-15.71-9.11s14.57-28.73,17.43-30,14.81,5.83,15.72,9.12S183,539.45,180.41,541.13Z" transform="translate(-0.82)"/>
    <path class="cls-21" d="M432.11,500.4c-7.29-5.36-18.54-12-20.74-10h0s0,0,0,0c-2.85.86-2.89,13.92-2,22.93s14,31.2,17.92,33.1c2.65,1.3,8.54-.78,13.79-3.86h0c5.33-3,10.12-7,10.36-9.88C451.78,528.37,439.41,505.78,432.11,500.4Zm-1.92,41.78c-2.34-1.42-17.49-27-17.19-30.19s12.49-9.86,15.78-9,17,27.11,17.19,30.19S432.52,543.6,430.19,542.18Z" transform="translate(-0.82)"/>
    <path class="cls-22" d="M122.15,411.49h0c-.87-2.85-13.93-2.87-22.93-2s-31.18,14.05-33.08,18c-1.29,2.65.79,8.54,3.87,13.79h0c2.95,5.32,7,10.11,9.9,10.34,4.34.35,26.91-12.06,32.29-19.36S124.16,413.68,122.15,411.49Zm-12.56,17.42c-.86,3.3-27.08,17.08-30.16,17.23s-10.43-13.44-9-15.77,27-17.53,30.16-17.23S110.46,425.61,109.59,428.91Z" transform="translate(-0.82)"/>
    <path class="cls-23" d="M544.8,430.67C543,426.73,521,413.27,512,412.23s-22.05-1.2-23,1.64h0c-2,2.17,4.41,13.52,9.66,20.89s27.65,20.12,32,19.84c2.94-.2,7-4.93,10-10.21h0C543.89,439.19,546.06,433.34,544.8,430.67Zm-13.73,18.77c-2.73-.08-28.62-14.79-29.91-17.66s5.93-14.76,9.23-15.65,28.25,15.07,29.91,17.67S533.8,449.52,531.07,449.44Z" transform="translate(-0.82)"/>
    <path class="cls-24" d="M543.21,172.18h0c-2.93-5.33-6.91-10.14-9.85-10.39-4.34-.37-27,11.93-32.38,19.21s-12.05,18.5-10.05,20.7h0c.85,2.85,13.91,2.94,22.92,2.08S545.1,189.89,547,186C548.32,183.34,546.26,177.44,543.21,172.18Zm-.47,10.88c-1.43,2.32-27.12,17.4-30.25,17.08s-9.81-12.52-8.93-15.82,27.16-16.94,30.25-17.08S544.17,180.73,542.74,183.06Z" transform="translate(-0.82)"/>
    <path class="cls-25" d="M447,73.14h0c-5.17-3.21-11-5.44-13.69-4.22-4,1.81-17.65,23.64-18.78,32.63s-1.42,22,1.4,23h0c2.15,2.07,13.57-4.27,21-9.44s20.41-27.44,20.17-31.79C456.91,80.36,452.21,76.23,447,73.14Zm-13,39.45c-2.88,1.26-14.69-6.1-15.54-9.4s15.35-28.09,18-29.73,15.65,6.67,15.55,9.39S436.82,111.32,433.93,112.59Z" transform="translate(-0.82)"/>
    <path class="cls-26" d="M114.25,177c-5.24-7.4-27.6-20.2-31.94-19.92-2.94.18-7,4.9-10.08,10.17h0c-3.17,5.2-5.35,11.05-4.11,13.72,1.83,3.95,23.76,17.47,32.77,18.54s22,1.26,23-1.58h0C125.9,195.73,119.48,184.35,114.25,177Zm-11.76,18.6c-3.3.88-28.21-15.14-29.87-17.75s6.55-15.7,9.28-15.61,28.58,14.87,29.87,17.74S105.78,194.7,102.49,195.57Z" transform="translate(-0.82)"/>
    <path class="cls-27" d="M205.5,97.81c-.8-9-13.66-31.36-17.55-33.31-2.63-1.32-8.55.69-13.84,3.71h0c-5.36,2.89-10.2,6.84-10.47,9.77-.4,4.34,11.73,27.06,19,32.52s18.41,12.2,20.63,10.21h0C206.11,119.88,206.3,106.82,205.5,97.81ZM186,107.94c-3.29-.9-16.73-27.29-16.85-30.38S182.68,67.3,185,68.75,202.19,96,201.85,99.13,189.25,108.85,186,107.94Z" transform="translate(-0.82)"/>
    <path class="cls-28" d="M56.63,292.07H40.1c-4.48,0-8.12,4.17-8.12,9.3v9.39c0,5.14,3.64,9.3,8.12,9.3H56.63c4.49,0,8.13-4.17,8.13-9.3v-9.39C64.76,296.24,61.12,292.07,56.63,292.07Zm2.92,17.2c0,3.51-2.48,6.35-5.54,6.35H42.72c-3.06,0-5.54-2.84-5.54-6.35v-6.41c0-3.51,2.48-6.35,5.54-6.35H54c3.06,0,5.54,2.85,5.54,6.35Z" transform="translate(-0.82)"/>
    <path class="cls-29" d="M574.08,292.07H557.56c-4.49,0-8.13,4.17-8.13,9.3v9.39c0,5.14,3.64,9.3,8.13,9.3h16.52c4.49,0,8.13-4.17,8.13-9.3v-9.39C582.21,296.24,578.57,292.07,574.08,292.07Zm2.93,17.2c0,3.51-2.49,6.35-5.54,6.35H560.18c-3.06,0-5.55-2.84-5.55-6.35v-6.41c0-3.51,2.49-6.35,5.55-6.35h11.29c3,0,5.54,2.85,5.54,6.35Z" transform="translate(-0.82)"/>
    <path class="cls-30" d="M310.74,550.05h-9.39c-5.13,0-9.3,3.64-9.3,8.13v16.53c0,4.48,4.17,8.12,9.3,8.12h9.39c5.14,0,9.3-3.64,9.3-8.12V558.18C320,553.69,315.88,550.05,310.74,550.05Zm4.86,22c0,3.06-2.84,5.55-6.35,5.55h-6.41c-3.5,0-6.35-2.49-6.35-5.55V560.8c0-3.06,2.85-5.54,6.35-5.54h6.41c3.51,0,6.35,2.48,6.35,5.54Z" transform="translate(-0.82)"/>
  </g>
  <g id="indices">
    <path class="cls-3" d="M182.13,502c2.86-1.32,14.81,5.83,15.72,9.12S183,539.45,180.41,541.14s-15.77-6.39-15.71-9.12S179.27,503.29,182.13,502Z" transform="translate(-0.82)"/>
    <path class="cls-3" d="M413,512c.29-3.14,12.49-9.86,15.78-9s17,27.11,17.19,30.19-13.45,10.41-15.78,9S412.7,515.13,413,512Z" transform="translate(-0.82)"/>
    <path class="cls-3" d="M100.58,413.14c3.14.29,9.88,12.47,9,15.77S82.51,446,79.43,446.14s-10.43-13.44-9-15.77S97.45,412.84,100.58,413.14Z" transform="translate(-0.82)"/>
    <path class="cls-3" d="M501.15,431.78c-1.3-2.87,5.94-14.76,9.24-15.65s28.25,15.07,29.91,17.67-6.5,15.72-9.23,15.64S502.45,434.65,501.15,431.78Z" transform="translate(-0.82)"/>
    <path class="cls-3" d="M512.49,200.14c-3.13-.31-9.81-12.52-8.93-15.82s27.16-16.94,30.25-17.08,10.36,13.49,8.93,15.82S515.62,200.46,512.49,200.14Z" transform="translate(-0.82)"/>
    <path class="cls-3" d="M433.93,112.59c-2.88,1.26-14.69-6.1-15.54-9.4s15.35-28.09,18-29.73,15.65,6.67,15.55,9.39S436.82,111.32,433.93,112.59Z" transform="translate(-0.82)"/>
    <path class="cls-3" d="M111.77,180c1.28,2.88-6,14.75-9.28,15.62s-28.21-15.14-29.87-17.75,6.55-15.7,9.28-15.61S110.48,177.08,111.77,180Z" transform="translate(-0.82)"/>
    <path class="cls-3" d="M201.85,99.13c-.34,3.13-12.6,9.72-15.89,8.81s-16.73-27.29-16.85-30.38S182.68,67.3,185,68.75,202.19,96,201.85,99.13Z" transform="translate(-0.82)"/>
    <path class="cls-3" d="M59.55,309.27c0,3.51-2.48,6.35-5.54,6.35H42.72c-3.06,0-5.54-2.84-5.54-6.35v-6.41c0-3.51,2.48-6.35,5.54-6.35H54c3.06,0,5.54,2.85,5.54,6.35Z" transform="translate(-0.82)"/>
    <path class="cls-3" d="M577,309.27c0,3.51-2.49,6.35-5.54,6.35H560.18c-3.06,0-5.55-2.84-5.55-6.35v-6.41c0-3.51,2.49-6.35,5.55-6.35h11.29c3,0,5.54,2.85,5.54,6.35Z" transform="translate(-0.82)"/>
    <path class="cls-3" d="M309.25,555.26c3.51,0,6.35,2.48,6.35,5.54v11.28c0,3.06-2.85,5.55-6.35,5.55h-6.41c-3.51,0-6.35-2.49-6.35-5.55V560.8c0-3.06,2.85-5.54,6.35-5.54Z" transform="translate(-0.82)"/>
  </g>
  <use id="bigMinuteHand" width="16.2" height="128.82" transform="matrix(1.32, 2.21, -2.21, 1.32, 534.87, 144.16)" xlink:href="#minuteHand"/>
  <use id="bigHourHand" width="19.08" height="90.18" transform="matrix(-1.29, 2.22, -2.22, -1.29, 364.71, 310.64)" xlink:href="#hourHand"/>
  <use id="bigSecondHand" width="152.75" height="10.9" transform="translate(291.99 591.28) rotate(-90.01) scale(2.57)" xlink:href="#secondHand"/>
  <circle id="centreScrew" class="cls-31" cx="306.33" cy="305.02" r="5.4"/>
</svg>
