<?xml version="1.0" encoding="utf-8"?>
<!-- Generator: Adobe Illustrator 22.0.1, SVG Export Plug-In . SVG Version: 6.00 Build 0)  -->
<svg version="1.1" id="Layer_1" xmlns="http://www.w3.org/2000/svg" xmlns:xlink="http://www.w3.org/1999/xlink" x="0px" y="0px"
	 viewBox="0 0 100 100" style="enable-background:new 0 0 100 100;" xml:space="preserve">
<style type="text/css">
	.st0{fill:#878787;}
	.st1{opacity:0.1;fill:#878787;}
</style>
<path class="st0" d="M50.4,65.5c-7,0-13.1-4.5-15.3-10.8L34.7,52v0l0.4,2.8C37.4,61,43.4,65.5,50.4,65.5c6.6,0,12.4-4,14.9-9.8
	C62.8,61.5,57.1,65.5,50.4,65.5z"/>
<path class="st0" d="M61.7,11.7c0-1.1-0.9-1.7-2-1.7H41c-1.1,0-2,0.7-2,1.7l-2.9,22.5c0,0,0,0,0,0c-4.1,3.7-6.6,9.1-6.6,15
	c0,5.8,2.5,11.1,6.4,14.9L39,88.3c0,1.1,0.9,1.7,2,1.7h18.8c1.1,0,2-0.6,2-1.7l2.6-24.4c0,0,0,0,0,0c3.8-3.7,6.2-8.9,6.2-14.6
	c0-5.8-2.4-11-6.3-14.8C64.2,34.5,61.7,11.7,61.7,11.7z M68.5,49.3c0,4.2-1.4,8.1-3.8,11.3C61.3,65,56,67.8,50,67.8
	c-5.9,0-11.1-2.7-14.5-7c-2.5-3.2-4.1-7.2-4.1-11.5c0-4.5,1.6-8.6,4.3-11.8c3.4-4.1,8.5-6.7,14.3-6.7c5.9,0,11.1,2.8,14.5,7
	C67,41,68.5,45,68.5,49.3z"/>
<path class="st0" d="M50,32.3c-6.3,0-11.8,3.5-14.7,8.6c-1.4,2.5-2.2,5.3-2.2,8.4c0,2.9,0.7,5.6,2,8c2.9,5.3,8.5,8.9,14.9,8.9
	c6.6,0,12.3-3.8,15.1-9.2c1.2-2.3,1.9-4.9,1.9-7.7c0-2.9-0.8-5.7-2.1-8.1C62,35.9,56.4,32.3,50,32.3z M65.3,54.5
	c-0.1,0.4-0.3,0.8-0.5,1.2c-2.5,5.8-8.2,9.8-14.9,9.8c-7,0-13-4.5-15.3-10.8c-0.6-1.7-1-3.5-1-5.5c0-2.2,0.4-4.3,1.2-6.2
	c2.4-5.9,8.2-10,15-10c6.9,0,12.8,4.3,15.1,10.4c0.7,1.8,1.1,3.8,1.1,5.8C66.2,51.1,65.9,52.9,65.3,54.5z"/>
<path class="st1" d="M61.1,44c-0.3-0.4-0.9-0.6-1.4-0.2l-9.3,6.4l-6.5-4.4c-0.4-0.3-1.1-0.2-1.4,0.3c-0.2,0.2-0.2,0.5-0.2,0.7
	c0,0.2,0.2,0.5,0.4,0.6l5.9,4l1.1,0.8c0,0,0,0,0.1,0c0,0,0.2,0,0.2,0.1c0.1,0.1,0.5,0.1,0.5,0.1v0h-0.2c0.1,0,0.2,0,0.3-0.1
	c0,0,0.1,0,0.1,0c0.1,0,0.1-0.1,0.2-0.1c0,0,0,0,0,0l1.1-0.8l8.7-6C61.2,45,61.4,44.4,61.1,44z"/>
</svg>
