<?xml version="1.0" encoding="utf-8"?>
<!DOCTYPE svg PUBLIC "-//W3C//DTD SVG 1.1//EN" "http://www.w3.org/Graphics/SVG/1.1/DTD/svg11.dtd">
<svg version="1.1" xmlns="http://www.w3.org/2000/svg" xmlns:xlink="http://www.w3.org/1999/xlink" x="0px" y="0px" width="610px"
	 height="600px" viewBox="0 0 610 600" enable-background="new 0 0 610 600" xml:space="preserve">
<symbol  id="hourHand" viewBox="-48.06 -8.555 56.072 39.455">
	<g>
		<g>
			<g>
				<path stroke="none" fill="#656568" d="M-0.451,7.466c-1.162,0-2.264-0.253-3.26-0.699l-43.896,23.328l-0.452-0.267l1.685-6.274l37.92-24.22
					c0.065-4.367,3.621-7.889,8.004-7.889c4.424,0,8.011,3.586,8.011,8.01S3.973,7.466-0.451,7.466z M0.001-2.832
					c-1.691,0-3.062,1.371-3.062,3.062s1.371,3.062,3.062,3.062S3.064,1.922,3.064,0.23S1.692-2.832,0.001-2.832z"/>
			</g>
		</g>
		<g>
			<g>
				<path stroke="none" fill="#A3A3A3" d="M0.001,7.732c-1.162,0-2.264-0.253-3.26-0.698L-40.723,30.9l-6.885-0.806l1.685-6.274l37.92-24.219
					c0.065-4.368,3.621-7.891,8.004-7.891c4.424,0,8.011,3.587,8.011,8.011C8.012,4.146,4.425,7.732,0.001,7.732z M0.001-2.832
					c-1.691,0-3.062,1.371-3.062,3.062s1.371,3.062,3.062,3.062S3.064,1.922,3.064,0.23S1.692-2.832,0.001-2.832z"/>
			</g>
		</g>
		<line fill="none" stroke-width="4.5397" x1="-42.088" y1="26.571" x2="-10.6" y2="6.44"/>
	</g>
</symbol>
<symbol  id="minuteHand" viewBox="-6.372 -6.47 73.043 59.772">
	<g>
		<g>
			<g>
				<path fill="#656568" stroke="none" d="M66.335,52.764l-7.47-1.76L1.531,5.689c-0.599,0.17-1.233,0.256-1.889,0.236
					C-3.781,5.822-6.472,2.967-6.37-0.457c0.102-3.422,2.959-6.113,6.381-6.01C3.434-6.365,6.125-3.51,6.024-0.086
					c-0.001,0.02-0.005,0.041-0.005,0.062l57.374,45.348L66.335,52.764z M-0.082-3.332c-1.69-0.051-3.102,1.279-3.152,2.969
					s1.279,3.102,2.97,3.152S2.836,1.51,2.887-0.18C2.938-1.871,1.609-3.281-0.082-3.332z"/>
			</g>
		</g>
		<radialGradient id="SVGID_1_" cx="2.4727" cy="2.3242" r="4.9661" gradientUnits="userSpaceOnUse">
			<stop  offset="0.456" style="stop-color:#FFFFFF"/>
			<stop  offset="0.5221" style="stop-color:#FAFAFA"/>
			<stop  offset="0.6023" style="stop-color:#EBEBEB"/>
			<stop  offset="0.6898" style="stop-color:#D2D2D2"/>
			<stop  offset="0.7826" style="stop-color:#B0B0B0"/>
			<stop  offset="0.8794" style="stop-color:#848484"/>
			<stop  offset="0.9784" style="stop-color:#4F4F4F"/>
			<stop  offset="1" style="stop-color:#424242"/>
		</radialGradient>
		<path fill="url(#SVGID_1_)" stroke="none" d="M3.247,0.384c0.051-1.689-1.279-3.102-2.97-3.152s-3.102,1.278-3.152,2.97
			c-0.05,1.691,1.279,3.102,2.97,3.152C1.785,3.405,3.197,2.075,3.247,0.384z"/>
		<g>
			<g>
				<path fill="#A4A4A4" stroke="none" d="M66.671,53.303l-7.47-1.762L1.866,6.229c-0.599,0.17-1.232,0.254-1.888,0.234
					c-3.423-0.102-6.114-2.959-6.013-6.381c0.103-3.424,2.96-6.115,6.382-6.012C3.77-5.828,6.462-2.971,6.359,0.451
					c0,0.021-0.004,0.043-0.005,0.062l57.375,45.348L66.671,53.303z M0.254-2.795c-1.69-0.051-3.102,1.279-3.152,2.971
					c-0.05,1.689,1.279,3.102,2.97,3.152s3.103-1.279,3.152-2.971C3.274-1.332,1.944-2.744,0.254-2.795z"/>
			</g>
		</g>
		<line fill="none" stroke-width="4.5397" x1="61.475" y1="48.607" x2="11.266" y2="8.816"/>
	</g>
</symbol>
<symbol  id="secondHand" viewBox="-8.186 -8.712 23.341 25.432">
	<g>
		<path fill="#A3A3A3" d="M15.155,16.719l-0.273-1.904c-0.023-0.162-0.607-3.997-3.317-7.004c-2.708-3.009-6.46-3.985-6.618-4.025
			L4.155,3.584L2.797,2.099c0.438-0.586,0.706-1.306,0.713-2.092c0.014-1.971-1.571-3.58-3.539-3.594
			c-0.693-0.008-1.336,0.193-1.886,0.531l-2.21-2.417c0.175-0.312,0.285-0.665,0.288-1.046C-3.827-7.72-4.792-8.7-5.993-8.712
			C-7.195-8.72-8.175-7.754-8.186-6.553c-0.01,1.199,0.956,2.182,2.158,2.19c0.251,0.003,0.489-0.046,0.713-0.124l2.286,2.502
			C-3.396-1.43-3.617-0.766-3.623-0.051c-0.016,1.97,1.568,3.58,3.538,3.595C0.536,3.55,1.113,3.38,1.624,3.104l1.694,1.854
			l0.037,0.259c0.023,0.159,0.606,3.994,3.317,7.002c2.708,3.008,6.46,3.986,6.619,4.026L15.155,16.719z M-0.033,1.481
			c-0.818,0-1.481-0.662-1.481-1.481c0-0.817,0.663-1.479,1.481-1.479S1.448-0.817,1.448,0C1.448,0.819,0.785,1.481-0.033,1.481z"/>
		<g>
			<path d="M10.608,8.67C8.13,5.919,4.629,5.03,4.629,5.03s0.518,3.574,2.998,6.326
				c2.479,2.754,5.979,3.642,5.979,3.642S13.088,11.423,10.608,8.67z"/>
		</g>
		<radialGradient id="SVGID_2_" cx="0.8506" cy="0.9121" r="2.4559" gradientUnits="userSpaceOnUse">
			<stop  offset="0.456" style="stop-color:#FFFFFF"/>
			<stop  offset="0.5221" style="stop-color:#FAFAFA"/>
			<stop  offset="0.6023" style="stop-color:#EBEBEB"/>
			<stop  offset="0.6898" style="stop-color:#D2D2D2"/>
			<stop  offset="0.7826" style="stop-color:#B0B0B0"/>
			<stop  offset="0.8794" style="stop-color:#848484"/>
			<stop  offset="0.9784" style="stop-color:#4F4F4F"/>
			<stop  offset="1" style="stop-color:#424242"/>
		</radialGradient>
		<path fill="url(#SVGID_2_)" d="M1.658,0.052c0.028-0.936-0.707-1.715-1.641-1.741c-0.934-0.03-1.713,0.705-1.742,1.641
			c-0.027,0.933,0.707,1.712,1.641,1.74C0.851,1.72,1.63,0.984,1.658,0.052z"/>
	</g>
</symbol>

<g id="Layer_6">
	<rect x="-13" y="-6" width="623" height="607"/>
	<radialGradient id="backgroundGradient_1_" cx="304.0996" cy="254.9053" r="225.067" gradientUnits="userSpaceOnUse">
		<stop  offset="0.0123" style="stop-color:#FFFFFF"/>
		<stop  offset="0.2852" style="stop-color:#A3A3A3"/>
		<stop  offset="0.5153" style="stop-color:#5A5A5A"/>
		<stop  offset="1" style="stop-color:#000000;stop-opacity:0"/>
	</radialGradient>
	
		<ellipse id="backgroundGradient" opacity="0.87" fill="url(#backgroundGradient_1_)" cx="304.1" cy="254.905" rx="243.263" ry="205.265"/>
</g>

<g id="smallWatch">
	<g id="watchstrap">
		<defs>
			<path id="SVGID_3_" d="M225.991,405.591v1.764c0,0,1.739,0.125,2.658,0.125c0.918,0,3.353,0.396,4.545,1.813
				c0-1.789,0-5.143,0-5.143L225.991,405.591z M107.982,538.934l-6.495-0.012c-1.404,0-2.941-0.279-3.432-3.65
				c-0.575-3.931-4.024-56.064-4.785-101.455c0,0-17.198-2.071-17.918-2.181c-1.184-0.177-1.736-0.527-1.869-2.135
				c-0.146-1.75-0.885-33.048-0.891-33.364l-0.007-0.324l-0.299-0.133c-0.434-0.195-10.655-4.771-11.911-5.288
				c-1.333-0.549-2.953-4.16-3.188-4.723c-6.646-15.868-22.118-50.112-22.118-95.506c0-54.814,24.108-99.337,24.351-99.774
				c0.694-1.25,0.922-1.806,2.811-2.575c1.995-0.814,12.403-5.282,12.403-5.282c0.012-0.331,0.779-33.312,0.852-34.628
				c0.052-0.931,0.237-1.611,2.164-1.898c1.933-0.287,11.94-1.533,16.484-1.828c0.017,0.181,0.035,0.333,0.035,0.333l0.398,1.222
				c0.882,0,1.557-2.32,1.767-5.434c0.115-1.702,2.028-82.654,2.028-82.654c0.681-8.877,1.062-11.237,4.509-11.237
				c0.429,0,10.735,0,10.735,0s1.194-2.329,1.846-2.329c0.658,0,2.356-0.608,2.613,2.329h95.028c0,0,0.328-2.164,2.361-2.164
				c0.966,0,2.079,2.164,2.079,2.164s8.875,0,9.08,0c1.847,0,2.647,0.464,3.305,3.533c0.654,3.051,5.026,95.2,5.026,95.2
				s16.322,1.76,18.471,2.237c1.268,0.283,1.248,0.517,1.137,1.816c-0.035,0.392-0.073,0.84-0.073,1.352v31.302
				c0,1.631,1.085,2.063,2.235,2.523c0.162,0.063,0.329,0.131,0.504,0.206c0.521,0.22,2.006,0.874,3.759,1.647
				c3.016,1.331,6.768,2.989,7.859,3.414c1.481,0.582,1.868,1.283,2.633,2.684l0.075,0.137c0.791,1.433,7.882,17.797,12.312,30.783
				l1.002-0.166c0-4.341,0.185-6.557,0.296-7.882c0.045-0.533,0.075-0.906,0.075-1.192c0-0.586,0.689-2.66,2.876-2.66
				c0.501,0,1.052,0.108,1.642,0.319c3.899,1.398,4.688,1.906,5.746,2.683c0.929,0.681,1.524,1.306,0.724,3.175
				c-0.436,1.012-1.01,2.466-1.547,3.82c-0.56,1.412-1.086,2.743-1.348,3.304c-1.145,2.451-0.383,4.57,2.267,6.299
				c24.532,16.017,33.237,41.348,33.237,58.177c0,24.178-10.906,40.404-20.057,49.761c-10.435,10.671-22.218,16.353-27.59,17.567
				c-0.425,0.097-0.952,0.217-1.039,0.686c-0.079,0.427,0.281,0.665,0.571,0.855c0.614,0.405,1.027,0.756,0.762,1.55
				c-1.224,3.679-6.265,17.246-13.201,31.082c-1.783,0.786-14.051,5.963-14.178,6.017l-0.3,0.126l-0.013,0.327
				c-0.007,0.166-0.7,16.607-1.19,24.981c-0.604,10.337-0.673,10.35-1.528,10.485l-0.286,0.048
				c-2.722,0.52-14.587,1.929-15.63,1.998c-0.246,0.018-0.402,0.03-0.552,0.03c-0.421,0-0.575-0.098-0.696-0.265
				c-0.238-0.326-0.36-1-0.36-2.002l-1.015-0.117c-1.145,4.856-2.766,48.396-2.891,50.884c-0.688,13.711-1.707,42.216-3.661,54.059
				c-0.29,1.844-0.738,1.8-1.422,1.8l-3.542,0.005l-6.696,0.005c0,0-2.206,4.788-3.969-0.004c-2.118,0-97.784-0.202-97.784-0.202
				s-1.193,2.028-2.334,2.028S108.269,539.86,107.982,538.934z M92.647,402.683l0.006,0.678l0.049,5.315l0.014,1.364l0.893-1.035
				c0.052-0.06,1.266-1.433,3.633-1.433h2.733h0.521l-0.005-0.523l-0.025-1.89l-0.006-0.389l-0.376-0.102l-6.782-1.812
				L92.647,402.683L92.647,402.683z M306.465,291.782l-0.996,0.133c-0.321,2.791-0.591,5.583-0.772,7.565
				c0.456,1.686-0.246,2.808-0.246,2.808c0.04,1.33-1.155,2.492-1.155,2.492l0.028,0.125c0.333,1.475-0.174,2.221-0.196,2.252
				l-0.155,0.221l0.088,0.26c0.008,0.018,0.684,1.921-0.218,3.15l-0.108,0.147l0.012,0.185c0.147,2.612-0.186,3.237-0.199,3.265
				l-0.429,0.766l0.858,0.033h7.717h0.457l0.055-0.456c0.016-0.154,1.82-15.471,2.379-19.224l0.109-0.725l-0.719,0.146
				c-0.51,0.102-1.008,0.156-1.48,0.156C307.781,295.081,306.475,291.815,306.465,291.782L306.465,291.782z M309.021,266.062
				c-2.17,0-5.426,0.025-5.426,0.025l-0.58,0.006l0.074,0.575c1.222,2.238,1.989,15.378,2.379,21.531l0.08,1.25l0.823-0.943
				c1.818-2.089,3.504-3.28,5.686-4.734c1.391-0.929,1.387-1.66,1.242-2.45c-0.098-0.537-1.803-14.137-1.867-14.767
				C311.436,266.062,311.436,266.062,309.021,266.062L309.021,266.062z M288.796,266.258l0.046,0.56
				c0.002,0.019,0.171,2.071,0.225,9.323l1.031-0.004c0-4.927,0.997-9.202,1.006-9.244l0.15-0.635h-0.649h-1.248H288.796
				L288.796,266.258z"/>
		</defs>
		<clipPath id="SVGID_4_">
			<use xlink:href="#SVGID_3_"  overflow="visible"/>
		</clipPath>
		<g transform="matrix(1 0 0 1 0 3.814697e-06)" clip-path="url(#SVGID_4_)">
			
				<image overflow="visible" width="2270" height="4000" xlink:href="Panerai_luminor-marina-watchStrap.jpg"  transform="matrix(0.1333 0 0 0.1273 26.8662 39.8159)">
			</image>
		</g>
	</g>
	<g id="DIAL_1_">
		<ellipse cx="163.43" cy="291.45" rx="101.434" ry="97.112"/>
	</g>
	<g id="strapStitching">
		<path fill="#990000" d="M116.048,43.906c0.911,0.261,1.181,0.721,1.606,1.863c0.323,0.866,0.594,2.359,0.323,3.366
			c-0.116,0.431-0.681,0.859-0.748,1.23c-0.123,0.671,0.172,0.787,0.242,1.406c0.14,1.212-0.331,2.25-0.622,3.263
			c0.59,0.599,1.082,1.422,0.936,2.504c-0.145,1.082-0.866,1.3-0.922,2.167c-0.065,1.003,0.388,1.559-0.056,2.745
			c-0.311,0.831-0.859,1.498-0.82,2.502c0.042,1.11,0.717,1.577,0.979,2.574c0.267,1.02,0.006,2.134-0.214,3.084
			c-0.229,0.99-0.432,1.727-0.365,2.608c0.085,1.123,0.227,1.828-0.079,2.993c-0.481,1.834-1.394,3.625-1.061,5.762
			c0.136,0.87,0.562,1.707,0.735,2.608c0.214,1.115-0.116,2.066,0,3.027c0.131,1.083,0.841,1.704,0.646,3.013
			c-0.174,1.16-0.623,1.574-0.561,2.639c0.068,1.17,0.308,2.018,0.105,3.263c-0.183,1.125-0.646,2.037-0.822,3.158
			c-0.276,1.752,0.837,2.456,0.849,4.255c0.011,1.632-0.231,2.781-0.105,4.393c0.101,1.283-0.017,3.404-0.45,4.64
			c-0.406,1.157-1.242,2.248-1.731,3.435c1.235,0.478,2.945,4.344,1.344,5.381c1.612,3.161-1.217,6.222-1.693,9.383
			c-1.913,0.887-2.141-2.861-2.677-4.304c-0.838-2.252-0.524-3.91-0.508-6.456c0.006-1.065,0.199-2.182,0.923-2.782
			c0.895-0.74,1.48-0.208,1.275-2.021c-0.099-0.881-0.347-1.824-0.556-2.696c-0.207-0.861-0.494-2.163-0.692-3.066
			c-0.16-0.729-0.673-1.757-0.632-2.474c0.032-0.564,0.471-0.711,0.531-1.1c0.086-0.556-0.141-0.807-0.193-1.372
			c-0.09-0.977-0.13-1.798,0.532-2.577c0.526-0.619,1.371-0.455,1.445-1.658c-1.004-0.215-1.062-4.081-0.667-5.102
			c-1.168-1.106-1.071-4.336-1.016-5.9c0.042-1.21,0.541-1.918,0.637-3.167c0.095-1.219,0.102-2.128,0.501-3.284
			c0.117-0.339,0.571-1.027,0.563-1.366c-0.018-0.792-0.409-0.606-0.669-1.205c-0.457-1.056-0.333-1.689-0.289-2.782
			c0.047-1.182-0.399-1.621-0.711-2.746c-0.365-1.314,0.072-1.803,0.164-3.019c0.048-0.64-0.372-1.407-0.172-2.169
			c0.152-0.579,0.613-1.244,0.743-1.705c0.274-0.978,0.219-0.889,0.691-1.651c0.465-0.747,0.655-1.102,0.537-2.138
			c-1.255-0.679-1.206-2.128-1.145-3.734c0.03-0.822,0.12-1.672,0.217-2.46c0.126-1.013,0.541-1.213,0.766-2.035
			c0.269-0.98-0.165-1.39-0.454-2.196c-0.325-0.909-0.36-1.032-0.207-2.083c0.119-0.815,0.134-1.713,0.444-2.478
			c0.316-0.78,0.325-1.292,0.748-1.984C112.894,45.87,114.721,43.526,116.048,43.906z"/>
		<path fill="#990000" d="M214.983,44.114c0.715,0.178,1.381,0.587,1.709,0.9c0.712,0.679,0.593,1.656,0.771,2.314
			c0.344,1.268,0.09,2.609-0.152,3.971c-0.099,0.555-0.566,1.289-0.564,1.819c0.003,0.952,0.657,0.547,1.109,1.252
			c0.314,0.489,0.454,1.64,0.371,2.365c-0.077,0.675-0.6,1.284-0.552,1.881c-0.165-0.069,1.189,2.504,0.431,3.756
			c-0.479,0.793-0.854,1.527-0.645,2.402c0.205,0.855,0.54,1.053,0.822,1.773c0.302,0.771-0.05,1.46,0.038,2.131
			c0.102,0.787,0.747,1.416,0.491,2.319c-0.268,0.946-1.256,0.662-0.719,1.949c0.362,0.87,0.859,0.929,0.664,2.215
			c-0.255,1.679-0.726,3.46-1.678,4.827c-1.036,1.486,0.761,2.222,1.32,3.368c0.336,0.69,0.453,1.28,0.504,2.111
			c0.072,1.164-0.202,1.063-0.47,1.949c-0.285,0.941,0.269,1.382,0.336,2.295c0.061,0.812-0.279,1.231-0.633,1.874
			c-0.532,0.968-0.402,1.799-0.358,3.042c0.049,1.366-0.55,2.073-0.691,3.332c-0.166,1.478,0.031,1.835,0.82,2.53
			c0.311,0.273,0.505,0.436,0.679,0.907c0.183,0.494-0.026,1.146,0.454,1.267c0.464,0.999,0.389,2.486-0.254,3.31
			c0.491,1.234,0.729,2.446,0.042,3.727c-0.358,0.668-0.427,0.489-0.523,1.273c-0.086,0.708-0.003,1.315-0.151,1.983
			c-0.131,0.592-0.397,1.155-0.454,1.759c-0.09,0.953,0.041,1.015,0.435,1.489c0.63,0.756,1.611,1.687,0.911,3.16
			c1.483,0.827,0.829,3.383,0.085,4.62c-0.652,1.084-0.379,1.524-0.378,2.917c0.001,1.231-0.692,1.909-0.76,3.001
			c-0.645,0.036-0.792,1.024-1.051,1.666c-0.653,0.144-0.886-0.975-1.205-1.619c-0.312-0.629-0.721-1.083-1.033-1.715
			c-0.669-1.355-0.709-3.16-0.594-4.768c0.066-0.91,0.101-1.823,0.298-2.709c0.201-0.898,0.207-2.05,0.448-2.92
			c0.226-0.816,1.121-0.903,1.35-1.649c0.185-0.601-0.54-1.435-0.67-2.123c-0.184-0.966-0.631-1.554-1.029-2.572
			c-0.482-1.235-0.646-2.1-0.473-3.746c0.137-1.292,0.234-2.364,0.222-3.746c-0.016-1.775,0.294-2.841,1.246-4.036
			c-0.028-0.667-0.423-1.019-0.574-1.584c-0.166-0.624-0.447-1.51-0.292-2.061c-0.616-0.386-0.486-2.156-0.753-2.937
			c-0.509-1.49-0.348-2.51,0.016-4.062c0.152-0.646,0.387-1.304,0.433-1.978c0.045-0.669-0.135-1.45-0.06-2.164
			c0.114-1.082,1.391-1.854,1.263-2.875c-1.212-0.136-1.311-2.869-1.565-4.018c-0.093-0.418-0.069-0.447-0.222-0.75
			c-0.147-0.294-0.239-0.489-0.335-0.842c-0.123-0.451-0.132-1.501-0.133-2.052c-0.001-1.472,0.307-3.039,0.525-4.476
			c0.204-1.347,0.52-2.298,1.472-2.907c0.217-0.792-0.596-1.47-0.771-1.801c-0.225-0.425-0.308-0.277-0.235-1.57
			c0.05-0.884-0.821-0.786-0.639-3.626c0.183-0.811-1.205-2.382,0.033-4.602c0.045,0.001,0.117-0.628,0.052-0.99
			c-0.639-0.791-1.224-1.106-1.268-2.458c-0.04-1.178,0.402-2.167,0.528-3.292c0.069-0.622,0.02-1.061-0.057-1.869
			c-0.044-0.465,0.062-0.505,0.165-1.167C213.24,44.886,214.269,43.936,214.983,44.114z"/>
		<path fill="#990000" d="M108.968,467.168c-0.656-0.283-2.215-1.055-2.116-1.953c0.122-1.102-0.462-1.247-0.583-2.078
			c-0.116-0.802-0.012-2.018,0.122-2.866c0.134-0.852,0.56-0.459,0.607-1.449c0.046-0.945-0.945-0.802-0.292-2.802
			c0.729-2.237,0.972-4.064,1.896-4.223c0.925-0.155,1.703,0.284,1.435,1.513c0.899,0.127,0.924,1.008,0.924,1.008
			s0.535,0.441,0.292,2.331c0.535,1.953,0.608,4.944,0.098,5.637C111.449,464.806,110.962,466.885,108.968,467.168z"/>
		<path fill="#990000" d="M110.875,469.31c-0.152-0.689,0.323-1.607-0.212-1.854c-2.161-1-3.047,4.28-3.083,6.013
			c-1.162,0.586-0.792,2.004-0.586,3.133c0.719,0.406,0.085,0.979,0.009,1.669c-0.09,0.819,0.035,0.92,0.19,1.524
			c0.311,1.212,0.423,2.003,1.775,1.925c-0.162,0.962-0.095,1.492-0.509,2.36c-0.479,1.002-0.926,1.464-0.983,2.836
			c-0.024,0.57,0.227,1.058,0.217,1.534c-0.007,0.373-0.146,0.619-0.186,1.035c-0.128,1.372,0.339,1.274,0.622,2.51
			c-0.271,0.129-0.44,0.407-0.771,0.429c-0.694,0.976,0.764,4.088,1.74,4.063c-0.364,1.068-0.457,2.23-0.614,3.406
			c-0.151,1.134-0.732,2.386-0.755,3.577c-0.014,0.683,0.238,1.162,0.248,1.789c0.011,0.793-0.15,0.997-0.343,1.79
			c-0.328,1.352,0.004,1.564,0.21,2.935c0.215,1.418-0.768,1.86-0.709,3.291c0.062,1.506,1.359,1.744,1.734,2.984
			c0.377,1.248-1.039,2.882-1.104,4.132c-0.065,1.287,0.328,3.426,0.237,4.746c-0.109,1.606-0.484,3.779,0.608,5.144
			c0.904,1.129,0.736,1.143,0.101,1.973c-1.047,1.369-0.554,2.139-0.394,4.132c0.081,1.012-0.849,2.565,0.409,3.93
			c1.686,1.827,3.81-0.615,4.072-2.957c0.139-1.235,0.332-6.551-1.02-6.77c-0.09-2.108,0.394-4.153,0.559-6.142
			c0.175-2.113,0.248-3.548-0.417-5.476c-0.756-2.197-1.01-3.153-0.259-5.478c0.568-1.757,0.811-4.172,0.574-6.146
			c-0.247-2.057-0.12-4.737-0.756-6.679c-0.359-1.094-0.52-1.873-0.699-3.164c-0.213-1.541-0.195-1.395,0.318-2.84
			c0.697-1.967,1.456-4.57,1.166-6.853c-0.19-1.499-0.608-4.589-2.501-4.803c0.21-1.269,1.361-1.906,1.717-3.252
			c0.359-1.355,0.154-3.046,0.154-4.474C111.631,472.763,112.308,470.378,110.875,469.31z"/>
		<path fill="#990000" d="M214.544,452.753c0,0,2.383-0.857,2.334,0.095c-0.048,0.953,0.827,1.462,0.852,3.435
			c0.024,1.97,0.237,4.581-0.146,5.371c-0.632,1.304-0.268,2.895-0.9,3.815c-0.632,0.924-1.702,1.525-2.432,0.986
			c-1.338-0.128-1.969-1.113-1.459-2.289c-1.07-0.953-0.779-2.83,0.486-4.546c-1.338-1.525-0.876-3.751,0.048-4.801
			S214.544,452.753,214.544,452.753z"/>
		<path fill="#990000" d="M214.335,469.823c0.364-0.833,2.237-1.666,2.262-0.124c0.024,1.543,1.289,2.159,0.535,4.504
			c0.705,1.975,0.292,3.606,0.048,3.946c-0.243,0.341-0.267,2.437-1.216,3.146c-0.729,1.108-2.091,1.296-2.626,0.708
			c-0.536-0.586-1.824-1.418-0.462-2.652c-1.143-1.325-0.414-3.423,0.364-4.164c-1.045-0.462-1.094-2.374-0.097-3.485
			C214.14,470.592,214.335,469.823,214.335,469.823z"/>
		<path fill="#990000" d="M214.805,483.673c0.803-0.062,1.314,0.868,1.435,2.329c1.021,1.183,0.486,2.923,0.486,2.923
			c0.779,1.43-0.34,0.123-0.048,2.701c0.292,2.581-0.827,3.513-1.289,3.853c-0.462,0.343-0.559,1.649,0,2.146
			c0.559,0.498,0.292,2.641,0.292,2.641c1.021,0.249,1.191,2.768,1.069,3.388c0.365,3.325,0.023,6.059-0.656,7.581
			c0.351,1.892-0.688,1.278-0.926,4.57c-0.087,1.213,0.707,2.607,0.804,5.124c0.097,2.517,0.171,7.674-0.997,9.011
			c-0.292,0.901,0.024,1.366,0.072,3.105c0.049,1.741-0.368,4.668-1.049,6.223c-0.501,1.144-1.677,2.491-2.552,1.713
			c-0.61-0.538-1.292-2.675-1.335-3.803c-0.073-1.927,0.827-2.08,0.924-3.138c0.098-1.057-1.362-1.057,0.438-2.951
			c-0.121-2.115,0.219-3.016,0.219-3.016s-1.241-1.209,0.146-4.164c-0.9-2.019-0.317-4.038,0.656-6.368
			c-1.703-2.58-1.386-4.662-0.17-6.4c-1.703-3.014-0.194-4.601,0.34-5.654c-1.264-4.32,0.593-6.399,1.07-8.143
			c0.706-2.579-3.113-2.825-1.143-4.599c-1.046-1.212-1.167-1.895,0.024-3.665c-1.338-1.119,0.851-4.693,2.14-5.533"/>
	</g>
	
	<g>
		<g>
			
				<radialGradient id="SVGID_5_" cx="106.9214" cy="297.1245" r="27.672" gradientTransform="matrix(1 0 0 0.9739 0 7.6844)" gradientUnits="userSpaceOnUse">
				<stop  offset="0" style="stop-color:#666666"/>
				<stop  offset="1" style="stop-color:#121212"/>
			</radialGradient>
			<path fill="url(#SVGID_5_)" d="M113.867,264.957c-14.659,0-26.537,11.568-26.537,25.845c0,14.277,11.878,25.845,26.537,25.845
				s26.537-11.567,26.537-25.845C140.404,276.525,128.526,264.957,113.867,264.957z M113.867,316.137
				c-14.37,0-26.012-11.341-26.012-25.335c0-13.995,11.643-25.334,26.012-25.334s26.012,11.339,26.012,25.334
				C139.879,304.796,128.236,316.137,113.867,316.137z"/>
		</g>
	</g>
	<rect x="124.534" y="315.513" fill="none" width="78.727" height="11.5"/>
	<g id="dialText">
		<text fill="#FCFBF7" font-family="'Arial Black',sans-serif" font-size="9" text-anchor="middle">
			<textPath xlink:href="#smallDialTextPath" id="dialText_4_" method="stretch" spacing="auto" startOffset="50%">BAMFORD</textPath>
		</text>
	</g>
	<g id="logo_1_">
		<g id="Luminor_Marina">
			<path fill="#B2B2B2" d="M136.937,240.261h1.822v4.466h4.086v1.108h-5.908V240.261z"/>
			<path fill="#B2B2B2" d="M143.638,240.261h1.822v3.201c0,0.546,0.028,1.468,1.7,1.468s1.7-0.922,1.7-1.468v-3.201h1.822v3.576
				c0,0.625-0.093,2.155-3.521,2.155c-3.427,0-3.521-1.53-3.521-2.155V240.261z"/>
			<path fill="#B2B2B2" d="M158.537,240.261h2.677v5.575h-1.766v-4.466h-0.018l-2.123,4.466h-1.521l-2.123-4.466h-0.019v4.466
				h-1.765v-5.575h2.676l1.992,4.014L158.537,240.261z"/>
			<path fill="#B2B2B2" d="M162.484,240.261h1.822v5.575h-1.822V240.261z"/>
			<path fill="#B2B2B2" d="M171.235,240.261H173v5.575h-1.981l-3.654-3.888h-0.018v3.888h-1.766v-5.575h2.112l3.521,3.889h0.02
				V240.261z"/>
			<path fill="#B2B2B2" d="M178.066,240.105c3.606,0,4.169,1.78,4.169,2.943c0,1.163-0.563,2.943-4.169,2.943
				c-3.606,0-4.169-1.78-4.169-2.943C173.897,241.885,174.46,240.105,178.066,240.105z M178.066,244.93
				c1.653,0,2.235-1.016,2.235-1.882c0-0.867-0.583-1.881-2.235-1.881c-1.652,0-2.235,1.015-2.235,1.881
				C175.831,243.915,176.414,244.93,178.066,244.93z"/>
			<path fill="#B2B2B2" d="M183.132,240.261h4.874c1.86,0,2.17,0.945,2.17,1.515c0,0.679-0.329,1.117-1.09,1.343v0.015
				c0.798,0.102,0.921,0.945,0.921,1.492c0,0.272,0.027,0.929,0.347,1.209h-1.991c-0.169-0.258-0.178-0.484-0.178-1.07
				c0-0.78-0.404-0.976-0.968-0.976h-2.263v2.045h-1.823V240.261z M184.955,242.728h2.414c0.403,0,0.873-0.187,0.873-0.71
				c0-0.555-0.525-0.695-0.967-0.695h-2.319V242.728z"/>
			<path fill="#B2B2B2" d="M143.913,249.47h2.677v5.574h-1.766v-4.466h-0.019l-2.122,4.466h-1.521l-2.123-4.466h-0.019v4.466h-1.765
				v-5.574h2.676l1.991,4.013L143.913,249.47z"/>
			<path fill="#B2B2B2" d="M154.18,253.897h-3.08l-0.545,1.147h-1.963l2.949-5.574h2.197l2.949,5.574h-1.963L154.18,253.897z
				 M152.64,250.673l-1.053,2.209h2.104L152.64,250.673z"/>
			<path fill="#B2B2B2" d="M158.691,249.47h4.874c1.86,0,2.169,0.945,2.169,1.515c0,0.679-0.329,1.116-1.089,1.342v0.016
				c0.798,0.102,0.92,0.945,0.92,1.491c0,0.273,0.028,0.929,0.348,1.21h-1.991c-0.169-0.258-0.178-0.484-0.178-1.069
				c0-0.781-0.404-0.976-0.967-0.976h-2.264v2.045h-1.822V249.47z M160.513,251.937h2.414c0.404,0,0.874-0.187,0.874-0.709
				c0-0.555-0.525-0.695-0.967-0.695h-2.32V251.937z"/>
			<path fill="#B2B2B2" d="M168.565,249.47h1.822v5.574h-1.822V249.47z"/>
			<path fill="#B2B2B2" d="M179.005,249.47h1.766v5.574h-1.981l-3.653-3.888h-0.019v3.888h-1.766v-5.574h2.114l3.521,3.888h0.018
				V249.47z"/>
			<path fill="#B2B2B2" d="M188.55,253.897h-3.08l-0.545,1.147h-1.963l2.949-5.574h2.198l2.948,5.574h-1.963L188.55,253.897z
				 M187.01,250.673l-1.052,2.209h2.104L187.01,250.673z"/>
		</g>
		<g id="Bamford_Panerai_Automatic">
			<path display="none" fill="#B2B2B2" d="M138.493,315.878h3.787c1.821,0,2.208,0.92,2.208,1.553c0,0.625-0.339,0.963-0.853,1.216
				c0.62,0.191,1.202,0.634,1.202,1.545c0,1.243-1.202,1.885-2.422,1.885h-3.923V315.878z M140.624,318.29h1.123
				c0.447,0,0.728-0.113,0.728-0.512c0-0.314-0.291-0.426-0.728-0.426h-1.123V318.29z M140.624,320.6h1.25
				c0.445,0,0.833-0.112,0.833-0.589c0-0.367-0.243-0.565-0.746-0.565h-1.337V320.6z"/>
			<path display="none" fill="#B2B2B2" d="M147.584,315.878h2.083l2.519,6.198h-2.208l-0.291-0.886h-2.198l-0.31,0.886h-2.141
				L147.584,315.878z M149.26,319.861l-0.62-1.91h-0.02l-0.668,1.91H149.26z"/>
			<path display="none" fill="#B2B2B2" d="M152.646,315.878h3.032l0.988,3.646h0.019l0.988-3.646h3.032v6.198h-2.014V318.1h-0.019
				l-1.202,3.977h-1.588l-1.202-3.977h-0.019v3.977h-2.015V315.878z"/>
			<path display="none" fill="#B2B2B2" d="M161.794,315.878h5.347v1.586h-3.216v0.773h2.76v1.477h-2.76v2.362h-2.131V315.878z"/>
			<path display="none" fill="#B2B2B2" d="M171.197,315.729c2.102,0,3.506,1.354,3.506,3.247c0,1.893-1.405,3.248-3.506,3.248
				c-2.102,0-3.506-1.355-3.506-3.248C167.69,317.082,169.095,315.729,171.197,315.729z M171.197,320.679
				c0.542,0,1.376-0.32,1.376-1.703c0-1.381-0.833-1.701-1.376-1.701c-0.542,0-1.376,0.32-1.376,1.701
				C169.821,320.358,170.655,320.679,171.197,320.679z"/>
			<path display="none" fill="#B2B2B2" d="M175.6,315.878h4.058c1.211,0,2.257,0.598,2.257,1.77c0,0.643-0.33,1.32-1.037,1.555
				c0,0,1.057,2.587,1.25,2.874h-2.131l-1.133-2.162h-1.133v2.162H175.6V315.878z M177.731,318.587h1.114
				c0.397,0,0.939-0.062,0.939-0.617c0-0.391-0.243-0.617-1.056-0.617h-0.997V318.587z"/>
			<path display="none" fill="#B2B2B2" d="M182.773,315.878h3.497c2.305,0,3.119,1.527,3.119,3.09c0,1.9-1.123,3.108-3.535,3.108
				h-3.08V315.878z M184.904,320.487h0.833c1.327,0,1.521-0.964,1.521-1.546c0-0.391-0.136-1.478-1.676-1.478h-0.678V320.487z"/>
			<path fill="#B2B2B2" d="M136.155,325.444h4.2c1.777,0,2.207,0.945,2.207,1.695c0,1.188-0.701,1.89-2.074,1.89h-2.635v1.991
				h-1.697V325.444z M137.853,328.014h1.821c0.524,0,1.137-0.016,1.137-0.765c0-0.728-0.499-0.789-0.979-0.789h-1.979V328.014z"/>
			<path fill="#B2B2B2" d="M148.848,329.872h-2.87l-0.508,1.148h-1.829l2.749-5.576h2.047l2.749,5.576h-1.829L148.848,329.872z
				 M147.413,326.648l-0.98,2.209h1.96L147.413,326.648z"/>
			<path fill="#B2B2B2" d="M158.32,325.444h1.646v5.576h-1.847l-3.405-3.888h-0.018v3.888h-1.645v-5.576h1.969l3.282,3.89h0.018
				V325.444z"/>
			<path fill="#B2B2B2" d="M162.549,325.444h5.837v1.062h-4.139v1.156h3.929v1.014h-3.929v1.282h4.174v1.062h-5.872V325.444z"/>
			<path fill="#B2B2B2" d="M170.752,325.444h4.542c1.733,0,2.021,0.945,2.021,1.516c0,0.679-0.306,1.116-1.016,1.344v0.016
				c0.744,0.102,0.857,0.943,0.857,1.49c0,0.273,0.027,0.929,0.324,1.211h-1.854c-0.159-0.259-0.167-0.484-0.167-1.069
				c0-0.781-0.376-0.977-0.901-0.977h-2.109v2.046h-1.698V325.444z M172.45,327.913h2.249c0.376,0,0.814-0.188,0.814-0.712
				c0-0.553-0.49-0.694-0.901-0.694h-2.162V327.913z"/>
			<path fill="#B2B2B2" d="M184.091,329.872h-2.871l-0.507,1.148h-1.829l2.748-5.576h2.049l2.748,5.576h-1.83L184.091,329.872z
				 M182.657,326.648l-0.98,2.209h1.96L182.657,326.648z"/>
			<path fill="#B2B2B2" d="M188.295,325.444h1.697v5.576h-1.697V325.444z"/>
			<path fill="#B2B2B2" d="M146.167,333.17h1.246l2.066,4.604h-1.261l-0.418-1.025h-2.066l-0.434,1.025h-1.23L146.167,333.17z
				 M146.051,335.996h1.432l-0.697-1.69h-0.015L146.051,335.996z"/>
			<path fill="#B2B2B2" d="M153.756,337.774h-1.045v-0.466h-0.023c-0.279,0.375-0.759,0.556-1.223,0.556
				c-1.169,0-1.463-0.548-1.463-1.374v-2.048h1.099v1.881c0,0.549,0.194,0.818,0.705,0.818c0.596,0,0.852-0.275,0.852-0.954v-1.745
				h1.099V337.774z"/>
			<path fill="#B2B2B2" d="M156.144,334.442h0.805v0.611h-0.805v1.65c0,0.309,0.093,0.387,0.464,0.387
				c0.117,0,0.224-0.006,0.341-0.025v0.715c-0.185,0.026-0.426,0.032-0.643,0.032c-0.673,0-1.261-0.129-1.261-0.792v-1.967h-0.666
				v-0.611h0.666v-1h1.099V334.442z"/>
			<path fill="#B2B2B2" d="M159.574,334.352c1.262,0,2.075,0.696,2.075,1.759c0,1.058-0.813,1.754-2.075,1.754
				c-1.253,0-2.066-0.696-2.066-1.754C157.508,335.048,158.32,334.352,159.574,334.352z M159.574,337.174
				c0.751,0,0.975-0.535,0.975-1.063c0-0.533-0.224-1.069-0.975-1.069c-0.743,0-0.967,0.536-0.967,1.069
				C158.606,336.639,158.831,337.174,159.574,337.174z"/>
			<path fill="#B2B2B2" d="M162.549,334.442h1.037v0.45h0.016c0.286-0.342,0.703-0.541,1.223-0.541c0.502,0,0.952,0.154,1.168,0.554
				c0.233-0.29,0.65-0.554,1.208-0.554c0.852,0,1.463,0.327,1.463,1.192v2.23h-1.099v-1.889c0-0.445-0.046-0.812-0.673-0.812
				c-0.619,0-0.735,0.425-0.735,0.843v1.857h-1.099v-1.87c0-0.387,0.03-0.83-0.666-0.83c-0.217,0-0.743,0.115-0.743,0.767v1.934
				h-1.099V334.442z"/>
			<path fill="#B2B2B2" d="M169.644,335.466c0.062-0.857,0.983-1.114,1.881-1.114c0.797,0,1.756,0.147,1.756,0.946v1.734
				c0,0.304,0.039,0.606,0.14,0.742h-1.114c-0.039-0.103-0.07-0.214-0.078-0.322c-0.348,0.304-0.859,0.412-1.346,0.412
				c-0.759,0-1.363-0.316-1.363-0.998c0-0.756,0.681-0.936,1.363-1.014c0.672-0.085,1.299-0.065,1.299-0.438
				c0-0.394-0.325-0.452-0.711-0.452c-0.418,0-0.689,0.143-0.728,0.503H169.644z M172.183,336.144
				c-0.186,0.135-0.573,0.141-0.914,0.192c-0.34,0.058-0.649,0.154-0.649,0.489c0,0.343,0.317,0.427,0.673,0.427
				c0.859,0,0.89-0.566,0.89-0.769V336.144z"/>
			<path fill="#B2B2B2" d="M175.684,334.442h0.805v0.611h-0.805v1.65c0,0.309,0.093,0.387,0.464,0.387
				c0.116,0,0.225-0.006,0.341-0.025v0.715c-0.186,0.026-0.426,0.032-0.643,0.032c-0.672,0-1.261-0.129-1.261-0.792v-1.967h-0.666
				v-0.611h0.666v-1h1.099V334.442z"/>
			<path fill="#B2B2B2" d="M178.302,333.925h-1.098v-0.755h1.098V333.925z M177.204,334.442h1.098v3.332h-1.098V334.442z"/>
			<path fill="#B2B2B2" d="M182.049,335.614c-0.069-0.374-0.356-0.573-0.813-0.573c-0.704,0-0.936,0.592-0.936,1.083
				c0,0.477,0.225,1.05,0.913,1.05c0.511,0,0.805-0.27,0.875-0.676h1.061c-0.139,0.883-0.875,1.366-1.928,1.366
				c-1.207,0-2.02-0.709-2.02-1.708c0-1.038,0.743-1.805,2.043-1.805c0.945,0,1.812,0.411,1.881,1.263H182.049z"/>
		</g>
		<g id="SWISS_MADE">
			<path fill="#B2B2B2" d="M133.214,376.102l0.698,0.227c-0.083,0.267,0.008,0.319,0.209,0.385l0.855,0.28
				c0.148,0.048,0.305,0.079,0.368-0.114c0.071-0.218-0.007-0.257-0.906-0.551c-1.051-0.342-1.125-0.52-0.925-1.133
				c0.147-0.452,0.298-0.788,1.179-0.501l0.975,0.317c0.805,0.263,0.783,0.587,0.641,1.025l-0.026,0.08l-0.698-0.228
				c0.06-0.184,0.065-0.267-0.256-0.37l-0.773-0.252c-0.157-0.052-0.283-0.028-0.327,0.106c-0.071,0.218,0.012,0.252,0.761,0.493
				c1.086,0.35,1.314,0.504,1.078,1.231c-0.219,0.673-0.462,0.717-1.391,0.414l-0.846-0.276c-0.635-0.207-0.847-0.421-0.671-0.962
				L133.214,376.102z"/>
			<path fill="#B2B2B2" d="M136.758,375.402l0.688,0.198l-0.049,1.998l0.006,0.002l1.122-1.688l0.653,0.188l0.046,2.026l0.006,0.002
				l1.026-1.717l0.688,0.199l-1.478,2.312l-0.809-0.234l-0.053-1.823l-0.007-0.001l-1.019,1.515l-0.809-0.233L136.758,375.402z"/>
			<path fill="#B2B2B2" d="M141.182,376.666l0.71,0.188l-0.672,2.539l-0.71-0.188L141.182,376.666z"/>
			<path fill="#B2B2B2" d="M141.921,378.692l0.714,0.172c-0.062,0.273,0.033,0.318,0.238,0.368l0.875,0.211
				c0.151,0.036,0.31,0.056,0.356-0.142c0.054-0.223-0.027-0.258-0.946-0.479c-1.073-0.259-1.162-0.43-1.011-1.058
				c0.111-0.464,0.235-0.811,1.134-0.594l0.997,0.24c0.822,0.199,0.826,0.524,0.719,0.974l-0.02,0.082l-0.714-0.174
				c0.045-0.187,0.044-0.27-0.284-0.348l-0.791-0.191c-0.161-0.038-0.285-0.005-0.317,0.132c-0.053,0.224,0.032,0.251,0.798,0.433
				c1.11,0.265,1.349,0.401,1.17,1.146c-0.164,0.688-0.403,0.75-1.352,0.521l-0.865-0.208c-0.65-0.157-0.877-0.354-0.745-0.909
				L141.921,378.692z"/>
			<path fill="#B2B2B2" d="M145.228,379.483l0.72,0.15c-0.053,0.275,0.043,0.317,0.25,0.361l0.882,0.185
				c0.152,0.032,0.312,0.046,0.353-0.152c0.046-0.225-0.035-0.257-0.962-0.45c-1.083-0.228-1.177-0.396-1.045-1.03
				c0.096-0.466,0.209-0.817,1.116-0.628l1.005,0.212c0.83,0.173,0.844,0.499,0.75,0.951l-0.017,0.082l-0.72-0.15
				c0.039-0.189,0.036-0.271-0.295-0.341l-0.797-0.167c-0.162-0.034-0.285,0.004-0.313,0.143c-0.046,0.225,0.04,0.25,0.812,0.408
				c1.119,0.23,1.363,0.359,1.208,1.11c-0.143,0.694-0.38,0.764-1.337,0.563l-0.872-0.183c-0.655-0.137-0.89-0.328-0.774-0.887
				L145.228,379.483z"/>
			<path fill="#B2B2B2" d="M180.318,378.192l1.101-0.236l1.165,1.479l0.456-1.826l1.101-0.237l0.551,2.568l-0.697,0.149
				l-0.396-1.844l-0.007,0.001l-0.543,2.046l-0.536,0.115l-1.335-1.643l-0.007,0.002l0.396,1.844l-0.697,0.149L180.318,378.192z"/>
			<path fill="#B2B2B2" d="M185.569,377.014l0.925-0.232l1.916,2.229l-0.79,0.198l-0.334-0.395l-1.441,0.361l-0.094,0.502
				l-0.794,0.2L185.569,377.014z M185.971,378.559l0.91-0.228l-0.703-0.842L185.971,378.559z"/>
			<path fill="#B2B2B2" d="M187.989,376.4l2.135-0.604c0.707-0.2,1.028-0.016,1.204,0.61l0.216,0.768
				c0.176,0.625,0,0.95-0.708,1.149l-2.135,0.604L187.989,376.4z M189.227,378.079l1.255-0.354c0.303-0.087,0.394-0.214,0.293-0.573
				l-0.096-0.342c-0.101-0.36-0.246-0.42-0.549-0.335l-1.255,0.354L189.227,378.079z"/>
			<path fill="#B2B2B2" d="M191.415,375.422l2.501-0.778l0.181,0.581l-1.8,0.562l0.125,0.401l1.706-0.531l0.162,0.52l-1.706,0.531
				l0.125,0.402l1.842-0.574l0.188,0.603l-2.543,0.792L191.415,375.422z"/>
		</g>
	</g>
	
	<g id="luminescentIndices">
		<ellipse fill="#C7E1AF" cx="208.816" cy="366.57" rx="3.369" ry="3.254"/>
		<ellipse fill="#C7E1AF" cx="208.816" cy="215.526" rx="3.369" ry="3.255"/>
		<ellipse fill="#C7E1AF" cx="117.044" cy="366.57" rx="3.369" ry="3.254"/>
		<ellipse fill="#C7E1AF" cx="117.044" cy="215.526" rx="3.369" ry="3.255"/>
		<ellipse fill="#C7E1AF" cx="241.743" cy="247.507" rx="3.369" ry="3.255"/>
		<ellipse fill="#C7E1AF" cx="84.101" cy="247.507" rx="3.369" ry="3.255"/>
		<ellipse fill="#C7E1AF" cx="241.743" cy="334.373" rx="3.369" ry="3.253"/>
		<ellipse fill="#C7E1AF" cx="84.101" cy="334.373" rx="3.369" ry="3.253"/>
		
			<line fill="none" stroke="#C7E1AF" stroke-width="4.5397" stroke-linecap="round" x1="70.653" y1="290.586" x2="83.394" y2="290.586"/>
		<path fill="#C7E1AF" d="M255.618,288.315h-7.904c0.137,0.953,0.212,1.926,0.212,2.916c0,0.547-0.028,1.088-0.071,1.624h7.762
			c1.251,0,2.269-1.017,2.269-2.269C257.887,289.333,256.87,288.315,255.618,288.315z"/>
		
			<line fill="none" stroke="#C7E1AF" stroke-width="3.6318" stroke-linecap="round" x1="113.536" y1="268.309" x2="113.536" y2="274.11"/>
		
			<line fill="none" stroke="#C7E1AF" stroke-width="3.6318" stroke-linecap="round" x1="136.183" y1="290.295" x2="130.383" y2="290.295"/>
		
			<line fill="none" stroke="#C7E1AF" stroke-width="3.6318" stroke-linecap="round" x1="114.198" y1="312.942" x2="114.198" y2="307.143"/>
		
			<line fill="none" stroke="#C7E1AF" stroke-width="3.6318" stroke-linecap="round" x1="91.55" y1="290.957" x2="97.351" y2="290.957"/>
		<g>
			<path fill="#C7E1AF" d="M157.988,367.979c0.901-0.898,1.88-1.564,2.94-1.998c1.059-0.434,2.244-0.649,3.554-0.649
				c1.258,0,2.42,0.197,3.486,0.591c1.065,0.395,1.999,0.955,2.8,1.682c0.801,0.728,1.42,1.585,1.857,2.573
				c0.437,0.988,0.655,2.021,0.655,3.098c0,1.565-0.427,2.986-1.281,4.264c-0.854,1.276-2.045,2.272-3.575,2.989
				c-1.529,0.716-3.261,1.074-5.194,1.074c-2.224,0-4.145-0.456-5.759-1.366c-1.616-0.91-2.85-2.257-3.704-4.038
				c-0.854-1.782-1.281-3.961-1.281-6.536c0-2.1,0.258-3.975,0.774-5.629s1.258-3.025,2.225-4.113
				c0.966-1.088,2.138-1.91,3.515-2.465s2.946-0.833,4.707-0.833c1.695,0,3.188,0.278,4.479,0.833
				c1.291,0.555,2.264,1.243,2.92,2.064c0.655,0.822,0.983,1.61,0.983,2.365c0,0.455-0.206,0.869-0.616,1.24
				c-0.41,0.373-0.933,0.559-1.569,0.559c-0.556,0-1.073-0.147-1.549-0.441s-0.828-0.702-1.052-1.225
				c-0.305-0.666-0.788-1.201-1.45-1.606c-0.663-0.405-1.43-0.608-2.304-0.608c-0.702,0-1.4,0.169-2.095,0.508
				c-0.695,0.339-1.281,0.797-1.758,1.374C158.73,362.862,158.161,364.96,157.988,367.979z M163.351,378.321
				c1.337,0,2.443-0.458,3.317-1.374c0.874-0.916,1.311-2.117,1.311-3.605c0-1.009-0.205-1.878-0.616-2.606
				c-0.41-0.728-0.973-1.281-1.688-1.665c-0.715-0.383-1.503-0.574-2.364-0.574c-0.821,0-1.605,0.184-2.353,0.55
				c-0.749,0.366-1.351,0.896-1.807,1.591c-0.457,0.693-0.686,1.506-0.686,2.438c0,1.5,0.464,2.748,1.391,3.747
				C160.783,377.821,161.948,378.321,163.351,378.321z"/>
		</g>
		<g>
			<path fill="#C7E1AF" d="M162.463,226.043c-1.076,0-2.004-0.755-2.222-1.809l0,0c-0.1-0.484-0.149-0.965-0.149-1.431l0,0
				c-0.008-1.892,0.83-3.537,1.901-4.761l0,0c1.079-1.242,2.397-2.202,3.765-3.087l0,0c2.727-1.742,5.735-3.26,7.405-4.822l0,0
				c1.133-1.062,1.544-1.86,1.55-2.758l0,0c-0.048-1.442-0.514-1.932-1.371-2.528l0,0c-0.85-0.549-2.187-0.806-2.939-0.791l0,0
				c-2.296,0.007-4.035,0.845-5.215,2.131l0,0c-0.845,0.927-2.281,0.993-3.208,0.148l0,0c-0.926-0.845-0.992-2.282-0.147-3.208l0,0
				c2.056-2.265,5.121-3.62,8.571-3.612l0,0c1.492,0.015,3.449,0.331,5.325,1.467l0,0c1.871,1.089,3.573,3.394,3.526,6.392l0,0
				c0.009,1.924-0.799,3.618-1.868,4.897l0,0c-1.076,1.298-2.405,2.3-3.779,3.209l0,0c-2.746,1.792-5.778,3.299-7.458,4.809l0,0
				c-0.503,0.453-0.856,0.848-1.095,1.213l0,0h13.706c1.253,0,2.268,1.017,2.268,2.271l0,0c0,1.253-1.015,2.269-2.268,2.269l0,0
				H162.463L162.463,226.043z"/>
		</g>
		<g>
			<path fill="#C7E1AF" d="M152.152,223.878v-20.89c0-1.253,1.015-2.27,2.268-2.27l0,0c1.254,0,2.271,1.017,2.271,2.27l0,0v20.89
				c0,1.254-1.016,2.27-2.271,2.27l0,0C153.167,226.148,152.152,225.132,152.152,223.878L152.152,223.878z"/>
		</g>
	</g>
	<g id="fiveMinuteMarkers">
		<g id="miniIndices">
			
				<line fill="none" stroke="#B2B2B2" stroke-width="0.9079" stroke-linecap="round" x1="125.323" y1="270.086" x2="121.838" y2="276.157"/>
			
				<line fill="none" stroke="#B2B2B2" stroke-width="0.9079" stroke-linecap="round" x1="134.407" y1="302.081" x2="128.335" y2="298.597"/>
			
				<line fill="none" stroke="#B2B2B2" stroke-width="0.9079" stroke-linecap="round" x1="102.411" y1="311.166" x2="105.896" y2="305.095"/>
			
				<line fill="none" stroke="#B2B2B2" stroke-width="0.9079" stroke-linecap="round" x1="93.327" y1="279.17" x2="99.398" y2="282.655"/>
			
				<line fill="none" stroke="#B2B2B2" stroke-width="0.9079" stroke-linecap="round" x1="134.005" y1="278.519" x2="127.952" y2="282.034"/>
			
				<line fill="none" stroke="#B2B2B2" stroke-width="0.9079" stroke-linecap="round" x1="125.875" y1="310.77" x2="122.359" y2="304.716"/>
			
				<line fill="none" stroke="#B2B2B2" stroke-width="0.9079" stroke-linecap="round" x1="93.623" y1="302.64" x2="99.677" y2="299.123"/>
			
				<line fill="none" stroke="#B2B2B2" stroke-width="0.9079" stroke-linecap="round" x1="101.754" y1="270.388" x2="105.27" y2="276.44"/>
		</g>
		<g>
			<path fill="#B2B2B2" d="M206.382,349.909h-5.96l-0.715,3.407c1.188-0.532,2.284-0.799,3.288-0.799
				c0.803,0,1.554,0.126,2.252,0.379c0.698,0.252,1.312,0.601,1.839,1.047c0.526,0.445,0.94,0.974,1.242,1.583
				c0.301,0.61,0.451,1.267,0.451,1.968c0,1.017-0.272,1.942-0.815,2.776c-0.544,0.836-1.328,1.498-2.353,1.989
				c-1.025,0.491-2.207,0.737-3.544,0.737c-1.498,0-2.713-0.231-3.645-0.695c-0.933-0.463-1.594-0.994-1.983-1.594
				c-0.389-0.601-0.583-1.124-0.583-1.573c0-0.273,0.136-0.532,0.408-0.777c0.272-0.246,0.613-0.368,1.022-0.368
				c0.703,0,1.226,0.339,1.569,1.021c0.334,0.623,0.786,1.108,1.355,1.457c0.569,0.346,1.205,0.521,1.908,0.521
				c0.644,0,1.208-0.141,1.694-0.421c0.485-0.28,0.859-0.666,1.123-1.158c0.263-0.49,0.395-1.048,0.395-1.672
				c0-0.674-0.142-1.249-0.426-1.726c-0.285-0.478-0.665-0.833-1.142-1.069c-0.477-0.234-1.008-0.352-1.593-0.352
				c-0.719,0-1.234,0.074-1.543,0.221c-0.309,0.147-0.755,0.405-1.336,0.773c-0.581,0.369-1.06,0.553-1.437,0.553
				c-0.41,0-0.773-0.125-1.091-0.374c-0.318-0.249-0.477-0.53-0.477-0.846c0-0.036,0.046-0.274,0.138-0.716l1.054-5.04
				c0.117-0.604,0.334-1.042,0.652-1.314c0.318-0.274,0.836-0.411,1.556-0.411h6.625c1.304,0,1.957,0.417,1.957,1.252
				c0,0.366-0.159,0.659-0.477,0.885C207.469,349.796,207.001,349.909,206.382,349.909z"/>
		</g>
		<g>
			<path fill="#B2B2B2" d="M89.615,323.423c0-0.701,0.228-1.363,0.685-1.983c0.455-0.621,1.125-1.116,2.007-1.489
				c0.883-0.371,1.914-0.558,3.093-0.558c0.995,0,1.87,0.109,2.623,0.327c0.752,0.217,1.38,0.518,1.882,0.899
				c0.502,0.382,0.874,0.813,1.117,1.294c0.242,0.48,0.364,0.991,0.364,1.531c0,0.688-0.212,1.301-0.633,1.841
				c-0.423,0.54-1.052,0.982-1.889,1.325c0.711,0.231,1.301,0.535,1.77,0.91c0.468,0.376,0.822,0.81,1.06,1.306
				c0.239,0.494,0.358,1.043,0.358,1.646c0,0.885-0.255,1.686-0.765,2.404c-0.51,0.719-1.259,1.281-2.246,1.688
				c-0.987,0.406-2.15,0.61-3.489,0.61c-1.388,0-2.576-0.204-3.563-0.61c-0.987-0.407-1.731-0.966-2.233-1.679
				c-0.502-0.711-0.753-1.51-0.753-2.393c0-1.887,1.062-3.182,3.187-3.883C90.472,325.938,89.615,324.874,89.615,323.423z
				 M98.612,330.388c0-0.547-0.134-1.024-0.401-1.431c-0.268-0.406-0.645-0.719-1.13-0.937c-0.485-0.217-1.028-0.326-1.631-0.326
				c-0.854,0-1.569,0.238-2.146,0.715c-0.577,0.478-0.866,1.144-0.866,2c0,0.547,0.136,1.029,0.408,1.446
				c0.271,0.417,0.642,0.74,1.11,0.968c0.468,0.228,0.991,0.343,1.568,0.343c0.585,0,1.112-0.116,1.581-0.349
				c0.468-0.23,0.836-0.557,1.104-0.979C98.478,331.419,98.612,330.935,98.612,330.388z M95.475,321.402
				c-0.787,0-1.42,0.205-1.901,0.616c-0.481,0.41-0.722,0.938-0.722,1.583c0,0.597,0.247,1.093,0.741,1.489
				c0.493,0.396,1.129,0.594,1.907,0.594c0.394,0,0.751-0.052,1.073-0.158c0.322-0.104,0.598-0.251,0.828-0.436
				c0.23-0.187,0.408-0.407,0.533-0.663c0.125-0.257,0.188-0.538,0.188-0.848c0-0.414-0.111-0.785-0.333-1.115
				c-0.222-0.329-0.533-0.589-0.935-0.777C96.453,321.497,95.993,321.402,95.475,321.402z"/>
		</g>
		<g>
			<path fill="#B2B2B2" d="M232.091,334.909v-1.958h-6.299c-0.795,0-1.391-0.15-1.788-0.452c-0.397-0.301-0.596-0.711-0.596-1.23
				c0-0.133,0.029-0.268,0.088-0.404c0.058-0.138,0.146-0.281,0.263-0.432c0.117-0.151,0.238-0.297,0.364-0.437
				c0.125-0.141,0.28-0.312,0.464-0.516l6.65-7.46c0.435-0.49,0.792-0.848,1.073-1.068c0.28-0.221,0.617-0.331,1.01-0.331
				c1.271,0,1.907,0.611,1.907,1.831v8.143h0.54c0.644,0,1.161,0.074,1.55,0.222c0.389,0.146,0.583,0.47,0.583,0.968
				c0,0.407-0.159,0.703-0.477,0.89c-0.318,0.185-0.794,0.277-1.43,0.277h-0.766v1.958c0,0.539-0.143,0.94-0.427,1.205
				c-0.285,0.262-0.665,0.394-1.141,0.394c-0.469,0-0.847-0.136-1.136-0.405C232.235,335.833,232.091,335.435,232.091,334.909z
				 M226.696,330.595h5.396v-6.112L226.696,330.595z"/>
		</g>
		<path fill="#B2B2B2" d="M91.973,259.042v-12.346c0-0.57,0.152-1.002,0.458-1.293c0.306-0.292,0.718-0.438,1.236-0.438
			c0.519,0,0.937,0.145,1.255,0.433c0.318,0.289,0.477,0.722,0.477,1.299v12.346c0,0.577-0.162,1.01-0.483,1.299
			c-0.323,0.288-0.739,0.433-1.249,0.433c-0.501,0-0.909-0.149-1.224-0.449C92.13,260.027,91.973,259.599,91.973,259.042z"/>
		<path fill="#B2B2B2" d="M120.243,234.243v-12.346c0-0.57,0.152-1.002,0.458-1.293c0.305-0.292,0.718-0.438,1.236-0.438
			c0.519,0,0.938,0.145,1.255,0.433c0.318,0.289,0.477,0.722,0.477,1.299v12.346c0,0.577-0.162,1.01-0.483,1.299
			c-0.322,0.288-0.738,0.432-1.249,0.432c-0.502,0-0.909-0.149-1.224-0.448C120.4,235.227,120.243,234.799,120.243,234.243z"/>
		<path fill="#B2B2B2" d="M128.509,234.243v-12.346c0-0.57,0.153-1.002,0.458-1.293c0.306-0.292,0.718-0.438,1.236-0.438
			c0.519,0,0.937,0.145,1.255,0.433c0.318,0.289,0.477,0.722,0.477,1.299v12.346c0,0.577-0.162,1.01-0.483,1.299
			c-0.323,0.288-0.739,0.432-1.249,0.432c-0.502,0-0.91-0.149-1.224-0.448C128.667,235.227,128.509,234.799,128.509,234.243z"/>
		<path fill="#B2B2B2" d="M201.486,234.243v-12.346c0-0.57,0.153-1.002,0.458-1.293c0.306-0.292,0.718-0.438,1.236-0.438
			s0.937,0.145,1.255,0.433c0.318,0.289,0.477,0.722,0.477,1.299v12.346c0,0.577-0.162,1.01-0.483,1.299
			c-0.322,0.288-0.738,0.432-1.249,0.432c-0.502,0-0.91-0.149-1.224-0.448C201.643,235.227,201.486,234.799,201.486,234.243z"/>
		<path fill="#B2B2B2" d="M111.269,252.886c0,1.145-0.091,2.129-0.272,2.953c-0.182,0.823-0.517,1.571-1.006,2.241
			c-0.617,0.824-1.415,1.459-2.395,1.907c-0.979,0.446-2.067,0.67-3.265,0.67c-1.378,0-2.614-0.3-3.706-0.901
			c-1.093-0.6-1.916-1.43-2.469-2.492c-0.281-0.579-0.487-1.22-0.619-1.922c-0.132-0.702-0.197-1.461-0.197-2.278
			c0-1.054,0.072-2.004,0.218-2.849c0.145-0.845,0.371-1.571,0.68-2.178c0.535-1.005,1.313-1.772,2.333-2.299
			c1.02-0.526,2.237-0.791,3.652-0.791c0.934,0,1.782,0.117,2.544,0.351c0.761,0.234,1.43,0.576,2.005,1.026
			c0.576,0.451,1.063,1.008,1.463,1.67C110.924,249.146,111.269,250.777,111.269,252.886z M107.542,252.676
			c0-1.278-0.1-2.323-0.299-3.137c-0.199-0.813-0.535-1.428-1.006-1.843s-1.125-0.624-1.958-0.624c-1.198,0-2.03,0.464-2.496,1.393
			c-0.468,0.929-0.701,2.36-0.701,4.294c0,1.312,0.1,2.388,0.299,3.225c0.199,0.838,0.535,1.472,1.006,1.901
			c0.472,0.43,1.111,0.644,1.918,0.644c0.834,0,1.487-0.224,1.959-0.67c0.471-0.447,0.803-1.086,0.993-1.917
			C107.447,255.112,107.542,254.023,107.542,252.676z"/>
		<g>
			<path fill="#B2B2B2" d="M121.942,362.672c-0.641-0.395-0.84-1.233-0.444-1.874l0,0l6.704-10.884h-7.571v0.002
				c-0.753,0-1.363-0.611-1.363-1.362l0,0c0-0.754,0.61-1.363,1.363-1.363l0,0h10.009c0.496,0,0.948,0.265,1.188,0.698l0,0
				c0.243,0.433,0.23,0.957-0.028,1.379l0,0l-7.985,12.96c-0.256,0.417-0.703,0.646-1.16,0.646l0,0
				C122.412,362.874,122.165,362.809,121.942,362.672L121.942,362.672z"/>
		</g>
		<g>
			<path fill="#B2B2B2" d="M227.029,261.694c-0.662,0-1.233-0.465-1.368-1.113l0,0c-0.061-0.297-0.092-0.593-0.092-0.88l0,0
				c-0.004-1.164,0.51-2.178,1.169-2.931l0,0c0.665-0.764,1.476-1.354,2.318-1.9l0,0c1.678-1.071,3.53-2.006,4.557-2.967l0,0
				c0.698-0.653,0.95-1.145,0.954-1.698l0,0c-0.03-0.887-0.316-1.188-0.844-1.555l0,0c-0.523-0.338-1.346-0.496-1.809-0.488l0,0
				c-1.413,0.005-2.483,0.521-3.21,1.312l0,0c-0.52,0.57-1.404,0.611-1.975,0.09l0,0c-0.57-0.52-0.611-1.404-0.091-1.973l0,0
				c1.265-1.395,3.153-2.229,5.276-2.224l0,0c0.918,0.009,2.123,0.204,3.277,0.903l0,0c1.151,0.67,2.2,2.088,2.17,3.934l0,0
				c0.006,1.185-0.492,2.227-1.149,3.015l0,0c-0.663,0.798-1.48,1.416-2.327,1.975l0,0c-1.69,1.103-3.556,2.03-4.59,2.96l0,0
				c-0.309,0.278-0.527,0.522-0.674,0.747l0,0h8.436c0.771,0,1.396,0.626,1.396,1.397l0,0c0,0.771-0.625,1.396-1.396,1.396l0,0
				H227.029L227.029,261.694z"/>
		</g>
	</g>
	
		
	<g>
		<g>
			<path id="dateWheel_1_" fill="#000000" d="M212.801,301.223c-0.179,0-0.325-0.146-0.325-0.324v-18.36c0-0.18,0.146-0.326,0.325-0.326h27.192
				c0.178,0,0.324,0.146,0.324,0.326v18.36c0,0.179-0.146,0.324-0.324,0.324H212.801z"/>
			<path fill="#282827" d="M239.993,282.401c0.074,0,0.135,0.062,0.135,0.137v18.36c0,0.075-0.061,0.136-0.135,0.136h-27.192
				c-0.075,0-0.136-0.061-0.136-0.136v-18.36c0-0.075,0.061-0.137,0.136-0.137H239.993 M239.993,282.023h-27.192
				c-0.283,0-0.514,0.231-0.514,0.515v18.36c0,0.283,0.231,0.514,0.514,0.514h27.192c0.283,0,0.513-0.23,0.513-0.514v-18.36
				C240.506,282.254,240.276,282.023,239.993,282.023L239.993,282.023z"/>
		</g>
	</g>
	<g id="dateNumber_1_">
		<text font-family="'Arial Black',sans-serif" font-size="19" fill="#C7E1AF" text-anchor="middle">
			<textPath xlink:href="#smallDatePath" id="dateNumberText" method="stretch" spacing="auto" startOffset="50%"></textPath>
		</text>
	</g>
	
	<use xlink:href="#secondHand" id="littleSecondHand" width="23.341" height="25.432"  x="-8.186" y="-8.712" transform="matrix(1 0 0 -1 114.0718 290.8018) rotate(0)" overflow="visible"/>
	<use xlink:href="#hourHand" id="littleHourHand" width="56.072" height="39.455"  x="-48.06" y="-8.555" transform="matrix(1 0 0 -1 163.6616 290.7456) rotate(0)" overflow="visible"/>
	<use xlink:href="#minuteHand" id="littleMinuteHand" width="73.043" height="59.772"  x="-6.372" y="-6.47" transform="matrix(0.9872 0.1593 0.1593 -0.9872 163.6309 290.7256) rotate(0)" overflow="visible"/>
	<g id="littleChronRing">
		
			<linearGradient id="SVGID_18_" gradientUnits="userSpaceOnUse" x1="203.8848" y1="291.2295" x2="247.8623" y2="291.2295" gradientTransform="matrix(0.986 0 0 1 3.5347 0)">
			<stop  offset="0" style="stop-color:#666666"/>
			<stop  offset="1" style="stop-color:#454545"/>
		</linearGradient>
		<path fill="url(#SVGID_18_)" d="M204.565,291.231c0.004-11.638,9.722-21.022,21.682-21.045l0,0
			c11.958,0.023,21.677,9.407,21.679,21.045l0,0c-0.002,11.637-9.721,21.019-21.679,21.041l0,0
			C214.287,312.25,204.569,302.868,204.565,291.231L204.565,291.231z M205.233,291.231c0.02,11.226,9.394,20.354,21.014,20.355l0,0
			c11.62-0.002,20.993-9.13,21.014-20.355l0,0c-0.021-11.228-9.394-20.357-21.014-20.358l0,0
			C214.627,270.875,205.253,280.003,205.233,291.231L205.233,291.231z"/>
	</g>
</g>

<g id="bigWatch">
	<g id="DIAL">
		<ellipse fill="#020202" cx="443.385" cy="433.748" rx="129.407" ry="124.211"/>
	</g>
	<g id="DIAL">
		<ellipse fill="#020202" cx="443.385" cy="433.748" rx="129.407" ry="124.211"/>
	</g>
	<rect x="398.149" y="467.35" fill="none" width="96.303" height="14.069"/>
	<g id="dialText_1_">
		<text fill="#FFFFFF" font-family="'Arial Black',sans-serif" font-size="12" text-anchor="middle">
				<textPath xlink:href="#largeDialTextPath" id="dialText_2_" method="stretch" spacing="auto" startOffset="50%">BAMFORD</textPath>
			</text>
	</g>
	<g id="logo">
		<g id="SWISSMADE">
			<path fill="#B2B2B2" d="M402.862,538.205l0.872,0.283c-0.105,0.333,0.01,0.398,0.261,0.48l1.066,0.35
				c0.184,0.06,0.381,0.099,0.459-0.143c0.088-0.272-0.01-0.321-1.131-0.688c-1.312-0.427-1.404-0.648-1.155-1.414
				c0.184-0.564,0.373-0.983,1.472-0.625l1.217,0.396c1.004,0.327,0.976,0.732,0.799,1.279l-0.032,0.1l-0.871-0.283
				c0.074-0.229,0.08-0.333-0.319-0.462l-0.966-0.314c-0.194-0.065-0.354-0.036-0.407,0.133c-0.09,0.271,0.015,0.314,0.95,0.615
				c1.356,0.437,1.639,0.629,1.344,1.536c-0.272,0.84-0.576,0.895-1.735,0.518l-1.056-0.346c-0.792-0.258-1.057-0.524-0.837-1.2
				L402.862,538.205z"/>
			<path fill="#B2B2B2" d="M407.285,537.333l0.859,0.247l-0.062,2.493l0.008,0.003l1.401-2.107l0.813,0.234l0.059,2.528l0.008,0.003
				l1.28-2.143l0.859,0.248l-1.844,2.887l-1.01-0.293l-0.066-2.275l-0.007-0.001l-1.272,1.89l-1.01-0.291L407.285,537.333z"/>
			<path fill="#B2B2B2" d="M412.806,538.91l0.887,0.233l-0.838,3.169l-0.887-0.235L412.806,538.91z"/>
			<path fill="#B2B2B2" d="M413.729,541.438l0.891,0.215c-0.078,0.341,0.041,0.396,0.297,0.459l1.093,0.264
				c0.188,0.045,0.385,0.069,0.443-0.177c0.068-0.278-0.033-0.322-1.18-0.599c-1.341-0.323-1.45-0.536-1.263-1.319
				c0.139-0.579,0.292-1.012,1.416-0.741l1.243,0.3c1.026,0.248,1.031,0.654,0.896,1.215l-0.024,0.103l-0.89-0.217
				c0.057-0.233,0.056-0.337-0.354-0.435l-0.985-0.238c-0.201-0.048-0.356-0.006-0.397,0.164c-0.065,0.279,0.04,0.313,0.997,0.54
				c1.384,0.33,1.683,0.501,1.46,1.431c-0.205,0.858-0.504,0.937-1.687,0.65l-1.08-0.259c-0.811-0.196-1.095-0.441-0.929-1.135
				L413.729,541.438z"/>
			<path fill="#B2B2B2" d="M417.854,542.426l0.898,0.188c-0.066,0.344,0.054,0.396,0.312,0.451l1.102,0.23
				c0.19,0.04,0.388,0.057,0.439-0.19c0.059-0.28-0.044-0.32-1.201-0.562c-1.351-0.284-1.468-0.495-1.305-1.286
				c0.119-0.581,0.261-1.02,1.395-0.783l1.254,0.264c1.034,0.216,1.054,0.623,0.937,1.188l-0.021,0.103l-0.897-0.188
				c0.049-0.237,0.044-0.339-0.369-0.426l-0.995-0.208c-0.201-0.043-0.354,0.005-0.391,0.178c-0.059,0.28,0.049,0.312,1.015,0.509
				c1.396,0.288,1.699,0.449,1.506,1.386c-0.178,0.867-0.474,0.953-1.667,0.703l-1.09-0.228c-0.816-0.171-1.108-0.409-0.965-1.106
				L417.854,542.426z"/>
			<path fill="#B2B2B2" d="M461.645,540.814l1.372-0.295l1.455,1.847l0.568-2.279l1.374-0.296l0.688,3.205l-0.87,0.187l-0.494-2.301
				l-0.008,0.001l-0.678,2.553l-0.669,0.145l-1.666-2.05l-0.01,0.002l0.495,2.301l-0.87,0.187L461.645,540.814z"/>
			<path fill="#B2B2B2" d="M468.196,539.344l1.155-0.29l2.39,2.781l-0.986,0.247l-0.416-0.492l-1.799,0.45l-0.117,0.627l-0.991,0.25
				L468.196,539.344z M468.698,541.271l1.136-0.284l-0.878-1.05L468.698,541.271z"/>
			<path fill="#B2B2B2" d="M471.217,538.578l2.665-0.753c0.883-0.25,1.282-0.02,1.502,0.762l0.271,0.958
				c0.22,0.779-0.001,1.186-0.884,1.435l-2.665,0.753L471.217,538.578z M472.761,540.673l1.566-0.442
				c0.378-0.108,0.491-0.267,0.365-0.715l-0.12-0.427c-0.126-0.449-0.308-0.524-0.685-0.418l-1.566,0.441L472.761,540.673z"/>
			<path fill="#B2B2B2" d="M475.492,537.357l3.121-0.972l0.227,0.726l-2.247,0.7l0.157,0.501l2.129-0.663l0.202,0.648l-2.13,0.663
				l0.157,0.502l2.298-0.717l0.235,0.752l-3.173,0.988L475.492,537.357z"/>
		</g>
		<path id="TEXT" fill="#B2B2B2" d="M410.059,479.803h5.438c2.301,0,2.857,1.225,2.857,2.196c0,1.536-0.907,2.444-2.688,2.444h-3.41
			v2.579h-2.197V479.803z M412.256,483.132h2.357c0.68,0,1.471-0.021,1.471-0.993c0-0.94-0.645-1.021-1.268-1.021h-2.561V483.132z
			 M426.491,485.537h-3.716l-0.658,1.485h-2.368l3.56-7.22h2.65l3.559,7.22h-2.368L426.491,485.537z M424.634,481.363l-1.27,2.858
			h2.54L424.634,481.363z M438.758,479.803h2.129v7.22h-2.391l-4.408-5.032h-0.023v5.032h-2.131v-7.22h2.551l4.25,5.037h0.023
			V479.803z M444.233,479.803h7.558v1.376h-5.358v1.497h5.087v1.313h-5.087v1.659h5.405v1.374h-7.604V479.803z M454.855,479.803
			h5.883c2.242,0,2.616,1.225,2.616,1.962c0,0.879-0.397,1.447-1.314,1.74v0.021c0.963,0.13,1.109,1.221,1.109,1.928
			c0,0.354,0.035,1.204,0.421,1.568h-2.402c-0.205-0.334-0.216-0.626-0.216-1.384c0-1.011-0.488-1.265-1.168-1.265h-2.73v2.648
			h-2.198V479.803z M457.054,483h2.913c0.486,0,1.053-0.244,1.053-0.921c0-0.716-0.635-0.9-1.167-0.9h-2.799V483z M472.127,485.537
			h-3.717l-0.657,1.485h-2.368l3.558-7.22h2.652l3.559,7.22h-2.367L472.127,485.537z M470.269,481.363L469,484.222h2.539
			L470.269,481.363z M477.572,479.803h2.196v7.22h-2.196V479.803z M423.022,489.806h1.612l2.676,5.964h-1.633l-0.542-1.329h-2.677
			l-0.561,1.329h-1.594L423.022,489.806z M422.87,493.467h1.855l-0.902-2.191h-0.021L422.87,493.467z M432.849,495.77h-1.353v-0.604
			h-0.031c-0.361,0.485-0.982,0.721-1.584,0.721c-1.513,0-1.894-0.712-1.894-1.779v-2.655h1.423v2.439
			c0,0.708,0.25,1.058,0.911,1.058c0.771,0,1.103-0.357,1.103-1.235v-2.262h1.425V495.77z M435.938,491.452h1.041v0.792h-1.041
			v2.139c0,0.399,0.122,0.501,0.602,0.501c0.152,0,0.291-0.008,0.439-0.033v0.926c-0.238,0.034-0.55,0.042-0.83,0.042
			c-0.872,0-1.634-0.167-1.634-1.028v-2.546h-0.862v-0.792h0.862v-1.292h1.423V491.452z M440.382,491.335
			c1.632,0,2.686,0.903,2.686,2.278c0,1.371-1.054,2.273-2.686,2.273c-1.623,0-2.676-0.902-2.676-2.273
			C437.706,492.238,438.759,491.335,440.382,491.335z M440.382,494.991c0.971,0,1.261-0.694,1.261-1.378
			c0-0.69-0.29-1.385-1.261-1.385c-0.963,0-1.255,0.694-1.255,1.385C439.127,494.297,439.419,494.991,440.382,494.991z
			 M444.234,491.452h1.343v0.585h0.021c0.371-0.441,0.91-0.702,1.583-0.702c0.649,0,1.233,0.2,1.514,0.719
			c0.301-0.376,0.84-0.719,1.562-0.719c1.103,0,1.895,0.426,1.895,1.545v2.89h-1.424v-2.446c0-0.576-0.059-1.052-0.871-1.052
			c-0.801,0-0.952,0.552-0.952,1.095v2.403h-1.421v-2.423c0-0.5,0.038-1.075-0.863-1.075c-0.282,0-0.962,0.149-0.962,0.993v2.505
			h-1.423V491.452z M453.42,492.779c0.081-1.108,1.274-1.444,2.437-1.444c1.032,0,2.274,0.192,2.274,1.227v2.246
			c0,0.393,0.048,0.785,0.18,0.962h-1.441c-0.051-0.134-0.091-0.277-0.102-0.417c-0.45,0.392-1.112,0.534-1.743,0.534
			c-0.983,0-1.763-0.411-1.763-1.295c0-0.979,0.881-1.211,1.763-1.311c0.872-0.111,1.684-0.087,1.684-0.568
			c0-0.509-0.42-0.585-0.922-0.585c-0.542,0-0.893,0.187-0.942,0.651H453.42z M456.708,493.657c-0.241,0.175-0.742,0.182-1.183,0.25
			c-0.441,0.073-0.842,0.2-0.842,0.634c0,0.443,0.41,0.551,0.871,0.551c1.112,0,1.153-0.734,1.153-0.994V493.657z M461.24,491.452
			h1.043v0.792h-1.043v2.139c0,0.399,0.122,0.501,0.602,0.501c0.152,0,0.292-0.008,0.441-0.033v0.926
			c-0.24,0.034-0.552,0.042-0.831,0.042c-0.872,0-1.634-0.167-1.634-1.028v-2.546h-0.861v-0.792h0.861v-1.292h1.422V491.452z
			 M464.633,490.784h-1.424v-0.979h1.424V490.784z M463.209,491.452h1.424v4.317h-1.424V491.452z M469.484,492.97
			c-0.091-0.481-0.462-0.741-1.053-0.741c-0.911,0-1.213,0.767-1.213,1.403c0,0.618,0.29,1.359,1.183,1.359
			c0.662,0,1.041-0.349,1.133-0.875h1.372c-0.18,1.143-1.133,1.771-2.496,1.771c-1.562,0-2.614-0.921-2.614-2.214
			c0-1.343,0.963-2.338,2.646-2.338c1.222,0,2.345,0.534,2.434,1.635H469.484z M411.069,369.501h2.358v5.782h5.292v1.437h-7.65
			V369.501z M419.745,369.501h2.359v4.145c0,0.708,0.037,1.901,2.2,1.901c2.167,0,2.202-1.193,2.202-1.901v-4.145h2.358v4.631
			c0,0.809-0.121,2.79-4.561,2.79c-4.437,0-4.56-1.981-4.56-2.79V369.501z M439.038,369.501h3.465v7.219h-2.285v-5.784h-0.024
			l-2.749,5.784h-1.97l-2.749-5.784h-0.023v5.784h-2.284v-7.219h3.465l2.576,5.197L439.038,369.501z M444.149,369.501h2.358v7.219
			h-2.358V369.501z M455.479,369.501h2.287v7.219h-2.565l-4.731-5.035h-0.024v5.035h-2.286v-7.219h2.736l4.56,5.035h0.024V369.501z
			 M464.326,369.299c4.67,0,5.399,2.305,5.399,3.812s-0.729,3.812-5.399,3.812s-5.398-2.305-5.398-3.812
			S459.656,369.299,464.326,369.299z M464.326,375.547c2.142,0,2.894-1.314,2.894-2.437s-0.752-2.436-2.894-2.436
			c-2.14,0-2.896,1.313-2.896,2.436S462.187,375.547,464.326,375.547z M470.886,369.501h6.312c2.408,0,2.809,1.225,2.809,1.961
			c0,0.88-0.425,1.446-1.41,1.737v0.021c1.032,0.134,1.191,1.224,1.191,1.932c0,0.354,0.038,1.204,0.449,1.567h-2.577
			c-0.219-0.334-0.23-0.627-0.23-1.386c0-1.011-0.522-1.264-1.254-1.264h-2.929v2.649h-2.36V369.501z M473.246,372.694h3.124
			c0.523,0,1.13-0.241,1.13-0.917c0-0.719-0.68-0.9-1.251-0.9h-3.003V372.694z M420.103,381.426h3.465v7.219h-2.286v-5.784h-0.024
			l-2.747,5.784h-1.971l-2.748-5.784h-0.024v5.784h-2.286v-7.219h3.465l2.578,5.197L420.103,381.426z M433.396,387.157h-3.987
			l-0.706,1.487h-2.542l3.819-7.219h2.846l3.818,7.219h-2.542L433.396,387.157z M431.401,382.983l-1.361,2.859h2.724
			L431.401,382.983z M439.238,381.426h6.312c2.407,0,2.81,1.224,2.81,1.962c0,0.878-0.427,1.445-1.409,1.737v0.021
			c1.032,0.133,1.189,1.224,1.189,1.931c0,0.354,0.035,1.204,0.449,1.568h-2.578c-0.218-0.335-0.231-0.627-0.231-1.386
			c0-1.011-0.521-1.264-1.251-1.264h-2.931v2.649h-2.359V381.426z M441.598,384.619h3.126c0.521,0,1.13-0.241,1.13-0.917
			c0-0.719-0.68-0.901-1.252-0.901h-3.004V384.619z M452.023,381.426h2.359v7.219h-2.359V381.426z M465.542,381.426h2.286v7.219
			h-2.566l-4.73-5.036h-0.022v5.036h-2.287v-7.219h2.736l4.561,5.036h0.023V381.426z M477.902,387.157h-3.989l-0.705,1.487h-2.542
			l3.816-7.219h2.849l3.816,7.219h-2.541L477.902,387.157z M475.907,382.983l-1.362,2.859h2.724L475.907,382.983z"/>
	</g>
	
	<g id="dialBorder">
		<linearGradient id="SVGID_13_" gradientUnits="userSpaceOnUse" x1="501.4033" y1="539.9248" x2="384.1056" y2="327.4921">
			<stop  offset="0" style="stop-color:#7D7D7D"/>
			<stop  offset="0.9541" style="stop-color:#282828"/>
			<stop  offset="1" style="stop-color:#242424"/>
		</linearGradient>
		<path fill="url(#SVGID_13_)" d="M350.335,522.376c-23.698-22.607-38.377-53.879-38.377-88.412l0,0
			c0-34.535,14.679-65.805,38.377-88.412l0,0c23.697-22.609,56.43-36.584,92.561-36.584l0,0v1.521v1.519
			c-35.342,0-67.318,13.666-90.463,35.745l0,0c-23.142,22.082-37.435,52.55-37.435,86.212l0,0c0,33.66,14.293,64.129,37.435,86.212
			l0,0c23.145,22.079,55.121,35.743,90.463,35.743l0,0c35.342,0,67.32-13.664,90.463-35.743l0,0
			c23.141-22.083,37.434-52.552,37.434-86.212l0,0c0-33.662-14.293-64.13-37.434-86.212l0,0
			c-23.143-22.079-55.121-35.745-90.463-35.745l0,0v-1.519v-1.521c36.132,0,68.862,13.975,92.561,36.584l0,0
			c23.698,22.607,38.378,53.877,38.376,88.412l0,0c0.002,34.533-14.678,65.805-38.376,88.412l0,0
			c-23.698,22.608-56.429,36.583-92.561,36.583l0,0C406.765,558.959,374.032,544.984,350.335,522.376L350.335,522.376z"/>
	</g>
	<g id="border">
		<g>
			<g>
				
					<radialGradient id="SVGID_14_" cx="372.0068" cy="445.2334" r="35.0692" gradientTransform="matrix(1 0 0 0.9739 0 7.6844)" gradientUnits="userSpaceOnUse">
					<stop  offset="0" style="stop-color:#666666"/>
					<stop  offset="1" style="stop-color:#121212"/>
				</radialGradient>
				<path fill="url(#SVGID_14_)" d="M380.81,400.619c-18.578,0-33.631,14.66-33.631,32.755s15.053,32.753,33.631,32.753
					c18.577,0,33.63-14.658,33.63-32.753S399.387,400.619,380.81,400.619z M380.81,465.48c-18.213,0-32.968-14.372-32.968-32.106
					c0-17.735,14.755-32.106,32.968-32.106c18.212,0,32.967,14.371,32.967,32.106C413.776,451.108,399.021,465.48,380.81,465.48z"/>
			</g>
		</g>
	</g>
	
	<g id="luminescentIndices_1_">
		
			<line fill="none" stroke="#C7E1AF" stroke-width="4.6027" stroke-linecap="round" x1="380.39" y1="404.868" x2="380.39" y2="412.219"/>
		
			<line fill="none" stroke="#C7E1AF" stroke-width="4.6027" stroke-linecap="round" x1="409.09" y1="432.729" x2="401.741" y2="432.729"/>
		
			<line fill="none" stroke="#C7E1AF" stroke-width="4.6027" stroke-linecap="round" x1="381.229" y1="461.433" x2="381.229" y2="454.082"/>
		
			<line fill="none" stroke="#C7E1AF" stroke-width="4.6027" stroke-linecap="round" x1="352.527" y1="433.569" x2="359.878" y2="433.569"/>
		<ellipse fill="#C7E1AF" cx="500.908" cy="529.48" rx="4.26" ry="4.115"/>
		<ellipse fill="#C7E1AF" cx="500.908" cy="338.507" rx="4.26" ry="4.114"/>
		<ellipse fill="#C7E1AF" cx="384.874" cy="529.48" rx="4.26" ry="4.115"/>
		<ellipse fill="#C7E1AF" cx="384.874" cy="338.507" rx="4.26" ry="4.114"/>
		<ellipse fill="#C7E1AF" cx="542.539" cy="378.941" rx="4.259" ry="4.114"/>
		<ellipse fill="#C7E1AF" cx="343.222" cy="378.941" rx="4.26" ry="4.114"/>
		<ellipse fill="#C7E1AF" cx="542.539" cy="488.771" rx="4.259" ry="4.115"/>
		<ellipse fill="#C7E1AF" cx="343.222" cy="488.771" rx="4.26" ry="4.115"/>
		
			<line fill="none" stroke="#C7E1AF" stroke-width="5.7399" stroke-linecap="round" x1="326.219" y1="433.409" x2="342.328" y2="433.409"/>
		<path fill="#C7E1AF" d="M560.082,430.54h-9.992c0.172,1.204,0.269,2.433,0.269,3.685c0,0.692-0.036,1.376-0.09,2.054h9.813
			c1.583,0,2.868-1.284,2.868-2.868C562.95,431.825,561.665,430.54,560.082,430.54z"/>
		<g>
			<path fill="#C7E1AF" d="M442.3,351.803c-1.36,0-2.532-0.954-2.809-2.287l0,0c-0.127-0.611-0.19-1.22-0.19-1.808l0,0
				c-0.009-2.392,1.051-4.473,2.403-6.02l0,0c1.365-1.572,3.031-2.784,4.762-3.904l0,0c3.447-2.202,7.252-4.12,9.361-6.096l0,0
				c1.435-1.343,1.953-2.352,1.959-3.488l0,0c-0.06-1.823-0.649-2.441-1.731-3.195l0,0c-1.074-0.695-2.766-1.02-3.716-1l0,0
				c-2.904,0.009-5.102,1.067-6.595,2.694l0,0c-1.069,1.171-2.886,1.257-4.056,0.187l0,0c-1.172-1.067-1.256-2.884-0.188-4.055l0,0
				c2.6-2.864,6.474-4.577,10.838-4.568l0,0c1.885,0.02,4.358,0.419,6.73,1.856l0,0c2.366,1.377,4.519,4.289,4.459,8.081l0,0
				c0.012,2.434-1.011,4.574-2.361,6.192l0,0c-1.359,1.641-3.042,2.908-4.777,4.059l0,0c-3.473,2.265-7.306,4.17-9.43,6.079l0,0
				c-0.637,0.572-1.083,1.072-1.385,1.534l0,0h17.328c1.585,0,2.868,1.285,2.868,2.871l0,0c0,1.584-1.283,2.867-2.868,2.867l0,0
				H442.3L442.3,351.803z"/>
		</g>
		<g>
			<path fill="#C7E1AF" d="M429.263,349.066v-26.412c0-1.586,1.284-2.872,2.87-2.872l0,0c1.584,0,2.869,1.286,2.869,2.872l0,0
				v26.412c0,1.585-1.285,2.871-2.869,2.871l0,0C430.547,351.938,429.263,350.651,429.263,349.066L429.263,349.066z"/>
		</g>
		<g>
			<path fill="#C7E1AF" d="M436.644,531.263c1.138-1.136,2.376-1.978,3.716-2.526c1.34-0.548,2.838-0.82,4.494-0.82
				c1.59,0,3.061,0.249,4.409,0.746c1.347,0.499,2.526,1.208,3.539,2.127c1.014,0.92,1.796,2.004,2.349,3.253
				c0.552,1.25,0.828,2.556,0.828,3.917c0,1.979-0.539,3.775-1.62,5.391c-1.08,1.614-2.585,2.873-4.52,3.779
				c-1.933,0.905-4.123,1.358-6.566,1.358c-2.812,0-5.24-0.576-7.281-1.728c-2.044-1.149-3.604-2.854-4.685-5.105
				c-1.08-2.254-1.62-5.007-1.62-8.264c0-2.653,0.327-5.025,0.979-7.117c0.653-2.092,1.591-3.825,2.813-5.2
				c1.221-1.376,2.703-2.415,4.444-3.117c1.741-0.701,3.725-1.053,5.951-1.053c2.143,0,4.031,0.352,5.663,1.053
				c1.633,0.702,2.862,1.572,3.69,2.611c0.83,1.039,1.243,2.036,1.243,2.99c0,0.574-0.259,1.098-0.778,1.568
				c-0.519,0.471-1.181,0.704-1.982,0.704c-0.704,0-1.356-0.186-1.96-0.557c-0.603-0.373-1.047-0.888-1.331-1.548
				c-0.384-0.843-0.997-1.52-1.832-2.032c-0.838-0.512-1.809-0.769-2.913-0.769c-0.888,0-1.771,0.214-2.65,0.643
				c-0.879,0.428-1.618,1.008-2.222,1.736C437.58,524.792,436.861,527.444,436.644,531.263z M443.424,544.34
				c1.69,0,3.087-0.58,4.193-1.738c1.104-1.158,1.656-2.677,1.656-4.559c0-1.276-0.26-2.375-0.778-3.295
				c-0.52-0.92-1.231-1.621-2.135-2.106c-0.903-0.483-1.899-0.726-2.988-0.726c-1.038,0-2.029,0.232-2.976,0.694
				c-0.945,0.464-1.707,1.134-2.284,2.012c-0.578,0.876-0.867,1.904-0.867,3.084c0,1.896,0.587,3.475,1.759,4.737
				C440.175,543.707,441.648,544.34,443.424,544.34z"/>
		</g>
	</g>
	<g id="fiveMinuteMarkers_1_">
		<g>
			<path fill="#C7E1AF" d="M497.829,508.414h-7.535l-0.903,4.31c1.501-0.673,2.888-1.011,4.156-1.011
				c1.015,0,1.965,0.16,2.848,0.479c0.882,0.318,1.656,0.761,2.324,1.323c0.666,0.563,1.188,1.23,1.57,2.002
				c0.381,0.772,0.57,1.602,0.57,2.487c0,1.287-0.345,2.457-1.03,3.512c-0.688,1.057-1.679,1.894-2.976,2.515
				c-1.296,0.621-2.789,0.932-4.481,0.932c-1.893,0-3.43-0.292-4.608-0.878s-2.016-1.258-2.506-2.016
				c-0.492-0.759-0.737-1.422-0.737-1.988c0-0.348,0.17-0.675,0.515-0.985c0.344-0.31,0.774-0.465,1.292-0.465
				c0.89,0,1.55,0.43,1.984,1.291c0.423,0.788,0.993,1.401,1.713,1.842c0.72,0.438,1.522,0.658,2.412,0.658
				c0.814,0,1.527-0.178,2.142-0.531c0.611-0.356,1.085-0.844,1.42-1.464c0.332-0.621,0.5-1.325,0.5-2.115
				c0-0.852-0.181-1.579-0.541-2.181c-0.358-0.604-0.84-1.054-1.443-1.352c-0.603-0.298-1.273-0.445-2.014-0.445
				c-0.91,0-1.561,0.093-1.952,0.279c-0.391,0.186-0.954,0.513-1.688,0.978c-0.736,0.467-1.342,0.699-1.817,0.699
				c-0.52,0-0.979-0.157-1.381-0.473c-0.401-0.315-0.604-0.672-0.604-1.071c0-0.044,0.059-0.347,0.176-0.904l1.332-6.372
				c0.148-0.763,0.423-1.317,0.825-1.663s1.058-0.52,1.968-0.52h8.376c1.65,0,2.476,0.528,2.476,1.584
				c0,0.462-0.201,0.834-0.603,1.117C499.204,508.272,498.611,508.414,497.829,508.414z"/>
		</g>
		<g>
			<path fill="#C7E1AF" d="M350.192,474.927c0-0.886,0.289-1.723,0.866-2.507c0.576-0.785,1.422-1.412,2.538-1.884
				c1.116-0.469,2.419-0.704,3.91-0.704c1.259,0,2.363,0.138,3.315,0.412c0.952,0.275,1.745,0.654,2.38,1.138
				c0.634,0.484,1.105,1.028,1.412,1.636c0.308,0.608,0.46,1.253,0.46,1.937c0,0.869-0.267,1.645-0.8,2.327
				c-0.535,0.684-1.331,1.242-2.39,1.676c0.899,0.293,1.646,0.677,2.238,1.152c0.592,0.473,1.038,1.022,1.34,1.648
				c0.302,0.625,0.451,1.32,0.451,2.081c0,1.119-0.322,2.131-0.966,3.04c-0.646,0.909-1.592,1.621-2.841,2.136
				c-1.247,0.514-2.718,0.771-4.41,0.771c-1.756,0-3.258-0.258-4.504-0.771c-1.25-0.515-2.191-1.223-2.825-2.122
				c-0.635-0.9-0.951-1.91-0.951-3.026c0-2.386,1.344-4.021,4.029-4.909C351.277,478.106,350.192,476.762,350.192,474.927z
				 M361.569,483.732c0-0.691-0.17-1.295-0.509-1.809c-0.338-0.514-0.813-0.909-1.428-1.185c-0.613-0.274-1.302-0.412-2.062-0.412
				c-1.08,0-1.983,0.302-2.714,0.905c-0.729,0.603-1.095,1.446-1.095,2.527c0,0.691,0.173,1.302,0.515,1.828
				c0.346,0.528,0.812,0.938,1.406,1.226c0.593,0.287,1.253,0.432,1.982,0.432c0.739,0,1.405-0.146,1.999-0.439
				c0.592-0.293,1.058-0.704,1.396-1.237C361.399,485.037,361.569,484.425,361.569,483.732z M357.604,472.373
				c-0.996,0-1.797,0.26-2.404,0.778c-0.608,0.52-0.912,1.187-0.912,2.003c0,0.753,0.312,1.381,0.935,1.882
				c0.625,0.501,1.429,0.751,2.413,0.751c0.496,0,0.948-0.065,1.356-0.2c0.406-0.134,0.756-0.316,1.047-0.551
				c0.291-0.235,0.516-0.515,0.674-0.839s0.237-0.681,0.237-1.07c0-0.523-0.14-0.994-0.42-1.411
				c-0.28-0.416-0.674-0.744-1.182-0.984C358.84,472.492,358.258,472.373,357.604,472.373z"/>
		</g>
		<g>
			<path fill="#C7E1AF" d="M530.336,489.449v-2.474h-7.964c-1.006,0-1.759-0.191-2.261-0.572s-0.754-0.9-0.754-1.558
				c0-0.168,0.037-0.338,0.11-0.511c0.074-0.174,0.186-0.354,0.334-0.546c0.147-0.19,0.301-0.375,0.46-0.551
				c0.158-0.178,0.355-0.396,0.586-0.653l8.409-9.432c0.55-0.619,1.002-1.07,1.356-1.35c0.354-0.279,0.778-0.42,1.276-0.42
				c1.608,0,2.412,0.773,2.412,2.315v10.296h0.683c0.813,0,1.466,0.094,1.96,0.279c0.49,0.187,0.736,0.594,0.736,1.225
				c0,0.514-0.201,0.889-0.603,1.124c-0.402,0.234-1.004,0.353-1.81,0.353h-0.967v2.474c0,0.684-0.181,1.191-0.539,1.523
				c-0.36,0.332-0.841,0.499-1.444,0.499c-0.592,0-1.07-0.171-1.436-0.512C530.518,490.617,530.336,490.114,530.336,489.449z
				 M523.514,483.995h6.822v-7.728L523.514,483.995z"/>
		</g>
		<path fill="#C7E1AF" d="M353.175,393.526v-15.609c0-0.722,0.192-1.267,0.579-1.635c0.386-0.369,0.907-0.555,1.562-0.555
			c0.656,0,1.186,0.184,1.588,0.547c0.401,0.364,0.603,0.912,0.603,1.643v15.609c0,0.73-0.204,1.277-0.611,1.642
			c-0.406,0.366-0.934,0.548-1.579,0.548c-0.635,0-1.149-0.188-1.548-0.567C353.373,394.771,353.175,394.231,353.175,393.526z"/>
		<path fill="#C7E1AF" d="M388.918,362.17v-15.609c0-0.722,0.193-1.267,0.579-1.635c0.387-0.369,0.907-0.555,1.563-0.555
			c0.655,0,1.184,0.184,1.586,0.548c0.402,0.363,0.604,0.911,0.604,1.642v15.609c0,0.73-0.205,1.278-0.61,1.642
			c-0.409,0.365-0.935,0.548-1.579,0.548c-0.635,0-1.15-0.188-1.547-0.566S388.918,362.875,388.918,362.17z"/>
		<path fill="#C7E1AF" d="M399.37,362.17v-15.609c0-0.722,0.192-1.267,0.579-1.635c0.387-0.369,0.907-0.555,1.562-0.555
			c0.656,0,1.186,0.184,1.587,0.548c0.402,0.363,0.604,0.911,0.604,1.642v15.609c0,0.73-0.205,1.278-0.61,1.642
			c-0.407,0.365-0.935,0.548-1.58,0.548c-0.635,0-1.148-0.188-1.547-0.566C399.569,363.415,399.37,362.875,399.37,362.17z"/>
		<path fill="#C7E1AF" d="M491.639,362.17v-15.609c0-0.722,0.193-1.267,0.579-1.635c0.388-0.369,0.908-0.555,1.563-0.555
			c0.656,0,1.185,0.184,1.586,0.548c0.402,0.363,0.604,0.911,0.604,1.642v15.609c0,0.73-0.204,1.278-0.61,1.642
			c-0.407,0.365-0.935,0.548-1.579,0.548c-0.635,0-1.149-0.188-1.547-0.566C491.838,363.415,491.639,362.875,491.639,362.17z"/>
		<path fill="#C7E1AF" d="M377.571,385.742c0,1.448-0.114,2.692-0.343,3.732c-0.23,1.043-0.654,1.987-1.273,2.835
			c-0.78,1.042-1.789,1.846-3.027,2.41c-1.237,0.565-2.613,0.848-4.128,0.848c-1.741,0-3.304-0.38-4.684-1.14
			c-1.384-0.758-2.424-1.809-3.123-3.152c-0.356-0.73-0.616-1.541-0.782-2.428c-0.166-0.888-0.249-1.848-0.249-2.881
			c0-1.332,0.092-2.534,0.275-3.602c0.183-1.066,0.469-1.986,0.859-2.755c0.677-1.271,1.66-2.24,2.949-2.906
			c1.291-0.665,2.829-1,4.617-1c1.182,0,2.253,0.148,3.218,0.444c0.962,0.296,1.808,0.729,2.535,1.298s1.344,1.273,1.849,2.112
			C377.137,381.015,377.571,383.076,377.571,385.742z M372.858,385.479c0-1.617-0.125-2.938-0.377-3.967
			c-0.251-1.028-0.676-1.806-1.273-2.33c-0.596-0.527-1.421-0.789-2.475-0.789c-1.514,0-2.566,0.587-3.157,1.763
			c-0.59,1.172-0.886,2.982-0.886,5.428c0,1.659,0.127,3.02,0.38,4.078c0.251,1.059,0.675,1.861,1.272,2.404
			c0.596,0.543,1.404,0.813,2.424,0.813c1.054,0,1.881-0.282,2.478-0.848c0.596-0.564,1.014-1.372,1.255-2.424
			C372.74,388.559,372.858,387.181,372.858,385.479z"/>
		<g>
			<path fill="#C7E1AF" d="M391.066,524.553c-0.809-0.501-1.062-1.562-0.562-2.37l0,0l8.479-13.76h-9.572v0.002
				c-0.953,0-1.724-0.773-1.724-1.723l0,0c0-0.953,0.771-1.725,1.724-1.725l0,0h12.654c0.626,0,1.197,0.335,1.503,0.883l0,0
				c0.308,0.548,0.291,1.21-0.035,1.744l0,0l-10.096,16.386c-0.325,0.527-0.89,0.818-1.467,0.818l0,0
				C391.661,524.809,391.349,524.726,391.066,524.553L391.066,524.553z"/>
		</g>
		<g>
			<path fill="#C7E1AF" d="M523.935,396.879c-0.836,0-1.56-0.587-1.729-1.406l0,0c-0.078-0.377-0.117-0.751-0.117-1.113l0,0
				c-0.006-1.472,0.646-2.754,1.479-3.706l0,0c0.84-0.967,1.866-1.713,2.931-2.402l0,0c2.122-1.354,4.463-2.536,5.762-3.751l0,0
				c0.882-0.827,1.2-1.448,1.206-2.147l0,0c-0.038-1.122-0.4-1.503-1.066-1.966l0,0c-0.662-0.43-1.702-0.629-2.287-0.618l0,0
				c-1.787,0.008-3.141,0.658-4.06,1.66l0,0c-0.657,0.722-1.774,0.773-2.495,0.114l0,0c-0.722-0.657-0.774-1.775-0.116-2.496l0,0
				c1.601-1.762,3.986-2.815,6.671-2.812l0,0c1.16,0.012,2.683,0.259,4.143,1.144l0,0c1.457,0.847,2.782,2.64,2.744,4.974l0,0
				c0.008,1.497-0.622,2.815-1.453,3.811l0,0c-0.837,1.01-1.871,1.79-2.94,2.499l0,0c-2.138,1.394-4.497,2.567-5.804,3.741l0,0
				c-0.392,0.353-0.666,0.66-0.853,0.944l0,0h10.666c0.976,0,1.765,0.791,1.765,1.767l0,0c0,0.976-0.789,1.765-1.765,1.765l0,0
				H523.935L523.935,396.879z"/>
		</g>
		<g id="miniIndices_1_">
			<path fill="#B2B2B2" d="M390.625,415.312c-0.277-0.158-0.371-0.511-0.212-0.785l0,0l3.368-5.934l0.969,0.641l-3.341,5.866
				c-0.106,0.185-0.3,0.288-0.499,0.288l0,0C390.813,415.389,390.716,415.364,390.625,415.312L390.625,415.312z"/>
			
				<line fill="none" stroke="#B2B2B2" stroke-width="1.1507" stroke-linecap="round" x1="406.84" y1="447.668" x2="399.146" y2="443.253"/>
			
				<line fill="none" stroke="#B2B2B2" stroke-width="1.1507" stroke-linecap="round" x1="366.29" y1="459.181" x2="370.706" y2="451.487"/>
			
				<line fill="none" stroke="#B2B2B2" stroke-width="1.1507" stroke-linecap="round" x1="354.779" y1="418.633" x2="362.472" y2="423.05"/>
			
				<line fill="none" stroke="#B2B2B2" stroke-width="1.1507" stroke-linecap="round" x1="396.028" y1="458.679" x2="391.57" y2="451.008"/>
			
				<line fill="none" stroke="#B2B2B2" stroke-width="1.1507" stroke-linecap="round" x1="355.153" y1="448.377" x2="362.825" y2="443.918"/>
			
				<line fill="none" stroke="#B2B2B2" stroke-width="1.1507" stroke-linecap="round" x1="365.46" y1="407.502" x2="369.915" y2="415.173"/>
			
				<line fill="none" stroke="#B2B2B2" stroke-width="1.1507" stroke-linecap="round" x1="406.33" y1="417.808" x2="398.66" y2="422.263"/>
		</g>
	</g>
	<g >
		<g>
			<path fill="#000000" id="dateWheel_1_" d="M505.791,445.7c-0.223,0-0.404-0.182-0.404-0.404v-22.802c0-0.224,0.182-0.405,0.404-0.405h33.77
				c0.222,0,0.402,0.182,0.402,0.405v22.802c0,0.223-0.181,0.404-0.402,0.404H505.791z"/>
			<path fill="#282827" d="M539.561,422.324c0.092,0,0.167,0.076,0.167,0.17v22.802c0,0.093-0.075,0.169-0.167,0.169h-33.77
				c-0.093,0-0.169-0.076-0.169-0.169v-22.802c0-0.094,0.076-0.17,0.169-0.17H539.561 M539.561,421.854h-33.77
				c-0.353,0-0.639,0.287-0.639,0.64v22.802c0,0.352,0.286,0.639,0.639,0.639h33.77c0.352,0,0.637-0.287,0.637-0.639v-22.802
				C540.197,422.142,539.912,421.854,539.561,421.854L539.561,421.854z"/>
		</g>
	</g>
	<g id="dateNumber">
		<text font-family="'Arial Black',sans-serif" font-size="24" fill="#C7E1AF" text-anchor="middle">
			<textPath xlink:href="#largeDatePath" id="dateNumberText_1_" method="stretch" spacing="auto" startOffset="50%"></textPath>
		</text>
	</g>
	
	<use xlink:href="#secondHand" id="bigSecondHand"  width="23.341" height="25.432" x="-8.186" y="-8.712" transform="matrix(1.2859 0 0 -1.2859 380.7373 433.3633) rotate(0)" overflow="visible"/>
	<use xlink:href="#hourHand" id="bigHourHand" width="56.072" height="39.455" x="-48.06" y="-8.555" transform="matrix(1.2637 0 0 -1.2637 443.791 432.8311) rotate(0)" overflow="visible"/>
	<use xlink:href="#minuteHand" id="bigMinuteHand" width="73.043" height="59.772" x="-6.372" y="-6.47" transform="matrix(1.2588 0.2233 0.2233 -1.2588 443.3701 433.0029) rotate(0)" overflow="visible"/>
	
	<g id="_x32_4RING">
		<g>
			
				<linearGradient id="SVGID_12_" gradientUnits="userSpaceOnUse" x1="498.9844" y1="434.2227" x2="554.5879" y2="434.2227" gradientTransform="matrix(0.986 0 0 1 3.5347 0)">
				<stop  offset="0" style="stop-color:#666666"/>
				<stop  offset="1" style="stop-color:#454545"/>
			</linearGradient>
			<path fill="url(#SVGID_12_)" d="M495.533,434.225c0.005-14.714,12.292-26.579,27.414-26.607l0,0
				c15.12,0.028,27.409,11.894,27.411,26.607l0,0c-0.002,14.713-12.291,26.577-27.411,26.604l0,0
				C507.825,460.802,495.538,448.938,495.533,434.225L495.533,434.225z M496.377,434.225c0.026,14.193,11.878,25.734,26.57,25.737
				l0,0c14.691-0.003,26.544-11.544,26.569-25.737l0,0c-0.025-14.195-11.878-25.737-26.569-25.74l0,0
				C508.255,408.487,496.403,420.029,496.377,434.225L496.377,434.225z"/>
		</g>
	</g>
	
	
</g>

<g id="watchBack">
	
		<image overflow="visible" width="889" height="950" xlink:href="panerai_luminor-marina-watchBack.png"  transform="matrix(0.3073 0 0 0.3058 304.7695 13.5166)">
	</image>
	<g id="Type">
		<circle fill="none" cx="454.56" cy="159.762" r="83.331"/>
		<text  fill="#FFFFFF" font-family="'Arial Black',sans-serif" font-size="13.0627" text-anchor="middle">
			<textPath xlink:href="#curvedTextPath" id="curvedText" method="stretch" spacing="auto"  startOffset="50%">BAMFORD</textPath>
		</text>
	</g>
</g>

<g id="backtextpath">
	<path id="curvedTextPath" fill="none" d="M368.767,154c0,0,13.19-76,87.212-76s94.38,76,94.38,76"/>
	<path id="smallDatePath" fill="none" d="M151,299.066h150.378"/>
	<path id="largeDatePath" fill="none" d="M447.991,443.066h150.378"/>
	<path id="smallDialTextPath" fill="none" d="M106,321.525h115.246"/>
	<path id="largeDialTextPath" fill="none" d="M410,475h70"/>
</g>
</svg>
