<?xml version="1.0" encoding="utf-8"?>
<!-- Generator: Adobe Illustrator 16.0.0, SVG Export Plug-In . SVG Version: 6.00 Build 0)  -->
<!DOCTYPE svg PUBLIC "-//W3C//DTD SVG 1.1//EN" "http://www.w3.org/Graphics/SVG/1.1/DTD/svg11.dtd">
<svg version="1.1" id="Layer_1" xmlns="http://www.w3.org/2000/svg" xmlns:xlink="http://www.w3.org/1999/xlink" x="0px" y="0px"
	 width="963px" height="239px" viewBox="0 0 963 239" enable-background="new 0 0 963 239" xml:space="preserve">
<image overflow="visible" width="963" height="239" id="bg" xlink:href="../images/_straps/bg.jpg" >
</image>
<g id="buckle">
	<image display="none" overflow="visible" width="963" height="239" id="BUCKLE-black" xlink:href="../images/_straps/NATO_buckle_black.png" ></image>
	<image overflow="visible" width="963" height="239" id="BUCKLE-silver" xlink:href="../images/_straps/NATO_buckle_Silver.png" ></image>
</g>
<g id="watchFace">
	<image overflow="visible" width="963" height="239" id="FACE-explorerII" xlink:href="../images/_straps/NATO_face_ExplorerII.png" ></image>
	<image display="none" overflow="visible" width="963" height="239" id="FACE-GMTII" xlink:href="../images/_straps/NATO_face_GMTII.png" ></image>
	<image display="none" overflow="visible" width="963" height="239" id="FACE-submariner" xlink:href="../images/_straps/NATO_face_submariner.png" ></image>
</g>
<g id="straps">
	<image overflow="visible" width="963" height="239" id="B28" xlink:href="../images/_straps/NATO_strap_B28.png" ></image>
</g>
<path id="stitching" fill-rule="evenodd" clip-rule="evenodd" fill="#00A5E4" d="M236.397,94.432c1.168,1.78,0.83,3.386,0.967,5.129
	c0.089,1.143,0.791,1.773,0.556,2.717c-0.138,0.475-0.67,1.278-1.074,1.261c-0.628,0.046-0.823-0.293-1.345-0.475
	c-0.481-1.726-0.425-3.248-0.598-4.748c-0.074-0.645-0.612-0.714-0.582-1.212c0.127-0.124,0.255-0.247,0.382-0.37
	c-0.097-0.202-0.193-0.405-0.291-0.606c-0.002-0.499,0.288-1.316,0.256-1.802c-0.067-1.021-0.484-1.566-0.484-2.564
	c0-1.623,1.399-6.714,0.811-8.033c-0.191-0.426-0.396-0.315-0.588-0.836c0.104-0.3,0.209-0.598,0.315-0.898
	c0.221-0.462,0.682-0.71,1.371-1.03c1.292,0.313,1.996,0.218,2.824,2.003c-0.188,0.297-0.378,1.179-0.843,0.962
	c-0.682,3.258,1.558,5.562-1.126,8.929c0.22,0.319,0.143,0.215,0.364,0.759C236.912,93.979,236.98,94.076,236.397,94.432z
	 M266.357,83.425c1.624-0.867,3.091-1.101,3.904,0.365c-0.027,0.076-0.053,0.15-0.08,0.225c-0.25-0.005-0.5-0.009-0.751-0.013
	c0.14,0.758,0.149,3.832-0.076,4.51c-0.099,0.3-0.479,0.499-0.54,0.818c-0.126,0.678,0.153,1.333,0.042,2.031
	c-0.235,1.469-1.082,0.776-0.05,3.007c0.341,0.236,0.26,0.392,0.436,0.91c-0.24,0.347-0.88,0.991-1.001,1.412
	c-0.411,2.206,1.959,4.589-0.402,6.159c-0.451-0.516-1.385-0.987-1.545-2.056c-0.019-0.122,0.197-0.712,0.164-0.824
	c-0.125-0.426-0.4-0.166-0.521-0.309c-0.407-0.483-0.623-1.892-0.562-2.341c0.049-0.368,0.491-0.838,0.546-1.193
	c0.225-1.438-0.649-2.877-0.604-4.372c0.017-0.56,0.411-1.288,0.408-1.873c-0.012-1.692-1.202-3.1-0.823-4.827
	C265.067,84.3,265.921,84.102,266.357,83.425z M234.561,105.38c0.303-0.145,0.607-0.29,0.91-0.436
	c0.451,0.457,0.881,1.421,1.242,2.201c-0.323,1.789,1.271,5.829,0.033,7.069c-0.132,0.227-0.309,0.314-0.686,0.515
	c-0.46-0.258-0.486-0.073-0.891-0.691c-0.513-0.35-1.663-6.375-1.536-7.094C233.725,106.419,234.377,105.89,234.561,105.38z
	 M234.386,115.905c0.202-0.098,0.404-0.195,0.606-0.292c0.3,0.213,0.7,0.498,1.043,0.618c0.172,1.821,1.072,5.002,0.791,6.707
	c-0.088,0.533-0.244,1.544-0.777,1.49c-0.616-0.074-0.787-0.148-1.188-0.921c-0.956-0.562-0.503-1.294-0.642-2.117
	c-0.193-0.403-0.387-0.809-0.581-1.213C233.351,118.458,233.828,117.31,234.386,115.905z M266.614,104.184
	c0.252-0.121,0.505-0.243,0.758-0.364c0.19,0.143,0.316,0.235,0.522,0.31c0.486,1.767,1.544,7.283,0.462,8.355
	c-0.108,0.192-0.1,0.159-0.381,0.369c-0.751-0.465-1.206-0.597-1.776-1.759c0.137-0.753-0.464-1.754-0.484-2.565
	c-0.01-0.393-0.098-2.386-0.028-2.782C265.996,105.226,266.304,104.705,266.614,104.184z M234.29,126.206
	c0.634-0.135,0.707-0.169,1.121,0.394c-0.229,0.681,0.571,1.698,0.708,2.644c0.091,0.623,0.735,3.158,0.532,4.219
	c-0.233,0.423-0.465,0.845-0.698,1.268c-0.327,0.095-0.655,0.189-0.982,0.282c-0.097-0.2-0.194-0.403-0.291-0.605
	c-0.229-0.123-0.714-0.527-0.812-0.913c-0.06-0.238-0.469-5.811-0.428-5.949C233.58,127.081,234.08,126.645,234.29,126.206z
	 M266.906,113.739c0.66,0.077,0.85,0.212,1.261,1.073c-0.417,2.332,2.268,6.723,0.536,8.505c-0.146,0.25-0.426,0.387-0.837,0.589
	c-0.048-0.101-0.097-0.202-0.146-0.303c-0.61-0.242-1.271-1.604-1.387-2.505c-0.235-1.839-1.159-5.439,0.113-6.765
	C266.528,114.17,266.825,113.9,266.906,113.739z M233.515,136.643c0.253-0.121,0.505-0.241,0.758-0.362
	c0.456,0.331,0.73,0.716,1.103,1.522c-0.137,0.533,0.198,4.223,0.295,4.893c0.143,0.428,0.287,0.855,0.429,1.286
	c-0.018,0.665-0.569,1.257-0.782,1.866c-0.203,0.097-0.404,0.193-0.606,0.29c-0.124-0.127-0.247-0.254-0.37-0.381
	c-0.562-0.229-1.049-1.156-1.097-1.899c-0.14-2.218-0.252-4.738-0.112-6.844C233.42,136.807,233.407,136.837,233.515,136.643z
	 M347.606,94.626c-1.847-3.086-3.267-10.786-0.097-12.259c0.914,0.335,2.033,0.27,2.685,1.323c0.273,0.158,0.453,0.545,0.661,0.989
	c-1.295,1.142-0.552,4.515-0.402,6.158c0.116,0.503,0.234,1.007,0.351,1.51c-0.333,0.471-0.668,0.943-1.001,1.413
	c-0.091,0.71,0.358,1.399,0.048,1.654c-0.5,0.356-0.902,0.059-1.207,0.206c-0.213,2.097,2.24,8.278,0.062,9.851
	c-0.213-0.047-0.067-0.034-0.375-0.006c-0.236-0.159-0.483-0.303-0.746-0.389c-1.411-2.761-1.314-4.921-1.385-7.166
	c-0.012-0.402,0.306-1.053,0.25-1.424c-0.066-0.44-0.403-0.293-0.364-0.759c0.146-0.248,0.426-0.386,0.837-0.587
	C347.054,94.915,347.231,94.826,347.606,94.626z M267.235,134.647c-0.387-0.519-0.876-1.348-1.176-1.674
	c-0.012-1.951-0.958-7.187,0.889-8.257c0.208,0.071,0.363,0.073,0.601,0.087c0.83,1.28,1.601,7.886,0.681,8.808
	C268.062,134.045,267.744,134.322,267.235,134.647z M232.287,156.249c0.252-0.121,0.505-0.241,0.758-0.364
	c-0.662-1.377-1.039-6.976-0.396-7.825c0.163-0.408,0.337-0.517,0.916-0.812c0.45,0.464,0.604,0.307,1.036,0.994
	c-0.326,1.718,0.696,2.799,0.677,4.524c-0.006,0.568-0.18,1.627-0.037,2.254c0.148,0.657,0.643,1.091,0.569,1.966
	c-0.285,0.571-0.572,1.144-0.856,1.713c-0.433,0.067-0.722-0.238-0.751-0.012c-0.036,0.671,0.495,1.978,0.55,3.093
	c0.025,0.524-0.03,3.024-0.208,3.455c-0.13,0.317-0.544,0.326-0.612,0.667c-0.27,1.355,0.164,1.819-1.699,2.679
	c-0.29-0.066-0.544-0.016-0.903,0.061c-0.879-0.874-1.901-0.825-2.745-2.228c0.101-0.049,0.203-0.096,0.302-0.145
	c0.646,0.225,1.223,0.149,2.111-0.265c-0.257-1.795-0.303-7.087,0.737-8.186c0.249-0.38,0.808-0.442,0.989-0.659
	c0.052-0.149,0.105-0.302,0.157-0.448C232.489,156.604,232.605,156.677,232.287,156.249z M266.969,146.147
	c-1.054-1.863-2.375-7.549-1.427-9.195c0.152-0.243,1.023-0.731,1.444-0.881c0.223,0.222,0.1,0.135,0.297,0.23
	c0.717,2.454,1.868,5.346,1.451,7.694c-0.311,0.647-0.623,1.294-0.935,1.94C267.523,146.007,267.246,146.078,266.969,146.147z
	 M378.082,84.305c0.304-0.145,0.606-0.291,0.91-0.436c0.583,0.755,0.898,0.752,1.952,0.182c0.023,0.051,0.048,0.102,0.072,0.152
	c0.464,0.188,1.117,0.802,1.485,1.152c-0.957,1.606-0.531,2.883-0.682,4.801c-0.075,0.959-0.548,2.221-0.504,3.226
	c0.192,0.529,0.384,1.059,0.575,1.588c0.074,0.617-0.292,0.973-0.104,1.728c0.345,0.138,0.383,0.194,0.666,0.613
	c-0.532,0.767-1.953,1.873-2.001,2.824c-0.083,0.753,0.297,1.221-0.031,1.88c-0.183,0.411-0.724,0.905-1.067,0.885
	c-0.542,0.066-0.513,0.064-0.897-0.316c-1.567-1.007-0.375-3.75-0.447-4.82c-0.062-0.937-0.272-2.141-1.005-2.875
	c-0.036-0.925,0.264-2.149,0.201-3.079c-0.046-0.706-0.456-0.59-0.581-1.213c-0.264-1.317,0.362-2.769,0.742-3.898
	c0.241-0.714-0.196-1.246,0.408-1.873C377.839,84.667,378.015,84.465,378.082,84.305z M346.425,106.938
	c0.303-0.146,0.606-0.291,0.908-0.436c0.482,0.29,0.689,0.197,1.116,0.771c-0.652,2.176,1.406,5.676,0.324,7.676
	c-0.177,0.368-0.414,0.531-0.917,0.812C344.808,113.897,346.027,109.208,346.425,106.938z M265.38,146.724
	c0.436-0.222,0.826-0.405,1.133-0.359c0.693-0.12,0.864-0.072,1.268,0.699c-0.446,2.606,1.198,7.272-1.951,8.766
	c-0.074-0.026-0.149-0.054-0.224-0.079c-1.282-2.138-0.431-1.505-0.55-3.091c-0.022-0.302-0.915-1.18-0.794-2.045
	C264.411,149.556,265.134,147.847,265.38,146.724z M345.947,117.607c-0.073-0.15-0.146-0.302-0.218-0.454
	c0.575-0.358,0.618-0.413,1.213-0.582c0.393,0.287,0.544,0.392,0.884,1.068c-0.359,1.768,1.329,7.242,0.159,8.499
	c-0.119,0.209-0.199,0.239-0.533,0.443c-0.224-0.079-0.448-0.157-0.673-0.237c-0.595-0.276-1.067-1.251-1.169-2.05
	C345.418,122.786,344.639,118.422,345.947,117.607c0.405,0.278,0.178,0.203,0.751,0.014c-0.048-0.101-0.097-0.202-0.146-0.303
	C346.351,117.415,346.148,117.511,345.947,117.607z M263.405,156.992c0.606-0.291,1.213-0.581,1.819-0.873
	c0.363,0.309,0.98,0.496,1.418,0.626c0.373,0.818,0.337,0.777,0.726,1.516c-0.175,0.304-0.084,0.812-0.243,1.049
	c-0.175,0.258-0.573,0.31-0.685,0.516c-0.223,0.682,0.549,4.848,1.258,5.734c0.268,0.335,0.617,0.571,0.957,1.22
	c-0.494,0.834-0.566,1.362-1.838,2c-0.72-0.388-1.333-0.128-1.939-0.935c-1.278-0.749-2.282-6.413-2.124-7.932
	C262.854,158.955,263.259,157.942,263.405,156.992z M377.836,103.626c1.016-0.081,1.242,0.109,1.782,1.384
	c-0.18,0.604-0.228,4.079-0.154,4.734c0.205,1.827,1.445,3.167-0.596,4.202c-0.647-0.484-0.955-0.469-1.478-1.53
	c0.552-1.839-0.356-4.149-0.573-6.25C376.705,105.083,377.576,104.547,377.836,103.626z M345.171,128.048
	c0.53-0.192,1.061-0.383,1.589-0.576c0.048,0.103,0.097,0.202,0.145,0.304c0.516,0.384,0.309,1.628,0.338,2.261
	c0.096,2.065,1.925,6.619-0.204,7.742c-0.213-0.048-0.067-0.033-0.375-0.007c-0.528-0.46-0.816-0.6-1.254-1.449
	c0.193-1.044-0.489-2.049-0.623-3.243C344.601,131.421,344.774,129.531,345.171,128.048z M346.213,128.666
	c0.025,0.051,0.049,0.103,0.073,0.151c-0.026,0.075-0.053,0.151-0.079,0.226c-0.421,0.037-0.278,0.062-0.6-0.087
	C345.81,128.86,346.011,128.764,346.213,128.666z M377.042,115.192c0.403-0.193,0.808-0.388,1.212-0.582
	c0.456,0.333,0.731,0.716,1.103,1.522c-0.647,2.087,1.419,7.312-0.441,8.415c-0.067,0.137,0.098,0.22-0.23,0.298
	c-0.025-0.051-0.048-0.103-0.073-0.152c-0.468-0.018-0.073,0.113-0.449-0.157c-0.826-0.404-0.993-1.674-1.083-2.651
	C376.893,119.867,376.74,117.104,377.042,115.192z M344.693,138.717c0.454-0.219,0.909-0.435,1.364-0.652
	c0.408,0.332,0.667,0.454,1.037,0.993c-0.538,1.672,0.102,4.079,0.955,5.881c-0.596,1.069-0.147,2.314-1.481,3.134
	c-0.367-0.157-0.392-0.052-0.746-0.389c-1.111-0.666-0.932-2.547-0.999-3.249c-0.071-0.762-0.757-1.097-0.792-2.043
	C343.988,141.254,344.531,139.837,344.693,138.717z M345.96,139.415c-0.002,0.126-0.004,0.25-0.007,0.375
	c-0.102,0.049-0.202,0.098-0.304,0.146c-0.024-0.053-0.048-0.102-0.072-0.152c0.215-0.223,0.134-0.099,0.231-0.296
	C345.858,139.464,345.909,139.438,345.96,139.415z M377.157,126.324c0.328-0.097,0.656-0.19,0.983-0.284
	c0.047,0.1,0.097,0.2,0.145,0.302c0.564,0.337,0.822,1.562,0.866,2.194c0.127,1.825,1.006,5.396-0.338,6.689
	c-0.12,0.205-0.198,0.238-0.533,0.44c-0.374-0.416-0.519-0.402-0.885-1.066c0.037-0.632-0.478-0.801-0.575-1.591
	c-0.059-0.474,0.242-1.021,0.25-1.424c-0.144-0.428-0.287-0.856-0.43-1.284c-0.007-0.229,0.268-0.78,0.244-1.049
	c-0.074-0.776-0.539-1.238-0.345-1.886C376.646,127.01,377.037,126.683,377.157,126.324z M344.452,148.714
	c0.594-0.28,0.945-0.403,1.134-0.356c0.509,0.165,0.675,0.308,1.035,0.994c-0.748,2.514,0.15,5.461,0.015,8.196
	c-0.156,0.324-0.312,0.646-0.467,0.97c0.216,0.581,0.431,1.161,0.647,1.741c0.104,0.999-0.625,2.215-0.729,3.145
	c-0.207,1.848,1.507,4.45,0.204,5.869c-0.132,0.228-0.309,0.314-0.686,0.515c-2.152-0.441-2.087,0.147-3.412-2.838
	c0.396-1.423,0.229-3.008,0.451-4.505c0.262-1.762,1.696-3.665,1.67-5.46c-0.035-2.389-1.767-6.007-0.172-7.748
	C344.21,149.075,344.385,148.874,344.452,148.714z M377.213,136.552c0.703,0.081,1.039,0.272,1.484,1.15
	c-0.439,2.458,2.257,7.904-0.38,9.318c-0.213-0.047-0.067-0.034-0.375-0.006c-0.201-0.203-0.296-0.307-0.515-0.687
	c-0.463-0.418-0.393-1.9-0.484-2.563c-0.244-1.771-1.176-4.111-0.658-5.65C376.476,137.548,377.05,137.131,377.213,136.552z
	 M376.808,147.372c0.328-0.095,0.655-0.19,0.982-0.284c0.235,0.157,0.483,0.303,0.746,0.388c0.574,2.503,0.046,5.115,0.25,7.524
	c0.069,0.816,0.882,0.831,0.8,1.667c-0.059,0.591-0.68,1.271-0.783,1.868c0.034,0.977,0.068,1.954,0.102,2.932
	c-0.158,0.45-0.316,0.899-0.473,1.347c-0.098,0.79,0.589,1.295,0.714,2.268c0.197,1.541-0.317,1.574-0.948,2.69
	c-0.204,0.367,0.042,0.66-0.243,1.05c-0.987,1.753-2.575-0.08-3.133-1.479c0.602-1.241,0.104-1.978-0.017-3.535
	c-0.114-1.476,0.813-5.515,1.689-6.59c0.074,0.026,0.149,0.054,0.224,0.08c-0.281-0.253-0.749-0.515-0.884-1.068
	c-0.244-1.001,0.25-2.11,0.201-3.079c-0.079-1.561-0.578-2.747-0.306-4.141C375.849,148.38,376.517,147.943,376.808,147.372z
	 M617.079,164c1.343-0.312,3.771-0.554,4.964-0.146c-0.05,0.026-0.1,0.05-0.151,0.073c-0.09,1.019-0.597,1.892-0.874,2.845
	c-0.805,0.104-1.691,0.274-2.412,0.411c-0.498-0.31-0.754-0.294-1.189-0.922C617.562,165.632,617.38,164.759,617.079,164z"/>
</svg>
