<?xml version="1.0" encoding="utf-8"?>
<!DOCTYPE svg PUBLIC "-//W3C//DTD SVG 1.1//EN" "http://www.w3.org/Graphics/SVG/1.1/DTD/svg11.dtd">
<svg version="1.1" id="Layer_1" xmlns="http://www.w3.org/2000/svg" xmlns:xlink="http://www.w3.org/1999/xlink" x="0px" y="0px"
	 width="962px" height="239px" viewBox="0 0 962 239" enable-background="new 0 0 962 239" xml:space="preserve">
<image overflow="visible" width="963" height="239" id="bg" xlink:href="../images/_straps/bg.jpg" >
</image>
<g id="buckle">
	<image display="none" overflow="visible" width="962" height="239" id="BUCKLE-black" xlink:href="../images/_straps/PNCUFF_buckle_black.png" >
</image>
	<image overflow="visible" width="962" height="239" id="BUCKLE-silver" xlink:href="../images/_straps/PNCUFF_buckle_steel.png" >
</image>
</g>
<g id="watchFace">
	<image overflow="visible" width="962" height="239" id="FACE-explorerII" xlink:href="../images/_straps/PNCUFF_face_ExplorerII.png" ></image>
	<image display="none" overflow="visible" width="962" height="239" id="FACE-GMTII" xlink:href="../images/_straps/PNCUFF_face_GMTII.png" ></image>
	<image display="none" overflow="visible" width="962" height="239" id="FACE-submariner" xlink:href="../images/_straps/PNCUFF_face_Submariner.png" ></image>

</g>
<g id="straps">
	<image overflow="visible" width="962" height="239" id="B28" xlink:href="../images/_straps/PNCUFF_strap_B28.png" ></image>
</g>
<path id="stitching" fill-rule="evenodd" clip-rule="evenodd" fill="#FFFFFF" d="M396.254,54.183
	c0.411,0.164,0.823,0.329,1.235,0.494c-0.152,0.475-0.003,0.219-0.247,0.495c-0.332,0.782-1.102,0.984-2.223,0.988
	c0-0.083,0-0.165,0-0.248c-0.083,0-0.166,0-0.248,0c0.083-0.247,0.165-0.494,0.248-0.741
	C395.442,54.927,395.94,54.547,396.254,54.183z M325.595,64.065c0.807,0.018,1.315,0.107,1.729,0.494
	c0.233,0.188,0.261,0.307,0.494,0.494c0,0.165,0,0.329,0,0.494c-0.796,0.245-0.701,0.654-1.235,0.988
	c-1.198,0.747-2.602,0.56-3.953,0.494c-0.146-0.397-0.21-0.589-0.248-1.235c0.247-0.276,0.09-0.024,0.248-0.495
	C323.506,65.129,325.008,64.623,325.595,64.065z M318.677,64.806c0.869,0.093,0.982,0.312,1.729,0.494
	c0.139,0.377,0.179,0.411,0.247,0.988c-1.179,0.592-6.375,4.198-6.917,0.742c0.7-0.398,1.449-1.192,2.224-1.482
	C317.052,65.139,317.918,65.455,318.677,64.806z M329.301,64.806c3.498-0.062,6.137,1.75,7.906,3.459
	c-0.152,0.475-0.002,0.218-0.247,0.494c-0.292,0.238-0.407,0.208-0.988,0.247C334.356,67.535,328.09,68.217,329.301,64.806z
	 M551.405,65.054c0.825,0,1.649,0,2.472,0c0.407,0.671,0.658,0.611,0.742,1.729c-0.247,0.276-0.09,0.024-0.247,0.494
	c-2.98,0.289-4.714,1.24-7.412,0.741c-0.154-0.315-0.254-0.519-0.493-0.741c0.149-0.474,0.002-0.218,0.246-0.494
	c0.219-0.698,0.055-0.512,0.74-0.741C548.379,65.316,550.467,65.791,551.405,65.054z M309.783,66.042
	c1.158,0.187,1.486,0.313,1.482,1.729c-2.201,1.058-3.814,2.428-7.165,2.471c-0.156-0.425-0.229-0.775-0.247-1.482
	c0.443-0.25,0.79-0.8,1.235-0.989c0.809-0.342,1.313-0.102,1.976-0.494c0.083-0.164,0.165-0.329,0.247-0.494
	C308.126,66.363,309.141,66.587,309.783,66.042z M537.325,70.489c-0.028-0.743-0.208-0.688,0-0.988
	c1.104-1.808,3.965-3.069,6.67-3.212c0.202,0.553,0.253,1.343,0.247,2.224C541.432,69.272,540.912,70.824,537.325,70.489z
	 M558.819,66.289c1.098,0.358,3.058,0.502,5.188,0.495c0.365,0.609,0.599,0.55,0.741,1.482c-0.165,0.083-0.329,0.165-0.494,0.248
	c-1.348,1.231-5.957,0.361-7.412,0c-0.171-0.665-0.31-0.575-0.493-1.236c0.083,0,0.165,0,0.247,0
	C557.105,65.878,557.851,66.987,558.819,66.289z M568.701,66.783c1.895,0.165,3.788,0.33,5.682,0.494c0,0.577,0,1.153,0,1.729
	c-0.082,0-0.164,0-0.247,0c0,0.083,0,0.165,0,0.247c-2.302,0.222-5.041,0.317-7.164,0.247c-0.46-0.678-0.692-0.492-0.742-1.73
	c0.084,0,0.166,0,0.249,0c0-0.082,0-0.164,0-0.246C567.292,67.464,568.234,67.222,568.701,66.783z M301.63,69.5
	c-2.631,0.279-4.628,1.494-7.411,0.988c-0.146-0.396-0.209-0.588-0.247-1.235c1.799-0.811,3.916-1.565,6.423-1.729
	c0.417,0.442,0.717,0.332,0.989,0.988C301.622,68.805,301.59,68.919,301.63,69.5z M289.524,68.265
	c0.622,0.006,0.927-0.004,1.235,0.248c0.801,0.19,1.082,0.351,1.235,1.234c0.083,0,0.166,0,0.248,0c0,0.083,0,0.165,0,0.248
	c-2.686,0.587-4.059,1.925-7.412,1.976c-0.275-0.515-0.379-0.443-0.494-1.235c0.247-0.276,0.09-0.024,0.248-0.495
	c1.043-0.262,2.01-1.115,2.965-1.482C288.334,68.457,288.982,68.73,289.524,68.265z M577.349,68.513
	c2.908-0.102,6.558-0.575,6.917,1.976c-0.246,0.276-0.089,0.024-0.246,0.494c-2.554,0-5.107,0-7.66,0
	c-0.311-0.47-0.506-0.393-0.74-0.988c0.443-0.417,0.332-0.718,0.987-0.989C576.81,68.81,577.146,68.71,577.349,68.513z
	 M533.124,68.759c0.495,0.083,0.989,0.165,1.483,0.247c0.138,0.377,0.178,0.411,0.246,0.989c-1.918,1.155-4.226,3.196-6.916,2.717
	c-0.146-0.396-0.21-0.589-0.247-1.235c0.493-0.412,0.986-0.823,1.481-1.236c0.329,0,0.659,0,0.987,0
	C530.795,70.013,532.653,69.197,533.124,68.759z M340.172,69.253c1.689,0.021,2.335,0.668,3.705,0.988
	c0.146,0.397,0.21,0.589,0.248,1.236c-0.475,0.152-0.219,0.002-0.494,0.248c-1.224-0.208-2.772-0.1-4.2-0.248
	c-0.204-0.767-0.413-0.72-0.494-1.73C339.255,69.631,339.925,69.468,340.172,69.253z M586.735,69.5
	c2.306,0.139,5.59-0.201,5.93,2.224c-0.246,0.275-0.088,0.024-0.248,0.494c-0.55,0.203-1.342,0.254-2.222,0.247
	c-0.621-0.479-3.389-0.492-4.201-0.494c-0.365-0.609-0.597-0.551-0.74-1.482C585.71,70.247,586.391,69.879,586.735,69.5z
	 M279.396,69.995c0.741,0,1.482,0,2.223,0c0.241,0.356,0.479,0.431,0.741,0.741c-0.229,0.277-0.163,0.208-0.247,0.741
	c-2.403,0.656-4.194,2.571-7.165,2.718c-0.083-0.248-0.165-0.494-0.247-0.742c-0.401-0.515-0.132-0.845,0-1.482
	c0.463-0.243,1.017-0.812,1.482-0.988c0.412,0,0.823,0,1.235,0C277.811,70.838,279.05,70.311,279.396,69.995z M270.501,70.489
	c0.494,0.083,0.988,0.165,1.482,0.248c0.354,0.662,0.635,1.228,0.741,2.223c-2.22,0.481-3.75,1.606-6.424,1.729
	c-0.428-0.751-0.705-0.947-0.742-2.224c0.347-0.18,0.671-0.599,0.989-0.741C267.894,71.124,269.521,71.398,270.501,70.489z
	 M261.36,70.983c1.497,0.222,2.125,0.354,3.458,0.988c-0.095,0.511-0.207,0.927-0.494,1.236c-1.062,0.881-5.761,1.47-7.165,1.234
	c0-0.164,0-0.329,0-0.494c-0.296-0.362-0.262-1.024-0.248-1.729c0.165,0,0.33,0,0.494,0
	C258.351,71.427,260.411,71.775,261.36,70.983z M597.36,70.983c1.796-0.016,3.007-0.081,4.694,0.247c0,0.165,0,0.329,0,0.495
	c0.354,0.489,0.12,0.583,0,1.235c-1.559,0.739-4.268,0.919-6.424,0.494c-0.204-0.767-0.413-0.72-0.495-1.729
	c0.248-0.083,0.495-0.166,0.741-0.248C596.191,71.238,597.048,71.229,597.36,70.983z M255.431,73.207
	c-1.121,0.13-1.29,0.627-1.977,0.988c-0.715,0.375-1.239,0.158-1.977,0.494c-1.297,0.591-1.783,1.188-3.953,1.235
	c-0.337-0.624-0.485-0.867-0.494-1.977c1.995-1.082,4.8-2.387,7.412-2.717C255.077,71.931,255.396,71.774,255.431,73.207z
	 M605.76,71.477c1.729,0,3.458,0,5.188,0c0.17,0.463,0.242,0.966,0.247,1.73c-0.246,0.275-0.089,0.023-0.247,0.494
	c-0.165,0-0.33,0-0.495,0c-0.597,0.534-5.164,0.896-5.929,0.494c-0.605-0.318-1.11-0.838-1.235-1.729
	c0.165-0.083,0.329-0.165,0.495-0.247C604.256,71.815,605.264,71.874,605.76,71.477z M346.842,71.971
	c0.823,0.083,1.647,0.165,2.47,0.247c0.152,0.474,0.003,0.218,0.247,0.494c-0.152,0.476-0.002,0.219-0.247,0.495
	c-0.082,0.246-0.165,0.494-0.247,0.74c-0.659,0.083-1.318,0.165-1.977,0.248c-0.438-0.721-0.7-0.713-0.741-1.977
	C346.823,72.066,346.566,72.216,346.842,71.971z M615.395,72.218c1.266-0.019,2.529,0.063,3.459,0.247
	c0.154,0.316,0.254,0.519,0.494,0.742c-0.095,0.51-0.208,0.926-0.494,1.234c-1.265,1.091-4.607,0.332-5.93,0
	c-0.145-0.396-0.21-0.589-0.247-1.234c0.593-0.32,0.701-0.464,1.731-0.495C614.638,72.517,615.165,72.418,615.395,72.218z
	 M625.03,72.712c0.767,0.249,1.694,0.026,2.965,0c0.276,0.515,0.38,0.444,0.494,1.235c-0.214,0.256-0.367,0.912-0.494,1.235
	c-1.453,0.064-4.583,1.139-5.683,0.494c-0.897-0.232-1.352-0.705-1.481-1.729c0.691-0.373,1.227-0.507,2.47-0.494
	C623.725,73.04,624.561,73.089,625.03,72.712z M243.077,73.701c0.659,0,1.318,0,1.977,0c0.196,0.355,0.444,0.728,0.741,0.988
	c-0.083,0.247-0.165,0.494-0.247,0.741c-1.91,0.921-3.347,2.843-5.93,2.965c-0.407-0.671-0.658-0.61-0.741-1.729
	c0.407-0.271,0.4-0.732,0.741-0.989c0.33-0.082,0.659-0.165,0.988-0.247C241.374,75.011,242.502,74.353,243.077,73.701z
	 M630.959,74.441c1.589,0.143,3.808,1.328,4.201,2.718c0.238,0.292,0.208,0.407,0.246,0.988c-0.246,0.083-0.492,0.165-0.74,0.247
	c-0.336,0.273-0.818,0.251-1.483,0.247c-0.927-1.382-2.797-1.536-2.964-3.706C630.813,74.76,630.652,74.852,630.959,74.441z
	 M236.901,79.136c0.247,0,0.495,0,0.741,0c0.374,0.692,0.507,1.227,0.495,2.47c-0.819,0.808-0.972,2.073-1.977,2.717
	c0,0.083,0,0.166,0,0.248c-0.083,0-0.165,0-0.248,0c0-1.4,0-2.8,0-4.2c0.328-0.312,0.36-0.442,0.495-0.989
	C236.881,79.231,236.625,79.38,236.901,79.136z M635.406,80.372c0.027,0.01,1.156,0.169,1.236,0.247c0,0.165,0,0.33,0,0.494
	c0.31,0.392,0.702,2.286,0.74,2.966c-0.396,0.145-0.588,0.208-1.235,0.246c-0.275-0.246-0.023-0.089-0.494-0.246
	c-0.583-1.021-0.983-1.456-0.987-3.212C634.981,80.712,635.186,80.611,635.406,80.372z M536.09,87.536
	c2.212-0.041,3.579,0.379,5.187,0.741c0.333,1.078,1.024,0.97,1.235,2.224c-0.245,0.276-0.088,0.025-0.245,0.494
	c-1.812,0-3.624,0-5.437,0c0-0.083,0-0.165,0-0.247c-0.082,0-0.164,0-0.247,0c-0.006-0.622,0.004-0.926-0.247-1.235
	c-0.292-0.238-0.406-0.208-0.988-0.247c-0.344,0.466-0.232,0.382-0.988,0.494c0-0.165,0-0.33,0-0.494
	c0.229-0.232,0.247-0.785,0.494-0.989C535.366,87.856,535.611,88.204,536.09,87.536z M342.642,90.253
	c-2.27,0.225-3.699,1.359-6.176,1.482c-2.137-2.581-1.815-0.871-3.706-0.247c-1.261,0.417-1.493-0.579-2.471-0.494
	c-1.587,0.137-3.318,0.533-4.941,0.248c0-0.413,0-0.824,0-1.236c0.247-0.276,0.09-0.024,0.248-0.494c0.165,0,0.329,0,0.494,0
	c0.591-0.501,5.678-1.411,7.165-0.989c0.264,0.075,0.761,0.607,1.235,0.494c0.293-0.07,2.016-1.102,2.471-1.235
	c1.759-0.515,5.221,0.047,5.682,0.988C342.642,89.266,342.642,89.76,342.642,90.253z M546.219,88.277
	c1.184,0.384,3.571,0.006,4.446,0.741c0.233,0.188,0.261,0.307,0.494,0.495c-0.151,0.474-0.003,0.218-0.247,0.494
	c-1.018,1.411-3.609,0.328-4.939,0.741c0.068,0.119,0.74,0.741,0.74,0.741c-0.165,0-0.329,0-0.494,0
	c-0.312,0.254-0.612,0.235-1.236,0.247c-0.796-0.786-1.754-0.527-1.976-1.976c0.571-0.384,0.352-0.568,1.235-0.742
	C544.73,88.632,545.74,88.676,546.219,88.277z M558.572,89.266c0,0.247,0,0.494,0,0.741c-2.464,0.115-2.608,1.506-5.436,0.988
	c0-0.247,0-0.494,0-0.741c0.245-0.276,0.09-0.024,0.245-0.494c0.77-0.205,0.722-0.414,1.731-0.494
	C555.75,88.758,557.642,89.19,558.572,89.266z M320.407,89.266c0.824,0,1.647,0,2.47,0c0.146,0.396,0.21,0.588,0.248,1.235
	c-1.094,0.269-1.213,0.702-2.718,0.742c-0.539,0.435-1.095,0.137-1.729,0c0-0.413,0-0.824,0-1.236
	C319.173,89.89,320.048,89.583,320.407,89.266z M314.477,90.253c0.494,0,0.989,0,1.483,0c0.145,0.397,0.209,0.588,0.247,1.235
	c-0.657,0.355-1.044,0.499-2.224,0.494c-0.236-0.44-0.327-0.4-0.494-0.988C313.844,90.798,314.217,90.551,314.477,90.253z
	 M600.571,90.748c1.618,0.5,4.079-0.387,4.694,1.483c0.892,0.938-1.6,1.063-2.717,0.987c-0.613-0.495-1.488,0.092-1.978,0
	c-0.071-0.013-0.564-0.245-0.987-0.247c-0.301-0.558-0.428-0.553-0.494-1.482c0.246-0.083,0.494-0.164,0.741-0.247
	C600.034,91.045,600.369,90.946,600.571,90.748z M610.701,90.995c0.905,0.083,1.812,0.165,2.717,0.248
	c0.434,0.694,0.825,0.683,0.99,1.729c-0.248,0.276-0.092,0.024-0.248,0.494c-0.33,0-0.659,0-0.989,0
	c-0.884,0.735-4.831,0.315-5.435-0.247c-0.229-0.277-0.162-0.208-0.247-0.741c0.769-0.484,0.712-0.89,1.977-0.988
	C609.735,91.276,610.435,91.213,610.701,90.995z M627.006,91.242c1.783-0.021,2.841,0.432,4.2,0.74c0,0.412,0,0.824,0,1.235
	c-0.944,0.343-2.627,0.262-3.952,0.247c-0.648,0.567-1.432,0.4-2.224,0.248c0-0.412,0-0.825,0-1.236
	c0.242-0.224,0.335-0.428,0.493-0.741C626.201,91.683,626.64,91.584,627.006,91.242z M619.101,91.489c1.318,0,2.636,0,3.954,0
	c0.275,0.514,0.379,0.444,0.492,1.235c-0.844,0.513-1.15,0.758-2.716,0.741c-0.373,0.292-3.306,0.519-4.694,0.248
	c0-0.248,0-0.495,0-0.742c0.245-0.276,0.088-0.024,0.246-0.494c0.337-0.15,0.864-0.686,0.988-0.741
	C618.01,91.457,618.659,91.838,619.101,91.489z M260.125,93.959c0.083-0.494,0.165-0.988,0.248-1.482
	c0.246-0.083,0.494-0.165,0.74-0.247c0.752-0.69,4.009-0.493,5.188-0.248c0.275,0.515,0.379,0.444,0.494,1.235
	c-0.425,0.157-0.776,0.229-1.482,0.247C265.121,93.602,261.911,93.977,260.125,93.959z M637.383,91.736
	c1.75-0.084,3.1,0.114,3.213,1.729c-0.769,0.413-1.603,0.515-2.965,0.494c-0.741,0.604-2.907,0.174-3.707,0c0-0.329,0-0.658,0-0.988
	C634.426,92.757,637.095,91.971,637.383,91.736z M271.242,91.982c0.495,0,0.989,0,1.483,0c0.169,0.463,0.242,0.967,0.247,1.73
	c-0.247,0.082-0.494,0.164-0.741,0.246c-0.392,0.318-1.229,0.267-1.977,0.248c-0.275-0.514-0.379-0.444-0.495-1.235
	C270.31,92.723,270.867,92.412,271.242,91.982z M245.054,92.23c0.983-0.024,2.175,0.038,2.718,0.494
	c0.74,0.204,0.773,0.258,0.988,0.989c-0.082,0-0.165,0-0.247,0c-0.785,0.774-4.747,1.327-6.176,1.482
	c-0.418-0.443-0.718-0.333-0.989-0.988c0.083,0,0.165,0,0.247,0C242.137,92.515,243.898,93.223,245.054,92.23z M254.689,92.23
	c1.07,0.164,2.142,0.329,3.211,0.494c0.208,0.314,0.185,0.283,0.494,0.494c0,0.083,0,0.166,0,0.247c-0.082,0-0.165,0-0.247,0
	c-0.308,0.494-0.34,0.549-0.988,0.742c-0.884,0.828-5.126,0.982-5.93,0.247c-0.238-0.292-0.208-0.406-0.247-0.988
	c0.622-0.21,0.369-0.277,0.988-0.494C252.614,92.485,254.048,92.731,254.689,92.23z M235.171,92.477
	c1.593-0.026,2.535,0.244,3.706,0.494c0,0.412,0,0.823,0,1.235c-0.274,0.216-0.029-0.025-0.247,0.247
	c-2.422,0.075-4.87,0.856-6.917,0.494c-0.146-0.396-0.209-0.589-0.247-1.234c0.375-0.222,0.675-0.844,0.988-0.989
	C233.306,92.327,234.535,92.962,235.171,92.477z M664.065,92.477c1.236,0.082,2.471,0.165,3.707,0.247
	c0.515,0.764,0.618,0.197,0.74,1.482c-0.165,0.083-0.329,0.165-0.494,0.247c-0.673,0.6-5.018,0.47-6.423,0.494
	c-0.153-0.475-0.003-0.217-0.248-0.494c0.152-0.475,0.003-0.218,0.248-0.494c0.082-0.246,0.165-0.494,0.247-0.741
	C662.582,93.155,663.607,92.882,664.065,92.477z M670.49,95.442c0-0.495,0-0.989,0-1.483c1.645-0.429,6.653-3.192,6.917,0.248
	C675.472,95.252,673.128,95.719,670.49,95.442z M682.842,92.477c0.906,0,1.812,0,2.718,0c0.319,0.592,0.464,0.7,0.495,1.729
	c-0.592,0.319-0.701,0.463-1.73,0.494c-0.19-0.102-3.244,0.466-4.693,0.494c-0.237-0.441-0.329-0.4-0.495-0.988
	c0.525-0.518-0.057-0.388,0.742-0.742C680.594,92.853,682.076,93.077,682.842,92.477z M690.006,92.477
	c1.647,0.082,3.296,0.165,4.941,0.247c0.408,0.672,0.658,0.61,0.742,1.729c-1.438,0.517-4.07,0.263-5.93,0.248
	c-0.312,0.254-0.612,0.235-1.234,0.247c-0.146-0.396-0.21-0.589-0.247-1.234C688.854,93.301,689.431,92.888,690.006,92.477z
	 M224.054,92.724c2.111-0.033,3.904,0.171,5.435,0.494c0,0.413,0,0.824,0,1.235c-0.274,0.217-0.028-0.025-0.247,0.248
	c-2.993,0.026-5.286,0.71-8.4,0.742c-0.146-0.398-0.21-0.589-0.248-1.236c0.769-0.484,0.712-0.891,1.977-0.989
	C222.886,92.978,223.742,92.97,224.054,92.724z M642.818,94.947c0-0.412,0-0.823,0-1.234c0.247-0.083,0.493-0.166,0.742-0.248
	c1.176-1.054,4.227-0.769,6.424-0.741c0.336,0.623,0.484,0.867,0.493,1.977c-0.166,0-0.331,0-0.493,0
	C648.948,95.505,644.226,95.114,642.818,94.947z M656.16,92.724c0.988,0,1.976,0,2.965,0c0,0.083,0,0.164,0,0.247
	c0.082,0,0.164,0,0.247,0c0.049,0.968,0.098,0.652,0,1.482c-2.087,0.416-5.18,1.096-7.166,0.742c0-0.248,0-0.494,0-0.742
	c0.247-0.275,0.091-0.024,0.247-0.494C653.07,93.697,655.789,93.038,656.16,92.724z M702.855,92.971
	c0.98,0.017,2.179,0.238,2.717,0.742c0.232,0.186,0.26,0.306,0.493,0.494c-0.083,0.247-0.165,0.494-0.248,0.741
	c-0.49,0.109-0.707,0.407-0.986,0.495c-0.503,0.156-1.129-0.232-1.236-0.248c-0.336-0.046-2.091,0.08-2.717,0.248
	c-0.864,0.229-1.684,0.477-2.965,0.494c-0.156-0.426-0.229-0.777-0.248-1.483c0.52-0.309,0.552-0.537,1.235-0.74
	C699.745,92.995,701.934,93.665,702.855,92.971z M215.654,93.218c1.615-0.029,2.628,0.232,3.706,0.495c0,0.329,0,0.658,0,0.988
	c-0.559,0.3-0.553,0.428-1.483,0.494c-0.733,0.583-4.404,0.76-6.176,0.741c-0.153-0.316-0.253-0.519-0.494-0.741
	c0-0.165,0-0.329,0-0.494c0.494-0.412,0.988-0.824,1.482-1.236C213.61,93.498,215.136,93.632,215.654,93.218z M712.983,93.465
	c1.132-0.017,2.148,0.085,2.964,0.248c0.157,0.425,0.23,0.775,0.248,1.482c-0.083,0-0.166,0-0.248,0c0,0.082,0,0.165,0,0.248
	c-2.854,0.038-5.375,1.181-7.906,0.74c-0.138-0.377-0.179-0.41-0.246-0.988c0.308-0.263,0.386-0.5,0.741-0.742
	C709.571,93.576,712.018,94.2,712.983,93.465z M204.783,93.713c0.62,0.163,1.645-0.354,2.718,0c0.284,0.093,0.498,0.378,0.989,0.494
	c0.138,0.377,0.178,0.41,0.247,0.988c-1.425,0.795-5.961,1.544-7.659,1.235c-0.146-0.397-0.21-0.589-0.248-1.235
	c0.488-0.274,0.92-0.797,1.483-0.988C203.244,93.89,204.138,94.235,204.783,93.713z M741.395,93.959
	c0.496,0.083,0.989,0.165,1.482,0.248c0.191,0.728,0.366,0.621,0.494,1.482c-0.729,0.393-1.413,0.512-2.719,0.494
	c-0.601,0.477-2.813,0.745-3.951,0.742c-0.276-0.515-0.379-0.444-0.494-1.236c0.45-0.378,0.29-0.515,0.987-0.741
	C738.203,94.089,740.464,94.668,741.395,93.959z M195.395,94.207c1.481-0.025,2.216,0.25,3.211,0.494
	c0.14,0.377,0.179,0.41,0.248,0.988c-0.247,0.277-0.09,0.025-0.248,0.494c-0.493,0-0.988,0-1.482,0
	c-0.333,0.252-5.087,0.984-5.93,0.989c-0.156-0.426-0.229-0.776-0.247-1.483c0.596-0.351,1.018-1.01,1.729-1.235
	C193.606,94.161,194.76,94.692,195.395,94.207z M718.419,96.43c0-0.329,0-0.659,0-0.988c1.823-1.03,4.686-1.516,7.411-0.989
	c0.146,0.397,0.211,0.589,0.246,1.235c-0.622,0.337-0.866,0.485-1.975,0.494c-0.116,0.09-3.395,0.748-3.46,0.742
	C720.068,96.87,719.262,96.492,718.419,96.43z M730.771,94.207c1.265-0.019,2.529,0.062,3.459,0.247
	c0.14,0.377,0.179,0.411,0.246,0.989c-0.391,0.283-0.178,0.284-0.74,0.494c-0.737,0.648-1.539,0.149-2.719,0.494
	c-0.16,0.047-1.352,0.729-1.48,0.741c-0.207,0.019-0.734-0.229-1.236-0.247c-0.274-0.515-0.379-0.444-0.494-1.236
	c0.316-0.176,0.5-0.616,0.74-0.741C729.376,94.521,730.095,94.832,730.771,94.207z M750.783,94.207
	c0.612,0.29,0.946,0.662,1.483,0.988c0,0.165,0,0.329,0,0.494c-0.248,0.165-0.495,0.33-0.741,0.494
	c-0.979,0.885-4.943,0.794-6.425,0.495c0-0.247,0-0.495,0-0.741c0.995-0.572,1.614-1.12,2.966-1.483
	C749.006,94.201,750.158,94.687,750.783,94.207z M175.137,94.453c1.727,0.112,2.101,0.156,3.706,0.494
	c0.275,0.515,0.379,0.444,0.494,1.235c-0.274,0.217-0.028-0.025-0.247,0.248c-1.729,0.165-3.458,0.329-5.188,0.494
	c-1.794,0.55-2.344,1.547-4.447,0.741c0.139-0.376,0.178-0.41,0.247-0.988c0.6-0.371,0.704-0.751,1.482-0.989
	C172.159,94.845,174.215,95.174,175.137,94.453z M183.536,94.701c1.96-0.032,3.569,0.19,4.941,0.494c0,0.248,0,0.494,0,0.741
	c-0.765,0.465-0.843,0.729-2.224,0.741c-0.401,0.318-0.84,0.047-1.481,0.247c-1.632,0.509-1.073,0.635-3.212,0.494
	c-0.309-0.519-0.537-0.551-0.742-1.235c0.47-0.312,0.394-0.507,0.988-0.74C182.229,95.027,183.066,95.077,183.536,94.701z
	 M709.277,94.947c-0.469-0.157-0.218,0-0.493-0.247C709.254,94.859,709.001,94.701,709.277,94.947z M753.995,97.171
	c0-0.33,0-0.659,0-0.989c1.947-1.077,4.269-1.479,7.411-1.482c0.153,0.316,0.254,0.519,0.494,0.742
	c-0.151,0.474-0.002,0.218-0.247,0.494c-0.082,0.247-0.164,0.494-0.247,0.741C758.807,96.82,756.593,97.43,753.995,97.171z
	 M769.559,94.947c0.985,0.327,1.406,0.136,1.482,1.483c-2.166,1.222-4.548,1.526-7.164,0.988c0-0.33,0-0.659,0-0.988
	c0.936-0.493,2.026-0.918,3.212-1.235C767.972,94.959,768.98,95.395,769.559,94.947z M779.936,96.924
	c-1.82,0.215-5.362,1.867-6.917,0.494c-0.081,0-0.164,0-0.246,0c0-0.082,0-0.164,0-0.247c1.807-1.266,2.876-1.281,4.94-1.977
	c0.693-0.233,1.879-0.368,2.223,0.248C779.936,95.936,779.936,96.43,779.936,96.924z M782.159,97.665c0-0.329,0-0.659,0-0.988
	c1.363-0.649,5.651-2.192,6.919-1.235c0.247,0.164,0.493,0.329,0.741,0.494c-0.152,0.475-0.003,0.218-0.248,0.494
	c-0.219,0.697-0.056,0.512-0.741,0.741C787.568,98.171,783.714,97.844,782.159,97.665z M165.007,95.442c0.823,0,1.647,0,2.47,0
	c0.407,0.671,0.657,0.61,0.742,1.729c-0.808,0.433-1.792,0.516-3.212,0.494c-0.768,0.614-2.616,0.518-3.953,0.494
	c-0.083-0.247-0.165-0.494-0.248-0.741c0.576-0.614,0.402-1.037,1.482-1.235C162.915,95.689,164.359,95.942,165.007,95.442z
	 M794.512,95.936c1.013-0.034,2.873-0.219,3.46,0.247c0.874,0.235,0.941,0.412,0.988,1.482c-0.166,0-0.331,0-0.494,0
	c-0.999,1.011-5.024,0.528-6.919,0.494c-0.137-0.377-0.176-0.41-0.246-0.988c0.241-0.224,0.334-0.427,0.493-0.741
	C792.434,96.388,794.071,96.291,794.512,95.936z M807.607,96.183c0.701,0.322,0.848,0.284,0.986,1.235
	c-0.448,0.379-0.289,0.516-0.986,0.741c-0.814,0.656-6.053,0.775-6.671,0.248c-0.229-0.278-0.163-0.209-0.248-0.742
	c0.425-0.245,0.923-0.624,1.236-0.988C803.271,96.667,806.999,96.675,807.607,96.183z M825.148,96.183c0.575,0,1.153,0,1.729,0
	c0.234,0.383,0.363,0.503,0.74,0.742c-0.081,0.247-0.163,0.494-0.246,0.741c-1.822,0.638-4.071,1.632-6.424,1.729
	c-0.366-0.609-0.598-0.55-0.739-1.482c0.245-0.277,0.088-0.025,0.245-0.495C821.241,97.359,824.684,96.571,825.148,96.183z
	 M816.748,96.43c0.823,0.012,1.119,0.125,1.729,0.247c0.146,0.397,0.211,0.589,0.248,1.235c-0.951,0.464-1.358,0.746-2.965,0.741
	c-1.072,0.859-3.497,0.5-4.694,0.247c-0.14-0.376-0.18-0.41-0.248-0.988c0.936-0.494,2.027-0.921,3.214-1.235
	C815.399,96.314,815.792,97.199,816.748,96.43z M829.842,98.653c0.083-0.412,0.164-0.823,0.248-1.235
	c1.632-0.399,5.905-1.74,7.41-0.494c0.239,0.292,0.208,0.407,0.247,0.988c-0.392,0.283-0.179,0.285-0.74,0.494
	c-0.714,0.556-1.547-0.143-2.224,0C833.221,98.735,831.548,98.857,829.842,98.653z M155.125,96.677
	c1.071,0.082,2.141,0.165,3.212,0.247c0.139,0.377,0.178,0.41,0.247,0.988c-0.469,0.312-0.393,0.508-0.988,0.741
	c-0.573,0.436-5.103,0.995-6.424,0.989c0-0.165,0-0.33,0-0.495c-0.229-0.277-0.162-0.209-0.247-0.741
	c0.827-0.577,0.809-1.132,2.224-1.235C153.562,96.864,154.714,96.991,155.125,96.677z M842.938,97.171c0.986,0,1.976,0,2.963,0
	c0.235,0.382,0.363,0.501,0.742,0.741c-0.153,0.475-0.003,0.218-0.247,0.494c-0.467,1.313-5.892,1.202-6.918,0.988
	c-0.14-0.377-0.179-0.41-0.247-0.988c0.451-0.241,1.024-0.828,1.483-0.989C841.511,97.139,842.394,97.591,842.938,97.171z
	 M147.466,97.418c0.951,0.155,1.332,0.192,1.482,1.235c-0.247,0.276-0.09,0.024-0.247,0.494c-0.426,0.156-0.776,0.229-1.482,0.247
	c-0.362,0.295-1.024,0.261-1.729,0.248c0-0.165,0-0.33,0-0.495C144.391,97.57,146.773,97.885,147.466,97.418z M848.866,99.642
	c0-0.33,0-0.659,0-0.989c0.164-0.082,0.329-0.164,0.493-0.247c1.186-1.068,5.46-1.128,7.411-0.742c0.14,0.377,0.18,0.41,0.248,0.988
	c-0.302,0.181-0.504,0.614-0.741,0.741c-0.518,0.277-5.403,0.991-6.177,0.741C849.711,100.011,849.572,99.735,848.866,99.642z
	 M863.689,97.418c1.187-0.025,2.835,0.15,3.212,0.989c0.213,0.382,0.042,0.034,0,0.741c-1.038,0.218-5.188,1.43-6.177,1.236
	c-0.263-0.051-1.05-0.409-1.482-0.495c-0.139-0.377-0.18-0.41-0.246-0.988c0.522-0.278,1.143-0.776,1.729-0.988
	C862.023,97.443,862.769,98.173,863.689,97.418z M117.572,97.665c1.07,0,2.141,0,3.212,0c0.535,0.735,1.048,0.545,1.235,1.729
	c-0.806,0.49-0.992,0.747-2.471,0.741c-0.882,0.695-2.983,0.752-4.447,0.741c-0.217-0.274,0.025-0.028-0.247-0.248
	c-0.082-0.411-0.164-0.823-0.247-1.235c0.423-0.248,0.63-0.777,0.988-0.988C116.261,98.013,117.026,98.137,117.572,97.665z
	 M874.065,97.665c0.823,0,1.647,0,2.47,0c0.192,0.728,0.367,0.622,0.495,1.482c-1.205,0.676-6.148,2.33-7.658,0.988
	c-0.238-0.292-0.207-0.407-0.247-0.988c0.77-0.194,1.279-0.759,1.977-0.988C872.07,97.841,873.366,98.223,874.065,97.665z
	 M111.889,99.889c-0.494,0-0.988,0-1.482,0c-0.156-0.426-0.229-0.776-0.247-1.482c0.165,0,0.33,0,0.494,0
	c0.278-0.229,0.208-0.163,0.741-0.248C111.714,98.751,111.858,98.859,111.889,99.889z M124.242,98.407
	c1.086,0.281,1.27,0.811,1.235,2.223c-0.513,0.276-0.443,0.38-1.235,0.495c-0.276-0.247-0.025-0.089-0.494-0.247
	c-0.154-0.316-0.254-0.519-0.494-0.741c0.151-0.474,0.002-0.218,0.246-0.494C123.679,98.894,123.878,98.88,124.242,98.407z
	 M879.501,100.383c0-0.412,0-0.824,0-1.236c2.356-0.306,8.136-0.646,8.894,1.236c0.119,0.101,0.4-0.067,0.247,0.246
	c-0.082,0-0.165,0-0.247,0c-0.44,0.716-0.776,0.76-1.977,0.742c-0.969-0.725-3.095,0.144-4.445-0.247
	C881.259,100.918,880.493,100.489,879.501,100.383z M890.618,101.865c0.077-0.535,0.021-0.465,0.248-0.741
	c1.174-0.959,5.466-0.799,5.683-0.741c0.335,0.091-0.102-0.282,0.246-0.248c0.242-0.252,0.247,0.248,0.247,0.248
	c0.247,0.165,0.494,0.329,0.741,0.494c0,0.083,0,0.165,0,0.247c-0.082,0-0.165,0-0.247,0c-0.165,0.33-0.329,0.659-0.494,0.989
	c-1.437,0.058-2.775,1.056-4.447,0.494C891.916,102.378,891.732,101.951,890.618,101.865z M902.724,100.383
	c1.593-0.058,4.524,0.466,4.94,1.482c0.12,0.102,0.401-0.067,0.249,0.248c-0.083,0-0.166,0-0.249,0
	c-0.608,0.963-2.116,0.797-3.705,0.741c-0.448-0.345-2.138-0.392-2.718-0.495c-0.152-0.315-0.253-0.518-0.493-0.741
	c0-0.165,0-0.33,0-0.494C901.131,100.936,902.343,100.69,902.724,100.383z M910.879,102.113c2.671-0.028,4.549,0.776,6.176,1.729
	c0,0.083,0,0.166,0,0.248c-0.082,0-0.165,0-0.247,0c-0.644,0.834-3.254,0.537-4.694,0.495c-0.558-0.454-1.46-0.504-1.978-0.989
	c-0.238-0.292-0.208-0.406-0.247-0.988c0.083,0,0.165,0,0.247,0c0-0.083,0-0.166,0-0.248
	C910.672,102.282,910.602,102.339,910.879,102.113z M919.771,105.324c1.308,0.037,6.352,1.945,6.672,2.718
	c0.229,0.278,0.162,0.209,0.247,0.742c-0.505,0.185-1.154,0.249-1.978,0.247c-0.935-0.69-5.973-1.539-5.435-3.211
	C919.293,105.77,919.688,105.483,919.771,105.324z M928.666,110.512c2.708,0.005,4.93,1.183,6.424,2.471
	c-0.152,0.475-0.003,0.218-0.247,0.494c-0.312,0.254-0.612,0.235-1.236,0.247c-0.987-0.329-1.976-0.658-2.965-0.988
	c-0.474-0.318-0.576-1.123-0.988-1.482C929.012,110.693,929.065,111.681,928.666,110.512z M937.561,115.7
	c1.599,0.005,5.083,2.113,5.434,3.212c0.238,0.292,0.208,0.406,0.248,0.988c-0.082,0-0.165,0-0.248,0c0,0.083,0,0.165,0,0.247
	c-0.475-0.152-0.218-0.003-0.494-0.247c-1.112-0.269-4.481-2.096-4.693-3.211C937.568,116.397,937.6,116.282,937.561,115.7z
	 M942.747,122.865c0.465,0.292,0.601,0.65,0.989,0.988c-0.139,0.377-0.178,0.41-0.246,0.988c-1.176,0.865-1.061,2.229-2.966,2.471
	c-0.14-0.377-0.179-0.41-0.247-0.988c0.784-0.573,0.688-1.399,1.235-2.223C941.79,123.681,942.422,123.284,942.747,122.865z
	 M936.818,128.548c0.33,0,0.659,0,0.988,0c0.275,0.514,0.379,0.443,0.494,1.234c-0.57,0.434-0.664,1.319-1.235,1.729
	c-0.834,0.602-3.194,1.396-4.446,1.483c-0.236-0.441-0.329-0.4-0.495-0.989C933.459,131.824,936.221,129.526,936.818,128.548z
	 M929.653,132.995c0.81,0.22,0.869,0.312,0.988,1.234c-1.874,1.671-4.014,4.303-7.411,3.705c0-0.165,0-0.328,0-0.492
	c0.082,0,0.164,0,0.247,0c0.474-1.015,1.814-0.684,2.718-1.235C927.44,135.442,928.886,134.251,929.653,132.995z M921.007,137.935
	c-0.082,0.413-0.165,0.826-0.247,1.237c-1.922,1.056-4.153,2.626-6.918,2.717c-0.237-0.44-0.326-0.4-0.494-0.987
	c1.413-0.738,3.099-1.026,4.694-1.729C919.104,138.704,919.403,138.028,921.007,137.935z M910.136,140.653c0.247,0,0.495,0,0.743,0
	c0.299,0.558,0.427,0.553,0.493,1.482c-1.966,1.078-6.624,2.675-9.141,2.224c0-0.33,0-0.659,0-0.988
	c0.378-0.202,0.973-0.864,1.233-0.987c0.33,0,0.659,0,0.989,0C905.777,141.945,909.246,141.46,910.136,140.653z M768.325,141.394
	c0.411,0,0.822,0,1.233,0c0.197,0.355,0.444,0.729,0.742,0.99c0,0.081,0,0.163,0,0.246c-0.082,0-0.164,0-0.247,0
	c-0.177,0.595-0.083,0.434-0.495,0.741c-1.331,1.224-4.583,0.643-6.176,0.248c-0.164-0.248-0.329-0.494-0.493-0.742
	c0.624-0.338,0.865-0.485,1.975-0.493C765.72,141.741,767.511,142.072,768.325,141.394z M759.431,141.642
	c0.953,0.21,0.983,0.319,0.988,1.483c-0.623,0.209-0.37,0.276-0.988,0.494c-1.01,0.82-4.212,0.413-5.188,0
	c-0.083-0.166-0.165-0.329-0.247-0.494c0.806-0.491,0.991-0.747,2.471-0.741C757.191,141.855,758.762,142.196,759.431,141.642z
	 M775.489,141.642c1.229,0.128,3.207-0.579,3.459,1.235c-0.243,0.224-0.335,0.428-0.494,0.742c-1.955,0.306-5.476,1.322-6.177-0.989
	c0.165-0.083,0.329-0.165,0.495-0.246C773.383,141.863,774.826,142.148,775.489,141.642z M787.102,141.889
	c0.028,0.743,0.206,0.688,0,0.988c-0.801,1.175-5.228,2.541-5.436,0C783.941,142.758,784.786,141.731,787.102,141.889z
	 M813.784,141.642c0.534,0.078,0.466,0.02,0.74,0.247c0.254,0.312,0.234,0.612,0.246,1.236c-0.423,0.244-0.921,0.623-1.234,0.986
	c-1.317,0.083-2.636,0.165-3.953,0.248c-0.589-0.993-0.562-0.29-0.494-1.482C810.058,142.852,813.246,142.107,813.784,141.642z
	 M851.584,141.642c0.328,0,0.658,0,0.987,0c0.32,0.592,0.464,0.702,0.495,1.729c-0.588,0.258-1.262,0.823-1.729,0.988
	c-1.624,0.572-4.177-0.275-5.189-0.495c0-0.245,0-0.493,0-0.739c0.591-0.319,0.701-0.465,1.729-0.495
	C848.781,141.949,850.685,142.349,851.584,141.642z M793.03,141.889c1.443-0.069,3.254-0.247,3.705,0.741
	c0.121,0.102,0.401-0.067,0.248,0.247c-0.082,0-0.165,0-0.248,0c-0.082,0.248-0.165,0.494-0.247,0.742
	c-0.757,0.094-1.03,0.369-1.48,0.492c-0.451,0.125-0.935-0.239-0.989-0.247c-0.471-0.059-1.849,0.54-2.718,0.247
	c-0.286-0.094-0.496-0.378-0.989-0.492c-0.067-0.824-0.097-0.41,0-1.235C790.951,142.342,792.59,142.244,793.03,141.889z
	 M822.925,141.889c0.493,0.082,0.988,0.164,1.482,0.247c0.145,0.397,0.209,0.589,0.246,1.235c-0.423,0.244-0.921,0.624-1.235,0.988
	c-1.931-0.018-3.872-0.061-5.682-0.495c0-0.328,0-0.657,0-0.987c0.164,0,0.33,0,0.494,0
	C819.273,141.997,821.812,142.738,822.925,141.889z M734.23,142.136c0.33,0,0.658,0,0.987,0c0,0.165,0,0.329,0,0.494
	c0.254,0.312,0.235,0.611,0.248,1.234c-0.355,0.197-0.729,0.444-0.989,0.742c-1.925,0.067-3.644,0.385-5.188-0.247
	c-0.146-0.396-0.209-0.59-0.247-1.234c0.083,0,0.165,0,0.247,0c0-0.082,0-0.165,0-0.248
	C730.178,142.891,733.774,142.499,734.23,142.136z M803.901,142.136c1.274-0.002,1.766,0.279,2.716,0.494c0,0.247,0,0.495,0,0.741
	c-0.422,0.244-0.92,0.624-1.233,0.988c-1.73,0-3.459,0-5.189,0c-0.275-0.516-0.378-0.444-0.492-1.234
	c0.557-0.301,0.553-0.429,1.481-0.495C801.755,142.211,803.335,142.562,803.901,142.136z M741.395,142.384c0.249,0,0.496,0,0.741,0
	c0.471,0.658,0.812,0.424,0.988,1.48c-0.246,0.277-0.089,0.024-0.247,0.495c-0.463,0.17-0.966,0.242-1.729,0.247
	c-0.646,0.5-1.468-0.061-2.223-0.247c-0.366-0.771-0.321-0.302-0.248-1.234C739.291,143.018,740.92,142.771,741.395,142.384z
	 M749.795,142.384c0.494,0,0.988,0,1.482,0c0.139,0.375,0.18,0.409,0.248,0.987c-0.89,0.562-0.876,0.972-2.473,0.988
	c-0.487,0.393-1.837,0.274-2.717,0.247c-0.146-0.396-0.209-0.589-0.246-1.235c0.164,0,0.328,0,0.494,0
	C747.367,142.755,749.01,143.014,749.795,142.384z M829.595,142.384c1.086,0.213,2.491,0.216,3.954,0.493
	c0.156,0.426,0.228,0.775,0.246,1.482c-0.426,0.157-0.776,0.229-1.481,0.247c-0.662,0.549-5.047-0.243-5.437-0.742
	c0-0.164,0-0.328,0-0.493c0.497-0.355,0.319-0.416,1.236-0.494C828.428,142.637,829.283,142.629,829.595,142.384z M723.606,142.63
	c0.988,0,1.978,0,2.964,0c0,0.165,0,0.33,0,0.495c0.23,0.277,0.163,0.208,0.249,0.739c-1.44,0.863-2.388,1.355-4.695,1.484
	c-0.767-0.667-1.519-0.423-1.729-1.729c0.083,0,0.165,0,0.247,0c0-0.083,0-0.166,0-0.248
	C721.275,143.353,723.261,142.916,723.606,142.63z M857.019,142.63c1.972,0.112,3.77,0.004,6.176,0
	c0.301,0.557,0.429,0.553,0.495,1.481c-0.441,0.237-0.4,0.329-0.988,0.495c-1.705,1.429-5.123,0.224-7.165-0.247
	c-0.235-0.441-0.327-0.4-0.493-0.988C855.424,143.183,856.637,142.938,857.019,142.63z M899.513,142.63
	c0.998,0.144,1.567,0.135,1.729,1.234c-0.672,0.408-0.609,0.658-1.729,0.742c-0.875,0.709-4.343,0.943-5.435,0.742
	c0-0.247,0-0.495,0-0.742c0.208-0.16,0.3-0.635,0.493-0.742c0.412,0,0.823,0,1.235,0
	C896.494,143.633,899.002,143.059,899.513,142.63z M715.701,142.877c0.74,0,1.482,0,2.224,0c0.146,0.397,0.209,0.59,0.246,1.234
	c-0.468,0.313-0.393,0.509-0.987,0.742c-1.161,1.072-3.685,0.536-4.941,0.248c-0.276-0.516-0.38-0.444-0.494-1.237
	c0.623-0.335,0.866-0.484,1.977-0.493C714.14,143.064,715.289,143.191,715.701,142.877z M707.795,143.125c0.493,0,0.989,0,1.482,0
	c0.146,0.396,0.21,0.588,0.247,1.234c-0.493,0.412-0.988,0.824-1.483,1.235c-1.609,0.042-2.977,0.282-4.446,0
	c-0.235-0.441-0.328-0.4-0.493-0.988c0.246-0.082,0.493-0.164,0.74-0.247C704.781,143.569,706.842,143.917,707.795,143.125z
	 M839.972,143.125c0.987,0,1.976,0,2.966,0c0.138,0.376,0.177,0.41,0.246,0.986c-2.008,1.183-1.797,1.014-4.447,0.99
	c-0.816-0.009-0.756,0.301-1.236,0c-0.81-0.221-0.868-0.312-0.987-1.237c0.165,0,0.329,0,0.494,0
	C837.656,143.238,839.228,143.682,839.972,143.125z M872.583,143.371c-0.013,0.823-0.124,1.119-0.247,1.73
	c-0.939,0.253-1.733,0.498-3.211,0.493c-0.767,0.624-1.942-0.055-2.719-0.246c-0.275-0.516-0.378-0.444-0.494-1.237
	c0.729-0.392,1.415-0.511,2.718-0.492C868.97,143.45,871.313,143.356,872.583,143.371z M879.748,143.371
	c0.461,0.098,0.987,0.018,1.978,0c0.317,0.592,0.462,0.7,0.492,1.73c-0.245,0.082-0.492,0.164-0.74,0.247
	c-1.361,1.166-5.479,0.355-6.918,0c-0.083-0.247-0.164-0.495-0.247-0.742c0.471-0.243,1.252-0.828,1.73-0.987
	C877.201,143.229,878.918,144.007,879.748,143.371z M889.136,143.619c0.824,0,1.647,0,2.472,0c0.139,0.376,0.178,0.409,0.246,0.987
	c-0.246,0.275-0.088,0.024-0.246,0.495c-1.917,1.071-5.434,1.168-7.412,0.741c-0.139-0.378-0.178-0.411-0.246-0.989
	c1.312-0.79,2.225-0.774,4.445-0.742C888.599,143.915,888.935,143.816,889.136,143.619z M698.9,143.864c0.495,0,0.988,0,1.483,0
	c0.21,0.314,0.185,0.283,0.494,0.495c-0.284,0.65-0.54,1.213-1.237,1.483c-1.068,0.972-4.797,0.658-5.681,0.492
	c-0.14-0.375-0.179-0.409-0.248-0.986c0.083,0,0.165,0,0.248,0c0-0.083,0-0.165,0-0.247
	C695.345,145.068,698.141,144.672,698.9,143.864z M688.771,144.606c0.493,0,0.988,0,1.482,0c0.151,0.475,0.002,0.218,0.247,0.495
	c-0.095,0.511-0.208,0.926-0.495,1.233c-0.843,0.916-5.665,1.547-6.423,0.495c0-0.247,0-0.495,0-0.742
	c0.623-0.336,0.867-0.483,1.977-0.493C686.392,144.978,687.976,145.248,688.771,144.606z M679.384,144.854c0.411,0,0.823,0,1.234,0
	c0.21,0.313,0.186,0.282,0.494,0.495c-0.151,0.475-0.002,0.218-0.246,0.494c-0.488,1.445-4.329,2.009-6.424,1.976
	c-0.337-0.803-0.337-0.604-0.247-1.483C675.538,146.114,678.57,145.604,679.384,144.854z M118.312,145.595
	c0.083,0.575,0.165,1.153,0.247,1.729c-1.778,0.412-2.868,0.973-5.436,0.988c0.05-0.969,0.098-0.652,0-1.482
	c0.852-0.21,1.107-0.738,1.73-0.987C116.118,145.335,117.127,145.491,118.312,145.595z M123.007,145.349
	c1.258-0.049,2.58-0.089,3.212,0.494c0.238,0.291,0.207,0.406,0.247,0.987c-2.052,1.253-3.083,1.579-6.176,1.235
	c-0.122-0.549-0.171-0.681-0.494-0.988c0.216-0.274-0.025-0.028,0.247-0.247C120.87,145.586,122.004,146.165,123.007,145.349z
	 M156.606,145.349c0.659,0.081,1.318,0.163,1.977,0.246c0,0.165,0,0.329,0,0.493c0.238,0.292,0.207,0.407,0.248,0.989
	c-0.248,0.084-0.494,0.165-0.741,0.247c-0.952,0.855-5.212,1.032-6.67,0.741c0-0.247,0-0.495,0-0.741
	c0.634-0.359,1.216-0.984,1.976-1.236C154.553,145.705,155.784,146.019,156.606,145.349z M670.983,145.843
	c0.938,0.251,0.992,0.541,0.988,1.728c-1.747,0.935-4.377,1.228-6.67,0.988c-0.152-0.474-0.002-0.217-0.248-0.493
	c0-0.164,0-0.33,0-0.495c0.644-0.159,0.774-0.569,1.235-0.74C667.808,146.268,669.885,146.78,670.983,145.843z M166.983,146.583
	c0.576,0,1.153,0,1.729,0c0.276,0.515,0.38,0.443,0.496,1.235c-0.551,0.249-1.108,0.561-1.483,0.988
	c-1.318-0.231-1.169-0.05-2.224,0.247c-1.235-0.082-2.471-0.165-3.706-0.247c-0.367-0.609-0.599-0.551-0.741-1.482
	c0.083,0,0.165,0,0.247,0c0-0.082,0-0.163,0-0.247C162.44,147.006,166.176,147.216,166.983,146.583z M177.607,146.583
	c0.905,0,1.812,0,2.717,0c0.146,0.397,0.209,0.59,0.248,1.235c-1.127,0.899-7.917,3.202-8.4,0c0.165,0,0.329,0,0.494,0
	C173.711,146.824,176.497,147.501,177.607,146.583z M660.606,146.583c0.577,0,1.154,0,1.729,0c0,0.165,0,0.33,0,0.494
	c0.239,0.292,0.208,0.406,0.247,0.988c-0.929,0.541-1.135,0.967-2.718,0.988c-0.769,0.722-2.396,0.477-3.459,0.248
	c-0.236-0.442-0.326-0.401-0.493-0.989c0.247-0.083,0.493-0.165,0.74-0.247C657.648,147.232,659.648,147.45,660.606,146.583z
	 M188.23,147.077c1.132-0.018,2.149,0.086,2.965,0.247c0,0.411,0,0.823,0,1.234c-1.384,0.673-7.302,2.486-8.152,0.495
	c-0.23-0.277-0.163-0.209-0.247-0.741c0.082,0,0.165,0,0.247,0c0-0.083,0-0.165,0-0.247
	C184.156,147.986,187.589,147.627,188.23,147.077z M200.583,147.57c0,0.248,0,0.495,0,0.742c-0.44,0.236-0.4,0.327-0.988,0.494
	c-0.908,0.819-4.382,0.995-5.682,0.741c-0.3-0.558-0.429-0.553-0.495-1.482c0.083,0,0.165,0,0.248,0c0-0.083,0-0.164,0-0.247
	c1.339-0.078,2.642-0.474,3.706-0.741C198.788,146.72,199.385,147.489,200.583,147.57z M651.466,147.324c0.494,0,0.987,0,1.482,0
	c0.156,0.426,0.229,0.777,0.247,1.482c-0.918,0.525-4.888,2.334-5.929,1.729c-1.219-0.134-1.088-0.348-0.989-1.233
	C647.529,148.841,650.666,148.165,651.466,147.324z M207.007,147.57c1.068-0.015,1.954,0.096,2.718,0.248
	c0.139,0.377,0.178,0.41,0.247,0.988c-0.423,0.245-0.92,0.625-1.235,0.987c-1.952,0.095-4.079,0.41-5.682-0.246
	c-0.154-0.315-0.254-0.519-0.495-0.741c0-0.165,0-0.331,0-0.494c0.082,0,0.165,0,0.247,0c0-0.083,0-0.165,0-0.247
	C203.653,148.044,206.396,148.055,207.007,147.57z M217.383,148.065c0.494,0.082,0.988,0.164,1.482,0.247c0,0.082,0,0.163,0,0.246
	c-0.216,0.236-0.359,0.677-0.494,0.989c-1.876,0.812-3.612,1.446-5.929,0.493c-0.154-0.316-0.254-0.519-0.495-0.739
	c0-0.166,0-0.33,0-0.495C213.139,148.214,216.635,148.633,217.383,148.065z M225.536,148.312c1.069-0.015,1.955,0.095,2.718,0.246
	c0,0.413,0,0.825,0,1.235c-0.355,0.196-0.728,0.444-0.988,0.741c-1.782,0.062-3.407,0.062-5.188,0
	c-0.516-0.764-0.619-0.196-0.741-1.481c0.165,0,0.33,0,0.495,0C222.612,148.3,224.641,148.982,225.536,148.312z M641.583,148.312
	c0.494,0.082,0.988,0.163,1.482,0.246c0.14,0.377,0.179,0.411,0.246,0.989c-0.47,0.312-0.393,0.507-0.987,0.74
	c-1.162,0.977-3.812,0.769-5.929,0.742c-0.248-0.33-0.495-0.659-0.742-0.989c0.692-0.372,1.227-0.506,2.471-0.493
	C638.963,148.837,640.758,149.048,641.583,148.312z M631.947,148.559c0.883,0.195,0.922,0.195,0.99,1.235
	c-0.248,0.276-0.09,0.024-0.248,0.494c-0.883,0.137-1.087,0.521-1.73,0.742c-1.659,0.572-4.269,0.461-5.436,0
	c-0.082-0.246-0.164-0.495-0.246-0.742c0.246-0.082,0.494-0.164,0.741-0.247C627.385,148.9,630.594,149.695,631.947,148.559z
	 M237.396,149.054c0,0.33,0,0.658,0,0.987c-2.409,1.48-3.94,1.76-7.165,0.989c-0.146-0.396-0.209-0.589-0.247-1.236
	c0.591-0.317,0.7-0.463,1.729-0.492C232.63,148.58,236.213,148.91,237.396,149.054z M243.571,149.054
	c0.659,0.082,1.318,0.165,1.977,0.248c0.145,0.396,0.209,0.588,0.247,1.233c-0.44,0.237-0.4,0.328-0.988,0.495
	c-1.212,1.114-3.814,0.562-5.188,0.247c-0.275-0.515-0.379-0.443-0.494-1.236c0.082,0,0.165,0,0.247,0c0-0.082,0-0.164,0-0.247
	C240.632,149.817,242.822,149.679,243.571,149.054z M621.571,149.302c0.412,0.246,0.824,0.492,1.235,0.739
	c-0.151,0.476-0.003,0.219-0.247,0.494c-0.704,1.713-5.533,1.881-7.659,1.729c-0.246-0.328-0.492-0.658-0.74-0.987
	c0.591-0.32,0.699-0.464,1.729-0.493c0.545-0.391,1.421,0.02,2.224-0.249l0.492-0.494
	C619.777,149.633,620.791,150.002,621.571,149.302z M248.513,149.548c2.508-0.029,4.328-0.106,6.177,0.246c0,0.247,0,0.494,0,0.741
	c-0.451,0.38-0.29,0.516-0.988,0.742c-1.122,0.978-4.512,0.495-5.683,0c-0.146-0.398-0.209-0.589-0.247-1.236
	C248.368,149.865,248.205,149.958,248.513,149.548z M260.372,149.794c0.559,0.086,2.29,0.154,2.717,0.494
	c-0.346,0.419-0.293,0.893-0.741,1.237c-1.148,1.055-3.929,0.512-5.188,0.246c-0.083-0.412-0.166-0.824-0.248-1.236
	c0.082,0,0.165,0,0.248,0c0-0.082,0-0.164,0-0.247C257.836,150.242,259.882,150.186,260.372,149.794z M609.96,150.288
	c0.945-0.008,1.548,0.113,2.224,0.247c0,0.165,0,0.33,0,0.495c-1.762,1.818-4.316,2.004-7.907,1.977
	c-0.082-0.248-0.163-0.495-0.245-0.742c0.082,0,0.163,0,0.245,0c0-0.082,0-0.166,0-0.246
	C605.566,151.925,609.242,150.957,609.96,150.288z M265.065,150.535c1.972-0.032,3.517,0.193,4.941,0.495
	c0.139,0.377,0.178,0.41,0.247,0.988c-0.247,0.08-0.495,0.164-0.741,0.246c-0.871,0.911-2.906,0.36-4.2,0.247
	C264.595,151.383,264.384,151.85,265.065,150.535z M599.584,150.784c0.412,0,0.822,0,1.233,0c0.147,0.396,0.211,0.588,0.248,1.234
	c-0.248,0.08-0.494,0.164-0.74,0.246c-0.492,0.424-1.317,0.485-2.225,0.494c-0.138-0.376-0.179-0.41-0.246-0.987
	C598.313,151.529,599.189,151.15,599.584,150.784z M318.677,154.488c2.082-0.139,3.036-0.94,5.436-0.493
	c0.139,0.377,0.178,0.41,0.247,0.988c-0.356,0.196-0.728,0.444-0.989,0.74c-1.645,0.126-3.104,0.307-4.447-0.246
	C318.785,155.1,318.746,155.067,318.677,154.488z M335.478,155.724c-1.027,0.174-1.082,0.719-1.73,0.989
	c-1.616,0.672-5.631-0.737-6.67-0.989c-0.145-0.397-0.209-0.588-0.247-1.235c0.083,0,0.164,0,0.247,0c0-0.082,0-0.164,0-0.246
	c1.235,0,2.471,0,3.706,0c0.364-0.114,1.749-1.015,2.717-0.494c0,0.164,0,0.329,0,0.494c0.247,0,0.495,0,0.742,0l0.494,0.493
	c0.164,0,0.329,0,0.494,0c0-0.165,0-0.329,0-0.493c1.564-0.694,6.167,0.534,7.165,0.741c0.276,0.515,0.379,0.443,0.494,1.233
	c-2.048,1.231-2.757,1.729-6.177,1.731C336.197,157.122,335.642,156.989,335.478,155.724z M541.276,153.995
	c1.077,0.104,1.19,0.659,1.483,0.74c1.013,0.276,1.37-1.597,2.717,0.742c1.021-0.515,1.13-1.29,2.472-1.482
	c0.319,0.59,0.462,0.7,0.495,1.729c-0.248,0.083-0.495,0.165-0.743,0.247c-1.383,1.213-2.469-0.685-4.199,0
	c-0.127,0.05-0.985,0.902-1.234,0.988c-1.425,0.493-4.346,0.26-5.684,0c-0.146-0.396-0.21-0.589-0.247-1.235
	C537.464,155.246,540.518,154.779,541.276,153.995z M552.89,153.995c0.977,0.083,0.864,0.134,1.729,0c0,0.082,0,0.163,0,0.247
	c-0.082,0-0.164,0-0.247,0c0.104,0.55,0.289,0.27,0,0.741c-0.774,0.724-2.172,0.7-3.213,0.494c0-0.247,0-0.494,0-0.742
	c0.164,0,0.33,0,0.495,0C551.982,154.402,552.545,154.312,552.89,153.995z M83.725,155.971c0.247,0.276,0.09,0.024,0.248,0.494
	c-0.083,0-0.165,0-0.248,0C83.725,156.3,83.725,156.136,83.725,155.971z M635.16,158.194c0.411,0,0.822,0,1.235,0
	c0,0.164,0,0.329,0,0.494c0.546,0.662,0.159,2.249,0,2.966c-0.798,0.488-0.907,0.902-2.224,0.987
	c-0.083-0.248-0.165-0.494-0.248-0.742c0.104-0.135,0.682-3.191,0.742-3.459C635.141,158.29,634.883,158.438,635.16,158.194z
	 M235.666,159.678c1.655,0.252,0.994,1.134,1.73,2.222c0.71,1.054,1.839,0.742,1.976,2.718c0.131,0.439,0.032,0.331-0.247,0.99
	C237.22,165.241,234.928,161.744,235.666,159.678z M632.689,163.136c0.248,0,0.493,0,0.741,0c0,0.164,0,0.33,0,0.495
	c0.759,1.014-0.58,2.313-0.988,2.963c-0.165,0.495-0.33,0.989-0.495,1.482c-0.759,1.099-2.608,2.054-4.693,1.979
	c-0.146-0.398-0.211-0.59-0.248-1.236c1.8-1.069,2.284-2.067,3.46-3.706C631.206,164.453,631.947,163.796,632.689,163.136z
	 M241.595,166.841c2.581-0.042,4.716,0.308,6.67,0.742c0.3,0.558,0.428,0.554,0.494,1.481c-0.247,0.083-0.494,0.165-0.741,0.248
	c-1.146,0.907-5.198-0.146-6.423-0.248C240.958,167.945,240.992,167.955,241.595,166.841z M624.29,168.076
	c0.84,0.144,1.224,0.202,1.481,0.988c0.229,0.278,0.162,0.21,0.247,0.743c-0.436,0.312-0.788,1-1.236,1.233
	c-0.658,0.083-1.318,0.166-1.976,0.248c-1.759,0.535-4.563,1.527-4.941-0.989c0.248-0.082,0.495-0.164,0.74-0.245
	C620.009,168.961,622.924,169.341,624.29,168.076z M252.466,169.064c0.966-0.031,2.66-0.19,3.211,0.248
	c0.782,0.224,0.888,0.617,1.483,0.987c-0.166,0.33-0.33,0.659-0.494,0.989c-1.739,0.224-3.897,0.93-5.189-0.248
	c-0.254-0.312-0.235-0.61-0.247-1.233C251.673,169.614,252.157,169.399,252.466,169.064z M614.654,169.064c0.41,0,0.822,0,1.235,0
	c0.394,0.696,0.669,0.843,0.74,1.977c-1.755,1.128-4.522,2.29-7.164,2.472c-0.417-0.443-0.718-0.333-0.988-0.988
	c-0.254-0.312-0.234-0.612-0.246-1.235c0.081,0,0.163,0,0.246,0c0-0.082,0-0.165,0-0.248
	C610.273,171.088,613.832,169.94,614.654,169.064z M264.818,170.548c0,0.411,0,0.824,0,1.235c-0.164,0.082-0.329,0.165-0.494,0.248
	c-0.889,0.795-3.044,0.762-4.694,0.739c-0.3-0.558-0.428-0.552-0.494-1.481c0.247-0.082,0.494-0.165,0.742-0.248
	C260.942,170.068,263.269,170.358,264.818,170.548z M270.007,170.3c1.827-0.077,3.494,0.126,3.706,1.731
	c-0.356,0.195-0.728,0.443-0.988,0.739c-2.313,0.015-4.295,0.357-6.177,0c-0.145-0.396-0.209-0.588-0.247-1.234
	c0.391-0.283,0.18-0.285,0.742-0.495C267.7,170.483,269.292,170.842,270.007,170.3z M597.607,170.548c0.247,0,0.493,0,0.74,0
	c0.196,0.355,0.443,0.728,0.742,0.988c-0.165,0.495-0.331,0.988-0.496,1.481c-2.146,0.938-3.151,1.645-5.929,1.729
	c-0.384-1.091-0.593-0.757-0.494-1.977C593.227,172.556,596.918,171.198,597.607,170.548z M605.019,170.548
	c0.461,0.098,0.987,0.017,1.976,0c0.302,0.559,0.429,0.554,0.495,1.483c-0.248,0.275-0.09,0.023-0.248,0.493
	c-1.14,0.633-1.753,0.999-3.705,0.988c-0.528,0.389-1.403,0.135-2.471,0c-0.425-0.65-0.796-0.535-0.988-1.481
	c0.247-0.278,0.09-0.025,0.248-0.495C601.386,171.19,604.275,171.137,605.019,170.548z M588.465,172.277c0.495,0,0.989,0,1.483,0
	c0,0.164,0,0.329,0,0.493c0.255,0.312,0.234,0.613,0.247,1.235c-1.889,1.029-3.881,2.398-6.425,2.718
	c-0.598-0.609-1.178-0.5-1.481-1.482C584.198,174.297,587.084,173.787,588.465,172.277z M275.195,172.524
	c2.331-0.005,3.724,0.673,5.929,0.74c0.484,0.769,0.891,0.712,0.989,1.977c-0.85,0.455-1.982,0.517-3.459,0.495
	c-1.402-0.973-3.484,0.201-3.705-2.224C274.639,172.976,274.914,173.083,275.195,172.524z M352.278,172.771c0.329,0,0.659,0,0.988,0
	c0.46,0.642,0.957,0.594,1.235,1.482c-1.02,0.136-1.753,0.409-2.471-0.247C351.608,173.406,351.993,173.305,352.278,172.771z
	 M348.819,173.513c0.412,0.083,0.823,0.165,1.234,0.247c0,0.33,0,0.658,0,0.987c-1.203,0.626-3.528,1.232-4.446,2.224
	c-0.788-0.147-1.355-0.451-1.977-0.739c0.083-0.248,0.165-0.495,0.247-0.742c0.437-0.247,0.795-0.814,1.235-0.988
	c0.413,0,0.824,0,1.236,0C346.736,174.372,348.511,173.772,348.819,173.513z M529.172,173.76c1.141,0.103,2.968,0.032,4.199,0.741
	c0.343,0.196,0.592,0.738,0.988,0.988c0,0.165,0,0.329,0,0.494c-0.767,0.412-1.602,0.515-2.964,0.493
	c-1.095-0.898-2.695-0.426-2.965-2.224C528.746,174.1,528.949,173.999,529.172,173.76z M578.83,174.747c0.413,0,0.823,0,1.234,0
	c0.157,0.425,0.23,0.776,0.247,1.484c-0.31,0.188-0.491,0.596-0.74,0.739c-0.447,0.259-1.033,0.222-1.482,0.494
	c-0.083,0.165-0.164,0.33-0.247,0.495c-0.253,0.11-4.271,0.798-4.446,0.74c-0.585-0.191-1.049-0.869-1.484-1.235
	c0-0.164,0-0.329,0-0.494c0.249-0.082,0.496-0.165,0.743-0.247C574.154,175.609,577.524,176.136,578.83,174.747z M285.324,175.489
	c1.623-0.059,7.229,0.103,7.659,0.987c0,0.412,0,0.824,0,1.236c-0.247,0.082-0.494,0.164-0.741,0.247
	c-1.161,0.938-6.51-0.356-7.412-0.742c-0.146-0.396-0.209-0.589-0.247-1.234C284.899,175.829,285.103,175.729,285.324,175.489z
	 M339.925,175.736c0.411,0,0.823,0,1.235,0c0,0.082,0,0.165,0,0.247c0.082,0,0.165,0,0.248,0c-0.083,0.493-0.166,0.987-0.248,1.481
	c-1.691,0.965-2.658,2.614-5.188,2.718c-0.517-0.764-0.62-0.196-0.742-1.482C336.785,177.896,338.7,176.924,339.925,175.736z
	 M569.442,175.736c0.704,0.161,0.731,0.11,0.987,0.74c0.238,0.292,0.208,0.407,0.248,0.988c-2.417,1.454-4.484,2.866-7.66,2.225
	c-0.08-0.413-0.162-0.825-0.245-1.235c0.432-0.244,0.797-0.824,1.234-0.989c0.576,0,1.154,0,1.729,0
	C566.168,177.312,569.144,176.012,569.442,175.736z M536.09,176.971c2.171-0.021,4.066-0.054,5.682,0.247
	c0.319,0.591,0.463,0.701,0.495,1.729c-1.284,0.347-2.05,0.504-3.953,0.495c-0.501-0.457-1.487-0.815-2.224-0.987
	C536.014,177.565,535.9,177.628,536.09,176.971z M559.065,176.971c1.259,0.205,1.734,0.444,1.73,1.976
	c-1.795,0.948-4.062,1.671-6.672,1.731c-0.299-0.559-0.428-0.555-0.494-1.483c0.851-0.443,2.062-1.104,2.966-1.481
	C557.48,177.343,558.435,177.543,559.065,176.971z M303.36,179.194c-2.312,0.237-4.969,0.484-7.906,0.495
	c-0.258-0.524-0.559-0.896-0.989-1.235c0-0.164,0-0.33,0-0.494c0.692-0.375,1.227-0.509,2.471-0.495
	c0.309-0.185,4.662-0.26,5.929-0.247C303.203,177.841,303.352,178.084,303.36,179.194z M548.443,177.713
	c1.067-0.017,1.953,0.094,2.716,0.247c0.057,1.015,0.065,0.712,0,1.729c-0.623,0.336-0.866,0.484-1.977,0.493
	c-0.706,0.551-3.7,0.532-4.446,0.495c-0.309-0.52-0.537-0.553-0.741-1.236c0.082,0,0.165,0,0.247,0
	c0.177-0.595,0.084-0.434,0.494-0.741C545.569,178.001,547.624,178.433,548.443,177.713z M311.266,178.207c0.741,0,1.482,0,2.224,0
	c0.082,0.247,0.164,0.493,0.247,0.739c0.229,0.278,0.162,0.21,0.247,0.743c-2.225,1.341-5.407,1.575-8.153,0.988
	c-0.245-0.549-0.396-0.699-0.494-1.483c0.768-0.413,1.602-0.515,2.964-0.494C308.926,178.243,310.646,178.673,311.266,178.207z
	 M330.289,178.454c0.703-0.02,1.37-0.045,1.729,0.246c0.594,0.157,0.548,0.255,0.989,0.494c0,0.082,0,0.165,0,0.247
	c-0.082,0-0.164,0-0.247,0c-0.747,1.315-6.708,3.907-7.165,0.741c0.518-0.271,1.144-0.801,1.729-0.988
	C328.591,178.789,329.477,179.194,330.289,178.454z M319.913,178.7c1.405,0.02,1.474,0.012,2.964,0
	c0.301,0.558,0.429,0.553,0.494,1.482c-0.242,0.224-0.334,0.427-0.494,0.741c-2.325,0.053-4.323,0.927-6.67,0.494
	c-0.276-0.514-0.379-0.442-0.495-1.235c0.833-0.525,0.779-0.938,2.224-0.988C318.351,178.889,319.502,179.015,319.913,178.7z"/>
</svg>
